<svg width="60" height="60" viewBox="0 0 60 60" fill="none" xmlns="http://www.w3.org/2000/svg">
<g clip-path="url(#clip0_433_631)">
<path d="M23.0696 22.8699H32.1287C32.3619 22.8699 32.5855 22.7772 32.7504 22.6124C32.9153 22.4475 33.0079 22.2239 33.0079 21.9907C33.0079 21.7576 32.9153 21.5339 32.7504 21.3691C32.5855 21.2042 32.3619 21.1116 32.1287 21.1116H23.0696C22.8364 21.1116 22.6128 21.2042 22.4479 21.3691C22.2831 21.5339 22.1904 21.7576 22.1904 21.9907C22.1904 22.2239 22.2831 22.4475 22.4479 22.6124C22.6128 22.7772 22.8364 22.8699 23.0696 22.8699ZM23.0696 30.2244H32.1287C32.3619 30.2244 32.5855 30.1318 32.7504 29.9669C32.9153 29.8021 33.0079 29.5784 33.0079 29.3453C33.0079 29.1121 32.9153 28.8885 32.7504 28.7236C32.5855 28.5588 32.3619 28.4661 32.1287 28.4661H23.0696C22.8364 28.4661 22.6128 28.5588 22.4479 28.7236C22.2831 28.8885 22.1904 29.1121 22.1904 29.3453C22.1904 29.5784 22.2831 29.8021 22.4479 29.9669C22.6128 30.1318 22.8364 30.2244 23.0696 30.2244ZM33.008 36.6999C33.008 36.4667 32.9154 36.2431 32.7505 36.0782C32.5856 35.9133 32.362 35.8207 32.1289 35.8207H23.0697C22.8365 35.8207 22.6129 35.9133 22.448 36.0782C22.2832 36.2431 22.1905 36.4667 22.1905 36.6999C22.1905 36.933 22.2832 37.1566 22.448 37.3215C22.6129 37.4864 22.8365 37.579 23.0697 37.579H32.1289C32.362 37.579 32.5856 37.4864 32.7505 37.3215C32.9154 37.1566 33.008 36.933 33.008 36.6999Z" fill="#F84923"/>
<path d="M52.9565 14.3705C52.3625 13.9216 51.5299 14.1749 50.871 14.4455C48.6427 15.3608 44.6576 18.2863 42.3201 22.1148H38.227V16.5525C38.227 15.7264 37.5549 15.0542 36.7289 15.0542H35.0778V11.7364C35.0778 10.9104 34.4057 10.2382 33.5797 10.2382H28.4789V8.10397C28.4789 7.87081 28.3862 7.6472 28.2214 7.48233C28.0565 7.31746 27.8329 7.22483 27.5997 7.22483C27.3666 7.22483 27.1429 7.31746 26.9781 7.48233C26.8132 7.6472 26.7206 7.87081 26.7206 8.10397V10.2382H21.6195C20.7935 10.2382 20.1213 10.9103 20.1213 11.7364V15.0544H18.4707C17.6446 15.0544 16.9725 15.7264 16.9725 16.5526V22.1151H9.09323C8.19886 22.1151 7.47124 22.8428 7.47124 23.7371V25.8873C7.47124 26.1205 7.56386 26.3441 7.72873 26.5089C7.89361 26.6738 8.11722 26.7664 8.35038 26.7664C8.58354 26.7664 8.80716 26.6738 8.97203 26.5089C9.1369 26.3441 9.22952 26.1205 9.22952 25.8873V23.8735H16.9726V41.8774H9.22952V29.9903C9.22952 29.7571 9.1369 29.5335 8.97203 29.3686C8.80716 29.2037 8.58354 29.1111 8.35038 29.1111C8.11722 29.1111 7.89361 29.2037 7.72873 29.3686C7.56386 29.5335 7.47124 29.7571 7.47124 29.9903V41.8774H5.33104C4.50487 41.8774 3.75628 42.3001 3.32866 43.0082C2.90339 43.7122 2.87749 44.5662 3.25929 45.2924C8.03022 54.3644 17.3566 60.0001 27.599 60.0001C33.3235 60.0001 38.8101 58.2576 43.4656 54.9609C43.5598 54.8942 43.64 54.8096 43.7015 54.7119C43.7631 54.6142 43.8047 54.5053 43.8242 54.3915C43.8436 54.2777 43.8405 54.1612 43.8149 54.0486C43.7893 53.936 43.7418 53.8296 43.675 53.7354C43.6083 53.6411 43.5237 53.5609 43.426 53.4994C43.3283 53.4379 43.2194 53.3962 43.1056 53.3767C42.9918 53.3573 42.8752 53.3605 42.7626 53.3861C42.65 53.4117 42.5436 53.4592 42.4494 53.526C40.0664 55.2135 37.45 56.4646 34.692 57.2529C36.7386 55.571 38.5584 53.1685 40.0249 50.1928H46.2897C46.0336 50.4637 45.7718 50.729 45.5043 50.9886C45.3397 51.1516 45.2461 51.3729 45.2437 51.6045C45.2413 51.8361 45.3304 52.0592 45.4917 52.2255C45.6529 52.3918 45.8732 52.4878 46.1047 52.4925C46.3363 52.4973 46.5604 52.4106 46.7284 52.2511C48.8289 50.2146 50.5823 47.8733 51.9397 45.2923C52.3216 44.566 52.2957 43.7122 51.8704 43.008C51.4428 42.3 50.6941 41.8773 49.8679 41.8773H47.7281V36.2544C47.9527 36.2733 48.1779 36.2829 48.4033 36.2833C49.2662 36.2834 50.1238 36.1497 50.9457 35.887C54.6441 34.7021 57.0619 31.8094 57.7536 27.7418C58.6048 22.7362 56.5873 17.1129 52.9565 14.3705ZM41.4005 23.8733C41.0012 24.7901 40.7101 25.744 40.5678 26.7231C40.2447 28.9433 40.6441 31.0264 41.6921 32.6927C40.6625 33.369 39.5123 33.9384 38.227 34.4089V23.8733H41.4005ZM43.4832 33.583C46.6823 31.0636 48.678 27.6872 49.9782 23.7746C50.1114 23.3735 50.5464 23.1557 50.9475 23.2888C51.1403 23.3531 51.2997 23.4913 51.3908 23.673C51.4819 23.8547 51.4972 24.0651 51.4333 24.258C50.1945 27.9858 48.5308 30.8807 46.3471 33.1082C44.2511 35.2464 41.6501 36.7912 38.3955 37.831C37.9858 37.9624 37.5583 37.7296 37.432 37.3341C37.3696 37.1391 37.387 36.9314 37.4809 36.7494C37.5747 36.5674 37.7337 36.4328 37.9289 36.3705C39.796 35.7741 41.9491 34.7912 43.4832 33.583ZM26.7199 58.1931C24.1889 57.9176 21.7439 56.4423 19.6094 53.8903C18.708 52.8126 17.8844 51.5714 17.1481 50.1929H26.7199V58.1931ZM16.2916 48.4345C15.6325 46.9543 15.0652 45.3475 14.6006 43.6357H26.7199V48.4345H16.2916ZM28.4783 43.6358H40.5986C40.134 45.3475 39.5667 46.9544 38.9076 48.4346H28.4783V43.6358ZM21.8798 11.9966H33.3194V15.0544H21.8798V11.9966ZM18.7311 16.8128H36.4686V35.2301C36.2437 35.4329 36.0572 35.6747 35.918 35.9437C35.7652 36.2382 35.6722 36.56 35.6446 36.8905C35.617 37.2211 35.6552 37.5539 35.757 37.8696C35.8929 38.2929 36.1384 38.6727 36.4686 38.9705V41.8775H18.7311V16.8128ZM4.83382 43.9172C4.88491 43.8326 5.03573 43.6357 5.33116 43.6357H12.7803C13.222 45.3439 13.7585 46.9485 14.3771 48.4345H7.38312C6.40874 47.1951 5.5494 45.8694 4.81577 44.4739C4.68206 44.2198 4.78378 43.9999 4.83382 43.9172ZM8.89765 50.1929H15.1742C16.6399 53.167 18.4585 55.5685 20.5038 57.2503C16.0709 55.9842 12.0614 53.5461 8.89765 50.1929ZM28.4783 58.1932V50.1929H38.0511C36.0223 53.9914 32.7612 57.7275 28.4783 58.1932ZM50.3653 43.9172C50.4152 43.9999 50.517 44.2198 50.3833 44.4739C49.6488 45.8703 48.7874 47.196 47.81 48.4345H40.8221C41.4407 46.9486 41.9772 45.3439 42.4189 43.6357H49.868C50.1635 43.6358 50.3143 43.8326 50.3653 43.9172ZM45.9698 41.8774H38.227V39.6239C38.466 39.6183 38.703 39.5786 38.9308 39.5061C41.632 38.643 43.9246 37.451 45.8833 35.8894C45.9121 35.8986 45.941 35.9075 45.9698 35.9164V41.8774ZM56.0201 27.4469C55.6865 29.4092 54.5139 32.8974 50.4097 34.2123C49.4647 34.514 48.4638 34.5983 47.4816 34.4589C47.5217 34.4187 47.563 34.3798 47.6028 34.3392C49.9781 31.9162 51.7769 28.8001 53.1019 24.8126C53.5409 23.4913 52.8232 22.0591 51.5017 21.62C50.1805 21.1815 48.7484 21.8992 48.3096 23.2201C47.2324 26.4615 45.8216 28.9423 43.9965 30.804C43.712 31.0934 43.4149 31.37 43.1059 31.633C42.338 30.3399 42.0541 28.7196 42.3078 26.9762C42.8143 23.4916 45.5208 20.5621 47.0892 19.1258C49.413 16.9977 51.4416 16.0176 52.0564 15.8975C55.0434 18.2787 56.7426 23.1982 56.0201 27.4469ZM4.10878 33.13C4.21983 33.0984 4.32357 33.0452 4.41408 32.9736C4.5046 32.9019 4.5801 32.8131 4.6363 32.7122C4.69249 32.6114 4.72827 32.5004 4.74159 32.3858C4.75491 32.2711 4.74552 32.1549 4.71394 32.0439C4.65222 31.8265 4.59358 31.6083 4.53804 31.3892C4.47862 31.1655 4.33338 30.9743 4.13385 30.857C3.93431 30.7397 3.69656 30.7058 3.4722 30.7627C3.24783 30.8195 3.05494 30.9626 2.93537 31.1608C2.81581 31.359 2.77922 31.5963 2.83355 31.8213C2.89331 32.0571 2.95694 32.2938 3.02257 32.5248C3.08637 32.7491 3.23665 32.9388 3.44035 33.0523C3.64405 33.1658 3.88449 33.1937 4.10878 33.13ZM31.2768 2.02101C32.3167 2.18226 32.6424 2.29546 32.8358 2.29546C33.0365 2.29519 33.2312 2.22625 33.3873 2.1001C33.5435 1.97394 33.6518 1.79816 33.6943 1.60194C33.7187 1.4891 33.7207 1.37255 33.7001 1.25895C33.6794 1.14535 33.6366 1.03692 33.5741 0.93987C33.5115 0.842819 33.4305 0.759041 33.3355 0.693323C33.2406 0.627606 33.1337 0.581236 33.0208 0.556864C32.5321 0.45132 32.0405 0.360148 31.5465 0.283466C31.4324 0.265761 31.3159 0.2707 31.2037 0.298002C31.0916 0.325304 30.9859 0.374434 30.8927 0.442588C30.7045 0.580229 30.5786 0.786999 30.5429 1.01741C30.5071 1.24782 30.5644 1.483 30.702 1.67121C30.8396 1.85942 31.0464 1.98525 31.2768 2.02101ZM25.1578 1.85788C25.293 1.85788 25.7091 1.7946 26.6368 1.7578C26.8677 1.74571 27.0846 1.64312 27.2405 1.47224C27.3963 1.30136 27.4786 1.07597 27.4694 0.84488C27.4602 0.613793 27.3604 0.395624 27.1915 0.237635C27.0226 0.079646 26.7982 -0.00543992 26.5671 0.00080975C26.0696 0.0206144 25.5669 0.0551848 25.0728 0.1037C24.8485 0.126055 24.6413 0.233726 24.4941 0.404469C24.3469 0.575211 24.2709 0.795979 24.2818 1.02116C24.2927 1.24634 24.3897 1.45873 24.5527 1.61445C24.7157 1.77016 24.9323 1.85731 25.1578 1.85788ZM42.2521 6.7855C42.6185 7.07249 42.9765 7.37003 43.3257 7.67776C43.5011 7.82835 43.7288 7.9038 43.9594 7.88777C44.19 7.87174 44.4051 7.76552 44.558 7.59211C44.7109 7.41869 44.7893 7.19204 44.7763 6.96122C44.7633 6.7304 44.6599 6.51398 44.4885 6.35882C44.1138 6.02847 43.7295 5.70908 43.3361 5.40104C43.1522 5.26128 42.9207 5.1995 42.6916 5.22907C42.4625 5.25864 42.2542 5.37717 42.1118 5.55905C41.9694 5.74093 41.9043 5.97154 41.9306 6.20104C41.9568 6.43053 42.0723 6.64048 42.2521 6.7855ZM37.0699 3.69819C37.4966 3.88372 37.9179 4.08169 38.333 4.29186C38.4363 4.34639 38.5493 4.37981 38.6656 4.39018C38.7819 4.40055 38.8991 4.38765 39.0103 4.35225C39.1216 4.31685 39.2247 4.25964 39.3136 4.18398C39.4025 4.10831 39.4754 4.0157 39.5281 3.91154C39.5809 3.80739 39.6123 3.69377 39.6207 3.57733C39.6291 3.46088 39.6141 3.34394 39.5768 3.23332C39.5395 3.1227 39.4805 3.02062 39.4033 2.93303C39.3261 2.84545 39.2323 2.77412 39.1272 2.72319C38.6813 2.49743 38.2289 2.2848 37.7705 2.08558C37.6645 2.03884 37.5503 2.01352 37.4345 2.01107C37.3187 2.00861 37.2035 2.02907 37.0956 2.07127C36.9878 2.11347 36.8893 2.17657 36.8059 2.25696C36.7224 2.33734 36.6557 2.43342 36.6096 2.53967C36.5634 2.64592 36.5387 2.76025 36.5369 2.87608C36.535 2.99191 36.5561 3.10697 36.5989 3.21463C36.6417 3.32229 36.7053 3.42043 36.7861 3.50342C36.8669 3.5864 36.9634 3.6526 37.0699 3.69819ZM19.0641 3.25546C19.3603 3.25546 19.3842 3.15304 20.6906 2.75718C20.91 2.68644 21.0928 2.53237 21.1998 2.32815C21.3067 2.12392 21.3292 1.88587 21.2623 1.66524C21.1955 1.44462 21.0447 1.25906 20.8424 1.14853C20.6401 1.03799 20.4025 1.01132 20.1807 1.07425C19.7025 1.21916 19.2286 1.37817 18.7598 1.55108C18.566 1.62242 18.4035 1.75968 18.3008 1.9388C18.1981 2.11793 18.1617 2.32749 18.198 2.53076C18.2343 2.73403 18.341 2.91804 18.4993 3.05054C18.6577 3.18305 18.8576 3.25559 19.0641 3.25546ZM3.24815 21.4665C3.36131 21.4895 3.47788 21.4899 3.5912 21.4678C3.70452 21.4456 3.81238 21.4014 3.90861 21.3376C4.00484 21.2738 4.08756 21.1917 4.15204 21.0959C4.21653 21.0001 4.26152 20.8926 4.28444 20.7794C4.37684 20.3236 4.48258 19.8706 4.60155 19.421C4.65944 19.1962 4.62605 18.9576 4.50869 18.7573C4.39132 18.557 4.1995 18.4112 3.97507 18.3518C3.75064 18.2924 3.51182 18.3242 3.31072 18.4402C3.10962 18.5562 2.96257 18.747 2.90163 18.971C2.77388 19.454 2.66028 19.9407 2.56097 20.4303C2.51471 20.6589 2.56112 20.8964 2.68999 21.0907C2.81886 21.285 3.01963 21.4202 3.24815 21.4665ZM3.84394 26.7956C3.8048 26.0511 3.81112 25.4733 3.81089 25.3994C3.80937 24.9138 3.42206 24.5182 2.93644 24.5156H2.93175C2.44835 24.5156 2.05108 24.9063 2.05249 25.3902C2.05249 25.4081 2.04358 26.0437 2.08788 26.8877C2.0997 27.1125 2.19726 27.3241 2.36046 27.4791C2.52366 27.6341 2.74008 27.7206 2.96515 27.7208C3.08455 27.7209 3.20272 27.6967 3.31246 27.6497C3.4222 27.6026 3.5212 27.5337 3.60343 27.4471C3.68566 27.3606 3.74939 27.2581 3.79074 27.1461C3.83209 27.0341 3.85019 26.9149 3.84394 26.7956ZM5.04933 15.4739C5.48257 15.6865 6.01085 15.5099 6.22577 15.0714C6.43074 14.6532 6.64795 14.2412 6.8771 13.8358C6.99184 13.6329 7.02126 13.3926 6.95889 13.1679C6.89653 12.9432 6.74748 12.7525 6.54452 12.6377C6.34153 12.523 6.10128 12.4936 5.8766 12.5559C5.65191 12.6183 5.4612 12.7673 5.3464 12.9703C5.10025 13.4057 4.86695 13.8483 4.64679 14.2975C4.59596 14.4011 4.56606 14.5138 4.55878 14.629C4.5515 14.7443 4.56699 14.8598 4.60437 14.9691C4.64176 15.0783 4.70029 15.1791 4.77663 15.2657C4.85298 15.3524 4.94564 15.4231 5.04933 15.4739ZM13.5216 6.14811C13.9341 6.14811 13.9474 5.98897 15.1904 5.22749C15.2888 5.16716 15.3744 5.08804 15.4423 4.99463C15.5102 4.90122 15.559 4.79536 15.5859 4.68309C15.6129 4.57083 15.6174 4.45435 15.5994 4.34031C15.5813 4.22627 15.541 4.11691 15.4807 4.01847C15.4203 3.92002 15.3412 3.83442 15.2478 3.76656C15.1544 3.69869 15.0485 3.64989 14.9363 3.62293C14.824 3.59598 14.7075 3.5914 14.5935 3.60946C14.4794 3.62752 14.3701 3.66787 14.2716 3.72819C13.8461 3.98905 13.4282 4.26221 13.0185 4.54733C12.8649 4.65434 12.7494 4.80759 12.6889 4.98478C12.6284 5.16198 12.6261 5.35385 12.6822 5.53247C12.7384 5.71109 12.8501 5.86713 13.001 5.97786C13.152 6.0886 13.3344 6.14824 13.5216 6.14811ZM8.3069 10.1286C8.48379 10.2806 8.71378 10.356 8.94629 10.3384C9.1788 10.3208 9.39479 10.2115 9.54675 10.0346C9.85006 9.68167 10.1636 9.33758 10.4868 9.0028C10.567 8.91976 10.6301 8.82174 10.6724 8.71432C10.7148 8.60691 10.7355 8.49221 10.7335 8.37677C10.7315 8.26134 10.7068 8.14743 10.6608 8.04155C10.6147 7.93567 10.5483 7.83989 10.4653 7.75968C10.3822 7.67947 10.2842 7.6164 10.1768 7.57408C10.0694 7.53175 9.95467 7.511 9.83924 7.513C9.7238 7.515 9.60989 7.53972 9.50401 7.58574C9.39813 7.63177 9.30235 7.6982 9.22214 7.78124C8.87513 8.14062 8.53862 8.50999 8.21304 8.8889C8.13777 8.97645 8.08049 9.07797 8.04448 9.18767C8.00846 9.29736 7.99441 9.41308 8.00312 9.52821C8.01184 9.64333 8.04316 9.75562 8.09528 9.85864C8.1474 9.96166 8.21931 10.0534 8.3069 10.1286ZM46.9101 11.6314C47.0465 11.8206 47.2524 11.9478 47.4825 11.9851C47.7127 12.0224 47.9483 11.9668 48.1374 11.8304C48.3265 11.6941 48.4538 11.4881 48.4911 11.258C48.5284 11.0278 48.4728 10.7923 48.3364 10.6031C48.1944 10.4062 48.0496 10.2113 47.9021 10.0185C47.8319 9.92676 47.7444 9.84978 47.6445 9.79192C47.5445 9.73406 47.4342 9.69646 47.3197 9.68127C47.2052 9.66608 47.0889 9.67359 46.9773 9.70338C46.8658 9.73316 46.7612 9.78464 46.6695 9.85487C46.5778 9.92506 46.5009 10.0126 46.443 10.1125C46.3852 10.2125 46.3476 10.3228 46.3324 10.4373C46.3172 10.5517 46.3247 10.6681 46.3545 10.7796C46.3843 10.8912 46.4357 10.9958 46.5059 11.0875C46.6432 11.2669 46.778 11.4482 46.9101 11.6314Z" fill="#F84923"/>
</g>
<defs>
<clipPath id="clip0_433_631">
<rect width="60" height="60" fill="white"/>
</clipPath>
</defs>
</svg>
