<svg width="61" height="61" viewBox="0 0 61 61" fill="none" xmlns="http://www.w3.org/2000/svg">
<path d="M59.862 0.853545L54.8625 0.78121C54.5973 0.777374 54.3414 0.87904 54.1512 1.06384C53.961 1.24865 53.852 1.50145 53.8481 1.76664C53.8443 2.03183 53.946 2.28768 54.1308 2.47792C54.3156 2.66815 54.5684 2.77717 54.8336 2.78101L57.419 2.81842L53.3616 6.76014L50.6041 6.72025C50.4746 6.33344 50.2676 5.97709 49.9958 5.673C49.7239 5.3689 49.3929 5.12344 49.0229 4.95162C48.6529 4.77981 48.2518 4.68524 47.8441 4.6737C47.4363 4.66217 47.0305 4.7339 46.6515 4.88453C46.2724 5.03515 45.928 5.2615 45.6394 5.54973C45.3507 5.83797 45.1239 6.18204 44.9728 6.56091C44.8216 6.93978 44.7493 7.3455 44.7603 7.75326C44.7713 8.16102 44.8653 8.56225 45.0366 8.93244L25.763 27.6563C25.3862 27.4694 24.9742 27.3639 24.554 27.3467C24.1337 27.3294 23.7145 27.4008 23.3236 27.5561C22.9327 27.7115 22.5789 27.9473 22.2851 28.2483C21.9913 28.5493 21.7641 28.9088 21.6183 29.3034L12.2752 29.1682C12.1457 28.7814 11.9387 28.425 11.6669 28.1209C11.395 27.8168 11.064 27.5714 10.694 27.3996C10.324 27.2277 9.92293 27.1332 9.51519 27.1216C9.10745 27.1101 8.70163 27.1818 8.32255 27.3325C7.94348 27.4831 7.5991 27.7094 7.31046 27.9977C7.02183 28.2859 6.79501 28.63 6.64387 29.0088C6.49273 29.3877 6.42044 29.7934 6.43142 30.2012C6.44239 30.609 6.53641 31.0102 6.70772 31.3804L0.621528 37.293C0.431292 37.4778 0.322264 37.7306 0.318427 37.9958C0.31459 38.261 0.416259 38.5168 0.601068 38.7071C0.785877 38.8973 1.03869 39.0063 1.30388 39.0102C1.56908 39.014 1.82494 38.9123 2.01518 38.7275L8.10137 32.8149C8.47822 33.0018 8.89017 33.1073 9.31045 33.1246C9.73074 33.1419 10.15 33.0705 10.5409 32.9152C10.9318 32.7599 11.2856 32.524 11.5794 32.223C11.8733 31.922 12.1005 31.5625 12.2463 31.168L21.5893 31.3032C21.7188 31.69 21.9258 32.0463 22.1977 32.3504C22.4696 32.6545 22.8006 32.9 23.1705 33.0718C23.5405 33.2436 23.9416 33.3382 24.3493 33.3497C24.7571 33.3612 25.1629 33.2895 25.542 33.1389C25.9211 32.9883 26.2654 32.7619 26.5541 32.4737C26.8427 32.1854 27.0695 31.8414 27.2207 31.4625C27.3718 31.0836 27.4441 30.6779 27.4331 30.2702C27.4221 29.8624 27.3281 29.4612 27.1568 29.091L46.4304 10.3678C46.8073 10.5546 47.2193 10.6601 47.6396 10.6773C48.0599 10.6945 48.4791 10.6231 48.87 10.4677C49.2609 10.3123 49.6148 10.0764 49.9085 9.77527C50.2023 9.47418 50.4294 9.11465 50.5752 8.72005L53.7469 8.76594C53.8782 8.76784 54.0086 8.74386 54.1306 8.69537C54.2527 8.64688 54.364 8.57482 54.4581 8.48332L58.8127 4.25298L58.7753 6.83847C58.7714 7.10366 58.8731 7.35951 59.0579 7.54974C59.2427 7.73997 59.4955 7.849 59.7607 7.85284C60.0259 7.85667 60.2818 7.75501 60.472 7.5702C60.6622 7.3854 60.7712 7.1326 60.7751 6.86741L60.8474 1.86791C60.8513 1.60272 60.7496 1.34687 60.5648 1.15664C60.38 0.966408 60.1272 0.857382 59.862 0.853545ZM9.41856 31.1271C9.2208 31.1242 9.02832 31.0628 8.86548 30.9505C8.70264 30.8383 8.57674 30.6802 8.5037 30.4964C8.43067 30.3126 8.41377 30.1113 8.45516 29.9179C8.49655 29.7245 8.59436 29.5477 8.73622 29.4099C8.87808 29.2721 9.05762 29.1794 9.25214 29.1437C9.44666 29.1079 9.64742 29.1306 9.82903 29.2089C10.0106 29.2872 10.165 29.4177 10.2724 29.5837C10.3799 29.7497 10.4358 29.9439 10.4329 30.1416C10.4288 30.4067 10.3197 30.6594 10.1295 30.8441C9.93934 31.0288 9.68366 31.1306 9.41856 31.1271ZM24.417 31.3441C24.2193 31.3412 24.0268 31.2798 23.864 31.1675C23.7011 31.0553 23.5752 30.8973 23.5022 30.7135C23.4291 30.5296 23.4123 30.3283 23.4536 30.1349C23.495 29.9415 23.5928 29.7647 23.7347 29.6269C23.8766 29.4891 24.0561 29.3964 24.2506 29.3607C24.4451 29.3249 24.6459 29.3476 24.8275 29.4259C25.0091 29.5042 25.1634 29.6347 25.2709 29.8007C25.3784 29.9667 25.4343 30.1609 25.4314 30.3586C25.4273 30.6237 25.3182 30.8764 25.128 31.0611C24.9378 31.2458 24.6821 31.3476 24.417 31.3441ZM47.7475 8.67913C47.5497 8.67627 47.3572 8.61483 47.1944 8.50258C47.0315 8.39033 46.9056 8.23232 46.8326 8.04851C46.7596 7.86471 46.7427 7.66338 46.7841 7.46998C46.8255 7.27657 46.9233 7.09978 47.0651 6.96197C47.207 6.82415 47.3865 6.7315 47.581 6.69573C47.7756 6.65995 47.9763 6.68266 48.1579 6.76098C48.3396 6.83931 48.4939 6.96973 48.6014 7.13575C48.7088 7.30177 48.7647 7.49594 48.7618 7.6937C48.7577 7.9588 48.6486 8.21142 48.4584 8.39617C48.2682 8.58091 48.0126 8.68267 47.7475 8.67913ZM11.9987 60.1675C12.2639 60.1714 12.5198 60.0697 12.71 59.8849C12.9002 59.7001 13.0092 59.4473 13.0131 59.1821L13.3024 39.1841C13.3063 38.9189 13.2046 38.6631 13.0198 38.4729C12.835 38.2826 12.5822 38.1736 12.317 38.1698L6.31759 38.083C6.0524 38.0791 5.79655 38.1808 5.60632 38.3656C5.41609 38.5504 5.30706 38.8032 5.30323 39.0684L5.01389 59.0664C5.01005 59.3316 5.11172 59.5874 5.29652 59.7776C5.48133 59.9679 5.73413 60.0769 5.99932 60.0807L11.9987 60.1675ZM7.28856 40.0972L11.2882 40.1551L11.0277 58.1533L7.02815 58.0954L7.28856 40.0972Z" fill="#F84923"/>
<path d="M22.9973 60.3267C23.2625 60.3305 23.5183 60.2289 23.7086 60.0441C23.8988 59.8593 24.0078 59.6065 24.0117 59.3413L24.3444 36.3436C24.3482 36.0784 24.2466 35.8226 24.0618 35.6323C23.877 35.4421 23.6242 35.3331 23.359 35.3292L17.3596 35.2424C17.0944 35.2386 16.8385 35.3403 16.6483 35.5251C16.4581 35.7099 16.3491 35.9627 16.3452 36.2279L16.0125 59.2255C16.0086 59.4907 16.1103 59.7466 16.2951 59.9368C16.4799 60.127 16.7327 60.2361 16.9979 60.2399L22.9973 60.3267ZM18.3305 37.2567L22.3301 37.3146L22.0263 58.3124L18.0267 58.2546L18.3305 37.2567ZM34.3723 34.4885L28.3729 34.4017C28.1077 34.3978 27.8519 34.4995 27.6617 34.6843C27.4714 34.8691 27.3624 35.1219 27.3586 35.3871L27.0114 59.3847C27.0075 59.6499 27.1092 59.9057 27.294 60.0959C27.4788 60.2862 27.7316 60.3952 27.9968 60.399L33.9962 60.4858C34.2614 60.4897 34.5172 60.388 34.7075 60.2032C34.8977 60.0184 35.0067 59.7656 35.0106 59.5004L35.3578 35.5028C35.3616 35.2376 35.2599 34.9818 35.0751 34.7916C34.8903 34.6013 34.6375 34.4923 34.3723 34.4885ZM33.0252 58.4716L29.0256 58.4137L29.3439 36.4159L33.3435 36.4738L33.0252 58.4716ZM46.0068 59.6595L46.5566 21.6633C46.5585 21.5324 46.5345 21.4023 46.4862 21.2806C46.4378 21.1589 46.3659 21.0479 46.2747 20.9539C46.1834 20.86 46.0745 20.7849 45.9543 20.7331C45.834 20.6812 45.7047 20.6535 45.5737 20.6516L39.5743 20.5648C39.4434 20.5629 39.3133 20.5869 39.1916 20.6352C39.0699 20.6836 38.9589 20.7555 38.8649 20.8467C38.771 20.938 38.6959 21.0469 38.6441 21.1671C38.5922 21.2874 38.5645 21.4167 38.5626 21.5477L38.0129 59.5438C38.009 59.8083 38.1105 60.0635 38.2948 60.2533C38.4791 60.443 38.7312 60.5517 38.9957 60.5556L44.9951 60.6424C45.2596 60.6462 45.5148 60.5448 45.7045 60.3605C45.8943 60.1761 46.003 59.924 46.0068 59.6595ZM44.0267 58.6334L40.0219 58.5754L40.5427 22.5738L44.5476 22.6318L44.0267 58.6334ZM57.0057 59.8186L57.6712 13.8233C57.675 13.5588 57.5736 13.3036 57.3893 13.1139C57.2049 12.9242 56.9528 12.8154 56.6883 12.8116L50.6889 12.7248C50.4245 12.721 50.1693 12.8224 49.9796 13.0067C49.7899 13.191 49.6811 13.4431 49.6772 13.7076L49.0118 59.703C49.008 59.9675 49.1094 60.2226 49.2937 60.4124C49.478 60.6021 49.7301 60.7108 49.9946 60.7147L55.994 60.8015C56.2585 60.8053 56.5137 60.7039 56.7034 60.5196C56.8931 60.3352 57.0019 60.0831 57.0057 59.8186ZM55.0256 58.7925L51.0207 58.7346L51.6574 14.7338L55.6622 14.7917L55.0256 58.7925Z" fill="#F84923"/>
</svg>
