<svg width="41" height="41" viewBox="0 0 41 41" fill="none" xmlns="http://www.w3.org/2000/svg">
<path d="M29.7945 15.801C30.7493 15.8115 31.6855 15.5569 32.4848 15.0694C33.2841 14.5819 33.9105 13.8834 34.285 13.0623C34.6594 12.2411 34.765 11.3342 34.5883 10.4562C34.4117 9.57813 33.9608 8.76843 33.2926 8.12947C32.6244 7.4905 31.769 7.05096 30.8345 6.86643C29.9 6.6819 28.9284 6.76067 28.0426 7.09278C27.1568 7.42489 26.3965 7.99542 25.8579 8.73223C25.3193 9.46903 25.0266 10.339 25.0168 11.2322C25.0051 12.4294 25.5016 13.5829 26.3972 14.4394C27.2929 15.296 28.5147 15.7856 29.7945 15.801ZM29.8795 8.05956C30.5615 8.06705 31.2261 8.26355 31.7892 8.62421C32.3523 8.98487 32.7888 9.4935 33.0433 10.0858C33.2978 10.678 33.3589 11.3274 33.219 11.9516C33.0791 12.5758 32.7444 13.147 32.2572 13.5928C31.77 14.0386 31.1523 14.3391 30.4821 14.4562C29.8118 14.5733 29.1192 14.5018 28.4919 14.2508C27.8645 13.9997 27.3305 13.5804 26.9575 13.0457C26.5844 12.5111 26.389 11.8853 26.396 11.2473C26.4065 10.3921 26.7791 9.57624 27.4321 8.97862C28.0852 8.38101 28.9653 8.05049 29.8795 8.05956Z" fill="white"/>
<path d="M2.53163 29.0839C2.4159 29.1186 2.31207 29.1813 2.23067 29.2657C2.14927 29.3501 2.0932 29.4531 2.06814 29.5644L0.618072 36.0005C0.597033 36.0938 0.598412 36.1905 0.62211 36.2833C0.645808 36.3762 0.691234 36.4631 0.755112 36.5376C0.818991 36.6121 0.89973 36.6725 0.991509 36.7143C1.08329 36.7562 1.18382 36.7784 1.28585 36.7795L1.97546 36.7871L1.94713 39.3676C1.94525 39.5387 2.0161 39.7036 2.1441 39.826C2.2721 39.9484 2.44676 40.0183 2.62966 40.0203L26.0765 40.2778C26.2594 40.2798 26.4355 40.2137 26.5662 40.0942C26.6969 39.9746 26.7713 39.8113 26.7732 39.6402L26.8015 37.0597L27.4911 37.0673C27.5932 37.0684 27.6942 37.0484 27.7868 37.0085C27.8795 36.9687 27.9616 36.9102 28.0271 36.8371C28.0926 36.7639 28.1399 36.6781 28.1656 36.5858C28.1914 36.4935 28.1949 36.3969 28.1759 36.3031L27.2832 31.8916C28.2166 32.3411 29.2501 32.5776 30.2992 32.5817C31.8251 32.5987 33.3033 32.0892 34.4516 31.1505C35.5998 30.2118 36.3375 28.9098 36.5237 27.4932C36.7099 26.0766 36.3315 24.6447 35.461 23.471C34.5904 22.2974 33.2886 21.4643 31.8043 21.131L31.8214 19.5781C32.7608 19.3861 33.663 19.0604 34.4965 18.6126L36.1547 20.1983C36.2181 20.2589 36.2936 20.3072 36.3769 20.3406C36.4602 20.3739 36.5497 20.3916 36.6403 20.3926C36.7309 20.3936 36.8207 20.3779 36.9048 20.3464C36.9888 20.3149 37.0653 20.2682 37.13 20.209L39.2201 18.2963C39.2848 18.2371 39.3364 18.1666 39.3719 18.0887C39.4074 18.0108 39.4262 17.9271 39.4271 17.8424C39.428 17.7577 39.4111 17.6736 39.3773 17.5949C39.3435 17.5163 39.2935 17.4446 39.2301 17.384L37.5719 15.7983C38.0689 15.0285 38.4368 14.1919 38.6627 13.3176L40.1663 13.3341C40.3492 13.3361 40.5253 13.2701 40.656 13.1505C40.7867 13.0309 40.8611 12.8676 40.863 12.6965L40.8913 10.1161C40.8932 9.94495 40.8224 9.78007 40.6944 9.65766C40.5664 9.53526 40.3917 9.46536 40.2088 9.46336L38.7052 9.44684C38.4986 8.56774 38.1492 7.72326 37.6692 6.94282L39.3618 5.39389C39.4265 5.33469 39.4781 5.26413 39.5136 5.18624C39.5491 5.10834 39.5679 5.02465 39.5688 4.93993C39.5697 4.85521 39.5528 4.77112 39.519 4.69247C39.4852 4.61381 39.4352 4.54214 39.3718 4.48153L37.3242 2.52344C37.2608 2.46283 37.1853 2.41447 37.102 2.38113C37.0187 2.34779 36.9292 2.33012 36.8387 2.32912C36.7481 2.32813 36.6582 2.34383 36.5742 2.37533C36.4902 2.40684 36.4136 2.45353 36.3489 2.51273L34.6563 4.06166C33.8328 3.59558 32.938 3.25022 32.003 3.03762L32.0255 0.985893C32.0274 0.814796 31.9566 0.649909 31.8286 0.527505C31.7006 0.4051 31.5259 0.335206 31.343 0.333198L28.5846 0.302907C28.4017 0.300899 28.2255 0.366941 28.0948 0.486504C27.9642 0.606068 27.8897 0.76936 27.8879 0.940457L27.8653 2.99219C26.9259 3.1842 26.0237 3.50982 25.1902 3.95771L23.532 2.37199C23.4686 2.31138 23.3931 2.26302 23.3098 2.22968C23.2265 2.19634 23.137 2.17866 23.0464 2.17767C22.9558 2.17667 22.866 2.19238 22.7819 2.22388C22.6979 2.25539 22.6214 2.30207 22.5567 2.36128L20.4666 4.27393C20.4019 4.33313 20.3503 4.40369 20.3148 4.48158C20.2793 4.55947 20.2605 4.64317 20.2596 4.72789C20.2587 4.81261 20.2756 4.8967 20.3094 4.97535C20.3432 5.05401 20.3932 5.12568 20.4566 5.18629L22.1147 6.77201C21.8843 7.12612 21.6823 7.49572 21.5103 7.87778C21.4185 7.7775 21.3234 7.67992 21.2251 7.5852C19.6909 6.10858 17.5081 5.34393 14.7375 5.31221L14.7303 5.31213C11.8326 5.28128 9.56535 6.03159 7.9916 7.54231C6.02245 9.43209 5.64465 12.0724 5.60879 13.6028C5.4386 13.6171 5.28025 13.69 5.16442 13.8074C5.04858 13.9248 4.98353 14.0783 4.98186 14.2381L4.91102 20.6894C4.90914 20.8604 4.97999 21.0253 5.10799 21.1477C5.23599 21.2701 5.41065 21.34 5.59355 21.342L5.51837 28.1884L2.53163 29.0839ZM3.35469 36.8023L5.42353 36.825L5.40228 38.7603L3.33344 38.7376L3.35469 36.8023ZM6.12731 35.5423L2.14126 35.4985L3.33539 30.1985L10.3473 28.0963L10.3004 32.3621C10.299 32.4897 10.3381 32.6149 10.4127 32.7218C10.4873 32.8288 10.5941 32.9126 10.7196 32.9628C10.845 33.0131 10.9836 33.0274 11.1176 33.0039C11.2517 32.9805 11.3752 32.9204 11.4727 32.8312L13.7668 30.7319L13.6776 38.8512L6.7815 38.7755L6.80984 36.195C6.81172 36.0239 6.74086 35.859 6.61286 35.7366C6.48487 35.6142 6.31021 35.5443 6.12731 35.5423ZM6.29733 20.0594L6.354 14.8984L8.42284 14.9211L8.36617 20.0821L6.29733 20.0594ZM27.6623 21.4846C26.272 22.0298 25.0921 22.9705 24.4335 24.1297L23.4951 24.1194L23.5235 21.5389C23.7064 21.5409 23.8825 21.4749 24.0132 21.3553C24.1438 21.2358 24.2183 21.0725 24.2202 20.9014L24.2385 19.2333L25.0304 18.5086C25.8539 18.9747 26.7487 19.32 27.6837 19.5326L27.6623 21.4846ZM11.7146 29.1956C12.099 29.4145 12.5189 29.5733 12.9578 29.6657L11.6967 30.8199L11.7146 29.1956ZM17.2315 29.2562L17.2136 30.8805L15.9782 29.6989C16.419 29.6161 16.8423 29.4666 17.2315 29.2562ZM17.9499 26.6365L17.9859 23.3642C18.0905 23.2812 18.1928 23.1956 18.2928 23.1076C18.8519 22.6037 19.3443 22.0388 19.7596 21.4251C19.8569 21.4738 19.9652 21.4998 20.0754 21.5011L22.1443 21.5238L22.1159 24.1043L21.4263 24.0967C21.2833 24.0952 21.1434 24.1352 21.0259 24.2114C20.9084 24.2875 20.8192 24.396 20.7707 24.5218C20.7221 24.6476 20.7165 24.7844 20.7548 24.9134C20.793 25.0424 20.8731 25.1571 20.9841 25.2417L22.0941 26.088L22.0738 27.94C22.0738 27.94 18.0231 26.6394 17.9499 26.6365ZM23.4621 27.1311L24.1921 27.6875C24.2332 28.0304 24.3084 28.369 24.4168 28.6989L23.4483 28.3853L23.4621 27.1311ZM22.9047 15.0801L22.848 20.2411L20.7792 20.2184L20.8359 15.0574L22.9047 15.0801ZM19.4637 14.3972L19.462 14.5593C17.2535 13.12 15.7445 10.8952 15.3704 10.309L15.3822 9.23912C16.8028 9.45788 18.0048 10.3156 18.9618 11.7979C19.362 12.4282 19.6882 13.097 19.9348 13.7926C19.7988 13.8349 19.6803 13.9159 19.5958 14.0243C19.5114 14.1326 19.4652 14.263 19.4637 14.3972ZM13.9878 10.2937C13.6007 10.872 12.0449 13.0607 9.80739 14.4511L9.80915 14.2911C9.81051 14.157 9.76715 14.0258 9.6851 13.9157C9.60306 13.8056 9.48641 13.7221 9.35139 13.6768C9.86881 12.3281 11.2452 9.59832 13.9995 9.22604L13.9878 10.2937ZM9.79073 15.9685C12.0945 14.7914 13.8067 12.8159 14.664 11.676C15.4962 12.8345 17.1643 14.8475 19.4419 16.0748L19.4065 19.2924C18.4684 21.3608 16.6208 23.3987 14.5373 23.3759C12.4612 23.3531 10.6408 21.255 9.75781 19.186L9.75539 19.187L9.79073 15.9685ZM14.5231 24.6661C15.2422 24.668 15.9519 24.5149 16.5971 24.2188L16.5541 28.1339C16.1464 28.3658 15.5007 28.548 14.4806 28.5368C13.4605 28.5256 12.8194 28.3293 12.4164 28.0884L12.4594 24.1765C13.0978 24.4866 13.8042 24.6542 14.5231 24.6661ZM21.9813 36.3616L21.953 38.9421L15.0569 38.8664L15.146 30.747L17.3935 32.8963C17.489 32.9876 17.6112 33.0503 17.7447 33.0767C17.8782 33.1031 18.017 33.0918 18.1435 33.0444C18.2701 32.9969 18.3787 32.9154 18.4556 32.8102C18.5326 32.7049 18.5744 32.5806 18.5758 32.453L18.6226 28.1871L25.3319 30.3602C25.4296 30.48 25.5324 30.5958 25.6405 30.7075L26.6641 35.7678L22.678 35.7241C22.4951 35.722 22.319 35.7881 22.1883 35.9077C22.0577 36.0272 21.9832 36.1905 21.9813 36.3616ZM25.4011 38.98L23.3322 38.9572L23.3535 37.0219L25.4223 37.0446L25.4011 38.98ZM35.1902 26.8287C35.1757 28.0259 34.654 29.1682 33.7397 30.0048C32.8254 30.8415 31.5932 31.3042 30.3134 31.2915C27.6994 31.2628 25.6928 29.5931 25.5419 27.3213C25.536 27.2323 25.5103 27.1454 25.4667 27.0661C25.4231 26.9868 25.3623 26.9168 25.2883 26.8605L23.3846 25.4086L24.8602 25.4248C24.9976 25.4263 25.1323 25.3894 25.247 25.3189C25.3617 25.2483 25.4512 25.1472 25.504 25.0286C26.2167 23.4274 28.327 22.2369 30.4125 22.2598C31.6924 22.2752 32.9141 22.7649 33.8098 23.6214C34.7055 24.4779 35.2019 25.6314 35.1902 26.8287ZM23.4895 6.24272L21.9244 4.74617L23.0293 3.7351L24.5942 5.23173C24.7076 5.34014 24.8582 5.40781 25.0194 5.42285C25.1806 5.43789 25.3423 5.39936 25.4761 5.314C26.4353 4.72235 27.5197 4.33084 28.6557 4.16602C28.8169 4.14265 28.964 4.06653 29.0708 3.95119C29.1775 3.83585 29.2371 3.68876 29.2387 3.53609L29.26 1.60072L30.6392 1.61587L30.618 3.55124C30.6163 3.70392 30.6726 3.8523 30.7768 3.96997C30.881 4.08765 31.0264 4.16699 31.1871 4.1939C32.3191 4.38362 33.3946 4.79885 34.3407 5.41142C34.4725 5.4997 34.6333 5.54177 34.7949 5.53028C34.9564 5.51878 35.1084 5.45444 35.2241 5.34853L36.8216 3.88655L37.904 4.92165L36.3064 6.38347C36.1907 6.48939 36.1186 6.6301 36.1028 6.78092C36.0869 6.93174 36.1283 7.08304 36.2198 7.20829C36.8536 8.10656 37.2737 9.12159 37.4516 10.1845C37.4768 10.3354 37.5584 10.4731 37.6818 10.5731C37.8053 10.6732 37.9626 10.7291 38.1258 10.7309L39.505 10.746L39.4908 12.0363L38.1116 12.0211C37.9484 12.0193 37.7899 12.0718 37.6643 12.1691C37.5386 12.2664 37.454 12.4023 37.4255 12.5526C37.2243 13.6113 36.7821 14.6169 36.1286 15.501C36.0345 15.6242 35.9897 15.7746 36.0023 15.9257C36.0148 16.0768 36.0838 16.2191 36.1972 16.3275L37.7623 17.8241L36.6574 18.8352L35.0925 17.3385C34.9791 17.2301 34.8285 17.1625 34.6673 17.1474C34.5061 17.1324 34.3444 17.1709 34.2106 17.2563C33.2514 17.8479 32.167 18.2394 31.031 18.4042C30.8698 18.4276 30.7227 18.5037 30.6159 18.6191C30.5092 18.7344 30.4496 18.8815 30.448 19.0342L30.4267 20.9695L29.0475 20.9544L29.0687 19.019C29.0704 18.8663 29.0141 18.718 28.9099 18.6003C28.8057 18.4826 28.6603 18.4033 28.4996 18.3764C27.3676 18.1866 26.2921 17.7714 25.346 17.1588C25.2142 17.0706 25.0534 17.0285 24.8918 17.04C24.7303 17.0515 24.5783 17.1158 24.4626 17.2217L24.2585 17.4085L24.291 14.4502C24.2927 14.291 24.2315 14.1368 24.1191 14.0171C24.0066 13.8975 23.851 13.8209 23.682 13.8021C23.6186 11.7681 23.0828 10.2655 22.4701 9.19921C22.707 8.43862 23.0744 7.71927 23.5581 7.06925C23.6522 6.94603 23.6969 6.79567 23.6844 6.64454C23.6719 6.4934 23.6028 6.35115 23.4895 6.24272ZM22.3006 13.7831L21.3746 13.7729C21.0864 12.8603 20.6793 11.9841 20.1626 11.1641C18.9511 9.27162 17.3136 8.16752 15.3965 7.93815L15.4109 6.62823C17.4713 6.75974 19.0925 7.38241 20.2367 8.48375C21.8509 10.0375 22.2419 12.2716 22.3006 13.7831ZM8.98003 8.44394C10.159 7.3123 11.855 6.6975 14.0282 6.61216L14.0138 7.92337C12.0936 8.11149 10.4335 9.17914 9.1815 11.0435C8.64683 11.8519 8.22062 12.719 7.91247 13.6251L6.98761 13.615C7.01985 12.2806 7.34137 10.0169 8.98003 8.44394ZM6.97277 21.3572L9.04161 21.3799C9.15327 21.3812 9.26353 21.3569 9.36284 21.3093C9.83493 22.0414 10.4165 22.7067 11.0898 23.285L11.0538 26.5609C10.9806 26.5622 6.90232 27.7734 6.90232 27.7734L6.97277 21.3572Z" fill="white"/>
<path d="M12.5387 16.9021C12.9196 16.9062 13.2315 16.6208 13.2354 16.2645C13.2393 15.9082 12.9338 15.616 12.5529 15.6118C12.172 15.6076 11.8601 15.8931 11.8562 16.2494C11.8523 16.6057 12.1579 16.8979 12.5387 16.9021Z" fill="white"/>
<path d="M16.6774 16.9475C17.0583 16.9517 17.3702 16.6662 17.3741 16.3099C17.378 15.9536 17.0724 15.6614 16.6916 15.6572C16.3107 15.653 15.9988 15.9385 15.9949 16.2948C15.991 16.6511 16.2965 16.9433 16.6774 16.9475Z" fill="white"/>
<path d="M12.1224 20.0149C12.8428 20.477 13.6933 20.7288 14.5661 20.7384C15.4389 20.748 16.2948 20.5149 17.0251 20.0687C17.1019 20.023 17.1683 19.9634 17.2203 19.8935C17.2724 19.8236 17.3091 19.7447 17.3283 19.6614C17.3475 19.578 17.3489 19.492 17.3324 19.4081C17.3158 19.3242 17.2817 19.2442 17.2319 19.1727C17.1821 19.1013 17.1177 19.0397 17.0424 18.9916C16.9671 18.9435 16.8823 18.9098 16.793 18.8925C16.7038 18.8752 16.6117 18.8747 16.5223 18.8909C16.4328 18.9071 16.3477 18.9397 16.2719 18.9868C15.7694 19.2937 15.1807 19.454 14.5803 19.4474C13.9799 19.4408 13.3948 19.2676 12.8992 18.9498C12.7481 18.8552 12.5632 18.8203 12.3848 18.8525C12.2064 18.8847 12.0489 18.9815 11.9466 19.1218C11.8442 19.2621 11.8053 19.4347 11.8382 19.6019C11.8711 19.7691 11.9732 19.9175 12.1224 20.0149ZM27.6186 25.455C27.6167 25.6261 27.6876 25.791 27.8155 25.9134C27.9435 26.0358 28.1182 26.1057 28.3011 26.1077L32.4388 26.1532C32.6217 26.1552 32.7978 26.0891 32.9285 25.9696C33.0591 25.85 33.1336 25.6867 33.1355 25.5156C33.1374 25.3445 33.0665 25.1796 32.9385 25.0572C32.8105 24.9348 32.6358 24.8649 32.453 24.8629L28.3153 24.8175C28.1324 24.8155 27.9562 24.8815 27.8256 25.0011C27.6949 25.1207 27.6205 25.2839 27.6186 25.455ZM32.4246 27.4434L28.2869 27.398C28.104 27.396 27.9279 27.462 27.7972 27.5816C27.6666 27.7011 27.5921 27.8644 27.5902 28.0355C27.5884 28.2066 27.6592 28.3715 27.7872 28.4939C27.9152 28.6163 28.0899 28.6862 28.2728 28.6882L32.4104 28.7337C32.5933 28.7357 32.7695 28.6696 32.9002 28.5501C33.0308 28.4305 33.1053 28.2672 33.1071 28.0961C33.109 27.925 33.0382 27.7601 32.9102 27.6377C32.7822 27.5153 32.6075 27.4454 32.4246 27.4434Z" fill="white"/>
</svg>
