<svg width="40" height="40" viewBox="0 0 40 40" fill="none" xmlns="http://www.w3.org/2000/svg">
<path d="M18.3372 20.5475V2.49913C18.3372 2.03913 17.9639 1.66577 17.5039 1.66577C7.85389 1.66577 0.00390625 10.2641 0.00390625 20.8324C0.00390625 31.4007 8.60225 39.9991 19.1705 39.9991C23.8989 39.9991 26.4571 39.1425 29.7005 36.4758C30.0488 36.1891 30.1055 35.6774 29.8288 35.3208L18.3372 20.5475ZM19.1705 38.3325C9.52053 38.3325 1.67054 30.4825 1.67054 20.8325C1.67054 11.4925 8.32553 3.83749 16.6705 3.35585V20.8325C16.6705 21.0175 16.7322 21.1975 16.8472 21.3441L28.0071 35.6925C25.3755 37.7025 23.1805 38.3325 19.1705 38.3325Z" fill="white"/>
<path d="M20.8373 19.999H39.1706C39.6306 19.999 40.0039 19.6257 40.0039 19.1657C40.0039 8.59738 31.4055 -0.000976562 20.8373 -0.000976562C20.3773 -0.000976562 20.0039 0.372383 20.0039 0.832383V19.1657C20.0039 19.6257 20.3773 19.999 20.8373 19.999ZM21.6705 1.68566C30.6589 2.10902 37.8939 9.34402 38.3172 18.3323H21.6705V1.68566ZM39.1705 21.6657H22.5039C22.3463 21.6659 22.1921 21.7106 22.0588 21.7946C21.9255 21.8786 21.8187 21.9986 21.7505 22.1407C21.6829 22.2825 21.6569 22.4406 21.6755 22.5967C21.6941 22.7527 21.7565 22.9003 21.8555 23.0223L32.6889 36.4339C32.8339 36.6156 33.0472 36.7256 33.2789 36.7423C33.2989 36.7439 33.3172 36.7439 33.3372 36.7439C33.5472 36.7439 33.7506 36.6639 33.9056 36.5206C37.7805 32.9057 40.0039 27.7957 40.0039 22.499C40.0039 22.039 39.6305 21.6657 39.1705 21.6657ZM33.4089 34.6724L24.2489 23.3324H38.3172C38.1122 27.569 36.3589 31.6207 33.4089 34.6724Z" fill="white"/>
</svg>
