<svg width="50" height="50" viewBox="0 0 50 50" fill="none" xmlns="http://www.w3.org/2000/svg">
<g clip-path="url(#clip0_327_478)">
<path d="M14.8018 20.4033C14.6201 20.2217 14.3682 20.1172 14.1113 20.1172C13.8545 20.1172 13.6026 20.2216 13.4209 20.4033C13.2393 20.585 13.1348 20.8369 13.1348 21.0937C13.1348 21.3506 13.2393 21.6025 13.4209 21.7841C13.6025 21.9657 13.8545 22.0703 14.1113 22.0703C14.3682 22.0703 14.6201 21.9658 14.8018 21.7841C14.9834 21.6025 15.0879 21.3506 15.0879 21.0937C15.0879 20.8369 14.9834 20.585 14.8018 20.4033Z" fill="#F84923"/>
<path d="M47.0698 0H8.2028C6.58738 0 5.27312 1.31425 5.27312 2.92968V19.1405C5.27312 20.756 6.58738 22.0702 8.2028 22.0702H9.96061C10.5 22.0702 10.9372 21.6329 10.9372 21.0937C10.9372 20.5544 10.5 20.1171 9.96061 20.1171H8.2028C7.66433 20.1171 7.22624 19.679 7.22624 19.1405V2.92968C7.22624 2.3912 7.66433 1.95312 8.2028 1.95312H47.0698C47.6083 1.95312 48.0464 2.3912 48.0464 2.92968V19.1405C48.0464 19.679 47.6083 20.1171 47.0698 20.1171H40.5379C40.2789 20.1171 40.0305 20.22 39.8474 20.4031L36.6317 23.6189L33.416 20.4031C33.2329 20.22 32.9844 20.1171 32.7255 20.1171H25.1098C25.038 19.9327 24.9568 19.7508 24.8649 19.5723C24.1657 18.2138 22.9755 17.2209 21.5138 16.7765L20.1019 16.3472C19.6048 16.1958 19.0763 16.4607 18.8995 16.9492L16.681 23.081C16.0657 24.7816 14.852 26.1945 13.2637 27.0595L11.1811 28.1934C10.6693 27.5722 9.89439 27.1754 9.02848 27.1754H2.78827C1.25078 27.1754 2.28689e-08 28.4263 2.28689e-08 29.9637V47.2113C-0.000195289 48.7489 1.25068 49.9998 2.78817 49.9998H9.02838C10.0004 49.9998 10.8574 49.4995 11.3566 48.7432L12.3531 49.134C13.8181 49.7087 15.359 50 16.9329 50H30.1095C32.0865 50 33.6949 48.3916 33.6949 46.4146C33.6949 45.7602 33.5178 45.1467 33.2103 44.6181C34.6648 44.161 35.7229 42.8002 35.7229 41.1968C35.7229 40.5258 35.5372 39.8975 35.2151 39.3599C36.6077 38.8673 37.6082 37.5381 37.6082 35.979C37.6082 34.3549 36.5225 32.9804 35.0391 32.5412C35.3408 32.0162 35.5142 31.4087 35.5142 30.761C35.5142 28.7841 33.9058 27.1756 31.9288 27.1756H24.0979L25.1931 23.9242C25.3978 23.3164 25.4946 22.6914 25.488 22.0703H32.321L35.9412 25.6905C36.1319 25.8811 36.3818 25.9766 36.6317 25.9766C36.8816 25.9766 37.1316 25.8811 37.3222 25.6905L40.9425 22.0702H47.0698C48.6853 22.0702 49.9995 20.756 49.9995 19.1405V2.92968C49.9995 1.31425 48.6853 0 47.0698 0ZM9.86363 47.2114C9.86354 47.672 9.48893 48.0467 9.02838 48.0467H2.78817C2.32763 48.0467 1.95302 47.672 1.95302 47.2114V29.9638C1.95302 29.5033 2.32763 29.1286 2.78817 29.1286H4.93172V41.1521C4.93172 41.6913 5.36892 42.1286 5.90828 42.1286C6.44763 42.1286 6.88484 41.6913 6.88484 41.1521V29.1286H9.02838C9.39313 29.1286 9.70318 29.364 9.81676 29.6906C9.82486 29.7379 9.83658 29.7847 9.85201 29.8311C9.85895 29.8745 9.86363 29.9185 9.86363 29.9638V47.2114ZM31.9289 29.1285V29.1286C32.829 29.1286 33.5612 29.8608 33.5612 30.7609C33.5612 31.661 32.829 32.3933 31.9289 32.3933H26.6309C26.0916 32.3933 25.6544 32.8306 25.6544 33.3699C25.6544 33.9091 26.0916 34.3464 26.6309 34.3464L34.0229 34.3466C34.923 34.3466 35.6552 35.0789 35.6552 35.979C35.6552 36.8791 34.923 37.6114 34.0229 37.6114H26.6309C26.0916 37.6114 25.6544 38.0487 25.6544 38.5879C25.6544 39.1272 26.0916 39.5645 26.6309 39.5645H32.1376C33.0377 39.5645 33.7699 40.2967 33.7699 41.1968C33.7699 42.0969 33.0377 42.8291 32.1376 42.8291H26.6309C26.0916 42.8291 25.6544 43.2664 25.6544 43.8057C25.6544 44.3449 26.0916 44.7822 26.6309 44.7822H30.1095C31.0096 44.7822 31.7419 45.5146 31.7419 46.4147C31.7419 47.3148 31.0096 48.047 30.1095 48.047H16.9329C15.6041 48.047 14.3032 47.8009 13.0662 47.3158L11.8167 46.8258V30.0713L14.1976 28.7748C16.2055 27.6814 17.7396 25.8954 18.5174 23.7455L20.4206 18.4856L20.9456 18.6451C21.8978 18.9347 22.673 19.5814 23.1284 20.4661C23.5839 21.3509 23.6598 22.3576 23.3421 23.3007L21.8131 27.8402C21.7127 28.1383 21.762 28.4664 21.9454 28.7217C22.1289 28.977 22.424 29.1285 22.7386 29.1285H31.9289Z" fill="#F84923"/>
<path d="M45.5281 9.47035C45.3432 8.9016 44.8605 8.49486 44.2686 8.40902L42.5412 8.15854L41.7683 6.5936C41.5034 6.05737 40.9676 5.72437 40.3696 5.72437H40.3692C39.771 5.72456 39.2351 6.05786 38.9705 6.59428L38.1985 8.15971L36.4711 8.41117C35.8792 8.4974 35.3968 8.90433 35.2121 9.47328C35.0275 10.0421 35.1788 10.6549 35.6074 11.0724L36.8576 12.2904L36.5629 14.0108C36.4619 14.6004 36.6998 15.1849 37.1839 15.5364C37.4574 15.735 37.7771 15.8358 38.0991 15.8358C38.3472 15.8358 38.5966 15.7759 38.827 15.6547L40.3718 14.842L41.917 15.6538C42.4465 15.9319 43.076 15.8863 43.5599 15.5346C44.0437 15.1828 44.2813 14.5982 44.18 14.0086L43.8845 12.2884L45.1342 11.0697C45.562 10.6519 45.7131 10.0391 45.5281 9.47035ZM42.3726 11.0345C42.0049 11.393 41.8374 11.9093 41.9243 12.4155L42.1199 13.5543L41.0966 13.0166C40.6419 12.7781 40.0992 12.7781 39.645 13.0172L38.6223 13.5553L38.8173 12.4163C38.904 11.91 38.7362 11.3938 38.3683 11.0355L37.5405 10.229L38.6841 10.0625C39.1924 9.98861 39.6314 9.66947 39.8584 9.20892L40.3696 8.1725L40.8814 9.20863C41.1088 9.66908 41.548 9.98792 42.0562 10.0617L43.1998 10.2275L42.3726 11.0345Z" fill="#F84923"/>
<path d="M33.1043 9.47035C32.9192 8.9016 32.4367 8.49496 31.8447 8.40902L30.1174 8.15854L29.3444 6.5936C29.0796 6.05737 28.5438 5.72437 27.9457 5.72437H27.9453C27.3472 5.72456 26.8112 6.05786 26.5466 6.59438L25.7746 8.15971L24.0473 8.41117C23.4554 8.4974 22.973 8.90433 22.7883 9.47328C22.6037 10.0421 22.755 10.6549 23.1835 11.0724L24.4337 12.2904L24.1391 14.0108C24.0381 14.6004 24.2761 15.185 24.7601 15.5364C25.0334 15.735 25.3532 15.8358 25.6752 15.8358C25.9233 15.8358 26.1726 15.7759 26.403 15.6547L27.9478 14.842L29.4931 15.6538C30.0227 15.9319 30.652 15.8863 31.1359 15.5346C31.6197 15.1828 31.8573 14.5982 31.7561 14.0086L31.4605 12.2884L32.7103 11.0697C33.1383 10.6519 33.2894 10.0392 33.1043 9.47035ZM29.9487 11.0345C29.5811 11.393 29.4136 11.9093 29.5005 12.4155L29.6961 13.5543L28.6728 13.0167C28.218 12.778 27.6753 12.7782 27.2211 13.0172L26.1984 13.5553L26.3934 12.4163C26.4801 11.91 26.3122 11.3938 25.9444 11.0355L25.1165 10.229L26.2601 10.0625C26.7683 9.98861 27.2072 9.66956 27.4346 9.20882L27.9457 8.1724L28.4573 9.20843C28.6847 9.66898 29.1239 9.98792 29.6322 10.0617L30.7759 10.2275L29.9487 11.0345Z" fill="#F84923"/>
<path d="M20.6805 9.47035C20.4955 8.9016 20.0129 8.49486 19.421 8.40902L17.6936 8.15854L16.9207 6.5936C16.6559 6.05737 16.12 5.72437 15.522 5.72437H15.5216C14.9234 5.72456 14.3874 6.05786 14.1229 6.59438L13.3509 8.15971L11.6236 8.41117C11.0316 8.4974 10.5492 8.90443 10.3645 9.47337C10.1798 10.0422 10.3313 10.655 10.7597 11.0724L12.0099 12.2904L11.7152 14.0108C11.6143 14.6004 11.8523 15.185 12.3362 15.5364C12.6096 15.735 12.9294 15.8358 13.2514 15.8358C13.4994 15.8358 13.7487 15.7759 13.9791 15.6547L15.5239 14.842L17.0691 15.6538C17.5986 15.9319 18.2281 15.8863 18.712 15.5346C19.1958 15.1828 19.4334 14.5982 19.3321 14.0086L19.0366 12.2884L20.2863 11.0697C20.7145 10.6519 20.8655 10.0392 20.6805 9.47035ZM17.525 11.0345C17.1573 11.393 16.9898 11.9093 17.0768 12.4155L17.2724 13.5543L16.249 13.0167C15.7943 12.778 15.2515 12.7782 14.7974 13.0172L13.7746 13.5553L13.9697 12.416C14.0563 11.9099 13.8884 11.3939 13.5206 11.0355L12.6928 10.229L13.8363 10.0625C14.3445 9.98861 14.7835 9.66956 15.0108 9.20882L15.522 8.1724L16.0336 9.20843C16.2609 9.66898 16.7002 9.98792 17.2085 10.0617L18.3522 10.2275L17.525 11.0345Z" fill="#F84923"/>
<path d="M5.9082 43.6873C5.36885 43.6873 4.93164 44.1246 4.93164 44.6638V44.679C4.93164 45.2183 5.36885 45.6556 5.9082 45.6556C6.44755 45.6556 6.88476 45.2183 6.88476 44.679V44.6638C6.88476 44.1246 6.44755 43.6873 5.9082 43.6873Z" fill="#F84923"/>
</g>
<defs>
<clipPath id="clip0_327_478">
<rect width="50" height="50" fill="white"/>
</clipPath>
</defs>
</svg>
