<svg width="50" height="50" viewBox="0 0 50 50" fill="none" xmlns="http://www.w3.org/2000/svg">
<g clip-path="url(#clip0_327_459)">
<path d="M10.4492 18.5547C10.4492 26.632 17.0204 33.2032 25.0977 33.2032C33.1749 33.2032 39.7461 26.632 39.7461 18.5547C39.7461 10.4775 33.1749 3.90625 25.0977 3.90625C17.0204 3.90625 10.4492 10.4775 10.4492 18.5547ZM25.0977 5.85938C32.098 5.85938 37.793 11.5543 37.793 18.5547C37.793 25.5551 32.098 31.25 25.0977 31.25C18.0973 31.25 12.4023 25.5551 12.4023 18.5547C12.4023 11.5543 18.0973 5.85938 25.0977 5.85938Z" fill="#F84923"/>
<path d="M16.0529 16.8137L19.8383 20.5434L18.9674 25.7851C18.9067 26.1502 19.0574 26.518 19.3569 26.7354C19.6559 26.9528 20.0523 26.9822 20.3807 26.8121L25.0968 24.363L29.8126 26.8121C30.1384 26.9811 30.5347 26.9547 30.8364 26.7354C31.1359 26.518 31.2866 26.1502 31.2259 25.7851L30.355 20.5434L34.1404 16.8137C34.404 16.5543 34.4982 16.1683 34.3837 15.8162C34.2693 15.4645 33.966 15.2077 33.6002 15.1524L28.347 14.3616L25.97 9.60814C25.8049 9.27741 25.4665 9.06836 25.0968 9.06836C24.7268 9.06836 24.3888 9.27741 24.2233 9.60814L21.8463 14.3616L16.5931 15.1524C16.2273 15.2074 15.924 15.4645 15.8096 15.8162C15.6951 16.1683 15.7897 16.5543 16.0529 16.8137ZM22.6387 16.2175C22.953 16.1702 23.2246 15.973 23.3669 15.6888L25.0968 12.2285L26.8268 15.6888C26.9691 15.973 27.2407 16.1702 27.555 16.2175L31.3785 16.7931L28.6232 19.5073C28.3969 19.7305 28.2932 20.0497 28.3451 20.3633L28.9791 24.1784L25.5466 22.3962C25.4058 22.3229 25.2513 22.2863 25.0968 22.2863C24.9424 22.2863 24.7879 22.3229 24.6467 22.3962L21.2142 24.1784L21.8482 20.3633C21.9005 20.0497 21.7967 19.7305 21.5702 19.5073L18.8152 16.7931L22.6387 16.2175Z" fill="#F84923"/>
<path d="M26.0742 0.976564C26.0742 1.51596 25.6371 1.95313 25.0977 1.95313C24.5583 1.95313 24.1211 1.51596 24.1211 0.976564C24.1211 0.437165 24.5583 0 25.0977 0C25.6371 0 26.0742 0.437165 26.0742 0.976564Z" fill="#F84923"/>
<path d="M20.4952 0.575546C12.2803 2.67249 6.54297 10.0658 6.54297 18.5546C6.54297 23.8269 8.75969 28.7948 12.6511 32.3131L6.76765 42.6819C6.57845 43.0156 6.6021 43.4292 6.82793 43.7389C7.05376 44.049 7.43981 44.1982 7.81555 44.12L14.497 42.7326L16.8453 49.35C16.9727 49.7101 17.2989 49.9622 17.6796 49.9962C18.0603 50.0301 18.4254 49.8382 18.6142 49.506L25.0977 38.1076L31.5808 49.506C31.7555 49.8131 32.0805 49.9996 32.4292 49.9996C32.4578 49.9996 32.4868 49.9985 32.5154 49.9962C32.8961 49.9622 33.2222 49.7097 33.35 49.35L35.698 42.7326L42.3794 44.12C42.7548 44.1978 43.1412 44.0487 43.3671 43.7389C43.5933 43.4292 43.6165 43.0156 43.4273 42.6819L37.5439 32.3131C41.4353 28.7948 43.652 23.8269 43.652 18.5546C43.652 10.0658 37.9147 2.67249 29.7001 0.575546C29.1771 0.442031 28.6457 0.757507 28.5122 1.28012C28.3787 1.80274 28.6942 2.33451 29.2168 2.46802C36.5662 4.34409 41.6993 10.9592 41.6993 18.5546C41.6993 27.7988 34.1916 35.1562 25.0977 35.1562C15.9973 35.1562 8.4961 27.7927 8.4961 18.5546C8.4961 10.9592 13.6288 4.34409 20.9782 2.46802C21.5008 2.33451 21.8163 1.80274 21.6831 1.28012C21.5496 0.757507 21.0182 0.442031 20.4952 0.575546ZM17.9722 46.685L16.053 41.2769C15.8898 40.8168 15.4122 40.5479 14.9342 40.6471L9.53141 41.769L14.1876 33.5628C16.9026 35.5365 20.1172 36.7389 23.46 37.0365L17.9722 46.685ZM35.2608 40.6471C34.7832 40.5479 34.3052 40.8168 34.142 41.2769L32.2232 46.685L26.735 37.0365C30.0782 36.7389 33.2924 35.5365 36.0077 33.5628L40.664 41.769L35.2608 40.6471Z" fill="#F84923"/>
</g>
<defs>
<clipPath id="clip0_327_459">
<rect width="50" height="50" fill="white"/>
</clipPath>
</defs>
</svg>
