<svg width="50" height="50" viewBox="0 0 50 50" fill="none" xmlns="http://www.w3.org/2000/svg">
<g clip-path="url(#clip0_327_468)">
<path d="M49.0707 27.0508L42.0971 14.9746C41.9509 14.7217 41.7102 14.5372 41.4281 14.4616C41.1459 14.386 40.8453 14.4254 40.5922 14.5713L38.1508 15.9824V6.6123C38.1508 6.60156 38.1508 6.58984 38.1459 6.57812L38.1401 6.53906C38.1401 6.52539 38.1332 6.51172 38.1303 6.49805L38.1225 6.4668L38.1078 6.42578C38.1078 6.41602 38.101 6.40625 38.0981 6.39746L38.0805 6.35742C38.0756 6.34863 38.0717 6.33887 38.0668 6.33008L38.0463 6.29394C38.0405 6.28418 38.0356 6.27441 38.0287 6.26465L38.0073 6.2334L37.9858 6.2041L37.9614 6.17578L37.9477 6.15918L33.2192 1.0332L33.2084 1.02246L33.1772 0.991211L33.1518 0.96875C33.1401 0.958984 33.1283 0.949219 33.1156 0.94043C33.1076 0.933701 33.0991 0.927503 33.0903 0.921875L33.0473 0.893555L33.0258 0.878906L32.9731 0.852539L32.9555 0.84375C32.935 0.834961 32.9135 0.827149 32.891 0.819336H32.8822C32.8588 0.811524 32.8344 0.805664 32.809 0.799805C32.7836 0.794596 32.7582 0.79069 32.7328 0.788086H13.2934C12.911 0.788603 12.5444 0.940734 12.274 1.21112C12.0036 1.48151 11.8515 1.84808 11.851 2.23047V17.5869L9.40959 16.1758C9.15634 16.0299 8.85557 15.9904 8.57326 16.066C8.29094 16.1417 8.05016 16.3262 7.90373 16.5791L0.928143 28.6572C0.782566 28.9104 0.743271 29.2109 0.81887 29.493C0.894468 29.7751 1.07879 30.0157 1.33146 30.1621L7.03068 33.4551C7.92655 34.2431 8.70292 35.1573 9.33537 36.1689L7.42131 39.4932C7.10488 40.0407 6.9715 40.675 7.0406 41.3036C7.1097 41.9322 7.37767 42.5224 7.80548 42.9881C8.2333 43.4538 8.79862 43.7708 9.41912 43.8929C10.0396 44.0151 10.6829 43.9359 11.2553 43.667C11.3924 44.0595 11.6103 44.4189 11.8948 44.722C12.1794 45.0251 12.5243 45.2652 12.9074 45.4267C13.2905 45.5883 13.7031 45.6678 14.1188 45.6601C14.5345 45.6523 14.9439 45.5576 15.3207 45.3818C15.5663 46.0912 16.0716 46.681 16.735 47.0324C17.3983 47.3839 18.1701 47.4707 18.8949 47.2754C19.2046 47.1925 19.499 47.0606 19.767 46.8848C20.0027 47.4013 20.3819 47.8393 20.8594 48.1466C21.3369 48.4539 21.8926 48.6176 22.4604 48.6182C22.9629 48.6186 23.4573 48.4916 23.8974 48.2491C24.3374 48.0066 24.7089 47.6564 24.977 47.2314L27.6469 48.7725C28.2195 49.1038 28.8776 49.2577 29.5378 49.2147C30.198 49.1716 30.8306 48.9336 31.3554 48.5308C31.8802 48.1279 32.2736 47.5784 32.4858 46.9517C32.698 46.3251 32.7194 45.6496 32.5473 45.0107C32.5219 44.9131 32.4916 44.8154 32.4584 44.7275C32.5554 44.71 32.6531 44.6885 32.7514 44.6631C33.1757 44.5502 33.5735 44.3547 33.9221 44.0877C34.2706 43.8207 34.5631 43.4876 34.7825 43.1073C35.002 42.727 35.1443 42.3072 35.2011 41.8718C35.2579 41.4365 35.2282 40.9942 35.1137 40.5703C35.0883 40.4727 35.059 40.3799 35.0258 40.2881C35.5077 40.2044 35.9654 40.0159 36.3664 39.736C36.7675 39.456 37.1021 39.0913 37.3467 38.6678C37.5914 38.2442 37.74 37.7721 37.782 37.2848C37.8241 36.7975 37.7586 36.3069 37.5903 35.8477C38.0721 35.7638 38.5297 35.5752 38.9306 35.2951C39.3316 35.0149 39.6661 34.6502 39.9106 34.2266C39.996 34.0784 40.0701 33.924 40.1322 33.7646C40.6147 33.5303 41.06 33.1338 41.4946 32.7461C41.7973 32.4746 42.3051 32.0215 42.5024 31.9893C42.6451 31.9932 42.7861 31.9574 42.9096 31.8857L48.6713 28.5576C48.9236 28.4103 49.1074 28.1691 49.1822 27.8867C49.2571 27.6043 49.217 27.3037 49.0707 27.0508ZM33.4262 3.56348L35.5844 5.90723H33.4262V3.56348ZM13.4135 2.34375H31.8637V6.68848C31.8637 6.89568 31.946 7.09439 32.0925 7.2409C32.239 7.38742 32.4377 7.46973 32.6449 7.46973H36.5854V16.8848L35.0229 17.7852C31.9828 17.6602 27.4633 18.1465 24.4535 19.5322C24.2781 19.6144 24.0954 19.6798 23.9076 19.7275C23.8178 19.7529 23.7182 19.7822 23.5932 19.8252C23.2227 19.9425 22.8749 20.1222 22.5649 20.3564C22.5332 20.3413 22.5006 20.3282 22.4672 20.3174C20.5483 19.6592 17.7084 18.9736 14.9262 19.3662L13.4067 18.4873L13.4135 2.34375ZM7.2006 31.7471L2.5131 29.0391L9.02385 17.7588L13.7113 20.4668L7.2006 31.7471ZM11.4809 41.2109L11.2084 41.6816C11.116 41.8419 10.9928 41.9825 10.846 42.0952C10.6993 42.2079 10.5317 42.2906 10.353 42.3386C10.1743 42.3866 9.98784 42.3988 9.80435 42.3748C9.62087 42.3507 9.44392 42.2907 9.28361 42.1982C9.12331 42.1058 8.98278 41.9826 8.87007 41.8359C8.75735 41.6891 8.67464 41.5216 8.62667 41.3428C8.5787 41.1641 8.5664 40.9777 8.59048 40.7942C8.61456 40.6107 8.67455 40.4337 8.76701 40.2734L11.5883 35.3906C11.6808 35.2303 11.8039 35.0898 11.9507 34.9771C12.0974 34.8644 12.265 34.7817 12.4437 34.7337C12.6224 34.6857 12.8089 34.6734 12.9924 34.6975C13.1759 34.7216 13.3528 34.7816 13.5131 34.874C13.6734 34.9665 13.8139 35.0896 13.9267 35.2364C14.0394 35.3832 14.1221 35.5507 14.17 35.7294C14.218 35.9082 14.2303 36.0946 14.2062 36.2781C14.1822 36.4616 14.1222 36.6385 14.0297 36.7988L11.4828 41.2109H11.4809ZM15.5473 42.9238L15.2748 43.3965C15.0868 43.7186 14.7793 43.9535 14.419 44.0501C14.0587 44.1466 13.6749 44.0971 13.351 43.9121C13.0281 43.7248 12.7925 43.4173 12.6958 43.0567C12.5992 42.6961 12.6494 42.3119 12.8354 41.9883L15.3832 37.5771C15.57 37.2534 15.8777 37.0171 16.2386 36.9202C16.5996 36.8233 16.9843 36.8738 17.308 37.0605C17.6318 37.2473 17.8681 37.555 17.965 37.916C18.0618 38.2769 18.0114 38.6616 17.8246 38.9854L15.5522 42.9219L15.5473 42.9238ZM19.3412 45.1172C19.1545 45.4409 18.8468 45.6772 18.4858 45.7741C18.1248 45.871 17.7402 45.8205 17.4164 45.6338C17.0927 45.447 16.8564 45.1394 16.7595 44.7784C16.6626 44.4174 16.7131 44.0327 16.8998 43.709L19.1733 39.7725C19.3595 39.4487 19.6667 39.2122 20.0273 39.1149C20.3879 39.0177 20.7724 39.0677 21.0961 39.2539C21.4199 39.4401 21.6564 39.7473 21.7536 40.1079C21.8509 40.4685 21.8009 40.853 21.6147 41.1768L19.8901 44.1641L19.3412 45.1172ZM21.7572 46.875C21.4354 46.6872 21.2007 46.38 21.1042 46.0201C21.0076 45.6602 21.057 45.2768 21.2416 44.9531L22.9662 41.9658C23.0587 41.8055 23.1818 41.665 23.3286 41.5523C23.4754 41.4396 23.6429 41.3568 23.8216 41.3089C24.0004 41.2609 24.1868 41.2486 24.3703 41.2727C24.5538 41.2968 24.7307 41.3568 24.891 41.4492C25.0513 41.5417 25.1919 41.6648 25.3046 41.8116C25.4173 41.9584 25.5 42.1259 25.548 42.3046C25.5959 42.4834 25.6082 42.6698 25.5842 42.8533C25.5601 43.0368 25.5001 43.2137 25.4076 43.374L24.017 45.7832L23.685 46.3594C23.4966 46.6822 23.1877 46.9171 22.8262 47.0123C22.4648 47.1075 22.0803 47.0553 21.7572 46.8672V46.875ZM30.8588 46.7773C30.6223 47.1865 30.2331 47.485 29.7766 47.6075C29.3202 47.73 28.8338 47.6664 28.4242 47.4307L25.7582 45.8906L26.7572 44.1465C27.0334 43.6679 27.1704 43.1216 27.1528 42.5693L30.2045 44.3271C30.6143 44.5643 30.9134 44.9543 31.036 45.4116C31.1587 45.8689 31.095 46.3562 30.8588 46.7666V46.7773ZM38.5502 33.4561C38.3135 33.865 37.9242 34.1634 37.4678 34.2857C37.0114 34.408 36.5251 34.3442 36.1156 34.1084L29.6381 30.3691C29.5492 30.3146 29.4502 30.2784 29.3471 30.2627C29.2439 30.2471 29.1387 30.2522 29.0376 30.2779C28.9364 30.3035 28.8415 30.3492 28.7583 30.4121C28.6751 30.475 28.6053 30.554 28.5532 30.6444C28.501 30.7347 28.4674 30.8346 28.4545 30.9381C28.4415 31.0416 28.4494 31.1467 28.4777 31.2471C28.506 31.3475 28.5542 31.4412 28.6193 31.5227C28.6844 31.6043 28.7652 31.6719 28.8569 31.7217L35.3344 35.4492C35.7338 35.6905 36.0227 36.0788 36.1391 36.5307C36.2555 36.9825 36.1901 37.462 35.957 37.8663C35.7239 38.2705 35.3416 38.5673 34.8922 38.6929C34.4428 38.8185 33.9621 38.7629 33.5531 38.5381L28.5785 35.666C28.4897 35.6147 28.3916 35.5814 28.2898 35.568C28.1881 35.5547 28.0847 35.5615 27.9856 35.588C27.8865 35.6146 27.7936 35.6604 27.7122 35.7229C27.6308 35.7854 27.5625 35.8633 27.5112 35.9521C27.4599 36.041 27.4266 36.1391 27.4132 36.2409C27.3998 36.3426 27.4066 36.446 27.4332 36.5451C27.4597 36.6442 27.5056 36.7371 27.568 36.8185C27.6305 36.8999 27.7084 36.9682 27.7973 37.0195L32.7651 39.8877C33.1744 40.1242 33.4731 40.5136 33.5953 40.9702C33.7176 41.4269 33.6534 41.9134 33.4169 42.3228C33.1805 42.7321 32.791 43.0308 32.3344 43.153C31.8777 43.2752 31.3912 43.2111 30.9819 42.9746L27.643 41.0469C27.5004 40.9656 27.3358 40.9313 27.1726 40.9488C27.0094 40.9663 26.8559 41.0348 26.7338 41.1445C26.4042 40.5873 25.901 40.1534 25.3013 39.9095C24.7016 39.6656 24.0385 39.625 23.4135 39.7939L23.2875 39.8301C23.2778 39.7881 23.268 39.7451 23.2563 39.7031C23.1562 39.3269 22.9829 38.9742 22.7463 38.665C22.5097 38.3559 22.2145 38.0964 21.8775 37.9015C21.5405 37.7066 21.1684 37.58 20.7825 37.529C20.3966 37.4781 20.0044 37.5037 19.6283 37.6045C19.5854 37.6162 19.5444 37.6279 19.5024 37.6416C19.4926 37.5986 19.4828 37.5566 19.4711 37.5137C19.3708 37.1369 19.1972 36.7836 18.96 36.474C18.7229 36.1645 18.4271 35.9048 18.0894 35.7098C17.7517 35.5148 17.3789 35.3884 16.9923 35.3379C16.6056 35.2873 16.2128 35.3135 15.8363 35.415L15.7113 35.4512C15.5816 34.8675 15.2786 34.3367 14.8422 33.928C14.4058 33.5194 13.8562 33.252 13.2653 33.1608C12.6744 33.0696 12.0697 33.1589 11.5304 33.417C10.9911 33.6752 10.5422 34.09 10.2426 34.6074L10.2094 34.6641C9.69941 33.942 9.12194 33.27 8.48478 32.6572L15.269 20.8984C17.5151 20.6055 19.8383 21.1113 21.5414 21.6553C21.4704 21.8152 21.412 21.9804 21.3666 22.1494L20.2924 26.1748C20.266 26.2725 20.2406 26.3613 20.2172 26.4482C20.0551 27.0254 19.9145 27.5225 20.0424 28.3428C20.1576 29.0981 20.4304 29.8208 20.8432 30.4639C21.099 30.8418 21.5121 31.3428 22.142 31.3496H22.1537C22.8197 31.3496 23.2006 30.8115 23.5063 30.3779C23.5405 30.3291 23.5756 30.2803 23.6117 30.2305C24.2599 29.3153 24.8615 28.3682 25.4145 27.3926C25.9662 26.4482 26.5375 25.4707 26.8989 25.3838L27.7885 25.1719L37.9018 31.0107C38.3101 31.2481 38.6076 31.6377 38.7292 32.094C38.8507 32.5504 38.7864 33.0363 38.5502 33.4453V33.4561ZM40.2524 31.7637C40.1452 31.3262 39.9505 30.915 39.6801 30.5549C39.4098 30.1947 39.0692 29.893 38.6791 29.668L28.2963 23.6621C28.1232 23.5623 27.9184 23.5326 27.724 23.5791L26.5317 23.8633C25.5209 24.1045 24.9086 25.1533 24.061 26.6035C23.534 27.5357 22.9601 28.4405 22.3412 29.3145C22.3022 29.3682 22.2641 29.4219 22.227 29.4746L22.1401 29.5977L22.1322 29.5859C21.8497 29.1338 21.6626 28.6286 21.5824 28.1016C21.5072 27.6182 21.5824 27.3682 21.7172 26.8691C21.7426 26.7773 21.7699 26.6816 21.7973 26.5762L22.8715 22.5518C22.9392 22.2972 23.063 22.0609 23.2338 21.8604C23.2494 21.8447 23.2631 21.8281 23.2778 21.8115C23.4899 21.5798 23.7594 21.408 24.059 21.3135C24.1674 21.2793 24.2543 21.2539 24.3334 21.2314C24.5971 21.1607 24.854 21.0666 25.101 20.9502C27.9799 19.6289 32.2807 19.2695 34.7563 19.3359L41.3842 30.8154C41.0543 31.0471 40.741 31.3016 40.4467 31.5771C40.3842 31.6406 40.3188 31.6943 40.2524 31.7529V31.7637ZM42.8002 30.1426L36.2856 18.8623L40.9731 16.1543L47.4858 27.4346L42.8002 30.1426ZM20.4516 15.2988C20.6588 15.2988 20.8575 15.2165 21.004 15.07C21.1505 14.9235 21.2328 14.7248 21.2328 14.5176V9.2832C21.2328 9.076 21.1505 8.87729 21.004 8.73078C20.8575 8.58426 20.6588 8.50195 20.4516 8.50195H15.2133C15.0061 8.50195 14.8074 8.58426 14.6609 8.73078C14.5144 8.87729 14.432 9.076 14.432 9.2832V14.5195C14.432 14.7267 14.5144 14.9254 14.6609 15.072C14.8074 15.2185 15.0061 15.3008 15.2133 15.3008L20.4516 15.2988ZM15.9965 10.0625H19.6703V13.7363H15.9945L15.9965 10.0625ZM19.3256 11.7314L18.1362 13.0957C18.0657 13.1763 17.9794 13.2416 17.8826 13.2874C17.7858 13.3333 17.6807 13.3588 17.5737 13.3623H17.5473C17.4442 13.3629 17.3421 13.3431 17.2467 13.3041C17.1514 13.265 17.0647 13.2075 16.9916 13.1348L16.3735 12.5166C16.3009 12.444 16.2433 12.3577 16.204 12.2628C16.1648 12.1679 16.1446 12.0662 16.1446 11.9635C16.1447 11.8608 16.165 11.7591 16.2043 11.6643C16.2437 11.5694 16.3013 11.4832 16.3739 11.4106C16.4466 11.3381 16.5328 11.2805 16.6277 11.2412C16.7226 11.202 16.8243 11.1818 16.927 11.1818C17.0297 11.1819 17.1314 11.2022 17.2263 11.2415C17.3211 11.2808 17.4073 11.3385 17.4799 11.4111L17.5072 11.4385L18.1449 10.707C18.2117 10.6274 18.2936 10.5619 18.3859 10.5143C18.4782 10.4667 18.5791 10.4381 18.6827 10.4299C18.7862 10.4218 18.8904 10.4344 18.989 10.467C19.0876 10.4996 19.1787 10.5516 19.257 10.6198C19.3354 10.6881 19.3993 10.7712 19.445 10.8645C19.4908 10.9577 19.5175 11.0591 19.5237 11.1628C19.5298 11.2665 19.5151 11.3704 19.4806 11.4684C19.4461 11.5663 19.3924 11.6564 19.3227 11.7334L19.3256 11.7314ZM23.5082 14.8252C23.5082 14.618 23.5905 14.4193 23.737 14.2728C23.8836 14.1263 24.0823 14.0439 24.2895 14.0439H34.7875C34.9947 14.0439 35.1934 14.1263 35.3399 14.2728C35.4865 14.4193 35.5688 14.618 35.5688 14.8252C35.5688 15.0324 35.4865 15.2311 35.3399 15.3776C35.1934 15.5241 34.9947 15.6064 34.7875 15.6064H24.2875C24.0807 15.6064 23.8822 15.5244 23.7358 15.3783C23.5893 15.2322 23.5068 15.034 23.5063 14.8271L23.5082 14.8252ZM23.5082 9.28125C23.5082 9.07405 23.5905 8.87534 23.737 8.72882C23.8836 8.58231 24.0823 8.5 24.2895 8.5H29.1645C29.3717 8.5 29.5704 8.58231 29.7169 8.72882C29.8634 8.87534 29.9457 9.07405 29.9457 9.28125C29.9457 9.48845 29.8634 9.68716 29.7169 9.83368C29.5704 9.98019 29.3717 10.0625 29.1645 10.0625H24.2875C24.0807 10.0625 23.8822 9.98046 23.7358 9.83437C23.5893 9.68828 23.5068 9.49006 23.5063 9.2832L23.5082 9.28125ZM23.5082 12.0527C23.5082 11.8455 23.5905 11.6468 23.737 11.5003C23.8836 11.3538 24.0823 11.2715 24.2895 11.2715H31.2231C31.4303 11.2715 31.629 11.3538 31.7755 11.5003C31.922 11.6468 32.0043 11.8455 32.0043 12.0527C32.0043 12.2599 31.922 12.4586 31.7755 12.6052C31.629 12.7517 31.4303 12.834 31.2231 12.834H24.2895C24.1869 12.8342 24.0852 12.8143 23.9904 12.7753C23.8955 12.7362 23.8092 12.6789 23.7365 12.6065C23.6637 12.5342 23.606 12.4482 23.5665 12.3535C23.527 12.2588 23.5065 12.1573 23.5063 12.0547L23.5082 12.0527Z" fill="#F84923"/>
</g>
<defs>
<clipPath id="clip0_327_468">
<rect width="50" height="50" fill="white"/>
</clipPath>
</defs>
</svg>
