<svg width="60" height="60" viewBox="0 0 60 60" fill="none" xmlns="http://www.w3.org/2000/svg">
<path d="M41.4711 57.5484H25.5137C26.4683 57.0192 27.2639 56.2442 27.8179 55.3038C28.3719 54.3634 28.664 53.2918 28.664 52.2003V49.2905H38.3207V52.2003C38.3207 53.2918 38.6129 54.3634 39.1669 55.3038C39.7208 56.2442 40.5165 57.0192 41.4711 57.5484Z" fill="#474747"/>
<path d="M59.2609 13.1357V46.2689C59.2609 47.9387 57.9073 49.2923 56.2375 49.2923H10.7461C9.07629 49.2923 7.72266 47.9387 7.72266 46.2689V13.1357C7.72266 11.4659 9.07629 10.1123 10.7461 10.1123H56.2375C57.9073 10.1124 59.2609 11.4659 59.2609 13.1357Z" fill="#475DA9"/>
<path d="M59.2588 13.1383V46.2707C59.2588 47.9375 57.9046 49.2917 56.2379 49.2917H10.7472C9.07492 49.2917 7.7207 47.9375 7.7207 46.2707V45.9254H19.7389C39.5921 45.9254 55.7059 29.9266 55.8869 10.1118H56.2377C57.9045 10.1118 59.2588 11.466 59.2588 13.1383Z" fill="black" fill-opacity="0.0705882"/>
<path d="M11.9551 14.345H55.0277V42.6146H11.9551V14.345Z" fill="#E8F1F8"/>
<path d="M45.4386 58.1713H21.5445C21.3794 58.1713 21.221 58.1057 21.1042 57.9889C20.9875 57.8721 20.9219 57.7138 20.9219 57.5486C20.9219 57.3835 20.9875 57.2251 21.1042 57.1084C21.221 56.9916 21.3794 56.926 21.5445 56.926H45.4386C45.6037 56.926 45.762 56.9916 45.8788 57.1084C45.9956 57.2251 46.0612 57.3835 46.0612 57.5486C46.0612 57.7138 45.9956 57.8721 45.8788 57.9889C45.762 58.1057 45.6037 58.1713 45.4386 58.1713Z" fill="#474747"/>
<path d="M51.821 26.6348V38.8955C51.821 39.0665 51.753 39.2305 51.6321 39.3514C51.5112 39.4723 51.3472 39.5403 51.1762 39.5403H48.3127C48.1417 39.5403 47.9777 39.4723 47.8568 39.3514C47.7359 39.2305 47.668 39.0665 47.668 38.8955V26.6348C47.668 26.4638 47.7359 26.2998 47.8568 26.1788C47.9777 26.0579 48.1417 25.99 48.3127 25.99H51.1762C51.3472 25.99 51.5112 26.0579 51.6321 26.1788C51.753 26.2998 51.821 26.4638 51.821 26.6348Z" fill="#0E9C4A"/>
<path d="M51.8225 26.6348V38.8955C51.8223 39.0665 51.7544 39.2304 51.6335 39.3512C51.5126 39.4721 51.3487 39.5401 51.1777 39.5403H48.3127C48.1418 39.5401 47.9779 39.4721 47.857 39.3512C47.7361 39.2304 47.6681 39.0665 47.668 38.8955V38.831C49.3358 38.5623 50.6103 37.1138 50.6103 35.3707V25.99H51.1777C51.3487 25.9901 51.5126 26.0581 51.6335 26.179C51.7544 26.2999 51.8224 26.4638 51.8225 26.6348Z" fill="black" fill-opacity="0.0627451"/>
<path d="M45.2761 23.8293V38.8957C45.2761 39.0667 45.2081 39.2307 45.0872 39.3516C44.9663 39.4725 44.8023 39.5404 44.6313 39.5404H41.7678C41.5968 39.5404 41.4328 39.4725 41.3119 39.3516C41.191 39.2307 41.123 39.0667 41.123 38.8957V23.8293C41.123 23.6583 41.191 23.4943 41.3119 23.3734C41.4328 23.2525 41.5968 23.1846 41.7678 23.1846H44.6313C44.8023 23.1846 44.9663 23.2525 45.0872 23.3734C45.2081 23.4943 45.2761 23.6583 45.2761 23.8293Z" fill="#FDCF17"/>
<path d="M45.2776 23.8293V38.8957C45.2774 39.0666 45.2094 39.2305 45.0886 39.3514C44.9677 39.4723 44.8038 39.5403 44.6328 39.5404H41.7678C41.5969 39.5403 41.433 39.4723 41.3121 39.3514C41.1912 39.2305 41.1232 39.0666 41.123 38.8957V38.8312C42.7909 38.5625 44.0654 37.1139 44.0654 35.3709V23.1846H44.6328C44.8038 23.1847 44.9677 23.2527 45.0886 23.3736C45.2095 23.4944 45.2775 23.6584 45.2776 23.8293Z" fill="black" fill-opacity="0.0627451"/>
<path d="M38.7311 29.0649V38.8957C38.7311 39.0667 38.6632 39.2307 38.5423 39.3516C38.4214 39.4725 38.2574 39.5404 38.0864 39.5404H35.2229C35.1382 39.5404 35.0544 39.5238 34.9761 39.4914C34.8979 39.459 34.8268 39.4115 34.767 39.3516C34.7071 39.2917 34.6596 39.2206 34.6272 39.1424C34.5948 39.0642 34.5781 38.9803 34.5781 38.8957V29.0649C34.5781 28.9803 34.5948 28.8964 34.6272 28.8182C34.6596 28.74 34.7071 28.6689 34.767 28.609C34.8268 28.5491 34.8979 28.5016 34.9761 28.4692C35.0544 28.4368 35.1382 28.4202 35.2229 28.4202H38.0864C38.2574 28.4202 38.4214 28.4881 38.5423 28.609C38.6632 28.7299 38.7311 28.8939 38.7311 29.0649Z" fill="#F14F4A"/>
<path d="M38.7307 29.0649V38.8957C38.7305 39.0666 38.6626 39.2305 38.5417 39.3514C38.4208 39.4723 38.2569 39.5403 38.0859 39.5404H35.2209C35.05 39.5403 34.8861 39.4723 34.7652 39.3514C34.6443 39.2305 34.5763 39.0666 34.5762 38.8957V38.8312C36.244 38.5625 37.5185 37.114 37.5185 35.3709V28.4202H38.0859C38.2569 28.4203 38.4208 28.4883 38.5417 28.6092C38.6626 28.73 38.7306 28.894 38.7307 29.0649Z" fill="black" fill-opacity="0.0627451"/>
<path d="M32.1843 25.0801V38.8957C32.1843 39.0667 32.1163 39.2307 31.9954 39.3516C31.8745 39.4725 31.7105 39.5404 31.5395 39.5404H28.676C28.505 39.5404 28.341 39.4725 28.2201 39.3516C28.0992 39.2307 28.0312 39.0667 28.0312 38.8957V25.0801C28.0312 24.9091 28.0992 24.7451 28.2201 24.6241C28.341 24.5032 28.505 24.4353 28.676 24.4353H31.5395C31.6242 24.4353 31.708 24.4519 31.7863 24.4843C31.8645 24.5167 31.9356 24.5642 31.9955 24.6241C32.0554 24.684 32.1028 24.7551 32.1352 24.8333C32.1676 24.9115 32.1843 24.9954 32.1843 25.0801Z" fill="#F78721"/>
<path d="M32.1858 25.0799V38.8955C32.1856 39.0665 32.1176 39.2304 31.9968 39.3513C31.8759 39.4722 31.712 39.5401 31.541 39.5403H28.676C28.5051 39.5401 28.3412 39.4722 28.2203 39.3513C28.0994 39.2304 28.0314 39.0665 28.0312 38.8955V38.8311C29.6991 38.5624 30.9736 37.1138 30.9736 35.3708V24.4351H31.541C31.712 24.4352 31.8759 24.5032 31.9968 24.6241C32.1177 24.745 32.1857 24.909 32.1858 25.0799Z" fill="black" fill-opacity="0.0627451"/>
<path d="M30.1086 4.96795V17.5567C30.1086 19.2905 28.703 20.696 26.9693 20.696H24.7482L23.0756 25.0117C22.7151 25.9417 21.399 25.941 21.0395 25.0106L19.3721 20.6959H3.87957C2.14578 20.6959 0.740234 19.2904 0.740234 17.5566V4.96795C0.740234 3.23416 2.14578 1.82861 3.87957 1.82861H26.9693C28.703 1.82861 30.1086 3.23416 30.1086 4.96795Z" fill="#0E9C4A"/>
<path d="M26.9693 1.82861H26.3275C26.3275 9.95686 19.7383 16.5461 11.6101 16.5461H0.740234V17.5566C0.740234 19.2904 2.14578 20.6959 3.87957 20.6959H19.3721L21.0395 25.0106C21.399 25.941 22.7151 25.9417 23.0756 25.0117L24.7482 20.696H26.9693C28.703 20.696 30.1086 19.2905 30.1086 17.5567V4.96795C30.1086 3.23416 28.703 1.82861 26.9693 1.82861Z" fill="black" fill-opacity="0.0627451"/>
<path d="M10.1986 16.0535L6.08601 13.7198C5.94583 13.6366 5.84388 13.5017 5.80207 13.3441C5.76026 13.1865 5.78193 13.0188 5.86242 12.877C5.94291 12.7353 6.07579 12.6307 6.23253 12.5859C6.38926 12.541 6.55734 12.5594 6.70066 12.6371L10.3916 14.7316L14.1686 10.7892C14.2619 10.6921 14.3842 10.6278 14.5171 10.6059C14.65 10.584 14.7865 10.6058 14.906 10.6679L18.483 12.5343L22.2998 5.71871C22.3807 5.57479 22.5153 5.46882 22.6742 5.42403C22.8331 5.37924 23.0032 5.39928 23.1473 5.47976C23.2187 5.51972 23.2815 5.57333 23.3321 5.63755C23.3827 5.70177 23.4202 5.77532 23.4423 5.85402C23.4645 5.93272 23.471 6.01502 23.4614 6.09622C23.4518 6.17742 23.4262 6.25592 23.3863 6.32726L19.2739 13.6703C19.1947 13.8115 19.0636 13.9162 18.9085 13.9624C18.7534 14.0087 18.5864 13.9928 18.4428 13.9181L14.7443 11.9881L10.9554 15.943C10.8595 16.0429 10.733 16.1081 10.596 16.1281C10.4589 16.1481 10.3191 16.1219 10.1986 16.0535Z" fill="#E8F1F8"/>
<path d="M23.5523 8.10226L20.635 6.6346C20.1588 6.39507 20.1857 5.70636 20.6792 5.50468L22.9801 4.56425C23.0622 4.53066 23.1506 4.51508 23.2393 4.51854C23.328 4.522 23.4149 4.54443 23.4942 4.58432C23.5735 4.62421 23.6434 4.68062 23.699 4.74977C23.7547 4.81892 23.7949 4.89919 23.8169 4.98518L24.4333 7.39315C24.5655 7.90972 24.0285 8.34179 23.5523 8.10226Z" fill="#E8F1F8"/>
<path d="M24.2423 39.5416H16.3648C16.1997 39.5416 16.0413 39.476 15.9245 39.3593C15.8078 39.2425 15.7422 39.0841 15.7422 38.919C15.7422 38.7539 15.8078 38.5955 15.9245 38.4787C16.0413 38.362 16.1997 38.2964 16.3648 38.2964H24.2423C24.4074 38.2964 24.5658 38.362 24.6825 38.4787C24.7993 38.5955 24.8649 38.7539 24.8649 38.919C24.8649 39.0841 24.7993 39.2425 24.6825 39.3593C24.5658 39.476 24.4074 39.5416 24.2423 39.5416Z" fill="#474747"/>
<path d="M24.2423 34.9332H16.3648C16.1997 34.9332 16.0413 34.8676 15.9245 34.7509C15.8078 34.6341 15.7422 34.4757 15.7422 34.3106C15.7422 34.1455 15.8078 33.9871 15.9245 33.8703C16.0413 33.7536 16.1997 33.688 16.3648 33.688H24.2423C24.4074 33.688 24.5658 33.7536 24.6825 33.8703C24.7993 33.9871 24.8649 34.1455 24.8649 34.3106C24.8649 34.4757 24.7993 34.6341 24.6825 34.7509C24.5658 34.8676 24.4074 34.9332 24.2423 34.9332Z" fill="#474747"/>
<path d="M24.2416 30.3248H21.3355C21.1704 30.3248 21.012 30.2592 20.8953 30.1425C20.7785 30.0257 20.7129 29.8673 20.7129 29.7022C20.7129 29.5371 20.7785 29.3787 20.8953 29.262C21.012 29.1452 21.1704 29.0796 21.3355 29.0796H24.2416C24.4068 29.0796 24.5651 29.1452 24.6819 29.262C24.7987 29.3787 24.8643 29.5371 24.8643 29.7022C24.8643 29.8673 24.7987 30.0257 24.6819 30.1425C24.5651 30.2592 24.4068 30.3248 24.2416 30.3248Z" fill="#474747"/>
</svg>
