<svg width="60" height="60" viewBox="0 0 60 60" fill="none" xmlns="http://www.w3.org/2000/svg">
<g clip-path="url(#clip0_483_1949)">
<path d="M48.1855 36.8569H49.9434V40.7178H48.1855V36.8569ZM48.1855 48.2942H49.9434V52.1551H48.1855V48.2942Z" fill="#99E6FC"/>
<path d="M49.0641 15.9326C48.831 15.9326 48.6074 16.0252 48.4426 16.1901C48.2778 16.3549 48.1852 16.5784 48.1852 16.8115V18.2178C48.1852 18.7032 48.5786 19.0967 49.0641 19.0967C49.5496 19.0967 49.943 18.7032 49.943 18.2178V16.8115C49.943 16.5784 49.8504 16.3549 49.6856 16.1901C49.5208 16.0252 49.2972 15.9326 49.0641 15.9326ZM45.51 11.4448H43.7678C43.7923 11.7601 43.806 12.0769 43.806 12.3923C43.806 12.6619 43.7962 12.9328 43.7782 13.2026H45.51C45.9955 13.2026 46.3889 12.8091 46.3889 12.3237C46.3889 11.8383 45.9955 11.4448 45.51 11.4448ZM49.0455 14.7617C49.1712 14.7619 49.2956 14.7351 49.4101 14.6831C49.5246 14.6311 49.6267 14.5551 49.7093 14.4603C49.7919 14.3655 49.8533 14.254 49.8891 14.1335C49.925 14.0129 49.9346 13.8861 49.9172 13.7615C49.8196 13.06 49.4556 12.4351 48.8923 12.0017C48.7073 11.8622 48.4748 11.8013 48.2452 11.8324C48.0156 11.8634 47.8075 11.9839 47.6663 12.1675C47.525 12.3511 47.4619 12.5831 47.4908 12.813C47.5197 13.0429 47.6381 13.2521 47.8204 13.3951C48.0147 13.5431 48.1425 13.7619 48.1761 14.0038C48.2053 14.2137 48.3094 14.406 48.4691 14.5453C48.6289 14.6845 48.8335 14.7614 49.0455 14.7617ZM49.0641 24.6045C48.831 24.6045 48.6074 24.6971 48.4426 24.8619C48.2778 25.0268 48.1852 25.2503 48.1852 25.4834V26.8897C48.1852 27.3751 48.5786 27.7686 49.0641 27.7686C49.5496 27.7686 49.943 27.3751 49.943 26.8897V25.4834C49.943 25.2503 49.8504 25.0268 49.6856 24.8619C49.5208 24.6971 49.2972 24.6045 49.0641 24.6045ZM49.0641 20.2686C48.831 20.2686 48.6074 20.3612 48.4426 20.526C48.2778 20.6908 48.1852 20.9144 48.1852 21.1475V22.5537C48.1852 23.0391 48.5786 23.4326 49.0641 23.4326C49.5496 23.4326 49.943 23.0391 49.943 22.5537V21.1475C49.943 20.9144 49.8504 20.6908 49.6856 20.526C49.5208 20.3612 49.2972 20.2686 49.0641 20.2686ZM21.5993 55.0644H20.1931C19.96 55.0644 19.7364 55.157 19.5716 55.3218C19.4068 55.4866 19.3142 55.7102 19.3142 55.9433C19.3142 56.1764 19.4068 56.3999 19.5716 56.5647C19.7364 56.7296 19.96 56.8222 20.1931 56.8222H21.5993C21.8324 56.8222 22.056 56.7296 22.2208 56.5647C22.3856 56.3999 22.4782 56.1764 22.4782 55.9433C22.4782 55.7102 22.3856 55.4866 22.2208 55.3218C22.056 55.157 21.8324 55.0644 21.5993 55.0644ZM17.2634 55.0644H17.2074C16.9731 55.0646 16.7474 54.9764 16.5754 54.8174C16.4039 54.6608 16.1773 54.5785 15.9453 54.5884C15.7133 54.5983 15.4946 54.6997 15.337 54.8703C15.1795 55.041 15.0959 55.267 15.1045 55.4991C15.1131 55.7312 15.2132 55.9505 15.383 56.109C15.8795 56.5682 16.5311 56.8229 17.2074 56.8222H17.2634C17.4965 56.8222 17.7201 56.7296 17.8849 56.5647C18.0497 56.3999 18.1423 56.1764 18.1423 55.9433C18.1423 55.7102 18.0497 55.4866 17.8849 55.3218C17.7201 55.157 17.4965 55.0644 17.2634 55.0644ZM16.2754 52.6981V51.2919C16.2754 51.0588 16.1828 50.8352 16.018 50.6704C15.8531 50.5055 15.6296 50.4129 15.3965 50.4129C15.1634 50.4129 14.9398 50.5055 14.775 50.6704C14.6102 50.8352 14.5176 51.0588 14.5176 51.2919V52.6981C14.5176 52.9312 14.6102 53.1548 14.775 53.3196C14.9398 53.4844 15.1634 53.577 15.3965 53.577C15.6296 53.577 15.8531 53.4844 16.018 53.3196C16.1828 53.1548 16.2754 52.9312 16.2754 52.6981ZM15.3965 49.2411C15.6296 49.2411 15.8531 49.1485 16.018 48.9836C16.1828 48.8188 16.2754 48.5953 16.2754 48.3622V46.9559C16.2754 46.7228 16.1828 46.4993 16.018 46.3344C15.8531 46.1696 15.6296 46.077 15.3965 46.077C15.1634 46.077 14.9398 46.1696 14.775 46.3344C14.6102 46.4993 14.5176 46.7228 14.5176 46.9559V48.3622C14.5176 48.5953 14.6102 48.8188 14.775 48.9836C14.9398 49.1485 15.1634 49.2411 15.3965 49.2411ZM30.2712 55.0644H28.865C28.6319 55.0644 28.4083 55.157 28.2435 55.3218C28.0787 55.4866 27.9861 55.7102 27.9861 55.9433C27.9861 56.1764 28.0787 56.3999 28.2435 56.5647C28.4083 56.7296 28.6319 56.8222 28.865 56.8222H30.2712C30.7567 56.8222 31.1501 56.4286 31.1501 55.9433C31.1501 55.4579 30.7567 55.0644 30.2712 55.0644ZM38.2461 55.0644H37.5368C37.0513 55.0644 36.6579 55.4579 36.6579 55.9433C36.6579 56.4286 37.0513 56.8222 37.5368 56.8222H38.2461V55.0644ZM34.6071 55.0644H33.2009C32.7154 55.0644 32.322 55.4579 32.322 55.9433C32.322 56.4286 32.7154 56.8222 33.2009 56.8222H34.6071C35.0927 56.8222 35.4861 56.4286 35.4861 55.9433C35.4861 55.4579 35.0927 55.0644 34.6071 55.0644ZM25.9353 55.0644H24.529C24.2959 55.0644 24.0724 55.157 23.9075 55.3218C23.7427 55.4866 23.6501 55.7102 23.6501 55.9433C23.6501 56.1764 23.7427 56.3999 23.9075 56.5647C24.0724 56.7296 24.2959 56.8222 24.529 56.8222H25.9353C26.1684 56.8222 26.3919 56.7296 26.5568 56.5647C26.7216 56.3999 26.8142 56.1764 26.8142 55.9433C26.8142 55.7102 26.7216 55.4866 26.5568 55.3218C26.3919 55.157 26.1684 55.0644 25.9353 55.0644Z" fill="#99E6FC"/>
<path d="M19.4926 44.2256C19.4926 40.3805 22.6207 37.2526 26.4656 37.2526C26.4735 37.2526 26.4811 37.2531 26.4888 37.2531V20.3834L24.9777 21.8946C24.9239 21.9487 24.8598 21.9917 24.7892 22.0209C24.7187 22.0502 24.643 22.0651 24.5666 22.0649C24.4397 22.0655 24.3163 22.0231 24.2166 21.9447C23.4394 21.3362 22.7389 20.6357 22.1304 19.8585C21.9524 19.6312 21.9741 19.304 22.1805 19.0974L23.9404 17.3376C24.1928 17.0853 24.2494 16.7006 24.0812 16.3804C23.8404 15.9216 23.6419 15.4418 23.4879 14.9471C23.3804 14.602 23.0686 14.3702 22.7116 14.3702H20.2219C19.9298 14.3702 19.6833 14.1542 19.6484 13.8678C19.5889 13.3782 19.5591 12.8855 19.5589 12.3923C19.5589 12.3694 19.5599 12.3466 19.56 12.3237H5.87648C5.71796 12.3237 5.56098 12.3549 5.41452 12.4156C5.26806 12.4763 5.13498 12.5652 5.02289 12.6773L0.353555 17.3466C0.241456 17.4587 0.152536 17.5918 0.0918727 17.7383C0.0312093 17.8847 -9.23708e-06 18.0417 2.05014e-09 18.2002L2.05014e-09 44.2932C2.05014e-09 44.96 0.540469 45.5005 1.20727 45.5005H19.6116C19.5329 45.08 19.4931 44.6533 19.4926 44.2256Z" fill="#FEF1DA"/>
<path d="M5.01012 44.2933V18.2003C5.01012 17.8802 5.13727 17.573 5.36367 17.3466L10.033 12.6773C10.1451 12.5652 10.2782 12.4763 10.4246 12.4156C10.5711 12.3549 10.7281 12.3237 10.8866 12.3237H5.87648C5.71796 12.3237 5.56098 12.3549 5.41452 12.4156C5.26806 12.4763 5.13498 12.5652 5.02289 12.6773L0.353555 17.3467C0.241456 17.4588 0.152536 17.5919 0.0918727 17.7384C0.0312093 17.8848 -9.23708e-06 18.0418 2.05014e-09 18.2003L2.05014e-09 44.2933C2.05014e-09 44.9601 0.540469 45.5006 1.20727 45.5006H6.21738C5.55059 45.5006 5.01012 44.9601 5.01012 44.2933Z" fill="#FAE2C0"/>
<path d="M19.5223 21.6733H6.96484C6.73174 21.6733 6.50819 21.5807 6.34336 21.4159C6.17854 21.2511 6.08594 21.0275 6.08594 20.7944C6.08594 20.5613 6.17854 20.3378 6.34336 20.173C6.50819 20.0081 6.73174 19.9155 6.96484 19.9155H19.5223C19.7554 19.9155 19.979 20.0081 20.1438 20.173C20.3086 20.3378 20.4012 20.5613 20.4012 20.7944C20.4012 21.0275 20.3086 21.2511 20.1438 21.4159C19.979 21.5807 19.7554 21.6733 19.5223 21.6733ZM19.5223 26.06H6.96484C6.73174 26.06 6.50819 25.9674 6.34336 25.8026C6.17854 25.6378 6.08594 25.4142 6.08594 25.1811C6.08594 24.948 6.17854 24.7245 6.34336 24.5596C6.50819 24.3948 6.73174 24.3022 6.96484 24.3022H19.5223C19.7554 24.3022 19.979 24.3948 20.1438 24.5596C20.3086 24.7245 20.4012 24.948 20.4012 25.1811C20.4012 25.4142 20.3086 25.6378 20.1438 25.8026C19.979 25.9674 19.7554 26.06 19.5223 26.06ZM19.5223 30.4272H6.96484C6.73174 30.4272 6.50819 30.3346 6.34336 30.1698C6.17854 30.005 6.08594 29.7814 6.08594 29.5483C6.08594 29.3152 6.17854 29.0917 6.34336 28.9269C6.50819 28.762 6.73174 28.6694 6.96484 28.6694H19.5223C19.7554 28.6694 19.979 28.762 20.1438 28.9269C20.3086 29.0917 20.4012 29.3152 20.4012 29.5483C20.4012 29.7814 20.3086 30.005 20.1438 30.1698C19.979 30.3346 19.7554 30.4272 19.5223 30.4272ZM19.5223 34.8336H6.96484C6.73174 34.8336 6.50819 34.741 6.34336 34.5762C6.17854 34.4114 6.08594 34.1878 6.08594 33.9547C6.08594 33.7216 6.17854 33.4981 6.34336 33.3332C6.50819 33.1684 6.73174 33.0758 6.96484 33.0758H19.5223C19.7554 33.0758 19.979 33.1684 20.1438 33.3332C20.3086 33.4981 20.4012 33.7216 20.4012 33.9547C20.4012 34.1878 20.3086 34.4114 20.1438 34.5762C19.979 34.741 19.7554 34.8336 19.5223 34.8336ZM12.5941 39.2204H6.96484C6.73174 39.2204 6.50819 39.1278 6.34336 38.963C6.17854 38.7982 6.08594 38.5746 6.08594 38.3415C6.08594 38.1084 6.17854 37.8849 6.34336 37.72C6.50819 37.5552 6.73174 37.4626 6.96484 37.4626H12.5941C12.8272 37.4626 13.0507 37.5552 13.2155 37.72C13.3804 37.8849 13.473 38.1084 13.473 38.3415C13.473 38.5746 13.3804 38.7982 13.2155 38.963C13.0507 39.1278 12.8272 39.2204 12.5941 39.2204Z" fill="#D8AA5E"/>
<path d="M26.4652 51.3159C30.381 51.3159 33.5554 48.1415 33.5554 44.2257C33.5554 40.3099 30.381 37.1355 26.4652 37.1355C22.5494 37.1355 19.375 40.3099 19.375 44.2257C19.375 48.1415 22.5494 51.3159 26.4652 51.3159Z" fill="#05E39C"/>
<path d="M23.4248 44.2257C23.4248 41.0137 25.5612 38.3021 28.4901 37.4306C27.8329 37.2348 27.1509 37.1354 26.4652 37.1355C22.5494 37.1355 19.375 40.3099 19.375 44.2257C19.375 48.1415 22.5494 51.3159 26.4652 51.3159C27.169 51.3159 27.8482 51.2118 28.4901 51.0208C25.5612 50.1493 23.4248 47.4377 23.4248 44.2257Z" fill="#0ED290"/>
<path d="M26.0158 47.1093C25.9003 47.1095 25.786 47.0868 25.6794 47.0426C25.5727 46.9985 25.4758 46.9336 25.3943 46.8519L22.6402 44.0977C22.4754 43.9329 22.3828 43.7094 22.3828 43.4763C22.3828 43.2432 22.4754 43.0197 22.6402 42.8548C22.805 42.69 23.0286 42.5975 23.2616 42.5975C23.4947 42.5975 23.7183 42.69 23.8831 42.8548L26.0158 44.9875L29.0493 41.954C29.1309 41.8724 29.2278 41.8076 29.3344 41.7635C29.441 41.7193 29.5553 41.6965 29.6707 41.6965C29.7862 41.6965 29.9005 41.7193 30.0071 41.7635C30.1137 41.8076 30.2106 41.8724 30.2922 41.954C30.457 42.1188 30.5496 42.3424 30.5496 42.5755C30.5496 42.8086 30.457 43.0321 30.2922 43.1969L26.6372 46.852C26.5557 46.9337 26.4588 46.9985 26.3522 47.0427C26.2455 47.0868 26.1312 47.1095 26.0158 47.1093Z" fill="white"/>
<path d="M39.5077 7.53005L41.2676 5.77025C41.5146 5.52322 41.5424 5.12911 41.3271 4.85407C40.7128 4.06937 40.0056 3.36212 39.2209 2.74786C38.9458 2.53259 38.5517 2.56036 38.3047 2.8074L36.5449 4.5672C36.3281 4.784 35.9966 4.8297 35.725 4.6872C35.26 4.44299 34.7736 4.24165 34.272 4.08568C33.9794 3.99474 33.7775 3.72779 33.7775 3.42146V0.931458C33.7775 0.582239 33.5189 0.28388 33.1722 0.241692C32.1828 0.121259 31.1823 0.121259 30.1929 0.241692C29.8462 0.28388 29.5875 0.582239 29.5875 0.931458V3.42134C29.5875 3.72779 29.3856 3.99462 29.0929 4.08556C28.5913 4.24151 28.105 4.44285 27.6399 4.68708C27.3684 4.8297 27.0369 4.784 26.8201 4.56708L25.0603 2.80728C24.8133 2.56025 24.4192 2.53247 24.1441 2.74775C23.3594 3.36201 22.6522 4.06925 22.0379 4.85396C21.8226 5.129 21.8504 5.5231 22.0974 5.77013L23.8572 7.52993C24.074 7.74673 24.1197 8.07825 23.9772 8.34978C23.733 8.81484 23.5317 9.30119 23.3757 9.80279C23.2848 10.0954 23.0178 10.2973 22.7115 10.2973H20.2215C19.8723 10.2973 19.5739 10.556 19.5317 10.9026C19.4113 11.8921 19.4113 12.8925 19.5317 13.882C19.5739 14.2286 19.8723 14.4872 20.2215 14.4872H22.7114C23.0178 14.4872 23.2847 14.6892 23.3756 14.9818C23.5315 15.4834 23.7329 15.9697 23.9771 16.4348C24.1197 16.7063 24.074 17.0378 23.8571 17.2546L22.0973 19.0144C21.8503 19.2615 21.8225 19.6556 22.0378 19.9306C22.652 20.7153 23.3593 21.4225 24.144 22.0368C24.419 22.2521 24.8131 22.2243 25.0602 21.9773L26.82 20.2175C27.0368 20.0007 27.3683 19.955 27.6398 20.0975C28.1049 20.3417 28.5912 20.543 29.0928 20.699C29.3854 20.7899 29.5874 21.0569 29.5874 21.3632V23.8531C29.5874 24.2023 29.846 24.5007 30.1927 24.5429C31.1822 24.6633 32.1826 24.6633 33.1721 24.5429C33.5188 24.5007 33.7774 24.2023 33.7774 23.8531V21.3632C33.7774 21.0568 33.9793 20.7899 34.2719 20.699C34.7735 20.543 35.2599 20.3417 35.7249 20.0975C35.9965 19.9549 36.328 20.0006 36.5448 20.2175L38.3046 21.9773C38.5516 22.2243 38.9457 22.2521 39.2208 22.0368C40.0055 21.4225 40.7127 20.7153 41.327 19.9306C41.5422 19.6556 41.5145 19.2615 41.2674 19.0144L39.5076 17.2546C39.2908 17.0378 39.2451 16.7063 39.3876 16.4348C39.6318 15.9697 39.8332 15.4834 39.9892 14.9818C40.0801 14.6892 40.347 14.4872 40.6534 14.4872H43.1433C43.4925 14.4872 43.7908 14.2286 43.833 13.882C43.9535 12.8925 43.9535 11.8921 43.833 10.9026C43.7908 10.556 43.4925 10.2973 43.1433 10.2973H40.6534C40.3469 10.2973 40.0801 10.0954 39.9892 9.80279C39.8332 9.30118 39.6319 8.81483 39.3876 8.34978C39.2452 8.07837 39.2909 7.74685 39.5077 7.53005Z" fill="#7CA1B1"/>
<path d="M29.6982 18.4416C27.1562 17.6056 25.3151 15.2106 25.3151 12.3924C25.3151 9.57415 27.1562 7.17919 29.6982 6.34318C30.7777 5.082 32.1883 4.11251 33.7956 3.56935C33.7841 3.52082 33.7781 3.47119 33.7775 3.42134V0.931458C33.7775 0.582239 33.5189 0.28388 33.1722 0.241692C32.1828 0.121259 31.1823 0.121259 30.1929 0.241692C29.8462 0.28388 29.5875 0.582239 29.5875 0.931458V3.42134C29.5875 3.72779 29.3856 3.99462 29.0929 4.08556C28.5913 4.24151 28.105 4.44285 27.6399 4.68708C27.3684 4.8297 27.0369 4.784 26.8201 4.56708L25.0603 2.80728C24.8133 2.56025 24.4192 2.53247 24.1441 2.74775C23.3594 3.36201 22.6522 4.06925 22.0379 4.85396C21.8226 5.129 21.8504 5.5231 22.0974 5.77013L23.8572 7.52993C24.074 7.74673 24.1197 8.07825 23.9772 8.34978C23.733 8.81484 23.5317 9.30119 23.3757 9.80279C23.2848 10.0954 23.0178 10.2973 22.7115 10.2973H20.2215C19.8723 10.2973 19.5739 10.556 19.5317 10.9026C19.4113 11.8921 19.4113 12.8925 19.5317 13.882C19.5739 14.2286 19.8723 14.4872 20.2215 14.4872H22.7114C23.0178 14.4872 23.2847 14.6892 23.3756 14.9818C23.5315 15.4834 23.7329 15.9697 23.9771 16.4348C24.1197 16.7063 24.074 17.0378 23.8571 17.2546L22.0973 19.0144C21.8503 19.2615 21.8225 19.6556 22.0378 19.9306C22.652 20.7153 23.3593 21.4225 24.144 22.0368C24.419 22.2521 24.8131 22.2243 25.0602 21.9773L26.82 20.2175C27.0368 20.0007 27.3683 19.955 27.6398 20.0975C28.1049 20.3417 28.5912 20.543 29.0928 20.699C29.3854 20.7899 29.5874 21.0569 29.5874 21.3632V23.8531C29.5874 24.2023 29.846 24.5007 30.1927 24.5429C31.1822 24.6633 32.1826 24.6633 33.1721 24.5429C33.5188 24.5007 33.7774 24.2023 33.7774 23.8531V21.3632C33.7774 21.3124 33.7849 21.2633 33.7954 21.2152C32.1884 20.6723 30.7777 19.7028 29.6982 18.4416Z" fill="#678D98"/>
<path d="M31.6838 17.8808C34.715 17.8808 37.1723 15.4235 37.1723 12.3923C37.1723 9.36108 34.715 6.90381 31.6838 6.90381C28.6526 6.90381 26.1953 9.36108 26.1953 12.3923C26.1953 15.4235 28.6526 17.8808 31.6838 17.8808Z" fill="#3E5959"/>
<path d="M29.2766 12.3923C29.2766 9.89619 30.9435 7.79068 33.2245 7.12459C32.724 6.97819 32.2052 6.90384 31.6838 6.90381C28.6525 6.90381 26.1953 9.36111 26.1953 12.3923C26.1953 15.4235 28.6526 17.8808 31.6838 17.8808C32.2189 17.8808 32.7355 17.8027 33.2245 17.66C30.9435 16.994 29.2766 14.8884 29.2766 12.3923Z" fill="#384949"/>
<path d="M31.6838 18.7597C28.1729 18.7597 25.3164 15.9032 25.3164 12.3923C25.3164 8.88135 28.1729 6.0249 31.6838 6.0249C35.1947 6.0249 38.0512 8.88135 38.0512 12.3923C38.0512 15.9032 35.1947 18.7597 31.6838 18.7597ZM31.6838 7.78272C29.1421 7.78272 27.0742 9.85061 27.0742 12.3923C27.0742 14.934 29.1421 17.0019 31.6838 17.0019C34.2255 17.0019 36.2934 14.934 36.2934 12.3923C36.2934 9.85061 34.2256 7.78272 31.6838 7.78272Z" fill="#8EBAC5"/>
<path d="M31.6829 14.298C32.7354 14.298 33.5885 13.4448 33.5885 12.3924C33.5885 11.34 32.7354 10.4868 31.6829 10.4868C30.6305 10.4868 29.7773 11.34 29.7773 12.3924C29.7773 13.4448 30.6305 14.298 31.6829 14.298Z" fill="white"/>
<path d="M59.3957 36.9741H38.7325C38.6533 36.9741 38.5748 36.9585 38.5015 36.9282C38.4283 36.8979 38.3617 36.8534 38.3057 36.7973C38.2496 36.7413 38.2052 36.6747 38.1748 36.6015C38.1445 36.5283 38.1289 36.4498 38.1289 36.3705V29.767C38.1289 29.6877 38.1445 29.6092 38.1748 29.5359C38.2052 29.4627 38.2496 29.3962 38.3057 29.3401C38.3617 29.284 38.4283 29.2396 38.5015 29.2092C38.5748 29.1789 38.6533 29.1633 38.7325 29.1633H59.3957C59.475 29.1633 59.5535 29.1789 59.6268 29.2092C59.7 29.2396 59.7666 29.284 59.8226 29.3401C59.8787 29.3962 59.9231 29.4627 59.9535 29.5359C59.9838 29.6092 59.9994 29.6877 59.9994 29.767V36.3706C59.9994 36.4499 59.9838 36.5284 59.9534 36.6016C59.9231 36.6748 59.8786 36.7413 59.8226 36.7974C59.7665 36.8534 59.7 36.8979 59.6267 36.9282C59.5535 36.9585 59.475 36.9741 59.3957 36.9741Z" fill="#01D0FB"/>
<path d="M42.1925 36.3706V29.767C42.1925 29.6877 42.2081 29.6092 42.2384 29.5359C42.2687 29.4627 42.3132 29.3962 42.3693 29.3401C42.4253 29.284 42.4919 29.2396 42.5651 29.2092C42.6384 29.1789 42.7169 29.1633 42.7961 29.1633H38.7325C38.6533 29.1633 38.5748 29.1789 38.5015 29.2092C38.4283 29.2396 38.3617 29.284 38.3057 29.3401C38.2496 29.3962 38.2052 29.4627 38.1748 29.5359C38.1445 29.6092 38.1289 29.6877 38.1289 29.767V36.3706C38.1289 36.4499 38.1445 36.5284 38.1748 36.6016C38.2052 36.6749 38.2496 36.7414 38.3057 36.7975C38.3617 36.8535 38.4283 36.898 38.5015 36.9283C38.5748 36.9586 38.6533 36.9742 38.7325 36.9742H42.7961C42.636 36.9742 42.4825 36.9106 42.3693 36.7974C42.2561 36.6842 42.1925 36.5307 42.1925 36.3706Z" fill="#01C0FA"/>
<path d="M55.7043 33.9475H42.4258C41.9403 33.9475 41.5469 33.554 41.5469 33.0686C41.5469 32.5832 41.9403 32.1897 42.4258 32.1897H55.7043C55.9374 32.1897 56.1609 32.2823 56.3258 32.4471C56.4906 32.612 56.5832 32.8355 56.5832 33.0686C56.5832 33.3017 56.4906 33.5253 56.3258 33.6901C56.1609 33.8549 55.9374 33.9475 55.7043 33.9475Z" fill="#99E6FC"/>
<path d="M59.3957 48.4115H38.7325C38.6533 48.4115 38.5748 48.3959 38.5015 48.3656C38.4283 48.3352 38.3617 48.2908 38.3057 48.2347C38.2496 48.1787 38.2052 48.1121 38.1748 48.0389C38.1445 47.9656 38.1289 47.8871 38.1289 47.8079V41.2042C38.1289 41.1249 38.1445 41.0464 38.1748 40.9732C38.2052 40.9 38.2496 40.8334 38.3057 40.7774C38.3617 40.7213 38.4283 40.6768 38.5015 40.6465C38.5748 40.6162 38.6533 40.6006 38.7325 40.6006H59.3957C59.475 40.6006 59.5535 40.6162 59.6268 40.6465C59.7 40.6768 59.7666 40.7213 59.8226 40.7774C59.8787 40.8334 59.9231 40.9 59.9535 40.9732C59.9838 41.0464 59.9994 41.1249 59.9994 41.2042V47.8079C59.9994 47.8871 59.9838 47.9656 59.9535 48.0389C59.9231 48.1121 59.8787 48.1787 59.8226 48.2347C59.7666 48.2908 59.7 48.3352 59.6268 48.3656C59.5535 48.3959 59.475 48.4115 59.3957 48.4115Z" fill="#FED402"/>
<path d="M42.1925 47.8079V41.2042C42.1925 41.1249 42.2081 41.0464 42.2384 40.9732C42.2687 40.9 42.3132 40.8334 42.3693 40.7774C42.4253 40.7213 42.4919 40.6768 42.5651 40.6465C42.6384 40.6162 42.7169 40.6006 42.7961 40.6006H38.7325C38.6533 40.6006 38.5748 40.6162 38.5015 40.6465C38.4283 40.6768 38.3617 40.7213 38.3057 40.7774C38.2496 40.8334 38.2052 40.9 38.1748 40.9732C38.1445 41.0464 38.1289 41.1249 38.1289 41.2042V47.8079C38.1289 47.8871 38.1445 47.9656 38.1748 48.0389C38.2052 48.1121 38.2496 48.1787 38.3057 48.2347C38.3617 48.2908 38.4283 48.3352 38.5015 48.3656C38.5748 48.3959 38.6533 48.4115 38.7325 48.4115H42.7961C42.7169 48.4115 42.6384 48.3959 42.5651 48.3656C42.4919 48.3352 42.4253 48.2908 42.3693 48.2347C42.3132 48.1787 42.2687 48.1121 42.2384 48.0389C42.2081 47.9656 42.1925 47.8871 42.1925 47.8079Z" fill="#FAC600"/>
<path d="M55.7043 45.385H42.4258C41.9403 45.385 41.5469 44.9915 41.5469 44.5061C41.5469 44.0207 41.9403 43.6272 42.4258 43.6272H55.7043C55.9374 43.6272 56.1609 43.7198 56.3258 43.8846C56.4906 44.0495 56.5832 44.273 56.5832 44.5061C56.5832 44.7392 56.4906 44.9628 56.3258 45.1276C56.1609 45.2924 55.9374 45.385 55.7043 45.385Z" fill="#C99C56"/>
<path d="M59.3957 59.8487H38.7325C38.6533 59.8488 38.5748 59.8332 38.5015 59.8028C38.4283 59.7725 38.3617 59.728 38.3057 59.672C38.2496 59.6159 38.2052 59.5494 38.1748 59.4761C38.1445 59.4029 38.1289 59.3244 38.1289 59.2451V52.6415C38.1289 52.5622 38.1445 52.4837 38.1748 52.4105C38.2052 52.3372 38.2496 52.2707 38.3057 52.2146C38.3617 52.1586 38.4283 52.1141 38.5015 52.0838C38.5748 52.0534 38.6533 52.0378 38.7325 52.0378H59.3957C59.475 52.0378 59.5535 52.0534 59.6268 52.0838C59.7 52.1141 59.7666 52.1586 59.8226 52.2146C59.8787 52.2707 59.9231 52.3372 59.9535 52.4105C59.9838 52.4837 59.9994 52.5622 59.9994 52.6415V59.2451C59.9994 59.3244 59.9838 59.4029 59.9535 59.4761C59.9231 59.5494 59.8787 59.6159 59.8226 59.672C59.7666 59.728 59.7 59.7725 59.6268 59.8028C59.5535 59.8332 59.475 59.8488 59.3957 59.8487Z" fill="#FD5426"/>
<path d="M42.1925 59.2451V52.6415C42.1925 52.5622 42.2081 52.4837 42.2384 52.4105C42.2687 52.3372 42.3132 52.2707 42.3693 52.2146C42.4253 52.1586 42.4919 52.1141 42.5651 52.0838C42.6384 52.0534 42.7169 52.0378 42.7961 52.0378H38.7325C38.6533 52.0378 38.5748 52.0534 38.5015 52.0838C38.4283 52.1141 38.3617 52.1586 38.3057 52.2146C38.2496 52.2707 38.2052 52.3372 38.1748 52.4105C38.1445 52.4837 38.1289 52.5622 38.1289 52.6415V59.2451C38.1289 59.3244 38.1445 59.4029 38.1748 59.4761C38.2052 59.5494 38.2496 59.6159 38.3057 59.672C38.3617 59.728 38.4283 59.7725 38.5015 59.8028C38.5748 59.8332 38.6533 59.8488 38.7325 59.8487H42.7961C42.7169 59.8488 42.6384 59.8332 42.5651 59.8028C42.4919 59.7725 42.4253 59.728 42.3693 59.672C42.3132 59.6159 42.2687 59.5494 42.2384 59.4761C42.2081 59.4029 42.1925 59.3244 42.1925 59.2451Z" fill="#EF4424"/>
<path d="M55.7043 56.8223H42.4258C41.9403 56.8223 41.5469 56.4288 41.5469 55.9434C41.5469 55.458 41.9403 55.0645 42.4258 55.0645H55.7043C55.9374 55.0645 56.1609 55.1571 56.3258 55.3219C56.4906 55.4867 56.5832 55.7103 56.5832 55.9434C56.5832 56.1765 56.4906 56.4 56.3258 56.5648C56.1609 56.7297 55.9374 56.8223 55.7043 56.8223Z" fill="#D73D24"/>
</g>
<defs>
<clipPath id="clip0_483_1949">
<rect width="60" height="60" fill="white"/>
</clipPath>
</defs>
</svg>
