<svg width="83" height="35" viewBox="0 0 83 35" fill="none" xmlns="http://www.w3.org/2000/svg">
<g clip-path="url(#clip0_667_809)">
<g clip-path="url(#clip1_667_809)">
<path d="M69.1144 15.2376C69.5276 14.9546 69.9413 14.6653 70.3445 14.3767C70.4601 14.2942 70.5388 14.1798 70.577 14.0543C70.6309 13.8768 70.6049 13.6775 70.489 13.5143C70.2902 13.2366 69.9038 13.1722 69.6262 13.371C69.2283 13.6547 68.8211 13.9395 68.4157 14.2184C68.1344 14.4122 68.0617 14.7961 68.2551 15.0786C68.4469 15.358 68.8323 15.4299 69.1144 15.2376Z" fill="#F84923"/>
<path d="M19.7098 29.7589C19.997 29.7712 20.2475 29.5849 20.3278 29.321C20.3429 29.2712 20.3521 29.2197 20.3541 29.1661C20.3685 28.8252 20.1033 28.5364 19.7609 28.5229C19.2744 28.503 18.7818 28.4774 18.2957 28.4473C17.9543 28.4263 17.661 28.685 17.64 29.0264C17.619 29.3678 17.8776 29.6611 18.2191 29.6821C18.713 29.7119 19.2146 29.7377 19.7098 29.7589Z" fill="#F84923"/>
<path d="M15.2379 29.4302C15.5385 29.4621 15.8102 29.2744 15.8951 28.9951C15.9063 28.9584 15.9142 28.9194 15.9183 28.8806C15.9542 28.5411 15.7081 28.2362 15.3687 28.2002C14.8816 28.1479 14.3909 28.0905 13.9134 28.0281C13.5749 27.9847 13.2646 28.2227 13.2209 28.5624C13.1775 28.9009 13.4167 29.2115 13.7551 29.2549C14.2429 29.3178 14.7419 29.3777 15.2379 29.4302Z" fill="#F84923"/>
<path d="M75.3419 9.6699C75.5679 9.92607 75.9584 9.95165 76.2145 9.72566C76.5919 9.3943 76.9676 9.05595 77.3316 8.72181C77.416 8.64403 77.4746 8.54933 77.5059 8.44636C77.5674 8.24396 77.5233 8.01463 77.3698 7.84772C77.1384 7.59639 76.7478 7.57981 76.4957 7.8096C76.1373 8.13771 75.7689 8.46922 75.3984 8.79492C75.1403 9.02291 75.1159 9.41373 75.3419 9.6699Z" fill="#F84923"/>
<path d="M7.15136 27.443C7.15424 27.4335 7.15712 27.4241 7.15881 27.4143C7.24272 27.0829 7.04238 26.7466 6.71102 26.6627C6.23902 26.5438 5.76327 26.416 5.29605 26.2856C4.96721 26.1934 4.62917 26.3868 4.53342 26.7145C4.44123 27.0434 4.63349 27.385 4.96233 27.4772C5.4402 27.6108 5.92697 27.7406 6.40844 27.8624C6.72914 27.9431 7.05602 27.7567 7.15136 27.443Z" fill="#F84923"/>
<path d="M11.513 28.3006C11.5725 27.9644 11.3483 27.6429 11.0117 27.5845C10.532 27.4995 10.0479 27.4079 9.57139 27.3123C9.23654 27.2441 8.9093 27.4614 8.84233 27.7966C8.77535 28.1318 8.99184 28.4575 9.32669 28.5257C9.81263 28.6242 10.3066 28.7175 10.795 28.8039C11.1068 28.8586 11.4043 28.671 11.4942 28.3751C11.503 28.3506 11.509 28.3266 11.513 28.3006Z" fill="#F84923"/>
<path d="M65.3334 17.6737C65.7582 17.4162 66.1879 17.1512 66.6089 16.8848C66.7401 16.8018 66.8292 16.6789 66.8709 16.5416C66.9213 16.3759 66.9015 16.1902 66.8021 16.032C66.6199 15.7426 66.2376 15.6561 65.9493 15.8387C65.5337 16.1003 65.1114 16.3624 64.6931 16.6154C64.4012 16.793 64.3077 17.1732 64.4841 17.4647C64.6617 17.7566 65.0419 17.8502 65.3334 17.6737Z" fill="#F84923"/>
<path d="M71.8839 12.4756C72.0927 12.7459 72.4814 12.7942 72.7517 12.5855C73.1439 12.2819 73.5391 11.9688 73.9252 11.6556C74.0248 11.5747 74.0932 11.4688 74.1277 11.3552C74.1853 11.1658 74.151 10.9511 74.0174 10.7864C73.8021 10.5205 73.4136 10.48 73.1482 10.6941C72.7677 11.0013 72.3795 11.3087 71.9938 11.6078C71.7231 11.8177 71.6736 12.2061 71.8839 12.4756Z" fill="#F84923"/>
<path d="M31.4969 28.0533C31.1575 28.0936 30.9152 28.4014 30.9556 28.7408C30.9959 29.0802 31.3037 29.3224 31.6431 29.2821C32.1354 29.2235 32.6331 29.1602 33.1244 29.0923C33.3712 29.0587 33.5641 28.8833 33.6321 28.6596C33.6573 28.5767 33.6651 28.4873 33.6529 28.3957C33.6071 28.0572 33.2951 27.8202 32.9563 27.8672C32.472 27.9333 31.981 27.9961 31.4969 28.0533Z" fill="#F84923"/>
<path d="M48.3001 24.8819C48.4112 25.2053 48.7641 25.3759 49.0863 25.2644C49.5513 25.1045 50.0254 24.9357 50.4963 24.7646C50.6866 24.6957 50.8222 24.543 50.8769 24.3631C50.9143 24.24 50.9134 24.1027 50.8665 23.9721C50.7495 23.6508 50.3949 23.4861 50.0739 23.6019C49.61 23.7712 49.1421 23.9367 48.6841 24.0949C48.3604 24.2072 48.1886 24.5597 48.3001 24.8819Z" fill="#F84923"/>
<path d="M2.88175 26.2058C2.88355 26.1999 2.88534 26.194 2.88714 26.1881C2.98392 25.8697 2.81049 25.5299 2.49297 25.4218C2.02857 25.2651 1.56242 25.1015 1.10754 24.9348C0.786618 24.8165 0.431375 24.9814 0.313144 25.3023C0.196456 25.6224 0.361296 25.9776 0.682219 26.0959C1.14621 26.2666 1.62301 26.4335 2.0977 26.5946C2.4215 26.7034 2.7718 26.5293 2.88175 26.2058Z" fill="#F84923"/>
<path d="M56.8846 20.7806C56.5754 20.9258 56.4419 21.2926 56.5856 21.6026C56.7296 21.9114 57.0987 22.0456 57.4076 21.9015C57.8583 21.6907 58.3131 21.4747 58.7597 21.2562C58.9207 21.1771 59.0313 21.0388 59.0795 20.8802C59.1234 20.7357 59.1152 20.5755 59.0432 20.4295C58.8934 20.1228 58.5237 19.9949 58.2158 20.1444C57.7766 20.36 57.3275 20.5739 56.8846 20.7806Z" fill="#F84923"/>
<path d="M35.8617 27.4135C35.5255 27.473 35.3004 27.7925 35.3583 28.1294C35.4178 28.4656 35.7372 28.6907 36.0742 28.6328C36.5603 28.5478 37.0549 28.4563 37.5424 28.3627C37.776 28.3173 37.953 28.1475 38.0174 27.9356C38.0458 27.8421 38.0521 27.7406 38.0326 27.6389C37.9677 27.3037 37.6428 27.0835 37.3073 27.1496C36.8287 27.2394 36.3412 27.3291 35.8617 27.4135Z" fill="#F84923"/>
<path d="M28.5683 28.3438C28.0821 28.3822 27.5892 28.4172 27.1031 28.4466C26.762 28.4671 26.5022 28.7605 26.5226 29.1016C26.5431 29.4427 26.8365 29.7025 27.1776 29.6821C27.6715 29.6525 28.1722 29.6172 28.6666 29.5774C28.9275 29.5571 29.1375 29.3766 29.2091 29.141C29.231 29.0688 29.2403 28.9915 29.2335 28.9118C29.2068 28.5701 28.9088 28.3167 28.5683 28.3438Z" fill="#F84923"/>
<path d="M24.1659 28.5663C23.6754 28.5762 23.1813 28.5812 22.6976 28.5816C22.3563 28.5813 22.0792 28.8591 22.0789 29.2004C22.0786 29.5416 22.3565 29.8187 22.6977 29.819C23.1892 29.8184 23.6912 29.8132 24.1907 29.8034C24.4652 29.7977 24.6943 29.6139 24.7699 29.3653C24.7882 29.3049 24.7978 29.2393 24.7961 29.1729C24.7904 28.8298 24.5069 28.5587 24.1659 28.5663Z" fill="#F84923"/>
<path d="M44.4676 25.4276C44.139 25.5217 43.9494 25.8649 44.0435 26.1934C44.1376 26.522 44.4807 26.7116 44.8081 26.6172C45.2842 26.4801 45.7661 26.3369 46.242 26.1919C46.4461 26.1285 46.5949 25.9708 46.6529 25.7802C46.6874 25.6666 46.6892 25.5417 46.6526 25.4194C46.5527 25.093 46.2066 24.9089 45.8801 25.0088C45.4124 25.1523 44.9367 25.2922 44.4676 25.4276Z" fill="#F84923"/>
<path d="M55.0008 22.3088C54.8676 21.9942 54.5048 21.8477 54.1902 21.9809C53.7359 22.1739 53.2776 22.363 52.8278 22.5456C52.5111 22.673 52.3587 23.034 52.4861 23.3507C52.6135 23.6674 52.9745 23.8198 53.2912 23.6924C53.7481 23.508 54.2141 23.3148 54.6742 23.1197C54.8495 23.045 54.9727 22.8989 55.0242 22.7296C55.0637 22.5955 55.0593 22.4481 55.0008 22.3088Z" fill="#F84923"/>
<path d="M60.8449 18.8034C60.5439 18.964 60.4287 19.3389 60.5906 19.6402C60.7512 19.9411 61.1261 20.0564 61.4274 19.8945C61.8684 19.6601 62.3104 19.4182 62.7443 19.1777C62.8904 19.0967 62.9899 18.9653 63.0348 18.8173C63.082 18.6623 63.0687 18.4889 62.9832 18.3362C62.8168 18.0373 62.4406 17.9308 62.1421 18.096C61.7153 18.3348 61.2786 18.5719 60.8449 18.8034Z" fill="#F84923"/>
<path d="M42.3648 26.9708C42.396 26.8678 42.4008 26.7542 42.3728 26.6423C42.29 26.3107 41.9543 26.1091 41.6227 26.1919C41.15 26.3094 40.6686 26.4255 40.1914 26.5365C39.8589 26.6139 39.6509 26.945 39.7279 27.2787C39.8049 27.6124 40.1364 27.8192 40.4701 27.7422C40.954 27.6307 41.4435 27.5131 41.9236 27.3927C42.1409 27.3372 42.3036 27.172 42.3648 26.9708Z" fill="#F84923"/>
<path d="M82.7232 2.22142C80.0411 3.55898 76.3576 4.88568 73.5045 5.17313L78.1015 7.14962L80.3698 11.6106C80.4741 8.74481 81.5615 4.98437 82.7232 2.22142Z" fill="#F84923"/>
</g>
</g>
<defs>
<clipPath id="clip0_667_809">
<rect width="83" height="35" fill="white"/>
</clipPath>
<clipPath id="clip1_667_809">
<rect width="46.7779" height="72.6145" fill="white" transform="translate(0.101562 25.9998) rotate(-73.0935)"/>
</clipPath>
</defs>
</svg>
