<svg width="60" height="60" viewBox="0 0 60 60" fill="none" xmlns="http://www.w3.org/2000/svg">
<path fill-rule="evenodd" clip-rule="evenodd" d="M5.09823 45.5244L12.1165 41.4582C13.4337 40.6951 14.773 40.154 16.2207 40.6237C17.8349 41.1472 20.4707 42.2713 23.1587 42.756C24.1564 43.0794 24.7785 44.0785 24.5071 45.0915C24.2355 46.1047 23.3795 46.627 22.1715 46.4402L23.1111 46.5906C24.1878 46.7628 25.1768 46.6154 26.1192 46.0666L32.867 42.1364C38.1122 39.0815 38.8826 43.7812 37.1386 44.8549L24.8932 52.3951C23.7669 53.0884 22.5346 53.2502 21.257 52.9078L12.375 50.5278L9.08566 52.427C8.45319 52.7921 7.63956 52.5742 7.27441 51.9417L4.61448 47.3346C4.2498 46.7028 4.46694 45.8901 5.09823 45.5244Z" fill="#F6DCCD"/>
<path fill-rule="evenodd" clip-rule="evenodd" d="M24.3471 45.5117C23.9719 46.2447 23.1992 46.5991 22.1716 46.4402C20.7167 46.0555 19.2635 45.661 17.8098 45.2715C17.6255 45.219 17.4692 45.0962 17.3748 44.9295C17.2803 44.7628 17.2551 44.5656 17.3047 44.3806C17.3543 44.1955 17.4747 44.0373 17.6398 43.9402C17.805 43.8431 18.0017 43.8148 18.1876 43.8615L24.3471 45.5117ZM5.0982 45.5244L12.1166 41.4582C13.4337 40.6951 14.7731 40.154 16.2208 40.6237C17.0844 40.9038 18.2404 41.3557 19.5404 41.7897L5.94499 49.6391L4.61456 47.3347C4.24976 46.7028 4.46691 45.8901 5.0982 45.5244Z" fill="#F1CBBC"/>
<path fill-rule="evenodd" clip-rule="evenodd" d="M5.91467 43.5019L11.4807 53.3368C11.7499 53.8123 11.5809 54.4216 11.1054 54.6908L9.21209 55.7622C8.73654 56.0314 8.12728 55.8624 7.85822 55.387L2.29217 45.5521C2.0231 45.0766 2.19185 44.4673 2.66752 44.1981L4.5608 43.1267C5.03623 42.8575 5.64549 43.0264 5.91467 43.5019Z" fill="#D1D1D6"/>
<path fill-rule="evenodd" clip-rule="evenodd" d="M8.84043 50.2589L9.82562 51.9996L10.7998 53.7209C11.0684 54.1954 10.9007 54.8033 10.4275 55.0732L11.1038 54.6904C11.5793 54.4213 11.7482 53.812 11.4791 53.3364L10.5016 51.6093L8.53879 48.1412L6.57379 44.6693L5.91297 43.5016C5.67988 43.0897 5.19145 42.9079 4.75586 43.0416L5.89996 45.0631L7.86273 48.5312L8.8402 50.2584L8.84043 50.2589Z" fill="#B1B1B5"/>
<path fill-rule="evenodd" clip-rule="evenodd" d="M13.4438 22.9846H8.72656C8.57126 22.9849 8.4224 23.0468 8.31258 23.1566C8.20277 23.2664 8.14093 23.4153 8.14062 23.5706V36.8725H14.0296V23.5706C14.0294 23.4152 13.9676 23.2664 13.8578 23.1565C13.748 23.0467 13.5991 22.9849 13.4438 22.9846Z" fill="#FE646F"/>
<path fill-rule="evenodd" clip-rule="evenodd" d="M13.4453 22.9846H12.2734C12.5962 22.9846 12.8594 23.2478 12.8594 23.5706V36.8725H14.0312V23.5706C14.0312 23.2477 13.768 22.9846 13.4453 22.9846Z" fill="#FD4755"/>
<path fill-rule="evenodd" clip-rule="evenodd" d="M23.2308 17.9988H18.5137C18.3584 17.9991 18.2095 18.0609 18.0997 18.1707C17.9899 18.2806 17.928 18.4294 17.9277 18.5847V36.8724H23.8168V18.5846C23.8164 18.4293 23.7546 18.2805 23.6448 18.1707C23.5349 18.0609 23.3861 17.9991 23.2308 17.9988Z" fill="#6CF5C2"/>
<path fill-rule="evenodd" clip-rule="evenodd" d="M23.2305 17.9988H22.0586C22.3813 17.9988 22.6445 18.262 22.6445 18.5847V36.8724H23.8164V18.5846C23.8161 18.4293 23.7542 18.2805 23.6444 18.1707C23.5346 18.0609 23.3858 17.9991 23.2305 17.9988Z" fill="#00E499"/>
<path fill-rule="evenodd" clip-rule="evenodd" d="M30.3525 4.99272L24.8212 11.2623C24.5991 11.5137 24.7845 11.8992 25.1275 11.8992H27.7037V25.6054C27.7037 29.36 27.7142 33.1169 27.7142 36.8724H33.6034C33.6034 33.1169 33.6138 29.3601 33.6138 25.6054V11.8992H36.1899C36.5329 11.8992 36.7183 11.5139 36.4962 11.2623L30.9649 4.99272C30.8043 4.81096 30.5128 4.81108 30.3525 4.99272Z" fill="#8AC9FE"/>
<path fill-rule="evenodd" clip-rule="evenodd" d="M30.352 4.99272L30.0723 5.30983L35.3238 11.2623C35.5459 11.5139 35.3605 11.8992 35.0175 11.8992H36.1893C36.5323 11.8992 36.7177 11.5139 36.4957 11.2623L30.9643 4.99272C30.8039 4.81096 30.5123 4.81108 30.352 4.99272ZM32.4308 36.8723C32.4308 33.1168 32.4412 29.36 32.4412 25.6053V11.899H33.6131V25.6053C33.6131 29.3599 33.6027 33.1168 33.6027 36.8723H32.4308Z" fill="#60B7FF"/>
<path fill-rule="evenodd" clip-rule="evenodd" d="M55.7185 14.644C51.9878 14.644 48.9278 17.514 48.625 21.1665C49.011 21.2302 49.4016 21.2623 49.7928 21.2623C53.5234 21.2623 56.5834 18.3924 56.8863 14.7399C56.5003 14.6761 56.1097 14.6441 55.7185 14.644Z" fill="#6CF5C2"/>
<path fill-rule="evenodd" clip-rule="evenodd" d="M48.8146 20.0233C48.7203 20.3985 48.6569 20.7809 48.625 21.1665C49.011 21.2302 49.4016 21.2623 49.7928 21.2623C53.5234 21.2623 56.5834 18.3924 56.8863 14.7399C56.8231 14.7295 56.7599 14.7199 56.6965 14.7112C55.9204 17.8019 53.1241 20.0904 49.7927 20.0904C49.4655 20.0904 49.1387 20.068 48.8146 20.0233Z" fill="#00E499"/>
<path fill-rule="evenodd" clip-rule="evenodd" d="M41.5311 14.644C45.2617 14.644 48.3217 17.514 48.6245 21.1665C48.2385 21.2302 47.848 21.2623 47.4568 21.2623C43.7261 21.2623 40.6661 18.3924 40.3633 14.7399C40.7493 14.6761 41.1398 14.6441 41.5311 14.644Z" fill="#6CF5C2"/>
<path fill-rule="evenodd" clip-rule="evenodd" d="M48.4349 20.0233C48.5292 20.3985 48.5926 20.7809 48.6245 21.1665C48.2385 21.2302 47.848 21.2623 47.4568 21.2623C43.7261 21.2623 40.6661 18.3924 40.3633 14.7399C40.4262 14.7295 40.4895 14.72 40.553 14.7112C41.3291 17.8019 44.1255 20.0904 47.4569 20.0904C47.784 20.0904 48.1108 20.068 48.4349 20.0233Z" fill="#00E499"/>
<path fill-rule="evenodd" clip-rule="evenodd" d="M49.3518 4.7105C51.8938 7.54128 51.5322 11.6036 48.6247 14.0486C48.3101 13.797 48.0166 13.5201 47.7472 13.2207C45.2052 10.3899 45.5669 6.32745 48.4743 3.88257C48.7889 4.13409 49.0824 4.41099 49.3518 4.7105Z" fill="#6CF5C2"/>
<path fill-rule="evenodd" clip-rule="evenodd" d="M51.0256 8.43519C51.2206 10.4773 50.3942 12.5619 48.6263 14.0486C48.3117 13.797 48.0182 13.5201 47.7488 13.2207C46.4568 11.7818 45.9153 10.025 46.0765 8.32397C46.2022 9.64046 46.7523 10.9392 47.7488 12.0488C48.0182 12.3483 48.3117 12.6252 48.6263 12.8767C50.0561 11.6744 50.8696 10.081 51.0256 8.43519Z" fill="#00E499"/>
<path fill-rule="evenodd" clip-rule="evenodd" d="M43.1609 28.7462C42.2045 28.7462 41.4219 27.9637 41.4219 27.0073V25.7306C41.4219 24.7742 42.2045 23.9917 43.1609 23.9917H54.0911C55.0475 23.9917 55.8301 24.7742 55.8301 25.7306V27.0073C55.8301 27.9638 55.0475 28.7462 54.0911 28.7462C55.0475 28.7462 55.8301 29.5288 55.8301 30.4852V31.7619C55.8301 32.7184 55.0475 33.5009 54.0911 33.5009C55.0475 33.5009 55.8301 34.2835 55.8301 35.2398V36.5166C55.8301 37.4731 55.0475 38.2555 54.0911 38.2555C55.0475 38.2555 55.8301 39.0381 55.8301 39.9945V41.2712C55.8301 42.2277 55.0475 43.0102 54.0911 43.0102C55.0475 43.0102 55.8301 43.7926 55.8301 44.7491V46.0259C55.8301 46.9824 55.0475 47.7648 54.0911 47.7648H43.1609C42.2045 47.7648 41.4219 46.9822 41.4219 46.0259V44.7491C41.4219 43.7926 42.2045 43.0102 43.1609 43.0102C42.2045 43.0102 41.4219 42.2277 41.4219 41.2712V39.9945C41.4219 39.038 42.2045 38.2555 43.1609 38.2555C42.2045 38.2555 41.4219 37.4731 41.4219 36.5166V35.2398C41.4219 34.2833 42.2045 33.5009 43.1609 33.5009C42.2045 33.5009 41.4219 32.7184 41.4219 31.7619V30.4853C41.422 29.5288 42.2045 28.7462 43.1609 28.7462Z" fill="#FFE177"/>
<path fill-rule="evenodd" clip-rule="evenodd" d="M52.918 23.9915H54.0898C55.0462 23.9915 55.8288 24.7739 55.8288 25.7304V27.007C55.8288 27.9635 55.0462 28.746 54.0898 28.746C55.0462 28.746 55.8288 29.5286 55.8288 30.4849V31.7617C55.8288 32.7182 55.0462 33.5006 54.0898 33.5006C55.0462 33.5006 55.8288 34.2832 55.8288 35.2396V36.5163C55.8288 37.4728 55.0462 38.2553 54.0898 38.2553C55.0462 38.2553 55.8288 39.0379 55.8288 39.9942V41.271C55.8288 42.2275 55.0462 43.0099 54.0898 43.0099C55.0462 43.0099 55.8288 43.7924 55.8288 44.7489V46.0256C55.8288 46.9821 55.0462 47.7646 54.0898 47.7646H52.918C53.8743 47.7646 54.6569 46.982 54.6569 46.0256V44.7489C54.6569 43.7924 53.8743 43.0099 52.918 43.0099C53.8743 43.0099 54.6569 42.2275 54.6569 41.271V39.9942C54.6569 39.0377 53.8743 38.2553 52.918 38.2553C53.8743 38.2553 54.6569 37.4728 54.6569 36.5163V35.2396C54.6569 34.2831 53.8743 33.5006 52.918 33.5006C53.8743 33.5006 54.6569 32.7182 54.6569 31.7617V30.4852C54.6569 29.5287 53.8743 28.7462 52.918 28.7462C53.8743 28.7462 54.6569 27.9636 54.6569 27.0073V25.7306C54.6569 24.774 53.8743 23.9915 52.918 23.9915Z" fill="#FFD064"/>
<path fill-rule="evenodd" clip-rule="evenodd" d="M54.0911 28.7461H43.1609C42.2045 28.7461 41.4219 29.5287 41.4219 30.485V31.7618C41.4219 32.7183 42.2045 33.5007 43.1609 33.5007H54.0911C55.0475 33.5007 55.8301 32.7183 55.8301 31.7618V30.4852C55.8301 29.5287 55.0476 28.7461 54.0911 28.7461Z" fill="#FFC338"/>
<path fill-rule="evenodd" clip-rule="evenodd" d="M54.0898 28.7461H52.918C53.8743 28.7461 54.6569 29.5287 54.6569 30.485V31.7618C54.6569 32.7183 53.8743 33.5007 52.918 33.5007H54.0898C55.0462 33.5007 55.8288 32.7183 55.8288 31.7618V30.4852C55.8288 29.5287 55.0463 28.7461 54.0898 28.7461Z" fill="#F5B829"/>
<path fill-rule="evenodd" clip-rule="evenodd" d="M54.0911 38.2556H43.1609C42.2045 38.2556 41.4219 39.0382 41.4219 39.9946V41.2713C41.4219 42.2278 42.2045 43.0103 43.1609 43.0103H54.0911C55.0475 43.0103 55.8301 42.2278 55.8301 41.2713V39.9946C55.8301 39.0381 55.0476 38.2556 54.0911 38.2556Z" fill="#FFC338"/>
<path fill-rule="evenodd" clip-rule="evenodd" d="M54.0898 38.2556H52.918C53.8743 38.2556 54.6569 39.0382 54.6569 39.9946V41.2713C54.6569 42.2278 53.8743 43.0103 52.918 43.0103H54.0898C55.0462 43.0103 55.8288 42.2278 55.8288 41.2713V39.9946C55.8288 39.0381 55.0463 38.2556 54.0898 38.2556Z" fill="#F5B829"/>
<path d="M52.5841 55.8978C56.4555 54.9798 58.8496 51.0972 57.9316 47.2259C57.0136 43.3545 53.1311 40.9603 49.2597 41.8783C45.3884 42.7963 42.9942 46.6789 43.9122 50.5502C44.8302 54.4216 48.7128 56.8158 52.5841 55.8978Z" fill="#FFC338"/>
<path fill-rule="evenodd" clip-rule="evenodd" d="M50.9214 41.7087C54.9002 41.7087 58.1255 44.9341 58.1255 48.9128C58.1255 52.8916 54.9002 56.1169 50.9214 56.1169C50.7137 56.1169 50.508 56.1076 50.3047 56.0903C53.9946 55.7773 56.892 52.6838 56.892 48.9128C56.892 45.1419 53.9946 42.0482 50.3047 41.7353C50.5098 41.7178 50.7156 41.7089 50.9214 41.7087Z" fill="#F5B829"/>
<path fill-rule="evenodd" clip-rule="evenodd" d="M9.07835 23.9224H13.0923V35.9348H9.07835V23.9224ZM18.8653 18.9371H22.8786V35.9348H18.8653V18.9371ZM28.6454 24.3852C28.6421 20.2239 28.6393 16.0612 28.6393 11.8988C28.6393 11.382 28.2201 10.9611 27.7021 10.9611H26.3353L30.6575 6.06301L34.9791 10.9611H33.613C33.095 10.9611 32.6752 11.3819 32.6752 11.8988C32.6752 16.0611 32.6719 20.2239 32.6697 24.3852C32.6669 28.2346 32.6648 32.0853 32.6648 35.9348H28.6503C28.6504 32.0853 28.6476 28.2346 28.6454 24.3852ZM38.6319 35.9348H34.5397C34.5397 32.0853 34.5424 28.2357 34.5446 24.3862C34.5468 20.5367 34.5491 16.6871 34.5501 12.836H36.1889C36.7173 12.836 37.1977 12.5293 37.4123 12.0522C37.6263 11.5752 37.5447 11.035 37.1977 10.6423L31.6665 4.37293C31.5401 4.23011 31.3848 4.11582 31.2108 4.03765C31.0369 3.95948 30.8483 3.91921 30.6576 3.91953C30.4669 3.91923 30.2783 3.9595 30.1044 4.03767C29.9304 4.11584 29.7751 4.23013 29.6487 4.37293L24.1174 10.6423C23.7693 11.035 23.6872 11.575 23.9028 12.0522C24.1174 12.5293 24.5978 12.836 25.1262 12.836H26.7644C26.7655 16.6871 26.7677 20.5367 26.7705 24.3862C26.7727 28.2357 26.7748 32.0853 26.7748 35.9348H24.7532V17.9994C24.7533 17.8763 24.7291 17.7544 24.682 17.6407C24.635 17.5269 24.5659 17.4236 24.4789 17.3366C24.3919 17.2495 24.2885 17.1805 24.1748 17.1334C24.0611 17.0864 23.9392 17.0622 23.8161 17.0622H17.9273C17.8042 17.0622 17.6823 17.0863 17.5685 17.1334C17.4547 17.1805 17.3513 17.2495 17.2643 17.3365C17.1772 17.4235 17.1081 17.5269 17.061 17.6406C17.0138 17.7543 16.9896 17.8763 16.9896 17.9994V35.9348H14.9669V22.9846C14.967 22.8616 14.9428 22.7397 14.8957 22.6259C14.8486 22.5122 14.7796 22.4089 14.6926 22.3218C14.6055 22.2348 14.5022 22.1658 14.3885 22.1187C14.2747 22.0716 14.1528 22.0474 14.0298 22.0475H8.1412C8.01809 22.0474 7.89616 22.0716 7.78239 22.1187C7.66862 22.1657 7.56524 22.2347 7.47816 22.3218C7.39108 22.4088 7.32199 22.5121 7.27486 22.6259C7.22773 22.7396 7.20347 22.8615 7.20347 22.9846V35.9348H5.25593C4.73796 35.9348 4.3182 36.3546 4.3182 36.8725C4.3182 37.3905 4.73796 37.8103 5.25593 37.8103H38.632C38.8807 37.8103 39.1192 37.7114 39.295 37.5356C39.4709 37.3597 39.5697 37.1212 39.5697 36.8725C39.5696 36.6238 39.4708 36.3853 39.295 36.2094C39.1191 36.0336 38.8806 35.9348 38.6319 35.9348ZM54.1503 50.4862C54.2347 51.179 54.0466 51.8128 53.6075 52.3202C53.1999 52.7913 52.576 53.1322 51.8589 53.2916V53.4719C51.8591 53.5951 51.8349 53.7171 51.7878 53.8309C51.7407 53.9447 51.6716 54.0481 51.5845 54.1352C51.4974 54.2223 51.394 54.2914 51.2802 54.3385C51.1664 54.3856 51.0444 54.4098 50.9212 54.4097C50.7981 54.4097 50.6761 54.3855 50.5624 54.3384C50.4486 54.2912 50.3453 54.2222 50.2582 54.1351C50.1712 54.048 50.1022 53.9446 50.0551 53.8308C50.0081 53.717 49.9839 53.595 49.9841 53.4719V53.275C48.8428 52.9871 47.9751 52.1806 47.7 51.0781C47.6684 50.9581 47.6611 50.8329 47.6783 50.71C47.6955 50.5871 47.737 50.4688 47.8002 50.362C47.8635 50.2552 47.9474 50.162 48.0469 50.0879C48.1465 50.0138 48.2598 49.9601 48.3802 49.9301C48.5007 49.9001 48.6259 49.8943 48.7486 49.9131C48.8713 49.9318 48.9891 49.9748 49.0951 50.0394C49.2011 50.104 49.2932 50.189 49.3661 50.2895C49.4389 50.39 49.4911 50.5039 49.5196 50.6247C49.6884 51.3043 50.4187 51.5305 50.9929 51.515C51.4921 51.5034 51.9841 51.3297 52.1893 51.0936C52.256 51.017 52.3134 50.9177 52.2891 50.7124C52.2643 50.5133 52.208 50.0466 50.7761 49.8121C48.3739 49.4172 47.952 48.0465 47.9145 47.2638C47.8522 46.0028 48.6774 44.9394 49.9841 44.5681V44.3536C49.9868 44.1067 50.0868 43.871 50.2623 43.6974C50.4378 43.5239 50.6747 43.4265 50.9215 43.4265C51.1683 43.4265 51.4052 43.5239 51.5807 43.6974C51.7562 43.871 51.8562 44.1067 51.8589 44.3536V44.5598C52.7001 44.7893 53.4845 45.3557 53.9064 46.3613C54.1066 46.839 53.8828 47.3889 53.4045 47.5891C52.9279 47.7898 52.3781 47.5643 52.1778 47.0877C51.8452 46.2956 51.0189 46.2509 50.5827 46.3508C50.3885 46.3938 49.758 46.5835 49.7873 47.1732C49.7945 47.3172 49.8154 47.7546 51.0796 47.962C52.9511 48.2689 53.9847 49.1183 54.1503 50.4862ZM50.9213 55.1797C54.3765 55.1797 57.1879 52.3682 57.1879 48.9137C57.1879 45.4575 54.3765 42.6465 50.9213 42.6465C47.4656 42.6465 44.6541 45.4573 44.6541 48.9137C44.6541 52.3682 47.4656 55.1797 50.9213 55.1797ZM42.3584 46.0262V44.7498C42.3584 44.3068 42.7187 43.9483 43.1605 43.9483H44.475C43.8247 44.7911 43.3348 45.7625 43.0535 46.8194C42.6623 46.768 42.3584 46.4315 42.3584 46.0262ZM42.3584 39.9945C42.3584 39.5527 42.7187 39.1931 43.1605 39.1931H54.0902C54.532 39.1931 54.8922 39.5527 54.8922 39.9945V41.272C54.8922 41.438 54.8382 41.5952 54.7455 41.7276C53.569 41.0987 52.2554 40.7703 50.9213 40.7717C49.2975 40.7717 47.7856 41.2505 46.5141 42.0734H43.1605C42.7187 42.0734 42.3584 41.7132 42.3584 41.272V39.9945ZM42.3584 35.2404C42.3584 34.7986 42.7187 34.4383 43.1605 34.4383H54.0902C54.532 34.4383 54.8922 34.7986 54.8922 35.2404V36.5162C54.8922 36.9591 54.532 37.3176 54.0902 37.3176H43.1605C42.7187 37.3176 42.3584 36.9591 42.3584 36.5162V35.2404ZM42.3584 30.4857C42.3584 30.0429 42.7187 29.6843 43.1605 29.6843H54.0902C54.532 29.6843 54.8922 30.0427 54.8922 30.4857V31.7621C54.8922 32.2039 54.532 32.5636 54.0902 32.5636H43.1605C42.7187 32.5636 42.3584 32.2039 42.3584 31.7621V30.4857ZM42.3584 25.7305C42.3584 25.2887 42.7187 24.929 43.1605 24.929H54.0902C54.532 24.929 54.8922 25.2887 54.8922 25.7305V27.0079C54.8922 27.4497 54.532 27.8094 54.0902 27.8094H43.1605C42.7187 27.8094 42.3584 27.4497 42.3584 27.0079V25.7305ZM41.4461 15.5818H41.5316C43.8295 15.5818 45.8753 16.8736 46.9382 18.781L45.0656 17.4196C44.966 17.3471 44.8531 17.2949 44.7333 17.2661C44.6135 17.2372 44.4892 17.2323 44.3675 17.2516C44.2458 17.2708 44.1291 17.3139 44.0241 17.3783C43.9191 17.4428 43.8278 17.5273 43.7555 17.6271C43.4505 18.0452 43.5432 18.6309 43.963 18.9359L45.3623 19.953C43.4378 19.2499 41.9342 17.6116 41.4461 15.5818ZM46.9984 8.54129C47.085 7.29582 47.6084 6.11926 48.491 5.16172C48.5462 5.21902 48.6012 5.2775 48.6542 5.33715H48.6548C49.6902 6.49051 50.2043 7.92957 50.1022 9.38961C50.0529 10.0828 49.8695 10.7598 49.5622 11.3831V8.96551C49.5622 8.84239 49.5379 8.72048 49.4908 8.60674C49.4437 8.493 49.3746 8.38967 49.2875 8.30264C49.2004 8.21561 49.097 8.14659 48.9833 8.09953C48.8695 8.05247 48.7476 8.02828 48.6245 8.02836C48.3759 8.02845 48.1376 8.12722 47.9619 8.30295C47.7862 8.47868 47.6874 8.71699 47.6873 8.96551V11.5392C47.1666 10.6142 46.9245 9.58332 46.9984 8.54129ZM55.805 15.5818C55.3163 17.6116 53.8127 19.2499 51.8882 19.9531L53.2876 18.9361C53.7068 18.631 53.7994 18.0452 53.495 17.6272C53.4227 17.5274 53.3314 17.4429 53.2264 17.3785C53.1214 17.314 53.0047 17.2709 52.883 17.2517C52.7613 17.2324 52.637 17.2373 52.5172 17.2662C52.3975 17.295 52.2845 17.3472 52.185 17.4198L50.3123 18.7811C51.388 16.8499 53.4718 15.5526 55.805 15.5818ZM56.2855 42.7966C57.9855 44.2892 59.0627 46.4773 59.0627 48.9137C59.0627 53.402 55.4112 57.0546 50.9212 57.0546C46.4319 57.0546 42.7793 53.402 42.7793 48.9137C42.7793 48.8336 42.7825 48.7554 42.7854 48.6754C41.4869 48.4929 40.4836 47.3748 40.4836 46.0262V44.7498C40.4831 44.1118 40.7113 43.4948 41.1267 43.0106C40.7113 42.5266 40.4832 41.9098 40.4836 41.272V39.9945C40.4836 39.3309 40.7262 38.7242 41.1267 38.2554C40.7111 37.7712 40.483 37.1542 40.4836 36.5162V35.2404C40.4829 34.6023 40.7111 33.9853 41.1267 33.5012C40.7112 33.017 40.4831 32.4 40.4836 31.762V30.4856C40.483 29.8478 40.7112 29.2309 41.1267 28.747C40.7262 28.2781 40.4836 27.6709 40.4836 27.0078V25.7304C40.4836 24.2548 41.6848 23.054 43.1603 23.054H47.6872V22.1946C47.6111 22.1968 47.5333 22.1996 47.4571 22.1996C45.4229 22.1996 43.4813 21.4401 41.9881 20.0594C40.5044 18.686 39.5964 16.8249 39.4299 14.8176C39.4101 14.5828 39.4795 14.3491 39.6244 14.1632C39.7693 13.9773 39.979 13.8529 40.2116 13.8148C40.6479 13.743 41.0893 13.7068 41.5314 13.7067C43.5657 13.7067 45.5084 14.4673 47.0005 15.8479C47.2438 16.0739 47.4731 16.3145 47.6872 16.5683V14.48C47.4636 14.2809 47.2511 14.0697 47.0506 13.8473C45.6711 12.3123 44.9893 10.3811 45.1278 8.40981C45.2684 6.39652 46.242 4.53441 47.8708 3.16473C48.0371 3.02548 48.2463 2.94799 48.4632 2.94538C48.68 2.94277 48.8911 3.01522 49.0606 3.15043C49.4155 3.43392 49.7463 3.74627 50.0497 4.0843C51.4276 5.61887 52.111 7.54988 51.9725 9.52074C51.8412 11.3912 50.9895 13.1326 49.5621 14.4685V16.5684C49.7766 16.3169 50.0039 16.0753 50.2498 15.848C51.7419 14.4675 53.6846 13.7068 55.7194 13.7068C56.1586 13.7068 56.6026 13.7432 57.0389 13.815C57.2714 13.853 57.4811 13.9774 57.6259 14.1633C57.7707 14.3492 57.84 14.5829 57.8199 14.8177C57.6539 16.8249 56.7454 18.686 55.2622 20.0595C53.7691 21.4401 51.8274 22.1997 49.7927 22.1997C49.7165 22.1997 49.6394 22.1969 49.5622 22.1947V23.0541H54.0902C55.5657 23.0541 56.767 24.255 56.767 25.7305V27.0079C56.767 27.671 56.5243 28.2782 56.1233 28.7471C56.5392 29.2308 56.7676 29.8478 56.767 30.4857V31.7621C56.7675 32.4002 56.5391 33.0173 56.1233 33.5013C56.5393 33.9852 56.7677 34.6023 56.767 35.2405V36.5163C56.7676 37.1544 56.5392 37.7715 56.1233 38.2555C56.5243 38.7243 56.767 39.331 56.767 39.9946V41.2721C56.767 41.8258 56.5911 42.3559 56.2855 42.7966ZM5.15714 45.4133C5.21234 45.7884 4.95359 46.1359 4.57964 46.1905C4.2057 46.2451 3.85812 45.9863 3.80304 45.6124C3.77701 45.4326 3.82331 45.2499 3.93178 45.1042C4.04025 44.9585 4.20204 44.8618 4.38171 44.8352C4.75566 44.7806 5.1037 45.0393 5.15714 45.4133ZM36.9248 44.1138L24.5201 51.7505C23.6177 52.3071 22.6255 52.4456 21.5719 52.1632L12.5756 49.7527C12.4566 49.7209 12.3326 49.7127 12.2105 49.7288C12.0884 49.7449 11.9706 49.7849 11.864 49.8465L10.7851 50.4686L7.7287 45.0686L12.5402 42.2831C14.0085 41.4325 14.993 41.2108 15.9391 41.5181C16.3489 41.6505 16.8261 41.8225 17.3765 42.0228C18.9717 42.5987 20.9507 43.3146 23.0171 43.6952C23.551 43.8932 23.85 44.4068 23.7154 44.9093C23.6614 45.11 23.4976 45.7135 22.5048 45.6043C21.5169 45.4002 20.5714 45.1311 19.5719 44.8448C19.0898 44.708 18.5934 44.5662 18.0799 44.4279C17.8396 44.3638 17.5837 44.3977 17.3684 44.5221C17.1531 44.6465 16.9959 44.8513 16.9314 45.0915C16.8673 45.3318 16.9011 45.5877 17.0255 45.803C17.1499 46.0184 17.3547 46.1755 17.595 46.2399C18.0832 46.3717 18.5703 46.508 19.056 46.6487C20.1057 46.9476 21.0975 47.2312 22.1709 47.4501C22.177 47.4512 22.1835 47.4523 22.1896 47.454L22.2084 47.4573L23.0589 47.5957C24.4092 47.8125 25.6079 47.6 26.7259 46.9497L33.5612 42.9689C35.324 41.9412 36.7041 41.7768 37.1614 42.5409C37.4834 43.0779 37.301 43.8815 36.9248 44.1138ZM10.4705 53.8603C10.5015 53.8426 10.5141 53.7969 10.4964 53.7665L4.85866 43.8043C4.84916 43.7888 4.83419 43.7774 4.81671 43.7723C4.80956 43.7701 4.80241 43.7701 4.79515 43.7701C4.7846 43.77 4.77419 43.7724 4.7648 43.7772L2.84632 44.8633C2.83126 44.8731 2.8203 44.888 2.81553 44.9053C2.81075 44.9226 2.81249 44.941 2.82042 44.9571L8.45878 54.9193C8.46324 54.927 8.46928 54.9337 8.47651 54.939C8.48374 54.9442 8.492 54.9478 8.50074 54.9496C8.5092 54.9526 8.51818 54.9537 8.52711 54.9529C8.53603 54.9522 8.5447 54.9495 8.55253 54.9452L10.4705 53.8603ZM32.6169 41.348L25.7827 45.3289C25.69 45.3825 25.5975 45.432 25.5036 45.4762C25.5119 45.4497 25.5191 45.4216 25.5268 45.3945C25.9217 43.9202 25.0514 42.3829 23.5443 41.8941C23.5045 41.8809 23.4638 41.8706 23.4225 41.8632C21.4852 41.5146 19.5608 40.818 18.0141 40.2591C17.4703 40.0623 16.9573 39.8775 16.5176 39.734C14.6439 39.1256 12.9809 39.8609 11.6002 40.6602L6.80527 43.4363L6.4898 42.8809C6.2355 42.4297 5.81855 42.1047 5.31827 41.9657C4.81683 41.8272 4.29288 41.8907 3.84159 42.1455L1.92323 43.231C0.990539 43.7594 0.661242 44.948 1.18964 45.8809L6.82741 55.8425C6.95264 56.0651 7.12085 56.2605 7.32227 56.4175C7.52368 56.5745 7.75429 56.6899 8.0007 56.757C8.17284 56.805 8.3498 56.8282 8.52417 56.8282C8.85511 56.8282 9.18171 56.7438 9.4762 56.5761L11.3946 55.4912C11.617 55.3658 11.8123 55.1975 11.9692 54.9961C12.1261 54.7947 12.2415 54.5642 12.3086 54.3179C12.3776 54.0721 12.3971 53.815 12.3662 53.5616C12.3352 53.3081 12.2543 53.0633 12.1283 52.8413L11.7085 52.1011L12.4653 51.6637L21.0871 53.9749C21.599 54.1116 22.1087 54.1801 22.6107 54.1801C23.6251 54.1801 24.6058 53.8999 25.5038 53.3477L37.908 45.7093C39.1844 44.9244 39.5959 42.9541 38.7706 41.5774C38.3732 40.9146 36.7559 38.9376 32.6169 41.348Z" fill="#242222"/>
</svg>
