<svg width="60" height="60" viewBox="0 0 60 60" fill="none" xmlns="http://www.w3.org/2000/svg">
<path d="M29.0439 42.9336H33.4848V57.425H29.0439V42.9336Z" fill="#554E55"/>
<path d="M29.0439 42.9336H33.4848V47.1553H29.0439V42.9336Z" fill="#433F43"/>
<path d="M40.0752 42.8739L41.9614 36.6416H20.5674L22.4535 42.8739C22.5275 43.1182 22.6781 43.3322 22.8831 43.4844C23.0881 43.6365 23.3366 43.7187 23.5919 43.7187H38.9369C39.1921 43.7186 39.4406 43.6365 39.6456 43.4843C39.8506 43.3322 40.0012 43.1182 40.0752 42.8739Z" fill="#FDDD45"/>
<path d="M41.9607 36.6421L40.0745 42.874C40.0007 43.1184 39.8502 43.3325 39.6452 43.4846C39.4402 43.6367 39.1916 43.7187 38.9363 43.7185H34.1768C34.432 43.7184 34.6804 43.6363 34.8853 43.4842C35.0903 43.3322 35.2409 43.1182 35.3149 42.874L37.2011 36.6421H41.9607Z" fill="#F8C52D"/>
<path d="M56.9393 39.099H5.58797C4.76063 39.099 4.08984 38.4284 4.08984 37.6009V1.49813C4.08984 0.670664 4.76063 0 5.58797 0H56.9393C57.7666 0 58.4374 0.670664 58.4374 1.49813V37.601C58.4374 38.4284 57.7668 39.099 56.9393 39.099Z" fill="#685E67"/>
<path d="M58.4379 1.49848V37.6007C58.4379 38.4285 57.7671 39.0991 56.9395 39.0991H52.1787C53.0065 39.0991 53.6772 38.4284 53.6772 37.6007V1.49848C53.6772 0.670781 53.0064 0 52.1787 0H56.9395C57.7671 0 58.4379 0.670781 58.4379 1.49848Z" fill="#554E55"/>
<path d="M7.6582 34.9366V4.16248C7.6582 4.00478 7.72085 3.85354 7.83236 3.74203C7.94387 3.63052 8.09511 3.56787 8.25281 3.56787H54.2754C54.4331 3.56787 54.5843 3.63052 54.6958 3.74203C54.8074 3.85354 54.87 4.00478 54.87 4.16248V34.9366C54.87 35.0943 54.8074 35.2456 54.6958 35.3571C54.5843 35.4686 54.4331 35.5312 54.2754 35.5312H8.25281C8.09511 35.5312 7.94387 35.4686 7.83236 35.3571C7.72085 35.2456 7.6582 35.0943 7.6582 34.9366Z" fill="#FFE0DD"/>
<path d="M54.8704 4.16248V34.9366C54.8703 35.0943 54.8077 35.2455 54.6962 35.357C54.5847 35.4685 54.4335 35.5312 54.2758 35.5312H49.7529C49.9106 35.5312 50.0618 35.4685 50.1733 35.357C50.2848 35.2455 50.3475 35.0943 50.3475 34.9366V4.16248C50.3475 4.0048 50.2848 3.85359 50.1733 3.7421C50.0618 3.6306 49.9106 3.56793 49.7529 3.56787H54.2758C54.4335 3.56793 54.5847 3.6306 54.6962 3.7421C54.8077 3.85359 54.8703 4.0048 54.8704 4.16248Z" fill="#FCB3A9"/>
<path d="M10.1285 33.4321C6.37313 33.4321 3.13946 35.6571 1.66805 38.8597C1.5985 39.0115 1.5625 39.1766 1.5625 39.3437C1.5625 39.5107 1.5985 39.6758 1.66805 39.8276C3.13946 43.0303 6.37313 45.2552 10.1285 45.2552C13.8839 45.2552 17.1176 43.0303 18.589 39.8276C18.6585 39.6758 18.6945 39.5107 18.6945 39.3437C18.6945 39.1766 18.6585 39.0115 18.589 38.8597C17.1176 35.6571 13.8839 33.4321 10.1285 33.4321Z" fill="#EAF6FF"/>
<path d="M18.588 39.8274C17.1168 43.0302 13.8832 45.2553 10.1274 45.2553C10.0775 45.2553 10.0275 45.2553 9.97754 45.2541C12.6213 44.4489 14.7811 42.4307 15.8967 39.8036C15.9585 39.6583 15.9904 39.5019 15.9904 39.344C15.9904 39.186 15.9585 39.0297 15.8967 38.8843C14.7812 36.2572 12.6214 34.2389 9.97754 33.4338C10.0275 33.4326 10.0774 33.4326 10.1274 33.4326C13.8832 33.4326 17.1168 35.6578 18.588 38.8605C18.658 39.0121 18.6942 39.177 18.6942 39.344C18.6942 39.5109 18.658 39.6758 18.588 39.8274Z" fill="#B5DBFD"/>
<path d="M10.1286 42.5583C11.904 42.5583 13.3432 41.1191 13.3432 39.3437C13.3432 37.5684 11.904 36.1292 10.1286 36.1292C8.35328 36.1292 6.91406 37.5684 6.91406 39.3437C6.91406 41.1191 8.35328 42.5583 10.1286 42.5583Z" fill="#554E55"/>
<path d="M13.343 39.3443C13.343 41.1188 11.9039 42.5578 10.1283 42.5578C9.64187 42.5578 9.18051 42.4497 8.7666 42.2546C9.86078 41.7432 10.6183 40.6312 10.6183 39.3443C10.6183 38.0563 9.86066 36.9455 8.7666 36.4318C9.19279 36.2322 9.65773 36.1291 10.1283 36.1296C11.9041 36.1298 13.343 37.5687 13.343 39.3443ZM36.7259 60C36.5525 60.0001 36.3829 59.9496 36.2378 59.8548C36.0927 59.76 35.9783 59.625 35.9086 59.4662L35.4045 58.317H27.1244L26.6201 59.4662C26.5226 59.679 26.3453 59.845 26.1265 59.9283C25.9078 60.0115 25.665 60.0055 25.4507 59.9114C25.2363 59.8174 25.0675 59.6428 24.9806 59.4255C24.8938 59.2081 24.8959 58.9653 24.9864 58.7494L25.7248 57.0666C25.7944 56.9079 25.9087 56.773 26.0538 56.6783C26.1988 56.5835 26.3683 56.533 26.5416 56.533H35.987C36.1603 56.533 36.3298 56.5835 36.4748 56.6783C36.6199 56.773 36.7342 56.9079 36.8038 57.0666L37.5421 58.7494C37.6017 58.8851 37.6265 59.0336 37.6143 59.1813C37.6022 59.329 37.5534 59.4714 37.4723 59.5955C37.3913 59.7197 37.2807 59.8217 37.1503 59.8923C37.02 59.9629 36.8741 59.9999 36.7259 60Z" fill="#433F43"/>
<path d="M12.2998 8.51161H12.2855C11.7928 8.51161 11.3936 8.11235 11.3936 7.6197C11.3936 7.12704 11.7928 6.72778 12.2855 6.72778H12.2998C12.7924 6.72778 13.1917 7.12704 13.1917 7.6197C13.1917 8.11235 12.7924 8.51161 12.2998 8.51161ZM15.159 8.51161H15.1446C14.652 8.51161 14.2527 8.11235 14.2527 7.6197C14.2527 7.12704 14.652 6.72778 15.1446 6.72778H15.159C15.6517 6.72778 16.0509 7.12704 16.0509 7.6197C16.0509 8.11235 15.6517 8.51161 15.159 8.51161ZM18.0184 8.51161H18.004C17.5113 8.51161 17.1121 8.11235 17.1121 7.6197C17.1121 7.12704 17.5113 6.72778 18.004 6.72778H18.0184C18.5111 6.72778 18.9103 7.12704 18.9103 7.6197C18.9103 8.11235 18.5111 8.51161 18.0184 8.51161Z" fill="#685E67"/>
<path d="M42.0243 26.5679C41.8256 26.5677 41.6326 26.5011 41.476 26.3788C41.3194 26.2564 41.2081 26.0853 41.1597 25.8926C40.3084 22.5036 37.1505 13.7078 32.8212 13.7078C28.4921 13.7078 25.3341 22.5036 24.4828 25.8928C24.4543 26.0064 24.4037 26.1133 24.3339 26.2074C24.2641 26.3015 24.1764 26.3809 24.0759 26.441C23.9754 26.5012 23.8641 26.5411 23.7482 26.5582C23.6323 26.5754 23.5142 26.5695 23.4006 26.541C23.287 26.5125 23.1801 26.4619 23.086 26.3921C22.992 26.3223 22.9126 26.2347 22.8524 26.1342C22.7922 26.0337 22.7524 25.9224 22.7352 25.8065C22.718 25.6906 22.7239 25.5725 22.7524 25.4589C22.7862 25.3239 23.5986 22.1176 25.1737 18.8577C27.3968 14.2568 29.9697 11.9238 32.8212 11.9238C35.6728 11.9238 38.2459 14.2568 40.4689 18.8577C42.044 22.1176 42.8564 25.3239 42.8902 25.4589C42.9232 25.5905 42.9258 25.7279 42.8977 25.8606C42.8696 25.9933 42.8116 26.1179 42.7281 26.2248C42.6446 26.3317 42.5378 26.4182 42.4158 26.4777C42.2939 26.5371 42.16 26.568 42.0243 26.5679Z" fill="#FB5652"/>
<path d="M13.1095 26.5679C12.9452 26.568 12.784 26.5227 12.6438 26.437C12.5035 26.3513 12.3897 26.2285 12.3149 26.0822C12.2077 25.873 12.1875 25.63 12.2585 25.406C12.3295 25.182 12.4861 24.9951 12.6942 24.8859C12.7482 24.8558 14.7458 23.7113 16.451 19.6684C17.8737 16.2951 19.9938 14.2227 22.2677 13.9825C24.3923 13.7598 26.4569 15.0581 28.4038 17.8461C29.7926 19.835 31.1158 20.8363 32.4491 20.9073C34.8733 21.0383 37.4287 18.1008 40.1321 14.9928C42.9 11.8106 45.7621 8.51985 49.1965 7.62923C49.6732 7.50524 50.1601 7.79188 50.2837 8.26872C50.3132 8.3821 50.32 8.50017 50.3037 8.61617C50.2875 8.73218 50.2486 8.84386 50.1892 8.94482C50.1298 9.04579 50.0511 9.13407 49.9576 9.20462C49.8641 9.27517 49.7576 9.3266 49.6442 9.35599C46.7453 10.1079 44.0675 13.1864 41.478 16.1635C38.4808 19.6093 35.6526 22.8634 32.3543 22.6888C30.4359 22.5867 28.6652 21.3368 26.941 18.8675C25.8777 17.3445 24.2354 15.5703 22.4551 15.7566C20.8704 15.9241 19.2403 17.6456 18.0947 20.3616C17.2662 22.3263 16.268 23.9356 15.1282 25.1448C14.2444 26.0823 13.5873 26.4327 13.5153 26.4696C13.3898 26.5342 13.2507 26.5679 13.1095 26.5679Z" fill="#27D1B3"/>
<path d="M49.4196 28.2854C49.3025 28.2854 49.1865 28.3084 49.0783 28.3533C48.9701 28.3981 48.8717 28.4638 48.7889 28.5466C48.7061 28.6294 48.6404 28.7278 48.5956 28.836C48.5507 28.9442 48.5277 29.0602 48.5277 29.1773V29.8058H46.277V29.1773C46.277 28.6847 45.8777 28.2854 45.3851 28.2854C44.8924 28.2854 44.4932 28.6847 44.4932 29.1773V29.8058H42.2426V29.1773C42.2426 28.6847 41.8433 28.2854 41.3507 28.2854C40.858 28.2854 40.4588 28.6847 40.4588 29.1773V29.8058H38.208V29.1773C38.208 28.6847 37.8088 28.2854 37.3161 28.2854C36.8235 28.2854 36.4242 28.6847 36.4242 29.1773V29.8058H34.1732V29.1773C34.1732 28.6847 33.7739 28.2854 33.2812 28.2854C32.7886 28.2854 32.3893 28.6847 32.3893 29.1773V29.8058H30.1386V29.1773C30.1386 28.6847 29.7394 28.2854 29.2467 28.2854C28.7541 28.2854 28.3548 28.6847 28.3548 29.1773V29.8058H26.1041V29.1773C26.1041 28.6847 25.7048 28.2854 25.2122 28.2854C24.7195 28.2854 24.3203 28.6847 24.3203 29.1773V29.8058H22.0697V29.1773C22.0697 28.6847 21.6704 28.2854 21.1778 28.2854C20.6851 28.2854 20.2859 28.6847 20.2859 29.1773V29.8058H18.0352V29.1773C18.0352 28.6847 17.6359 28.2854 17.1432 28.2854C16.6506 28.2854 16.2513 28.6847 16.2513 29.1773V29.8058H14.0006V29.1773C14.0006 28.6847 13.6014 28.2854 13.1087 28.2854C12.6161 28.2854 12.2168 28.6847 12.2168 29.1773V30.6977C12.2168 30.8148 12.2398 30.9308 12.2847 31.039C12.3295 31.1473 12.3952 31.2456 12.478 31.3284C12.5608 31.4112 12.6592 31.4769 12.7674 31.5218C12.8756 31.5666 12.9916 31.5896 13.1087 31.5896H49.4202C49.5373 31.5896 49.6533 31.5666 49.7615 31.5218C49.8698 31.4769 49.9681 31.4112 50.0509 31.3284C50.1337 31.2456 50.1994 31.1473 50.2442 31.039C50.2891 30.9308 50.3121 30.8148 50.3121 30.6977V29.1773C50.3119 28.9407 50.2178 28.7139 50.0504 28.5467C49.8831 28.3794 49.6562 28.2855 49.4196 28.2854Z" fill="#685E67"/>
</svg>
