<svg width="60" height="60" viewBox="0 0 60 60" fill="none" xmlns="http://www.w3.org/2000/svg">
<g clip-path="url(#clip0_667_705)">
<path d="M42.5712 19.5303C42.3955 19.5304 42.2238 19.4783 42.0778 19.3807C41.9803 19.3158 41.8965 19.2323 41.8312 19.135C41.766 19.0378 41.7205 18.9286 41.6975 18.8138C41.6744 18.6989 41.6742 18.5807 41.6968 18.4657C41.7195 18.3508 41.7646 18.2415 41.8295 18.144L51.4628 3.66957C51.5276 3.57203 51.6111 3.48824 51.7084 3.42297C51.8057 3.3577 51.9149 3.31224 52.0297 3.28918C52.1446 3.26612 52.2628 3.26591 52.3778 3.28857C52.4927 3.31123 52.602 3.35632 52.6996 3.42125C52.7971 3.48613 52.8809 3.5696 52.9461 3.66687C53.0114 3.76414 53.0568 3.87331 53.0799 3.98815C53.103 4.10299 53.1032 4.22125 53.0805 4.33617C53.0579 4.45109 53.0128 4.56043 52.9479 4.65793L43.3146 19.1323C43.2332 19.2549 43.1226 19.3554 42.9929 19.4248C42.8632 19.4942 42.7183 19.5305 42.5712 19.5303ZM39.9437 20.2214C39.8052 20.2213 39.6687 20.1889 39.545 20.1267L31.2706 15.9825C31.1659 15.93 31.0725 15.8575 30.9958 15.7689C30.9191 15.6804 30.8606 15.5776 30.8236 15.4665C30.7867 15.3553 30.772 15.238 30.7804 15.1211C30.7888 15.0043 30.8201 14.8902 30.8726 14.7855C30.925 14.6807 30.9976 14.5873 31.0861 14.5106C31.1747 14.4339 31.2775 14.3754 31.3886 14.3384C31.4998 14.3015 31.6171 14.2868 31.734 14.2952C31.8508 14.3036 31.9649 14.3349 32.0696 14.3874L40.344 18.5316C40.4488 18.5841 40.5421 18.6566 40.6188 18.7452C40.6955 18.8337 40.754 18.9365 40.791 19.0476C40.828 19.1588 40.8427 19.2761 40.8343 19.393C40.8259 19.5098 40.7946 19.6239 40.7421 19.7286C40.6679 19.8768 40.5539 20.0014 40.4129 20.0884C40.2719 20.1754 40.1094 20.2215 39.9437 20.2214ZM19.8583 25.3989C19.682 25.399 19.5096 25.3467 19.3629 25.2488C19.2162 25.1509 19.1019 25.0116 19.0343 24.8487C18.9667 24.6858 18.949 24.5065 18.9833 24.3335C19.0176 24.1605 19.1024 24.0016 19.2271 23.8768L27.8276 15.2615C27.9103 15.1786 28.0086 15.1128 28.1168 15.0679C28.2249 15.023 28.3409 14.9998 28.458 14.9997C28.5752 14.9996 28.6912 15.0226 28.7994 15.0673C28.9077 15.1121 29.0061 15.1777 29.089 15.2605C29.1719 15.3432 29.2377 15.4415 29.2826 15.5497C29.3275 15.6579 29.3507 15.7738 29.3508 15.891C29.3509 16.0081 29.3279 16.1241 29.2831 16.2323C29.2384 16.3406 29.1728 16.439 29.09 16.5219L20.4895 25.1371C20.4068 25.2203 20.3084 25.2862 20.2001 25.3311C20.0918 25.3761 19.9756 25.3991 19.8583 25.3989ZM8.9503 31.6088C8.78607 31.609 8.62499 31.5638 8.48484 31.4782C8.34468 31.3926 8.23088 31.2699 8.156 31.1238C8.10252 31.0196 8.07009 30.9058 8.06057 30.7891C8.05105 30.6723 8.06462 30.5548 8.10051 30.4433C8.1364 30.3318 8.1939 30.2285 8.26974 30.1392C8.34557 30.0499 8.43825 29.9764 8.54248 29.923L15.9607 26.1172C16.0649 26.0637 16.1786 26.0313 16.2954 26.0217C16.4121 26.0122 16.5296 26.0258 16.6411 26.0617C16.7526 26.0975 16.8559 26.155 16.9452 26.2308C17.0345 26.3067 17.1079 26.3993 17.1614 26.5036C17.2149 26.6078 17.2473 26.7215 17.2568 26.8383C17.2663 26.955 17.2528 27.0725 17.2169 27.184C17.181 27.2955 17.1235 27.3989 17.0477 27.4882C16.9718 27.5774 16.8791 27.6509 16.7749 27.7044L9.3567 31.5102C9.23105 31.575 9.0917 31.6088 8.9503 31.6088Z" fill="#B1DBFC"/>
<path d="M6.85871 34.4916C8.38198 34.4916 9.61684 33.2567 9.61684 31.7335C9.61684 30.2102 8.38198 28.9753 6.85871 28.9753C5.33544 28.9753 4.10059 30.2102 4.10059 31.7335C4.10059 33.2567 5.33544 34.4916 6.85871 34.4916Z" fill="#FF656F"/>
<path d="M18.429 28.6964C19.9523 28.6964 21.1871 27.4616 21.1871 25.9383C21.1871 24.415 19.9523 23.1802 18.429 23.1802C16.9058 23.1802 15.6709 24.415 15.6709 25.9383C15.6709 27.4616 16.9058 28.6964 18.429 28.6964Z" fill="#FFA85D"/>
<path d="M30.0003 17.1063C31.5236 17.1063 32.7584 15.8715 32.7584 14.3482C32.7584 12.8249 31.5236 11.5901 30.0003 11.5901C28.477 11.5901 27.2422 12.8249 27.2422 14.3482C27.2422 15.8715 28.477 17.1063 30.0003 17.1063Z" fill="#FEE55A"/>
<path d="M41.5706 22.9015C43.0939 22.9015 44.3287 21.6666 44.3287 20.1434C44.3287 18.6201 43.0939 17.3853 41.5706 17.3853C40.0474 17.3853 38.8125 18.6201 38.8125 20.1434C38.8125 21.6666 40.0474 22.9015 41.5706 22.9015Z" fill="#43CB8E"/>
<path d="M53.1409 5.51625C54.6642 5.51625 55.8991 4.28139 55.8991 2.75812C55.8991 1.23485 54.6642 0 53.1409 0C51.6177 0 50.3828 1.23485 50.3828 2.75812C50.3828 4.28139 51.6177 5.51625 53.1409 5.51625Z" fill="#23A8FE"/>
<path d="M7.11348 31.7333C7.11348 30.7661 7.61176 29.9158 8.36516 29.4233C7.91746 29.1302 7.39383 28.9744 6.85871 28.9751C5.33539 28.9751 4.10059 30.2099 4.10059 31.7332C4.10059 33.2565 5.33551 34.4913 6.85871 34.4913C7.41477 34.4913 7.93203 34.3262 8.36516 34.0431C7.61164 33.5509 7.11348 32.7006 7.11348 31.7333Z" fill="#FF4756"/>
<path d="M18.6838 25.9384C18.6838 24.9712 19.1821 24.1208 19.9355 23.6284C19.4878 23.3353 18.9641 23.1795 18.429 23.1802C16.9057 23.1802 15.6709 24.415 15.6709 25.9383C15.6709 27.4616 16.9057 28.6964 18.429 28.6964C18.9851 28.6964 19.5023 28.5313 19.9355 28.2482C19.1821 27.756 18.6838 26.9057 18.6838 25.9384Z" fill="#FF9839"/>
<path d="M30.2551 14.3483C30.2551 13.3811 30.7534 12.5308 31.5068 12.0383C31.0591 11.7452 30.5354 11.5894 30.0003 11.5901C28.477 11.5901 27.2422 12.8249 27.2422 14.3482C27.2422 15.8715 28.4771 17.1063 30.0003 17.1063C30.5564 17.1063 31.0736 16.9412 31.5068 16.6581C30.7534 16.1659 30.2551 15.3155 30.2551 14.3483Z" fill="#FFD301"/>
<path d="M41.8254 20.1433C41.8254 19.176 42.3237 18.3257 43.0771 17.8333C42.6294 17.5401 42.1057 17.3843 41.5706 17.385C40.0473 17.385 38.8125 18.6198 38.8125 20.1431C38.8125 21.6665 40.0474 22.9013 41.5706 22.9013C42.1267 22.9013 42.6439 22.7361 43.0771 22.453C42.3236 21.9608 41.8254 21.1104 41.8254 20.1433Z" fill="#00BA66"/>
<path d="M53.3957 2.75813C53.3957 1.79086 53.894 0.940549 54.6474 0.448127C54.1996 0.155104 53.676 -0.000657856 53.1409 2.08841e-06C51.6176 2.08841e-06 50.3828 1.23481 50.3828 2.75813C50.3828 4.28145 51.6177 5.51625 53.1409 5.51625C53.697 5.51625 54.2143 5.35114 54.6474 5.06801C53.894 4.57571 53.3957 3.72539 53.3957 2.75813Z" fill="#0193FA"/>
<path d="M9.8418 41.9426H3.87578C3.67796 41.9426 3.48823 42.0212 3.34835 42.1611C3.20847 42.301 3.12988 42.4907 3.12988 42.6885V59.108H10.5878V42.6886C10.5878 42.4908 10.5091 42.3011 10.3692 42.1612C10.2293 42.0213 10.0396 41.9427 9.8418 41.9426Z" fill="#FF656F"/>
<path d="M21.4121 36.1475H15.4461C15.2483 36.1475 15.0585 36.226 14.9187 36.3659C14.7788 36.5058 14.7002 36.6955 14.7002 36.8934V59.1079H22.1581V36.8935C22.1581 36.6956 22.0795 36.5059 21.9396 36.366C21.7997 36.2261 21.61 36.1475 21.4121 36.1475Z" fill="#FFA85D"/>
<path d="M32.9824 24.5068H27.0164C26.9185 24.5068 26.8215 24.5261 26.731 24.5636C26.6405 24.6011 26.5582 24.656 26.489 24.7253C26.4197 24.7946 26.3648 24.8768 26.3273 24.9673C26.2898 25.0578 26.2705 25.1548 26.2705 25.2527V59.108H33.7284V25.2527C33.7284 25.0549 33.6498 24.8652 33.5099 24.7253C33.37 24.5855 33.1802 24.5069 32.9824 24.5068Z" fill="#FEE55A"/>
<path d="M44.5537 30.3525H38.5877C38.3899 30.3525 38.2001 30.4311 38.0603 30.571C37.9204 30.7109 37.8418 30.9006 37.8418 31.0984V59.108H45.2997V31.0984C45.2997 30.9006 45.221 30.7109 45.0811 30.571C44.9413 30.4312 44.7515 30.3526 44.5537 30.3525Z" fill="#43CB8E"/>
<path d="M56.124 12.8857H50.158C49.9602 12.8857 49.7705 12.9643 49.6306 13.1042C49.4907 13.2441 49.4121 13.4338 49.4121 13.6316V59.1079H56.87V13.6318C56.87 13.4339 56.7914 13.2441 56.6515 13.1042C56.5116 12.9643 56.3219 12.8857 56.124 12.8857Z" fill="#23A8FE"/>
<path d="M8.4591 41.9426H3.87578C3.77783 41.9426 3.68083 41.9619 3.59034 41.9994C3.49984 42.0369 3.41761 42.0918 3.34835 42.1611C3.27909 42.2304 3.22415 42.3126 3.18666 42.4031C3.14918 42.4936 3.12988 42.5906 3.12988 42.6885V59.108H7.71332V42.6886C7.7133 42.5907 7.73258 42.4937 7.77005 42.4032C7.80752 42.3127 7.86245 42.2305 7.93171 42.1612C8.00096 42.0919 8.08318 42.0369 8.17367 41.9995C8.26416 41.962 8.36115 41.9426 8.4591 41.9426Z" fill="#FF4756"/>
<path d="M20.0295 36.1475H15.4461C15.2483 36.1475 15.0585 36.226 14.9187 36.3659C14.7788 36.5058 14.7002 36.6955 14.7002 36.8934V59.1079H19.2836V36.8935C19.2836 36.7955 19.3029 36.6985 19.3404 36.608C19.3779 36.5175 19.4328 36.4352 19.5021 36.366C19.5713 36.2967 19.6536 36.2417 19.7441 36.2042C19.8346 36.1668 19.9316 36.1475 20.0295 36.1475Z" fill="#FF9839"/>
<path d="M31.5998 24.5068H27.0164C26.9185 24.5068 26.8215 24.5261 26.731 24.5636C26.6405 24.6011 26.5582 24.656 26.489 24.7253C26.4197 24.7946 26.3648 24.8768 26.3273 24.9673C26.2898 25.0578 26.2705 25.1548 26.2705 25.2527V59.108H30.8539V25.2527C30.8539 25.1548 30.8732 25.0578 30.9107 24.9673C30.9482 24.8768 31.0031 24.7945 31.0724 24.7253C31.1416 24.656 31.2239 24.6011 31.3144 24.5636C31.4049 24.5261 31.5019 24.5068 31.5998 24.5068Z" fill="#FFD301"/>
<path d="M43.171 30.3525H38.5877C38.3899 30.3525 38.2001 30.4311 38.0603 30.571C37.9204 30.7109 37.8418 30.9006 37.8418 31.0984V59.108H42.4252V31.0984C42.4252 31.0005 42.4445 30.9035 42.482 30.813C42.5194 30.7225 42.5744 30.6403 42.6436 30.571C42.7129 30.5017 42.7951 30.4468 42.8856 30.4093C42.9761 30.3718 43.0731 30.3525 43.171 30.3525Z" fill="#00BA66"/>
<path d="M54.7414 12.8857H50.158C49.9602 12.8857 49.7705 12.9643 49.6306 13.1042C49.4907 13.2441 49.4121 13.4338 49.4121 13.6316V59.1079H53.9955V13.6318C53.9955 13.4339 54.0741 13.2442 54.214 13.1043C54.3539 12.9644 54.5436 12.8858 54.7414 12.8857Z" fill="#0193FA"/>
<path d="M58.8656 60H1.1341C0.641445 60 0.242188 59.6008 0.242188 59.108C0.242188 58.6152 0.641562 58.2161 1.1341 58.2161H58.8656C59.3582 58.2161 59.7575 58.6153 59.7575 59.108C59.7575 59.6006 59.3582 60 58.8656 60Z" fill="#23A8FE"/>
</g>
<defs>
<clipPath id="clip0_667_705">
<rect width="60" height="60" fill="white"/>
</clipPath>
</defs>
</svg>
