<svg width="60" height="60" viewBox="0 0 60 60" fill="none" xmlns="http://www.w3.org/2000/svg">
<g clip-path="url(#clip0_654_1666)">
<path d="M47.8343 10.4786V46.9955C47.8343 47.0684 47.8331 47.1413 47.8293 47.2142C47.7151 49.715 45.6506 51.709 43.1193 51.709H16.6142C14.0101 51.709 11.8994 49.5983 11.8994 46.9954V4.71627C11.8994 2.47799 13.4585 0.604162 15.5498 0.121701C15.8989 0.0415237 16.256 0.00118799 16.6142 0.00146627H37.6681C38.3839 0.00146627 39.0826 0.164357 39.7156 0.470568C40.9893 1.08358 41.348 1.8583 43.637 4.19865C46.2703 7.05791 46.899 7.351 47.4356 8.58908C47.6989 9.18421 47.8347 9.82785 47.8343 10.4786Z" fill="#FFC477"/>
<path d="M47.8343 10.4786V46.9955C47.8343 47.0684 47.8331 47.1413 47.8294 47.2142C47.4802 47.2945 47.1231 47.3349 46.7648 47.3345H20.2597C17.6556 47.3345 15.5449 45.2238 15.5449 42.6209V0.341662C15.5449 0.267482 15.5461 0.194591 15.5497 0.121701C15.8989 0.0415298 16.256 0.00119418 16.6143 0.00146621H37.6682C38.3839 0.00146621 39.0826 0.164357 39.7157 0.470568C40.2411 0.723813 40.715 1.07242 41.1131 1.49865L43.637 4.19877L46.5266 7.22209C46.9083 7.62024 47.2161 8.08317 47.4355 8.5892C47.6989 9.18425 47.8348 9.82787 47.8343 10.4786Z" fill="#FFDAAA"/>
<path d="M59.9302 26.831V53.3386C59.9302 54.8126 59.4513 56.1761 58.6397 57.2794C57.4281 58.9296 55.4729 60.0014 53.2675 60.0014H35.9537C32.2741 60.0014 29.291 57.0182 29.291 53.3387V26.831C29.291 24.0811 30.9582 21.72 33.3363 20.7029C34.1635 20.349 35.0541 20.1671 35.9538 20.1682H53.2675C56.9482 20.1683 59.9302 23.1516 59.9302 26.831Z" fill="#4CBA68"/>
<path d="M59.9302 26.831V53.3386C59.9302 54.8126 59.4514 56.1761 58.6397 57.2794C57.8125 57.6333 56.922 57.8152 56.0222 57.8141H38.7086C35.029 57.8141 32.0459 54.8309 32.0459 51.1514V24.6437C32.0459 23.1697 32.5247 21.8063 33.3364 20.7029C34.1636 20.349 35.0541 20.1671 35.9539 20.1682H53.2675C56.9482 20.1683 59.9302 23.1516 59.9302 26.831Z" fill="#7CCC92"/>
<path d="M47.1629 44.2589V47.3721C47.1629 47.9225 46.7168 48.3685 46.1676 48.3685H43.0531C42.9222 48.3686 42.7926 48.3428 42.6717 48.2927C42.5508 48.2427 42.441 48.1693 42.3485 48.0767C42.2559 47.9842 42.1825 47.8743 42.1325 47.7534C42.0824 47.6325 42.0566 47.503 42.0566 47.3721V44.2589C42.0566 44.128 42.0824 43.9985 42.1325 43.8776C42.1825 43.7567 42.2559 43.6468 42.3485 43.5543C42.441 43.4617 42.5508 43.3883 42.6717 43.3383C42.7926 43.2882 42.9222 43.2624 43.0531 43.2625H46.1676C46.717 43.2625 47.1629 43.7085 47.1629 44.2589Z" fill="#2C733F"/>
<path d="M55.3508 26.2065V29.5421C55.3508 30.7282 54.3896 31.6905 53.2024 31.6905H36.0175C34.8315 31.6905 33.8691 30.7281 33.8691 29.5421V26.2065C33.8691 25.0204 34.8316 24.0581 36.0175 24.0581H53.2024C54.3896 24.0581 55.3508 25.0206 55.3508 26.2065Z" fill="#1E81CE"/>
<path d="M55.3508 26.2065V29.5421C55.3508 30.7282 54.3896 31.6905 53.2024 31.6905H39.663C38.477 31.6905 37.5146 30.7281 37.5146 29.5421V26.2065C37.5146 25.0204 38.4771 24.0581 39.663 24.0581H53.2024C54.3896 24.0581 55.3508 25.0206 55.3508 26.2065Z" fill="#3D9AE2"/>
<path d="M38.9765 44.2589V47.3721C38.9765 47.503 38.9508 47.6325 38.9007 47.7534C38.8506 47.8743 38.7772 47.9842 38.6847 48.0767C38.5922 48.1693 38.4823 48.2427 38.3614 48.2927C38.2405 48.3428 38.1109 48.3686 37.9801 48.3685H34.8656C34.3163 48.3685 33.8691 47.9225 33.8691 47.3721V44.2589C33.8691 43.7085 34.3163 43.2625 34.8656 43.2625H37.9801C38.1109 43.2624 38.2405 43.2882 38.3614 43.3382C38.4823 43.3883 38.5922 43.4617 38.6847 43.5542C38.7773 43.6468 38.8507 43.7566 38.9007 43.8775C38.9508 43.9984 38.9766 44.128 38.9765 44.2589ZM47.1631 36.1173V39.2305C47.1631 39.7809 46.7171 40.2269 46.1679 40.2269H43.0534C42.9225 40.227 42.7929 40.2012 42.672 40.1511C42.5511 40.1011 42.4413 40.0277 42.3487 39.9351C42.2562 39.8426 42.1828 39.7327 42.1327 39.6118C42.0827 39.4909 42.0569 39.3614 42.0569 39.2305V36.1173C42.0569 35.9864 42.0827 35.8569 42.1327 35.736C42.1828 35.6151 42.2562 35.5052 42.3487 35.4127C42.4413 35.3201 42.5511 35.2467 42.672 35.1967C42.7929 35.1466 42.9225 35.1208 43.0534 35.1208H46.1679C46.7172 35.1208 47.1631 35.5669 47.1631 36.1173Z" fill="#2C733F"/>
<path d="M55.4498 36.1173V39.2305C55.4499 39.3614 55.4241 39.4909 55.374 39.6118C55.324 39.7327 55.2506 39.8426 55.158 39.9351C55.0655 40.0277 54.9556 40.1011 54.8347 40.1511C54.7138 40.2012 54.5843 40.227 54.4534 40.2269H51.3402C51.2093 40.227 51.0798 40.2012 50.9589 40.1511C50.838 40.1011 50.7281 40.0277 50.6356 39.9351C50.543 39.8426 50.4696 39.7327 50.4196 39.6118C50.3695 39.4909 50.3437 39.3614 50.3438 39.2305V36.1173C50.3437 35.9864 50.3695 35.8569 50.4196 35.736C50.4696 35.6151 50.543 35.5052 50.6356 35.4127C50.7281 35.3201 50.838 35.2467 50.9589 35.1967C51.0798 35.1466 51.2093 35.1208 51.3402 35.1208H54.4534C54.5843 35.1208 54.7139 35.1466 54.8348 35.1966C54.9557 35.2467 55.0655 35.3201 55.1581 35.4126C55.2506 35.5052 55.324 35.615 55.3741 35.7359C55.4241 35.8568 55.4499 35.9864 55.4498 36.1173Z" fill="#EE8700"/>
<path d="M38.9765 36.1173V39.2305C38.9765 39.3614 38.9508 39.4909 38.9007 39.6118C38.8506 39.7327 38.7772 39.8426 38.6847 39.9351C38.5922 40.0277 38.4823 40.1011 38.3614 40.1511C38.2405 40.2012 38.1109 40.227 37.9801 40.2269H34.8656C34.3163 40.2269 33.8691 39.7809 33.8691 39.2305V36.1173C33.8691 35.5669 34.3163 35.1208 34.8656 35.1208H37.9801C38.1109 35.1208 38.2405 35.1466 38.3614 35.1966C38.4823 35.2467 38.5922 35.3201 38.6847 35.4126C38.7773 35.5052 38.8507 35.615 38.9007 35.7359C38.9508 35.8568 38.9766 35.9864 38.9765 36.1173ZM47.1631 52.0008V55.1153C47.1631 55.6657 46.7171 56.1117 46.1679 56.1117H43.0534C42.9225 56.1117 42.7929 56.086 42.672 56.0359C42.5511 55.9858 42.4413 55.9124 42.3487 55.8199C42.2562 55.7274 42.1828 55.6175 42.1327 55.4966C42.0827 55.3757 42.0569 55.2461 42.0569 55.1153V52.0008C42.0569 51.4515 42.5029 51.0055 43.0534 51.0055H46.1679C46.7172 51.0055 47.1631 51.4515 47.1631 52.0008ZM38.9765 52.0008V55.1153C38.9765 55.2461 38.9508 55.3757 38.9007 55.4966C38.8506 55.6175 38.7772 55.7274 38.6847 55.8199C38.5922 55.9124 38.4823 55.9858 38.3614 56.0359C38.2405 56.086 38.1109 56.1117 37.9801 56.1117H34.8656C34.3163 56.1117 33.8691 55.6657 33.8691 55.1153V52.0008C33.8691 51.4515 34.3163 51.0055 34.8656 51.0055H37.9801C38.5306 51.0055 38.9765 51.4515 38.9765 52.0008Z" fill="#2C733F"/>
<path d="M55.4497 44.7425V54.4116C55.4497 55.3509 54.6891 56.1116 53.751 56.1116H52.0425C51.1044 56.1116 50.3438 55.3509 50.3438 54.4116V44.7425C50.3438 43.9247 51.0073 43.2625 51.8238 43.2625H53.9698C54.7875 43.2625 55.4497 43.9248 55.4497 44.7425Z" fill="#EE8700"/>
<path d="M47.1631 44.2589V45.1848C47.1631 45.7352 46.7171 46.1812 46.1679 46.1812H43.0534C42.9225 46.1813 42.7929 46.1555 42.672 46.1054C42.5511 46.0554 42.4413 45.982 42.3487 45.8894C42.2562 45.7969 42.1828 45.687 42.1327 45.5661C42.0827 45.4452 42.0569 45.3157 42.0569 45.1848V44.2589C42.0569 44.128 42.0827 43.9985 42.1327 43.8776C42.1828 43.7567 42.2562 43.6468 42.3487 43.5543C42.4413 43.4617 42.5511 43.3883 42.672 43.3383C42.7929 43.2882 42.9225 43.2624 43.0534 43.2625H46.1679C46.7172 43.2625 47.1631 43.7085 47.1631 44.2589ZM38.9765 44.2589V45.1848C38.9765 45.3157 38.9508 45.4452 38.9007 45.5661C38.8506 45.687 38.7772 45.7969 38.6847 45.8894C38.5922 45.982 38.4823 46.0554 38.3614 46.1054C38.2405 46.1555 38.1109 46.1813 37.9801 46.1812H34.8656C34.3163 46.1812 33.8691 45.7352 33.8691 45.1848V44.2589C33.8691 43.7085 34.3163 43.2625 34.8656 43.2625H37.9801C38.1109 43.2624 38.2405 43.2882 38.3614 43.3382C38.4823 43.3883 38.5922 43.4617 38.6847 43.5542C38.7773 43.6468 38.8507 43.7566 38.9007 43.8775C38.9508 43.9984 38.9766 44.128 38.9765 44.2589ZM47.1631 36.1173V37.0432C47.1631 37.5936 46.7171 38.0396 46.1679 38.0396H43.0534C42.9225 38.0397 42.7929 38.0139 42.672 37.9638C42.5511 37.9137 42.4413 37.8404 42.3487 37.7478C42.2562 37.6553 42.1828 37.5454 42.1327 37.4245C42.0827 37.3036 42.0569 37.1741 42.0569 37.0432V36.1173C42.0569 35.9864 42.0827 35.8569 42.1327 35.736C42.1828 35.6151 42.2562 35.5052 42.3487 35.4127C42.4413 35.3201 42.5511 35.2467 42.672 35.1967C42.7929 35.1466 42.9225 35.1208 43.0534 35.1208H46.1679C46.7172 35.1208 47.1631 35.5669 47.1631 36.1173Z" fill="#317F46"/>
<path d="M55.4498 36.1173V37.0432C55.4499 37.1741 55.4241 37.3036 55.374 37.4245C55.324 37.5454 55.2506 37.6553 55.158 37.7478C55.0655 37.8404 54.9556 37.9137 54.8347 37.9638C54.7138 38.0139 54.5843 38.0397 54.4534 38.0396H51.3402C51.2093 38.0397 51.0798 38.0139 50.9589 37.9638C50.838 37.9137 50.7281 37.8404 50.6356 37.7478C50.543 37.6553 50.4696 37.5454 50.4196 37.4245C50.3695 37.3036 50.3437 37.1741 50.3438 37.0432V36.1173C50.3437 35.9864 50.3695 35.8569 50.4196 35.736C50.4696 35.6151 50.543 35.5052 50.6356 35.4127C50.7281 35.3201 50.838 35.2467 50.9589 35.1967C51.0798 35.1466 51.2093 35.1208 51.3402 35.1208H54.4534C54.5843 35.1208 54.7139 35.1466 54.8348 35.1966C54.9557 35.2467 55.0655 35.3201 55.1581 35.4126C55.2506 35.5052 55.324 35.615 55.3741 35.7359C55.4241 35.8568 55.4499 35.9864 55.4498 36.1173Z" fill="#FF9811"/>
<path d="M38.9765 36.1173V37.0432C38.9765 37.1741 38.9508 37.3036 38.9007 37.4245C38.8506 37.5454 38.7772 37.6553 38.6847 37.7478C38.5922 37.8404 38.4823 37.9137 38.3614 37.9638C38.2405 38.0139 38.1109 38.0397 37.9801 38.0396H34.8656C34.3163 38.0396 33.8691 37.5936 33.8691 37.0432V36.1173C33.8691 35.5669 34.3163 35.1208 34.8656 35.1208H37.9801C38.1109 35.1208 38.2405 35.1466 38.3614 35.1966C38.4823 35.2467 38.5922 35.3201 38.6847 35.4126C38.7773 35.5052 38.8507 35.615 38.9007 35.7359C38.9508 35.8568 38.9766 35.9864 38.9765 36.1173ZM47.1631 52.0008V52.928C47.1631 53.4784 46.7171 53.9244 46.1679 53.9244H43.0534C42.9225 53.9244 42.7929 53.8987 42.672 53.8486C42.5511 53.7985 42.4413 53.7251 42.3487 53.6326C42.2562 53.5401 42.1828 53.4302 42.1327 53.3093C42.0827 53.1884 42.0569 53.0588 42.0569 52.928V52.0008C42.0569 51.4515 42.5029 51.0055 43.0534 51.0055H46.1679C46.7172 51.0055 47.1631 51.4515 47.1631 52.0008ZM38.9765 52.0008V52.928C38.9765 53.0588 38.9508 53.1884 38.9007 53.3093C38.8506 53.4302 38.7772 53.5401 38.6847 53.6326C38.5922 53.7251 38.4823 53.7985 38.3614 53.8486C38.2405 53.8987 38.1109 53.9244 37.9801 53.9244H34.8656C34.3163 53.9244 33.8691 53.4784 33.8691 52.928V52.0008C33.8691 51.4515 34.3163 51.0055 34.8656 51.0055H37.9801C38.5306 51.0055 38.9765 51.4515 38.9765 52.0008Z" fill="#317F46"/>
<path d="M55.4497 44.7425V52.2242C55.4497 53.1636 54.6891 53.9243 53.751 53.9243H52.0425C51.1044 53.9243 50.3438 53.1636 50.3438 52.2242V44.7425C50.3438 43.9247 51.0073 43.2625 51.8238 43.2625H53.9698C54.7875 43.2625 55.4497 43.9248 55.4497 44.7425Z" fill="#FF9811"/>
<path d="M47.4354 8.58886H41.5274C40.5264 8.58886 39.7148 7.77733 39.7148 6.77632V0.470459C40.2403 0.723453 40.7141 1.07182 41.1123 1.49784L43.6371 4.19819L46.5264 7.22198C46.9077 7.62033 47.2155 8.08311 47.4354 8.58886Z" fill="#FFB655"/>
<path d="M22.5509 25.5025C21.4396 25.0942 20.6368 24.7992 20.6368 23.7697C20.6368 22.8315 21.2599 22.3557 22.4889 22.3557C23.3147 22.3557 23.7804 22.5954 24.0893 22.7542C24.2726 22.8484 24.4309 22.9298 24.6042 22.9298C25.1044 22.9298 25.3811 22.3991 25.3811 22.0321C25.3811 21.2728 24.1426 20.8963 23.0354 20.797V20.1124C23.0354 19.6362 22.648 19.2487 22.1718 19.2487C21.6955 19.2487 21.3081 19.6362 21.3081 20.1124V20.9059C19.7943 21.2653 18.9625 22.311 18.9625 23.8602C18.9625 25.9814 20.5241 26.5682 21.7791 27.04C23.0079 27.5017 23.9786 27.8664 23.9786 29.2693C23.9786 30.4281 23.3351 31.0157 22.0661 31.0157C20.9167 31.0157 20.4587 30.5221 20.1245 30.1617C19.9253 29.9469 19.7534 29.7615 19.4827 29.7615C19.0439 29.7615 18.6905 30.2526 18.6905 30.6593C18.6905 31.3774 19.76 32.3214 21.3082 32.5665V33.228C21.3082 33.7043 21.6956 34.0917 22.1719 34.0917C22.6481 34.0917 23.0355 33.7043 23.0355 33.228V32.5488C24.7008 32.2355 25.6533 31.0126 25.6533 29.1786C25.6529 26.6422 23.9329 26.0103 22.5509 25.5025ZM38.6189 13.3069H40.9082C41.4115 13.3069 41.8195 12.8989 41.8195 12.3955C41.8195 11.8921 41.4115 11.4841 40.9082 11.4841H38.6189C38.1156 11.4841 37.7075 11.8921 37.7075 12.3955C37.7075 12.8989 38.1156 13.3069 38.6189 13.3069ZM18.8118 13.3069H34.9734C35.4768 13.3069 35.8848 12.8989 35.8848 12.3955C35.8848 11.8921 35.4768 11.4841 34.9734 11.4841H18.8118C18.3084 11.4841 17.9004 11.8921 17.9004 12.3955C17.9004 12.8989 18.3084 13.3069 18.8118 13.3069ZM21.7086 17.8305C22.212 17.8305 22.62 17.4226 22.62 16.9192C22.62 16.4157 22.212 16.0078 21.7086 16.0078H18.8118C18.3084 16.0078 17.9004 16.4157 17.9004 16.9192C17.9004 17.4226 18.3084 17.8305 18.8118 17.8305H21.7086ZM40.9082 16.0078H25.3541C24.8508 16.0078 24.4427 16.4157 24.4427 16.9192C24.4427 17.4226 24.8508 17.8305 25.3541 17.8305H40.9082C41.4115 17.8305 41.8195 17.4226 41.8195 16.9192C41.8195 16.4157 41.4115 16.0078 40.9082 16.0078Z" fill="#4E901E"/>
<path d="M26.1811 57.1362C26.1811 57.7717 25.9211 58.3477 25.5031 58.767C25.0839 59.185 24.5078 59.4451 23.8723 59.4451H9.72777C8.45793 59.4451 7.41895 58.4061 7.41895 57.1362C7.41895 56.5007 7.67898 55.9247 8.09699 55.5054C8.51617 55.0874 9.09227 54.8274 9.72777 54.8274H23.8723C25.1423 54.8274 26.1811 55.8664 26.1811 57.1362Z" fill="#AA6100"/>
<path d="M26.1811 52.5185C26.1811 53.1541 25.9211 53.73 25.5031 54.1493C25.0839 54.5673 24.5078 54.8274 23.8723 54.8274H9.72777C8.45793 54.8274 7.41895 53.7884 7.41895 52.5185C7.41895 51.883 7.67898 51.3071 8.09699 50.8878C8.51617 50.4698 9.09227 50.2097 9.72777 50.2097H23.8723C25.1423 50.2097 26.1811 51.2487 26.1811 52.5185Z" fill="#CC7400"/>
<path d="M26.1811 47.9009C26.1811 48.5364 25.9211 49.1124 25.5031 49.5317C25.0839 49.9497 24.5078 50.2097 23.8723 50.2097H9.72777C8.45793 50.2097 7.41895 49.1707 7.41895 47.9009C7.41895 47.2654 7.67898 46.6894 8.09699 46.2701C8.51617 45.8521 9.09227 45.592 9.72777 45.592H23.8723C25.1423 45.5922 26.1811 46.631 26.1811 47.9009Z" fill="#EE8700"/>
<path d="M26.1811 43.2832C26.1811 43.9187 25.9211 44.4947 25.5031 44.914C25.0839 45.332 24.5078 45.592 23.8723 45.592H9.72777C8.45793 45.592 7.41895 44.553 7.41895 43.2832C7.41895 42.8312 7.55137 42.4083 7.77859 42.051C7.86955 41.9067 7.97634 41.773 8.09699 41.6524C8.51617 41.2344 9.09227 40.9744 9.72777 40.9744H23.8723C25.1423 40.9744 26.1811 42.0134 26.1811 43.2832Z" fill="#FF9811"/>
<path d="M23.8717 40.9746H9.72777C8.45793 40.9746 7.41895 39.9356 7.41895 38.6658C7.41895 37.3959 8.45793 36.3569 9.72777 36.3569H23.8718C25.1417 36.3569 26.1807 37.3959 26.1807 38.6658C26.1805 39.9356 25.1417 40.9746 23.8717 40.9746Z" fill="#FFA733"/>
<path d="M10.2293 44.677V59.7076H7.92924C5.89827 59.7949 4.01987 59.0665 2.61163 57.8147C-2.49915 53.2792 0.611704 44.9663 7.28565 44.677H10.2293Z" fill="#CC7400"/>
<path d="M18.0595 52.4644C17.9241 56.3514 14.8152 59.5382 10.8648 59.7073C6.71469 59.8847 3.20645 56.6642 3.02903 52.5141C3.02833 52.4972 3.02751 52.4812 3.02751 52.4644C2.87751 48.3351 6.08903 44.8544 10.2222 44.6776C14.3723 44.5002 17.8806 47.7208 18.058 51.8717C18.0664 52.0711 18.0671 52.2685 18.0595 52.4644Z" fill="#FFC477"/>
<path d="M11.7877 57.6816C11.6959 57.7022 11.6048 57.7206 11.5131 57.7366C8.57627 58.2538 5.72065 56.3766 5.0535 53.4367C4.36655 50.4049 6.26674 47.391 9.29838 46.7032C10.0288 46.5368 10.7852 46.518 11.523 46.6481C13.6864 47.0321 15.5155 48.6708 16.0319 50.9481C16.7195 53.9797 14.8193 56.9946 11.7877 57.6816Z" fill="#CC7400"/>
<path d="M11.7881 57.6816C11.6964 57.7023 11.6052 57.7207 11.5136 57.7367C9.351 57.3527 7.52112 55.7133 7.00467 53.4367C6.31772 50.405 8.21792 47.391 11.2496 46.7033C11.3404 46.6827 11.4317 46.6644 11.5234 46.6482C13.6868 47.0322 15.516 48.6708 16.0323 50.9482C16.72 53.9798 14.8198 56.9947 11.7881 57.6816Z" fill="#EE8700"/>
<path d="M18.0593 52.4644C17.924 56.3513 14.815 59.5381 10.8646 59.7072C6.71453 59.8847 3.20629 56.6641 3.02887 52.514C3.02816 52.4972 3.02734 52.4811 3.02734 52.4644H4.9198C4.93634 52.7917 4.98116 53.117 5.05375 53.4367C5.74152 56.4684 8.75629 58.3693 11.7879 57.6815C14.3102 57.11 16.0489 54.9283 16.1659 52.4644H18.0593Z" fill="#FFA733"/>
<path d="M11.2188 51.0496L11.0776 50.9975C10.2772 50.7033 10.1958 50.61 10.1958 50.3387C10.1958 50.1103 10.2799 50.0447 10.3588 50.001C10.4816 49.933 10.6744 49.8955 10.9015 49.8955C11.2985 49.8955 11.4984 49.9985 11.6765 50.0901C11.8128 50.1601 11.9674 50.2395 12.1685 50.2395C12.6883 50.2395 13.0376 49.7527 13.0376 49.298C13.0376 48.7438 12.542 48.3619 11.6327 48.2055V48.1483C11.6327 47.6405 11.2195 47.2273 10.7117 47.2273C10.204 47.2273 9.79076 47.6405 9.79076 48.1483V48.323C8.89357 48.6484 8.38591 49.3886 8.38591 50.3929C8.38591 51.9429 9.51208 52.3661 10.3346 52.6752C11.1188 52.97 11.3901 53.099 11.3901 53.6325C11.3901 53.966 11.3004 54.2746 10.6485 54.2746C10.1361 54.2746 9.95587 54.0803 9.78138 53.8921C9.64533 53.7453 9.43943 53.5237 9.10111 53.5237C8.59849 53.5237 8.2229 54.0207 8.2229 54.465C8.2229 55.0947 8.87763 55.6922 9.79087 55.9347V56.0036C9.79087 56.5114 10.2041 56.9246 10.7119 56.9246C11.2196 56.9246 11.6328 56.5114 11.6328 56.0036V55.9105C12.6208 55.5928 13.2007 54.7422 13.2007 53.5783C13.2001 51.7884 11.9114 51.3078 11.2188 51.0496ZM4.26689 48.0474C3.89382 48.611 3.59869 49.2225 3.38951 49.8652H0.454428C0.663491 49.2068 0.980014 48.5752 1.33052 48.0474H4.26689ZM3.08048 53.1359H0.144116C0.0682163 52.5325 0.065344 51.9222 0.135561 51.3181H3.0731C3.00267 51.9084 3.00419 52.5219 3.08048 53.1359ZM4.3699 56.4891H1.43236C1.04114 55.9285 0.728807 55.3169 0.504116 54.6713H3.44048C3.66498 55.3172 3.97775 55.9289 4.3699 56.4891Z" fill="#AA6100"/>
</g>
<defs>
<clipPath id="clip0_654_1666">
<rect width="60" height="60" fill="white" transform="translate(-0.00195312 0.00146484)"/>
</clipPath>
</defs>
</svg>
