<svg width="60" height="60" viewBox="0 0 60 60" fill="none" xmlns="http://www.w3.org/2000/svg">
<path d="M37.5244 16.8838H33.7502C23.4045 16.8837 14.9999 25.2882 15 35.6339C15.0001 45.6584 22.867 53.8454 32.764 54.3582C33.0967 54.3755 35.625 54.3838 36.5382 54.3582C37.0747 54.3432 37.5243 53.9577 37.5243 53.421V36.5713C37.5243 36.3226 37.623 36.0842 37.7988 35.9084C37.9747 35.7326 38.2131 35.6338 38.4618 35.6338H55.3116C55.8483 35.6338 56.2766 35.1838 56.2488 34.6478C55.7359 24.7508 47.5489 16.8839 37.5244 16.8838Z" fill="#463C4B"/>
<path d="M52.4746 34.6478C51.9618 24.7508 43.7748 16.8839 33.7502 16.8838C23.4045 16.8837 14.9999 25.2882 15 35.6339C15.0001 45.6584 22.867 53.8454 32.764 54.3582C33.3 54.386 33.75 53.9577 33.75 53.421V36.5713C33.75 36.3226 33.8488 36.0842 34.0246 35.9084C34.2004 35.7326 34.4389 35.6338 34.6875 35.6338H51.5373C52.074 35.6338 52.5022 35.1838 52.4746 34.6478Z" fill="#555A6E"/>
<path d="M55.7813 4.22754C55.4812 3.92741 55.0741 3.7588 54.6497 3.75879H49.1384C48.953 3.75878 48.7718 3.81376 48.6176 3.91678C48.4634 4.01979 48.3432 4.16621 48.2723 4.33752C48.2013 4.50883 48.1827 4.69733 48.2189 4.8792C48.2551 5.06106 48.3444 5.22811 48.4755 5.35922L50.2368 7.12055L42.1876 15.1696L36.0133 8.99543C35.2811 8.26324 34.0939 8.26324 33.3617 8.99543L20.2367 22.1204C19.5044 22.8526 19.5044 24.0398 20.2367 24.772C20.6028 25.1381 21.0827 25.3212 21.5625 25.3212C22.0422 25.3212 22.5221 25.1381 22.8882 24.772L34.6876 12.9729L40.8618 19.147C41.594 19.8792 42.7813 19.8792 43.5134 19.147L52.8884 9.77203L54.6498 11.5334C54.7809 11.6645 54.9479 11.7538 55.1298 11.7899C55.3117 11.8261 55.5002 11.8076 55.6715 11.7366C55.8428 11.6656 55.9892 11.5455 56.0922 11.3913C56.1952 11.2371 56.2502 11.0559 56.2502 10.8704V5.35922C56.2501 4.93476 56.0814 4.5277 55.7813 4.22754Z" fill="#FAA019"/>
<path d="M34.6875 13.1338C36.2408 13.1338 37.5 11.8746 37.5 10.3213C37.5 8.76799 36.2408 7.50879 34.6875 7.50879C33.1342 7.50879 31.875 8.76799 31.875 10.3213C31.875 11.8746 33.1342 13.1338 34.6875 13.1338Z" fill="#FFCD05"/>
<path d="M42.1875 20.6338C43.7408 20.6338 45 19.3746 45 17.8213C45 16.268 43.7408 15.0088 42.1875 15.0088C40.6342 15.0088 39.375 16.268 39.375 17.8213C39.375 19.3746 40.6342 20.6338 42.1875 20.6338Z" fill="#FFCD05"/>
<path d="M57.1864 37.5088H36.5625C36.3139 37.5088 36.0754 37.6076 35.8996 37.7834C35.7238 37.9592 35.625 38.1976 35.625 38.4463V55.2961C35.625 55.8325 36.0738 56.2334 36.6102 56.2334C37.5 56.2334 40.0521 56.2506 40.3843 56.2334C49.9554 55.7379 57.6282 48.0652 58.1237 38.494C58.1515 37.9583 57.7229 37.5088 57.1864 37.5088Z" fill="#FAA019"/>
<path d="M53.4123 37.5088H36.5625C36.3139 37.5088 36.0754 37.6076 35.8996 37.7834C35.7238 37.9592 35.625 38.1976 35.625 38.4463V55.2961C35.625 55.8325 36.0745 56.261 36.6102 56.2334C46.1813 55.7379 53.8541 48.0652 54.3496 38.494C54.3773 37.9583 53.9487 37.5088 53.4123 37.5088Z" fill="#FFCD05"/>
<path d="M16.875 49.6963C17.9105 49.6963 18.75 48.8568 18.75 47.8213C18.75 46.7858 17.9105 45.9463 16.875 45.9463C15.8395 45.9463 15 46.7858 15 47.8213C15 48.8568 15.8395 49.6963 16.875 49.6963Z" fill="#555A6E"/>
<path d="M16.875 45.9463V49.6963C17.9106 49.6963 18.75 48.8569 18.75 47.8213C18.75 46.7857 17.9105 45.9463 16.875 45.9463Z" fill="#463C4B"/>
<path d="M18.75 34.6963H15C7.75125 34.6963 1.875 28.82 1.875 21.5713C1.875 14.3225 7.75125 8.44629 15 8.44629H18.75C25.9988 8.44629 31.875 14.3225 31.875 21.5713C31.875 28.82 25.9988 34.6963 18.75 34.6963Z" fill="#2387C3"/>
<path d="M15 34.6963C22.2487 34.6963 28.125 28.82 28.125 21.5713C28.125 14.3226 22.2487 8.44629 15 8.44629C7.75126 8.44629 1.875 14.3226 1.875 21.5713C1.875 28.82 7.75126 34.6963 15 34.6963Z" fill="#5AD7FF"/>
<path d="M15 30.6337C20.005 30.6337 24.0624 26.5763 24.0624 21.5713C24.0624 16.5662 20.005 12.5088 15 12.5088C9.9949 12.5088 5.9375 16.5662 5.9375 21.5713C5.9375 26.5763 9.9949 30.6337 15 30.6337Z" fill="#D7E6F0"/>
<path d="M11.25 19.6963C12.2855 19.6963 13.125 18.8568 13.125 17.8213C13.125 16.7858 12.2855 15.9463 11.25 15.9463C10.2145 15.9463 9.375 16.7858 9.375 17.8213C9.375 18.8568 10.2145 19.6963 11.25 19.6963Z" fill="white"/>
<path d="M15 34.6963H18.75V36.5713H15V34.6963Z" fill="#555A6E"/>
<path d="M15 34.6963V35.6338H15.9375C16.1861 35.6338 16.4246 35.7326 16.6004 35.9084C16.7762 36.0842 16.875 36.3226 16.875 36.5713H18.75V34.6963H15Z" fill="#463C4B"/>
<path d="M18.75 47.8213H15C14.7514 47.8213 14.5129 47.7225 14.3371 47.5467C14.1613 47.3709 14.0625 47.1324 14.0625 46.8838V37.5088C14.0625 37.2601 14.1613 37.0217 14.3371 36.8459C14.5129 36.6701 14.7514 36.5713 15 36.5713H18.75C18.9986 36.5713 19.2371 36.6701 19.4129 36.8459C19.5887 37.0217 19.6875 37.2601 19.6875 37.5088V46.8838C19.6875 47.1324 19.5887 47.3709 19.4129 47.5467C19.2371 47.7225 18.9986 47.8213 18.75 47.8213Z" fill="#5AD7FF"/>
<path d="M18.75 47.8213H16.875V36.5713H18.75C18.9986 36.5713 19.2371 36.6701 19.4129 36.8459C19.5887 37.0217 19.6875 37.2601 19.6875 37.5088V46.8838C19.6875 47.1324 19.5887 47.3709 19.4129 47.5467C19.2371 47.7225 18.9986 47.8213 18.75 47.8213Z" fill="#2387C3"/>
</svg>
