<svg width="60" height="60" viewBox="0 0 60 60" fill="none" xmlns="http://www.w3.org/2000/svg">
<g clip-path="url(#clip0_542_744)">
<path d="M52.5921 19.612H48.2671V11.1008C48.2671 9.64336 47.6874 8.28492 46.7389 7.29176L43.9442 4.36746C41.5726 1.92387 41.2733 1.23352 39.8607 0.547852C39.2045 0.220313 38.3398 0 37.4679 0H17.0548C14.0139 0 11.5408 2.47418 11.5408 5.51391V35.2488H10.378C8.6237 35.2488 7.19694 36.6756 7.19694 38.4299C7.19694 39.3029 7.55038 40.0935 8.12061 40.6684C7.55038 41.2433 7.19694 42.0339 7.19694 42.9069C7.19694 43.2345 7.24288 43.4289 7.2594 43.5361C0.356355 44.2383 -2.39357 52.7824 2.6585 57.4198C4.18428 58.8206 6.20952 59.6147 8.40561 59.5252C9.13135 59.5252 24.073 59.5193 24.0919 59.5193C25.845 59.5193 27.2729 58.0925 27.2729 56.3382C27.2729 55.4652 26.9195 54.6746 26.3492 54.0997C26.8854 53.5589 27.2293 52.8296 27.2682 52.0191H28.4618V52.6564C28.4618 56.7059 31.7559 60 35.8053 60H52.5921C56.6415 60 59.9356 56.7059 59.9356 52.6564V26.9556C59.9358 22.9062 56.6415 19.612 52.5921 19.612ZM45.0883 8.29441C45.0883 8.29441 45.0895 8.29441 45.0907 8.29676H45.0919C45.093 8.2991 45.0954 8.30145 45.0965 8.30262L45.0977 8.30379C45.1001 8.3073 45.1024 8.30965 45.1048 8.31082C45.1059 8.31199 45.1071 8.31316 45.1083 8.31551C45.1094 8.31668 45.1106 8.31668 45.1106 8.31785C45.1118 8.31902 45.113 8.31902 45.1141 8.32137C45.1165 8.32254 45.1176 8.32488 45.1188 8.32606H40.3955V3.33305C41.9603 4.98627 43.5246 6.64006 45.0883 8.29441ZM10.378 37.1339H24.092C24.806 37.1339 25.388 37.716 25.388 38.4299C25.388 39.1451 24.8059 39.7259 24.092 39.7259H10.378C9.66397 39.7259 9.08202 39.1451 9.08202 38.4299C9.0819 37.7159 9.66397 37.1339 10.378 37.1339ZM10.378 41.6109H24.092C24.806 41.6109 25.388 42.193 25.388 42.9069C25.388 43.6221 24.8059 44.2029 24.092 44.2029H14.6194C14.2341 44.0264 13.8349 43.8822 13.4258 43.7716C12.8108 43.6041 12.1779 43.5111 11.5407 43.4947C11.3558 43.4898 11.1707 43.4914 10.9858 43.4994H9.22686C9.13127 43.3165 9.08152 43.1132 9.0819 42.9068C9.0819 42.193 9.66397 41.6109 10.378 41.6109ZM25.388 47.3841C25.388 48.0993 24.8059 48.68 24.092 48.68H18.8173C18.4565 47.7208 17.9131 46.8405 17.2173 46.0881H24.092C24.8059 46.0881 25.388 46.67 25.388 47.3841ZM5.79245 45.6922C5.20564 46.2495 4.70528 46.8912 4.30792 47.5962H3.20987C3.92741 46.7066 4.81932 46.0739 5.79245 45.6922ZM2.20721 49.3634H3.57983C3.54925 49.4953 3.39362 50.0031 3.32296 50.7761H1.87264C1.9284 50.2937 2.04069 49.8195 2.20721 49.3634ZM2.35921 54.0349C2.14938 53.5583 2.00055 53.0572 1.91624 52.5434H3.356C3.61405 54.0067 3.62811 53.7545 3.69292 54.0349H2.35921ZM3.53507 55.8021C4.1135 55.8009 4.44936 55.8045 4.52823 55.7998C4.88497 56.3621 5.31088 56.8775 5.79596 57.3337C4.94178 56.998 4.18194 56.4855 3.53507 55.8021ZM11.5773 57.7591C8.12882 57.9076 5.20921 55.2367 5.06307 51.7799C4.82624 46.2766 11.3993 43.1073 15.5382 46.9069C19.6185 50.6523 17.1348 57.5305 11.5773 57.7591ZM24.092 57.6342H16.4845C17.3303 56.9184 18.0197 56.0361 18.5098 55.0423H24.092C24.806 55.0423 25.388 55.6243 25.388 56.3382C25.388 57.0533 24.8059 57.6342 24.092 57.6342ZM25.3774 52.0191C25.2996 52.66 24.7529 53.1572 24.092 53.1572H19.1601C19.3373 52.305 19.3759 51.4297 19.2744 50.5652H24.092C24.886 50.5651 25.4787 51.2756 25.3774 52.0191ZM28.4618 50.1339H26.7605C26.6417 49.9495 26.5039 49.7781 26.3492 49.6226C27.5804 48.3807 27.5816 46.3873 26.3492 45.1455C26.9195 44.5706 27.2729 43.7801 27.2729 42.907C27.2729 42.034 26.9195 41.2434 26.3492 40.6685C28.3309 38.6703 26.9148 35.2489 24.0919 35.2489H13.4258V5.51391C13.4258 3.5134 15.054 1.88508 17.0546 1.88508H38.5105V9.26871C38.5104 9.3925 38.5348 9.51508 38.5821 9.62946C38.6295 9.74383 38.6989 9.84776 38.7865 9.93529C38.874 10.0228 38.9779 10.0922 39.0923 10.1396C39.2067 10.1869 39.3292 10.2113 39.453 10.2113H46.2699C46.4667 10.9747 46.3453 10.7225 46.3819 19.6119H35.8053C31.7559 19.6119 28.4618 22.9061 28.4618 26.9555V50.1339ZM58.1685 52.6564C58.1685 55.7314 55.6672 58.2328 52.5921 58.2328H35.8055C32.7316 58.2328 30.2291 55.7316 30.2291 52.6564V26.9556C30.2291 23.8806 32.7315 21.3792 35.8055 21.3792H52.5922C55.6672 21.3792 58.1686 23.8805 58.1686 26.9556V52.6564H58.1685Z" fill="white"/>
<path d="M52.5293 23.3834H35.8675C34.2291 23.3834 32.9009 24.7116 32.9009 26.35V29.5842C32.9009 31.2226 34.2291 32.5508 35.8675 32.5508H39.0733C39.3076 32.5508 39.5324 32.4577 39.6981 32.292C39.8638 32.1263 39.9569 31.9015 39.9569 31.6672C39.9569 31.4328 39.8638 31.2081 39.6981 31.0424C39.5324 30.8767 39.3076 30.7836 39.0733 30.7836H35.8675C35.2078 30.7836 34.6681 30.2438 34.6681 29.5842V26.35C34.6681 25.6904 35.2078 25.1506 35.8675 25.1506H52.5293C53.1914 25.1506 53.7287 25.6891 53.7287 26.35V29.5842C53.7287 30.2451 53.1914 30.7836 52.5293 30.7836H42.8836C42.6493 30.7836 42.4245 30.8767 42.2588 31.0424C42.0931 31.2081 42 31.4328 42 31.6672C42 31.9015 42.0931 32.1263 42.2588 32.292C42.4245 32.4577 42.6493 32.5508 42.8836 32.5508H52.5293C54.1659 32.5508 55.4959 31.2194 55.4959 29.5842V26.35C55.4959 24.7148 54.1657 23.3834 52.5293 23.3834ZM37.7703 42.0034H34.7506C33.7314 42.0034 32.9009 42.8328 32.9009 43.853V46.8716C32.9009 47.8919 33.7315 48.7212 34.7506 48.7212H37.7703C38.7906 48.7212 39.62 47.8918 39.62 46.8716V43.853C39.62 42.8328 38.7905 42.0034 37.7703 42.0034ZM37.8527 46.8716C37.8526 46.8934 37.8439 46.9144 37.8284 46.9298C37.813 46.9453 37.792 46.954 37.7702 46.9541H34.7505C34.7286 46.954 34.7077 46.9453 34.6922 46.9298C34.6767 46.9144 34.668 46.8934 34.668 46.8716V43.853C34.668 43.8071 34.7057 43.7705 34.7505 43.7705H37.7702C37.8149 43.7705 37.8527 43.8071 37.8527 43.853V46.8716ZM53.7416 34.1096H50.7231C49.7028 34.1096 48.8734 34.9391 48.8734 35.9593V38.9778C48.8734 39.9982 49.7029 40.8275 50.7231 40.8275H53.7416C54.762 40.8275 55.5913 39.998 55.5913 38.9778V35.9593C55.5913 34.9391 54.7619 34.1096 53.7416 34.1096ZM53.8241 38.9778C53.8242 38.9887 53.8221 38.9994 53.818 39.0095C53.8139 39.0195 53.8078 39.0286 53.8001 39.0363C53.7924 39.044 53.7833 39.05 53.7733 39.0542C53.7632 39.0583 53.7525 39.0604 53.7416 39.0603H50.7231C50.7013 39.0602 50.6803 39.0515 50.6649 39.0361C50.6494 39.0206 50.6407 38.9997 50.6406 38.9778C50.6772 35.9912 50.564 35.8768 50.7231 35.8768H53.7416C53.7525 35.8767 53.7632 35.8788 53.7733 35.8829C53.7833 35.8871 53.7924 35.8931 53.8001 35.9008C53.8078 35.9085 53.8139 35.9176 53.818 35.9277C53.8221 35.9377 53.8242 35.9484 53.8241 35.9593V38.9778ZM37.7703 34.1096H34.7506C33.7314 34.1096 32.9009 34.9391 32.9009 35.9593V38.9778C32.9009 39.9982 33.7315 40.8275 34.7506 40.8275H37.7703C38.7906 40.8275 39.62 39.998 39.62 38.9778V35.9593C39.62 34.9391 38.7905 34.1096 37.7703 34.1096ZM37.8527 38.9778C37.8526 38.9997 37.8439 39.0206 37.8284 39.0361C37.813 39.0515 37.792 39.0602 37.7702 39.0603H34.7505C34.7286 39.0602 34.7077 39.0515 34.6922 39.0361C34.6767 39.0206 34.668 38.9997 34.668 38.9778V35.9593C34.668 35.9134 34.7057 35.8768 34.7505 35.8768H37.7702C37.8149 35.8768 37.8527 35.9134 37.8527 35.9593V38.9778ZM39.1546 50.1339C38.8152 49.7523 38.3205 49.5107 37.7703 49.5107H34.7506C34.489 49.5106 34.2304 49.5661 33.992 49.6735C33.7535 49.781 33.5406 49.9379 33.3674 50.1339C32.7254 50.8538 32.9433 51.6385 32.9009 52.019V54.3789C32.9009 55.3993 33.7315 56.2286 34.7506 56.2286H37.7703C38.7906 56.2286 39.62 55.3992 39.62 54.3789V52.019C39.5775 51.6468 39.7932 50.8538 39.1546 50.1339ZM37.7703 54.4614C34.7871 54.4249 34.6681 54.5381 34.6681 54.3789C34.6681 51.1825 34.6327 51.2779 34.7506 51.2779H37.7703C37.9152 51.2779 37.8257 51.4794 37.8528 52.019C37.8527 52.0191 37.9293 54.4614 37.7703 54.4614ZM53.2727 42.0034H51.192C49.9137 42.0034 48.8733 43.0437 48.8733 44.322V53.6968C48.8733 55.093 50.0091 56.2287 51.4041 56.2287H53.0607C54.4568 56.2287 55.5914 55.093 55.5914 53.6968V44.322C55.5913 43.0437 54.5522 42.0034 53.2727 42.0034ZM53.0607 54.4614H51.4041C50.9835 54.4614 50.6406 54.1186 50.6406 53.6968V44.322C50.6408 44.1758 50.6989 44.0357 50.8023 43.9323C50.9057 43.829 51.0458 43.7708 51.192 43.7707H53.2727C53.4188 43.7708 53.559 43.829 53.6624 43.9323C53.7657 44.0357 53.8239 44.1758 53.824 44.322V53.6968C53.8241 54.1186 53.4824 54.4614 53.0607 54.4614ZM22.8099 25.6674C21.7325 25.2716 20.9541 24.9856 20.9541 23.9874C20.9541 23.0777 21.5583 22.6164 22.7498 22.6164C24.0146 22.6164 24.3551 23.1732 24.8007 23.1732C25.2856 23.1732 25.5538 22.6586 25.5538 22.3027C25.5538 21.5666 24.353 21.2015 23.2796 21.1052V20.4414C23.2793 20.2195 23.191 20.0066 23.0341 19.8497C22.8771 19.6927 22.6643 19.6044 22.4423 19.6041C22.2203 19.6044 22.0074 19.6927 21.8505 19.8497C21.6935 20.0066 21.6052 20.2195 21.605 20.4414V21.211C20.1372 21.5595 19.3307 22.5733 19.3307 24.0754C19.3307 26.1321 20.8448 26.701 22.0616 27.1584C23.253 27.6061 24.1941 27.9597 24.1941 29.3199C24.1941 30.4434 23.5703 31.013 22.3397 31.013C20.5388 31.013 20.5219 29.7971 19.835 29.7971C19.4096 29.7971 19.0669 30.2734 19.0669 30.6676C19.0669 31.3639 20.1039 32.2791 21.605 32.5167V33.158C21.605 33.6198 21.9805 33.9953 22.4423 33.9953C22.904 33.9953 23.2796 33.6198 23.2796 33.158V32.4995C24.8942 32.1956 25.8176 31.01 25.8176 29.2319C25.8175 26.7725 24.1499 26.1598 22.8099 25.6674ZM46.9907 50.0292C46.6469 49.6965 46.1872 49.5105 45.7088 49.5107H42.6891C42.1389 49.5107 41.644 49.7523 41.3048 50.1339C40.665 50.855 40.8818 51.6385 40.8394 52.019V54.3789C40.8394 55.3993 41.6689 56.2286 42.6891 56.2286H45.7088C46.728 56.2286 47.5573 55.3992 47.5573 54.3789V51.3593C47.5573 50.8374 47.3393 50.3649 46.9907 50.0292ZM45.7088 54.4614C42.7257 54.4249 42.6066 54.5381 42.6066 54.3789V51.3593C42.6066 51.3145 42.6443 51.2779 42.6891 51.2779H45.7088C45.7536 51.2779 45.7901 51.3145 45.7901 51.3593C45.7547 54.3495 45.8655 54.4614 45.7088 54.4614ZM45.7088 34.1096H42.6891C41.6687 34.1096 40.8394 34.9391 40.8394 35.9593V38.9778C40.8394 39.9982 41.6689 40.8275 42.6891 40.8275H45.7088C45.9468 40.8275 46.173 40.7827 46.3816 40.7002C47.0696 40.4305 47.5574 39.76 47.5574 38.9777V35.9592C47.5573 34.9354 46.7232 34.1096 45.7088 34.1096ZM45.7088 39.0603H42.6891C42.6672 39.0602 42.6463 39.0515 42.6308 39.0361C42.6154 39.0206 42.6067 38.9997 42.6066 38.9778V35.9593C42.6066 35.8003 42.7162 35.9122 45.7088 35.8768C45.7536 35.8768 45.7901 35.9134 45.7901 35.9593V38.9778C45.7902 38.9886 45.7882 38.9992 45.7841 39.0092C45.7801 39.0192 45.7741 39.0283 45.7666 39.0359C45.759 39.0436 45.75 39.0497 45.7401 39.0539C45.7302 39.0581 45.7195 39.0602 45.7088 39.0603ZM46.3816 42.1306C46.1674 42.0461 45.9391 42.0029 45.7088 42.0034H42.6891C41.6687 42.0034 40.8394 42.8328 40.8394 43.853V46.8716C40.8394 47.8919 41.6689 48.7212 42.6891 48.7212H45.7088C46.728 48.7212 47.5573 47.8918 47.5573 46.8716V43.853C47.5573 43.0708 47.0696 42.4004 46.3816 42.1306ZM45.7901 46.8716C45.7902 46.8823 45.7882 46.893 45.7841 46.903C45.7801 46.9129 45.7741 46.922 45.7666 46.9297C45.759 46.9374 45.75 46.9434 45.7401 46.9476C45.7302 46.9518 45.7195 46.954 45.7088 46.9541H42.6891C42.6672 46.954 42.6463 46.9453 42.6308 46.9298C42.6154 46.9144 42.6067 46.8934 42.6066 46.8716V43.853C42.6066 43.8071 42.6443 43.7705 42.6891 43.7705H45.7088C45.7536 43.7705 45.7901 43.8071 45.7901 43.853V46.8716ZM40.6084 12.0752H38.3888C38.1545 12.0753 37.9298 12.1684 37.7641 12.3341C37.5984 12.4998 37.5053 12.7245 37.5052 12.9588C37.5051 13.0748 37.5279 13.1898 37.5723 13.297C37.6167 13.4042 37.6818 13.5017 37.7639 13.5837C37.8459 13.6658 37.9433 13.7309 38.0506 13.7752C38.1578 13.8196 38.2727 13.8424 38.3888 13.8424H40.6084C40.7245 13.8424 40.8394 13.8196 40.9466 13.7752C41.0539 13.7309 41.1513 13.6658 41.2334 13.5837C41.3154 13.5017 41.3805 13.4042 41.4249 13.297C41.4693 13.1898 41.4921 13.0748 41.492 12.9588C41.492 12.7245 41.3989 12.4998 41.2332 12.3341C41.0675 12.1684 40.8428 12.0753 40.6084 12.0752ZM34.8542 12.0752H19.1845C18.9501 12.0753 18.7254 12.1684 18.5598 12.3341C18.3941 12.4998 18.301 12.7245 18.3009 12.9588C18.3008 13.0748 18.3236 13.1898 18.368 13.297C18.4124 13.4042 18.4775 13.5017 18.5595 13.5837C18.6416 13.6658 18.739 13.7309 18.8462 13.7752C18.9535 13.8196 19.0684 13.8424 19.1845 13.8424H34.8543C34.9703 13.8424 35.0853 13.8196 35.1925 13.7752C35.2997 13.7309 35.3972 13.6658 35.4792 13.5837C35.5613 13.5017 35.6264 13.4042 35.6708 13.297C35.7151 13.1898 35.738 13.0748 35.7379 12.9588C35.7378 12.7245 35.6447 12.4997 35.4789 12.3341C35.3132 12.1684 35.0885 12.0753 34.8542 12.0752ZM21.9932 16.4616H19.1845C18.9501 16.4617 18.7254 16.5549 18.5598 16.7205C18.3941 16.8862 18.301 17.1109 18.3009 17.3452C18.301 17.5795 18.3941 17.8042 18.5598 17.9699C18.7254 18.1356 18.9501 18.2287 19.1845 18.2288H21.9932C22.2275 18.2287 22.4522 18.1356 22.6179 17.9699C22.7836 17.8042 22.8767 17.5795 22.8768 17.3452C22.8767 17.1109 22.7836 16.8862 22.6179 16.7205C22.4522 16.5549 22.2275 16.4617 21.9932 16.4616ZM40.6084 16.4616H25.5277C25.2934 16.4617 25.0687 16.5549 24.903 16.7205C24.7373 16.8862 24.6442 17.1109 24.6441 17.3452C24.6442 17.5795 24.7373 17.8042 24.903 17.9699C25.0687 18.1356 25.2934 18.2287 25.5277 18.2288H40.6084C40.8428 18.2287 41.0674 18.1356 41.2331 17.9699C41.3988 17.8042 41.4919 17.5795 41.492 17.3452C41.492 17.1109 41.3989 16.8862 41.2332 16.7205C41.0675 16.5548 40.8428 16.4617 40.6084 16.4616ZM10.8082 49.8234C10.8082 49.6013 10.89 49.5376 10.9666 49.4952C11.204 49.3638 11.7487 49.3251 12.2477 49.5818C12.3802 49.6498 12.5304 49.7271 12.7259 49.7271C13.5974 49.7271 14.2867 48.1077 12.2049 47.7496V47.694C12.2049 47.2003 11.8032 46.7985 11.3095 46.7985C10.8157 46.7985 10.414 47.2003 10.414 47.694V47.8639C9.54168 48.1803 9.0482 48.8997 9.0482 49.8762C9.0482 51.3833 10.1431 51.7947 10.9428 52.0951C11.7053 52.3816 11.969 52.507 11.969 53.0257C11.969 53.3499 11.8817 53.65 11.2478 53.65C10.3241 53.65 10.4348 52.92 9.74348 52.92C9.25492 52.92 8.88965 53.4031 8.88965 53.8352C8.88965 54.4474 9.52621 55.0284 10.414 55.2639V55.331C10.414 55.8247 10.8157 56.2264 11.3095 56.2264C11.8032 56.2264 12.2049 55.8248 12.2049 55.331V55.2405C13.1656 54.9317 13.7291 54.1045 13.7291 52.9729C13.7291 50.2878 10.8082 50.6911 10.8082 49.8234Z" fill="white"/>
</g>
<defs>
<clipPath id="clip0_542_744">
<rect width="60" height="60" fill="white"/>
</clipPath>
</defs>
</svg>
