<svg width="60" height="60" viewBox="0 0 60 60" fill="none" xmlns="http://www.w3.org/2000/svg">
<g clip-path="url(#clip0_451_889)">
<path d="M1 41C1 42.0609 1.42143 43.0783 2.17157 43.8284C2.92172 44.5786 3.93914 45 5 45H27.461C27.585 45.2091 27.7338 45.4025 27.904 45.576L38.25 55.924C38.8308 56.5014 39.6165 56.8255 40.4355 56.8255C41.2545 56.8255 42.0402 56.5014 42.621 55.924C43.0737 55.4679 43.3728 54.8819 43.4768 54.2478C43.5808 53.6136 43.4844 52.9628 43.201 52.386L44.87 50.716L52.941 58.789C53.3229 59.1827 53.7793 59.4965 54.2836 59.7122C54.7879 59.9278 55.33 60.041 55.8785 60.0452C56.427 60.0494 56.9708 59.9444 57.4783 59.7364C57.9858 59.5284 58.4469 59.2215 58.8347 58.8337C59.2225 58.4458 59.5293 57.9847 59.7372 57.4771C59.9451 56.9696 60.05 56.4257 60.0457 55.8773C60.0415 55.3288 59.9282 54.7867 59.7124 54.2824C59.4967 53.7781 59.1828 53.3218 58.789 52.94L50.718 44.867L52.386 43.2C52.9618 43.4881 53.6138 43.587 54.2491 43.4826C54.8844 43.3783 55.4706 43.0761 55.924 42.619C56.5017 42.0381 56.826 41.2522 56.826 40.433C56.826 39.6138 56.5017 38.8279 55.924 38.247L47 29.321V23.233C47.6447 22.5052 48.0005 21.5663 48 20.594V12C48 10.9391 47.5786 9.92172 46.8284 9.17157C46.0783 8.42143 45.0609 8 44 8H37V4C37 2.93913 36.5786 1.92172 35.8284 1.17157C35.0783 0.421427 34.0609 0 33 0L15 0C13.9391 0 12.9217 0.421427 12.1716 1.17157C11.4214 1.92172 11 2.93913 11 4V8H4C2.93914 8 1.92172 8.42143 1.17157 9.17157C0.421429 9.92172 1.02484e-06 10.9391 1.02484e-06 12V20.594C-0.000696899 21.5661 0.355097 22.5047 1 23.232V41ZM27.038 43H5C4.46957 43 3.96086 42.7893 3.58579 42.4142C3.21071 42.0391 3 41.5304 3 41V24.457C3.045 24.469 3.087 24.489 3.133 24.499L18 27.8V31C18 31.7956 18.3161 32.5587 18.8787 33.1213C19.4413 33.6839 20.2044 34 21 34H27C27.7957 34 28.5587 33.6839 29.1213 33.1213C29.6839 32.5587 30 31.7956 30 31V27.8L44.867 24.5C44.913 24.49 44.954 24.47 44.999 24.459V27.467C44.4046 27.1205 43.7141 26.9754 43.0306 27.0535C42.347 27.1315 41.707 27.4284 41.206 27.9C40.7532 28.3561 40.4541 28.9421 40.3503 29.5763C40.2465 30.2106 40.3432 30.8614 40.627 31.438L31.432 40.633C30.855 40.3594 30.2085 40.2672 29.578 40.3684C28.9475 40.4696 28.3624 40.7596 27.9 41.2C27.4195 41.6868 27.116 42.3205 27.038 43ZM20 31V28H28V31C28 31.2652 27.8946 31.5196 27.7071 31.7071C27.5196 31.8946 27.2652 32 27 32H21C20.7348 32 20.4804 31.8946 20.2929 31.7071C20.1054 31.5196 20 31.2652 20 31ZM41.207 54.51C41.0021 54.7141 40.7247 54.8288 40.4355 54.8288C40.1463 54.8288 39.8689 54.7141 39.664 54.51L29.318 44.162C29.1692 44.0072 29.0691 43.8122 29.0298 43.6011C28.9905 43.39 29.0139 43.172 29.0971 42.974C29.1802 42.776 29.3195 42.6067 29.4977 42.487C29.6759 42.3672 29.8853 42.3022 30.1 42.3C30.2425 42.3008 30.3835 42.3297 30.5148 42.3851C30.646 42.4405 30.7651 42.5214 30.865 42.623L41.207 52.966C41.4117 53.1708 41.5267 53.4485 41.5267 53.738C41.5267 54.0275 41.4117 54.3052 41.207 54.51ZM57.375 54.354C57.767 54.7563 57.9847 55.2967 57.9811 55.8583C57.9775 56.42 57.7529 56.9576 57.3558 57.3548C56.9587 57.752 56.4212 57.9769 55.8595 57.9806C55.2979 57.9844 54.7574 57.7668 54.355 57.375L46.284 49.3L49.304 46.28L57.375 54.354ZM41.914 50.845L37.448 46.378L32.982 41.911L41.914 32.979L46.38 37.445L50.846 41.911L41.914 50.845ZM54.51 39.66C54.7147 39.8648 54.8297 40.1425 54.8297 40.432C54.8297 40.7215 54.7147 40.9992 54.51 41.204C54.3021 41.402 54.0261 41.5124 53.739 41.5124C53.4519 41.5124 53.1759 41.402 52.968 41.204L42.621 30.857C42.4163 30.6522 42.3013 30.3745 42.3013 30.085C42.3013 29.7955 42.4163 29.5178 42.621 29.313C42.8274 29.1123 43.104 29 43.392 29C43.68 29 43.9565 29.1123 44.163 29.313L54.51 39.66ZM13 4C13 3.46957 13.2107 2.96086 13.5858 2.58579C13.9609 2.21071 14.4696 2 15 2H33C33.5304 2 34.0391 2.21071 34.4142 2.58579C34.7893 2.96086 35 3.46957 35 4V8H33V6C33 5.46957 32.7893 4.96086 32.4142 4.58579C32.0391 4.21071 31.5304 4 31 4H17C16.4696 4 15.9609 4.21071 15.5858 4.58579C15.2107 4.96086 15 5.46957 15 6V8H13V4ZM31 6V8H17V6H31ZM2 12C2 11.4696 2.21071 10.9609 2.58579 10.5858C2.96086 10.2107 3.46957 10 4 10H44C44.5304 10 45.0391 10.2107 45.4142 10.5858C45.7893 10.9609 46 11.4696 46 12V20.594C46.0019 21.0495 45.8475 21.4919 45.5625 21.8471C45.2774 22.2024 44.8791 22.4491 44.434 22.546L28.891 26H19.109L3.567 22.546C3.12174 22.4493 2.72316 22.2027 2.43793 21.8474C2.1527 21.4921 1.9981 21.0496 2 20.594V12Z" fill="#F84923"/>
</g>
<defs>
<clipPath id="clip0_451_889">
<rect width="60" height="60" fill="white"/>
</clipPath>
</defs>
</svg>
