<svg width="60" height="60" viewBox="0 0 60 60" fill="none" xmlns="http://www.w3.org/2000/svg">
<path d="M17.3926 29.5013C18.5661 29.5013 19.6154 28.9606 20.3053 28.1154L26.979 31.1892C26.9386 31.4106 26.9181 31.6352 26.9179 31.8603C26.9179 33.9332 28.6044 35.6198 30.6773 35.6198C32.7503 35.6198 34.4368 33.9332 34.4368 31.8603C34.4373 31.2542 34.2903 30.6571 34.0084 30.1205L46.197 19.1369L46.0064 21.4734C45.9866 21.721 46.0658 21.9663 46.2268 22.1555C46.3877 22.3448 46.6171 22.4624 46.8647 22.4826C47.1123 22.5028 47.3577 22.4239 47.5472 22.2633C47.7367 22.1026 47.8546 21.8734 47.8752 21.6258L48.2692 16.7965C48.2805 16.6582 48.2609 16.519 48.2118 16.3892C48.1628 16.2593 48.0855 16.142 47.9856 16.0456C47.8858 15.9491 47.7657 15.8761 47.6341 15.8317C47.5026 15.7874 47.3628 15.7729 47.2249 15.7893L42.413 16.3569C42.166 16.386 41.9408 16.512 41.7868 16.7072C41.6328 16.9024 41.5626 17.1508 41.5918 17.3978C41.6209 17.6447 41.747 17.8699 41.9422 18.024C42.1374 18.178 42.3858 18.2481 42.6327 18.219L44.6834 17.9771L32.7531 28.728C32.1384 28.3185 31.4161 28.1003 30.6775 28.101C29.5039 28.101 28.4546 28.6417 27.7646 29.4869L21.0909 26.4132C21.1304 26.1952 21.1521 25.9712 21.1521 25.7419C21.1521 23.669 19.4655 21.9824 17.3926 21.9824C15.3197 21.9824 13.6331 23.6689 13.6331 25.7419C13.6331 26.0873 13.6808 26.4215 13.7685 26.7394L1.4093 33.826C1.30115 33.8865 1.20608 33.9679 1.12958 34.0654C1.05309 34.1629 0.996681 34.2746 0.963633 34.3941C0.930585 34.5135 0.921549 34.6383 0.937046 34.7613C0.952544 34.8843 0.992268 35.0029 1.05392 35.1104C1.11557 35.218 1.19793 35.3122 1.29623 35.3877C1.39453 35.4631 1.50682 35.5184 1.6266 35.5502C1.74639 35.582 1.87129 35.5897 1.99408 35.5729C2.11688 35.5562 2.23513 35.5152 2.34199 35.4524L14.7029 28.3646C15.3862 29.0653 16.3392 29.5013 17.3926 29.5013ZM30.6773 29.9758C31.7164 29.9758 32.5618 30.8212 32.5618 31.8603C32.5618 32.8994 31.7164 33.7448 30.6773 33.7448C29.6382 33.7448 28.7929 32.8994 28.7929 31.8603C28.7929 30.8212 29.6382 29.9758 30.6773 29.9758ZM17.3926 23.8573C18.4317 23.8573 19.2771 24.7027 19.2771 25.7418C19.2771 26.7809 18.4317 27.6263 17.3926 27.6263C16.3535 27.6263 15.5081 26.7809 15.5081 25.7418C15.5081 24.7027 16.3535 23.8573 17.3926 23.8573ZM49.7523 43.7977C49.852 44.6179 49.6305 45.3681 49.1121 45.9677C48.5779 46.5854 47.7319 47.0177 46.7624 47.1869V47.6559C46.7624 47.9045 46.6636 48.143 46.4878 48.3188C46.312 48.4946 46.0735 48.5934 45.8249 48.5934C45.5762 48.5934 45.3378 48.4946 45.162 48.3188C44.9862 48.143 44.8874 47.9045 44.8874 47.6559V47.1717C43.3955 46.8698 42.2508 45.8649 41.9018 44.4654C41.8417 44.2242 41.8798 43.969 42.0079 43.7559C42.1359 43.5427 42.3434 43.3892 42.5846 43.3291C42.7041 43.2993 42.8283 43.2933 42.9501 43.3115C43.0718 43.3296 43.1888 43.3716 43.2944 43.435C43.3999 43.4985 43.4919 43.582 43.5651 43.681C43.6384 43.78 43.6914 43.8925 43.7211 44.0119C43.9827 45.0618 45.0728 45.41 45.9251 45.3901C46.6627 45.3725 47.3734 45.1117 47.6939 44.7412C47.8638 44.5447 47.9265 44.3166 47.891 44.0238C47.83 43.5213 47.5238 42.9057 45.6816 42.6032C42.8947 42.1456 42.2437 40.6892 42.1884 39.548C42.112 37.9753 43.1959 36.6592 44.8873 36.2681V35.768C44.8873 35.5194 44.986 35.2809 45.1619 35.1051C45.3377 34.9293 45.5761 34.8305 45.8248 34.8305C46.0734 34.8305 46.3119 34.9293 46.4877 35.1051C46.6635 35.2809 46.7623 35.5194 46.7623 35.768V36.2597C47.8609 36.5006 48.9083 37.1948 49.4545 38.4956C49.5487 38.7244 49.5486 38.9813 49.4542 39.21C49.3598 39.4388 49.1787 39.621 48.9505 39.7168C48.7223 39.8126 48.4655 39.8143 48.2361 39.7215C48.0066 39.6287 47.8232 39.4489 47.7258 39.2214C47.2823 38.1653 46.1981 37.8935 45.3203 38.0924C45.1014 38.1421 44.0119 38.4412 44.0612 39.4571C44.0743 39.7273 44.1091 40.4449 45.9854 40.7531C48.2855 41.1306 49.553 42.155 49.7523 43.7977ZM45.8249 31.3815C40.1286 31.3815 35.4943 36.0156 35.4943 41.7119C35.4943 47.4081 40.1286 52.0424 45.8249 52.0424C51.521 52.0424 56.1553 47.4083 56.1553 41.7119C56.1554 36.0156 51.5211 31.3815 45.8249 31.3815ZM45.8249 50.1674C41.1625 50.1674 37.3693 46.3743 37.3693 41.7119C37.3693 37.0495 41.1625 33.2565 45.8249 33.2565C50.4872 33.2565 54.2803 37.0496 54.2803 41.7119C54.2803 46.3742 50.4872 50.1674 45.8249 50.1674ZM45.8249 28.4736C38.5252 28.4736 32.5864 34.4123 32.5864 41.7119C32.5864 49.0115 38.5252 54.9502 45.8249 54.9502C53.1245 54.9502 59.0632 49.0115 59.0632 41.7119C59.0632 34.4123 53.1245 28.4736 45.8249 28.4736ZM45.8249 53.0753C39.559 53.0753 34.4614 47.9777 34.4614 41.712C34.4614 35.4463 39.559 30.3487 45.8249 30.3487C52.0907 30.3487 57.1882 35.4463 57.1882 41.712C57.1882 47.9777 52.0907 53.0753 45.8249 53.0753ZM22.5111 43.6888C24.3898 42.3998 25.6249 40.2379 25.6249 37.7924C25.6249 33.8514 22.4188 30.6452 18.4778 30.6452C14.5368 30.6452 11.3305 33.8514 11.3305 37.7924C11.3305 40.2379 12.5657 42.3997 14.4443 43.6887C9.57398 45.2392 5.90484 49.531 5.33449 54.8628C5.32044 54.9936 5.33409 55.1259 5.37453 55.251C5.41498 55.3762 5.48132 55.4914 5.56924 55.5893C5.65716 55.6871 5.76469 55.7653 5.88484 55.8189C6.00499 55.8724 6.13506 55.9001 6.2666 55.9H30.6887C30.8202 55.9001 30.9503 55.8724 31.0705 55.8189C31.1906 55.7653 31.2981 55.6871 31.3861 55.5893C31.474 55.4914 31.5403 55.3762 31.5808 55.251C31.6212 55.1259 31.6349 54.9936 31.6208 54.8628C31.0503 49.5312 27.3813 45.2395 22.5111 43.6888ZM13.2055 37.7926C13.2055 34.8854 15.5707 32.5203 18.4778 32.5203C21.3848 32.5203 23.7499 34.8854 23.7499 37.7926C23.7499 40.6997 21.3848 43.0648 18.4778 43.0648C15.5707 43.0648 13.2055 40.6996 13.2055 37.7926ZM7.35773 54.0251C8.40996 48.7778 13.0188 44.9398 18.4777 44.9398C23.9364 44.9398 28.5452 48.7778 29.5976 54.0251H7.35773ZM22.0636 20.4769H22.8762V23.7523C22.8762 23.9393 22.9321 24.1221 23.0368 24.277C23.1415 24.432 23.2901 24.5521 23.4636 24.622C23.6371 24.6918 23.8275 24.7081 24.0104 24.6689C24.1932 24.6297 24.3602 24.5366 24.4897 24.4018L28.2602 20.4769H37.2116C38.869 20.4769 40.2172 19.1286 40.2172 17.4713V7.10572C40.2172 5.44834 38.8689 4.1001 37.2116 4.1001H22.0636C20.4062 4.1001 19.058 5.44846 19.058 7.10572V17.4713C19.0578 19.1286 20.4062 20.4769 22.0636 20.4769ZM20.9328 7.10572C20.9328 6.48229 21.44 5.9751 22.0635 5.9751H37.2115C37.8349 5.9751 38.3421 6.48229 38.3421 7.10572V17.4713C38.3421 18.0947 37.8349 18.6019 37.2115 18.6019H27.8607C27.7344 18.6019 27.6095 18.6275 27.4933 18.677C27.3771 18.7265 27.2721 18.7989 27.1846 18.89L24.7509 21.4232V19.5394C24.7509 19.2908 24.6522 19.0523 24.4763 18.8765C24.3005 18.7007 24.0621 18.6019 23.8134 18.6019H22.0634C21.4399 18.6019 20.9327 18.0947 20.9327 17.4713L20.9328 7.10572ZM23.4775 8.56353C23.4775 8.31489 23.5762 8.07644 23.752 7.90062C23.9279 7.72481 24.1663 7.62603 24.415 7.62603H34.8601C35.1088 7.62603 35.3472 7.72481 35.523 7.90062C35.6988 8.07644 35.7976 8.31489 35.7976 8.56353C35.7976 8.81218 35.6988 9.05063 35.523 9.22645C35.3472 9.40226 35.1088 9.50103 34.8601 9.50103H24.415C24.1663 9.50103 23.9279 9.40226 23.752 9.22645C23.5762 9.05063 23.4775 8.81218 23.4775 8.56353ZM23.4775 12.2885C23.4775 12.0398 23.5762 11.8014 23.752 11.6255C23.9279 11.4497 24.1663 11.351 24.415 11.351H34.8601C35.1088 11.351 35.3472 11.4497 35.523 11.6255C35.6988 11.8014 35.7976 12.0398 35.7976 12.2885C35.7976 12.5371 35.6988 12.7756 35.523 12.9514C35.3472 13.1272 35.1088 13.226 34.8601 13.226H24.415C24.1663 13.226 23.9279 13.1272 23.752 12.9514C23.5762 12.7756 23.4775 12.5371 23.4775 12.2885ZM23.4775 16.0134C23.4775 15.7647 23.5762 15.5263 23.752 15.3505C23.9279 15.1747 24.1663 15.0759 24.415 15.0759H34.8601C35.1088 15.0759 35.3472 15.1747 35.523 15.3505C35.6988 15.5263 35.7976 15.7647 35.7976 16.0134C35.7976 16.262 35.6988 16.5005 35.523 16.6763C35.3472 16.8521 35.1088 16.9509 34.8601 16.9509H24.415C24.1663 16.9509 23.9279 16.8521 23.752 16.6763C23.5762 16.5005 23.4775 16.262 23.4775 16.0134Z" fill="#F84923"/>
</svg>
