<svg width="60" height="60" viewBox="0 0 60 60" fill="none" xmlns="http://www.w3.org/2000/svg">
<g clip-path="url(#clip0_440_1190)">
<path d="M12.8316 18.7501H6.5625V16.8751H12.8316C13.6936 16.8773 14.5474 16.7085 15.3438 16.3787C16.1402 16.0488 16.8633 15.5643 17.4712 14.9532L24.1809 8.24351C24.3781 8.04634 24.4889 7.77891 24.4889 7.50007C24.4889 7.22123 24.3781 6.95381 24.1809 6.75663C23.9838 6.55946 23.7163 6.44869 23.4375 6.44869C23.1587 6.44869 22.8912 6.55946 22.6941 6.75663L17.5378 11.9129L16.2122 10.5873L21.3684 5.43101C21.9172 4.88226 22.6614 4.57397 23.4375 4.57397C24.2135 4.57397 24.9578 4.88226 25.5066 5.43101C26.0553 5.97976 26.3636 6.72402 26.3636 7.50007C26.3636 8.27612 26.0553 9.02038 25.5066 9.56913L18.7969 16.2788C18.0154 17.0648 17.0858 17.688 16.0618 18.1122C15.0379 18.5364 13.9399 18.7532 12.8316 18.7501Z" fill="#F84923"/>
<path d="M10.3125 9.375H6.5625V7.5H10.0078L20.0738 0.179063C20.234 0.0626464 20.4269 -3.78764e-05 20.625 1.71703e-08H32.8125C33.5584 1.71703e-08 34.2738 0.296316 34.8012 0.823762C35.3287 1.35121 35.625 2.06658 35.625 2.8125C35.625 3.55842 35.3287 4.27379 34.8012 4.80124C34.2738 5.32868 33.5584 5.625 32.8125 5.625H26.6381L25.0378 7.22531L23.7122 5.89969L25.5872 4.02469C25.763 3.84886 26.0014 3.75005 26.25 3.75H32.8125C33.0611 3.75 33.2996 3.65123 33.4754 3.47541C33.6512 3.2996 33.75 3.06114 33.75 2.8125C33.75 2.56386 33.6512 2.3254 33.4754 2.14959C33.2996 1.97377 33.0611 1.875 32.8125 1.875H20.9297L10.8638 9.19594C10.7035 9.31235 10.5106 9.37504 10.3125 9.375Z" fill="#F84923"/>
<path d="M6.5625 20.625H0.9375C0.68886 20.625 0.450403 20.5262 0.274587 20.3504C0.0987721 20.1746 0 19.9361 0 19.6875V7.5C0 7.25136 0.0987721 7.0129 0.274587 6.83709C0.450403 6.66127 0.68886 6.5625 0.9375 6.5625H6.5625C6.81114 6.5625 7.0496 6.66127 7.22541 6.83709C7.40123 7.0129 7.5 7.25136 7.5 7.5V19.6875C7.5 19.9361 7.40123 20.1746 7.22541 20.3504C7.0496 20.5262 6.81114 20.625 6.5625 20.625ZM1.875 18.75H5.625V8.4375H1.875V18.75ZM36.5625 55.425C35.9838 55.4253 35.4179 55.2539 34.9366 54.9325C34.4553 54.6112 34.0802 54.1542 33.8587 53.6196C33.6372 53.0849 33.5792 52.4965 33.6922 51.9289C33.8052 51.3613 34.0841 50.84 34.4934 50.4309L41.2031 43.7212C41.9846 42.9352 42.9142 42.3121 43.9382 41.8879C44.9621 41.4637 46.0601 41.2469 47.1684 41.25H53.4375V43.125H47.1684C46.3064 43.1228 45.4526 43.2915 44.6562 43.6214C43.8598 43.9513 43.1367 44.4358 42.5287 45.0469L35.8191 51.7566C35.6219 51.9537 35.5111 52.2211 35.5111 52.5C35.5111 52.7788 35.6219 53.0463 35.8191 53.2434C36.0162 53.4406 36.2837 53.5514 36.5625 53.5514C36.8413 53.5514 37.1088 53.4406 37.3059 53.2434L42.4622 48.0872L43.7878 49.4128L38.6316 54.5691C38.36 54.8409 38.0374 55.0565 37.6824 55.2034C37.3273 55.3502 36.9467 55.4256 36.5625 55.425Z" fill="#F84923"/>
<path d="M39.375 60H27.1875C26.4416 60 25.7262 59.7037 25.1988 59.1762C24.6713 58.6488 24.375 57.9334 24.375 57.1875C24.375 56.4416 24.6713 55.7262 25.1988 55.1988C25.7262 54.6713 26.4416 54.375 27.1875 54.375H33.3619L34.9622 52.7747L36.2878 54.1003L34.4128 55.9753C34.237 56.1511 33.9986 56.2499 33.75 56.25H27.1875C26.9389 56.25 26.7004 56.3488 26.5246 56.5246C26.3488 56.7004 26.25 56.9389 26.25 57.1875C26.25 57.4361 26.3488 57.6746 26.5246 57.8504C26.7004 58.0262 26.9389 58.125 27.1875 58.125H39.0703L49.1362 50.8041C49.2965 50.6876 49.4894 50.625 49.6875 50.625H53.4375V52.5H49.9922L39.9263 59.8209C39.766 59.9374 39.5731 60 39.375 60Z" fill="#F84923"/>
<path d="M59.0625 53.4375H53.4375C53.1889 53.4375 52.9504 53.3387 52.7746 53.1629C52.5988 52.9871 52.5 52.7486 52.5 52.5V40.3125C52.5 40.0639 52.5988 39.8254 52.7746 39.6496C52.9504 39.4738 53.1889 39.375 53.4375 39.375H59.0625C59.3111 39.375 59.5496 39.4738 59.7254 39.6496C59.9012 39.8254 60 40.0639 60 40.3125V52.5C60 52.7486 59.9012 52.9871 59.7254 53.1629C59.5496 53.3387 59.3111 53.4375 59.0625 53.4375ZM54.375 51.5625H58.125V41.25H54.375V51.5625ZM32.8125 45.9375H27.1875C26.9389 45.9375 26.7004 45.8387 26.5246 45.6629C26.3488 45.4871 26.25 45.2486 26.25 45V42.5681C25.3888 42.3112 24.5565 41.9656 23.7666 41.5369L22.0453 43.2572C21.8695 43.4329 21.6311 43.5317 21.3825 43.5317C21.1339 43.5317 20.8955 43.4329 20.7197 43.2572L16.7409 39.2813C16.5652 39.1054 16.4664 38.867 16.4664 38.6184C16.4664 38.3698 16.5652 38.1314 16.7409 37.9556L18.4622 36.2344C18.0338 35.4441 17.6885 34.6115 17.4319 33.75H15C14.7514 33.75 14.5129 33.6512 14.3371 33.4754C14.1613 33.2996 14.0625 33.0611 14.0625 32.8125V27.1875C14.0625 26.9389 14.1613 26.7004 14.3371 26.5246C14.5129 26.3488 14.7514 26.25 15 26.25H17.4319C17.6888 25.3888 18.0344 24.5565 18.4631 23.7666L16.7419 22.0453C16.5661 21.8695 16.4674 21.6311 16.4674 21.3825C16.4674 21.1339 16.5661 20.8955 16.7419 20.7197L20.7188 16.7409C20.8946 16.5652 21.133 16.4664 21.3816 16.4664C21.6302 16.4664 21.8686 16.5652 22.0444 16.7409L23.7656 18.4622C24.5559 18.0338 25.3885 17.6885 26.25 17.4319V15C26.25 14.7514 26.3488 14.5129 26.5246 14.3371C26.7004 14.1613 26.9389 14.0625 27.1875 14.0625H32.8125C33.0611 14.0625 33.2996 14.1613 33.4754 14.3371C33.6512 14.5129 33.75 14.7514 33.75 15V17.4319C34.6112 17.6888 35.4435 18.0344 36.2334 18.4631L37.9547 16.7419C38.1305 16.5661 38.3689 16.4674 38.6175 16.4674C38.8661 16.4674 39.1045 16.5661 39.2803 16.7419L43.2591 20.7188C43.4348 20.8946 43.5336 21.133 43.5336 21.3816C43.5336 21.6302 43.4348 21.8686 43.2591 22.0444L41.5378 23.7656C41.9662 24.5559 42.3115 25.3885 42.5681 26.25H45C45.2486 26.25 45.4871 26.3488 45.6629 26.5246C45.8387 26.7004 45.9375 26.9389 45.9375 27.1875V32.8125C45.9375 33.0611 45.8387 33.2996 45.6629 33.4754C45.4871 33.6512 45.2486 33.75 45 33.75H42.5681C42.3112 34.6112 41.9656 35.4435 41.5369 36.2334L43.2581 37.9547C43.4339 38.1305 43.5326 38.3689 43.5326 38.6175C43.5326 38.8661 43.4339 39.1045 43.2581 39.2803L39.2813 43.2581C39.1054 43.4339 38.867 43.5326 38.6184 43.5326C38.3698 43.5326 38.1314 43.4339 37.9556 43.2581L36.2344 41.5378C35.4441 41.9662 34.6115 42.3115 33.75 42.5681V45C33.75 45.2486 33.6512 45.4871 33.4754 45.6629C33.2996 45.8387 33.0611 45.9375 32.8125 45.9375ZM28.125 44.0625H31.875V41.8491C31.875 41.6379 31.9463 41.433 32.0773 41.2675C32.2084 41.1019 32.3914 40.9854 32.5969 40.9369C33.7623 40.6598 34.8758 40.1977 35.895 39.5681C36.0747 39.4571 36.2866 39.41 36.4965 39.4345C36.7063 39.459 36.9016 39.5537 37.0509 39.7031L38.6175 41.2697L41.2697 38.6175L39.7031 37.0509C39.5537 36.9016 39.459 36.7063 39.4345 36.4965C39.41 36.2866 39.4571 36.0747 39.5681 35.895C40.1977 34.8758 40.6598 33.7623 40.9369 32.5969C40.9854 32.3914 41.1019 32.2084 41.2675 32.0773C41.433 31.9463 41.6379 31.875 41.8491 31.875H44.0625V28.125H41.8491C41.6379 28.125 41.433 28.0537 41.2675 27.9227C41.1019 27.7916 40.9854 27.6086 40.9369 27.4031C40.6598 26.2377 40.1977 25.1242 39.5681 24.105C39.4571 23.9253 39.41 23.7134 39.4345 23.5035C39.459 23.2937 39.5537 23.0984 39.7031 22.9491L41.2697 21.3825L38.6175 18.7303L37.0509 20.2969C36.9016 20.4463 36.7063 20.541 36.4965 20.5655C36.2866 20.59 36.0747 20.5429 35.895 20.4319C34.8758 19.8023 33.7623 19.3402 32.5969 19.0631C32.3914 19.0146 32.2084 18.8981 32.0773 18.7325C31.9463 18.567 31.875 18.3621 31.875 18.1509V15.9375H28.125V18.1509C28.125 18.3621 28.0537 18.567 27.9227 18.7325C27.7916 18.8981 27.6086 19.0146 27.4031 19.0631C26.2377 19.3402 25.1242 19.8023 24.105 20.4319C23.9253 20.5429 23.7134 20.59 23.5035 20.5655C23.2937 20.541 23.0984 20.4463 22.9491 20.2969L21.3825 18.7303L18.7303 21.3825L20.2969 22.9491C20.4463 23.0984 20.541 23.2937 20.5655 23.5035C20.59 23.7134 20.5429 23.9253 20.4319 24.105C19.8023 25.1242 19.3402 26.2377 19.0631 27.4031C19.0146 27.6086 18.8981 27.7916 18.7325 27.9227C18.567 28.0537 18.3621 28.125 18.1509 28.125H15.9375V31.875H18.1509C18.3621 31.875 18.567 31.9463 18.7325 32.0773C18.8981 32.2084 19.0146 32.3914 19.0631 32.5969C19.3402 33.7623 19.8023 34.8758 20.4319 35.895C20.5429 36.0747 20.59 36.2866 20.5655 36.4965C20.541 36.7063 20.4463 36.9016 20.2969 37.0509L18.7303 38.6175L21.3825 41.2697L22.9491 39.7031C23.0984 39.5537 23.2937 39.459 23.5035 39.4345C23.7134 39.41 23.9253 39.4571 24.105 39.5681C25.1242 40.1977 26.2377 40.6598 27.4031 40.9369C27.6086 40.9854 27.7916 41.1019 27.9227 41.2675C28.0537 41.433 28.125 41.6379 28.125 41.8491V44.0625Z" fill="#F84923"/>
<path d="M30 38.4375C28.3312 38.4375 26.6999 37.9427 25.3124 37.0155C23.9248 36.0884 22.8434 34.7706 22.2048 33.2289C21.5662 31.6871 21.3991 29.9906 21.7246 28.3539C22.0502 26.7172 22.8538 25.2138 24.0338 24.0338C25.2138 22.8538 26.7172 22.0502 28.3539 21.7246C29.9906 21.3991 31.6871 21.5662 33.2289 22.2048C34.7706 22.8434 36.0884 23.9248 37.0155 25.3124C37.9427 26.6999 38.4375 28.3312 38.4375 30C38.435 32.237 37.5453 34.3817 35.9635 35.9635C34.3817 37.5453 32.237 38.435 30 38.4375ZM30 23.4375C28.7021 23.4375 27.4333 23.8224 26.3541 24.5435C25.2749 25.2646 24.4337 26.2895 23.937 27.4886C23.4403 28.6878 23.3104 30.0073 23.5636 31.2803C23.8168 32.5533 24.4418 33.7226 25.3596 34.6404C26.2774 35.5582 27.4467 36.1832 28.7197 36.4364C29.9927 36.6896 31.3122 36.5597 32.5114 36.063C33.7105 35.5663 34.7354 34.7251 35.4565 33.6459C36.1776 32.5667 36.5625 31.2979 36.5625 30C36.5603 28.2602 35.8682 26.5923 34.6379 25.3621C33.4077 24.1319 31.7398 23.4397 30 23.4375Z" fill="#F84923"/>
<path d="M30 35.625C28.8875 35.625 27.7999 35.2951 26.8749 34.677C25.9499 34.0589 25.2289 33.1804 24.8032 32.1526C24.3774 31.1248 24.266 29.9938 24.4831 28.9026C24.7001 27.8115 25.2359 26.8092 26.0225 26.0225C26.8092 25.2359 27.8115 24.7001 28.9026 24.4831C29.9938 24.266 31.1248 24.3774 32.1526 24.8032C33.1804 25.2289 34.0589 25.9499 34.677 26.8749C35.2951 27.7999 35.625 28.8875 35.625 30C35.6235 31.4914 35.0304 32.9213 33.9758 33.9758C32.9213 35.0304 31.4914 35.6235 30 35.625ZM30 26.25C29.2583 26.25 28.5333 26.4699 27.9166 26.882C27.2999 27.294 26.8193 27.8797 26.5355 28.5649C26.2516 29.2502 26.1774 30.0042 26.3221 30.7316C26.4667 31.459 26.8239 32.1272 27.3484 32.6516C27.8728 33.1761 28.541 33.5333 29.2684 33.6779C29.9958 33.8226 30.7498 33.7484 31.4351 33.4645C32.1203 33.1807 32.706 32.7001 33.118 32.0834C33.5301 31.4667 33.75 30.7417 33.75 30C33.75 29.0054 33.3549 28.0516 32.6516 27.3484C31.9484 26.6451 30.9946 26.25 30 26.25ZM51.5625 30H49.6875C49.6815 25.1973 47.9228 20.562 44.7415 16.964C41.5602 13.3661 37.1752 11.0529 32.4094 10.4588L33.4753 11.5247L32.1497 12.8503L29.3372 10.0378C29.2061 9.9067 29.1169 9.73967 29.0807 9.55784C29.0445 9.37601 29.0631 9.18754 29.1341 9.01626C29.205 8.84498 29.3251 8.69858 29.4793 8.59556C29.6334 8.49254 29.8146 8.43754 30 8.4375C35.7168 8.4437 41.1977 10.7175 45.2401 14.7599C49.2825 18.8023 51.5563 24.2832 51.5625 30ZM30 51.5625C24.2832 51.5563 18.8023 49.2825 14.7599 45.2401C10.7175 41.1977 8.4437 35.7168 8.4375 30H10.3125C10.3185 34.8027 12.0772 39.438 15.2585 43.036C18.4398 46.6339 22.8248 48.9471 27.5906 49.5413L26.5247 48.4753L27.8503 47.1497L30.6628 49.9622C30.7939 50.0933 30.8831 50.2603 30.9193 50.4422C30.9555 50.624 30.9369 50.8125 30.8659 50.9837C30.795 51.155 30.6749 51.3014 30.5207 51.4044C30.3666 51.5075 30.1854 51.5625 30 51.5625Z" fill="#F84923"/>
<path d="M26.5254 52.7737L29.3379 49.9612L30.6645 51.2868L27.852 54.0993L26.5254 52.7737ZM29.3388 8.71216L32.1513 5.89966L33.477 7.22528L30.6645 10.0378L29.3388 8.71216Z" fill="#F84923"/>
</g>
<defs>
<clipPath id="clip0_440_1190">
<rect width="60" height="60" fill="white"/>
</clipPath>
</defs>
</svg>
