<svg width="60" height="60" viewBox="0 0 60 60" fill="none" xmlns="http://www.w3.org/2000/svg">
<g clip-path="url(#clip0_547_614)">
<path d="M59.1193 58.2388H53.4246V23.4247C53.4246 23.1911 53.3318 22.9671 53.1667 22.802C53.0015 22.6368 52.7775 22.544 52.5439 22.544H43.1507C42.9171 22.544 42.6931 22.6368 42.5279 22.802C42.3628 22.9671 42.27 23.1911 42.27 23.4247V58.2388H35.5773V33.7573C35.5773 33.5238 35.4845 33.2998 35.3194 33.1346C35.1542 32.9695 34.9302 32.8767 34.6966 32.8767H25.3034C25.0698 32.8767 24.8458 32.9695 24.6806 33.1346C24.5155 33.2998 24.4227 33.5238 24.4227 33.7573V58.2388H17.73V38.454C17.73 38.2204 17.6372 37.9964 17.4721 37.8313C17.3069 37.6661 17.0829 37.5733 16.8493 37.5733H7.45605C7.22249 37.5733 6.99849 37.6661 6.83333 37.8313C6.66817 37.9964 6.57539 38.2204 6.57539 38.454V58.2386H0.880664C0.647097 58.2386 0.423097 58.3314 0.257941 58.4966C0.092784 58.6617 0 58.8857 0 59.1193C0 59.3529 0.092784 59.5769 0.257941 59.742C0.423097 59.9072 0.647097 60 0.880664 60H59.1193C59.2358 60.0013 59.3514 59.9795 59.4595 59.9359C59.5675 59.8922 59.6658 59.8276 59.7486 59.7457C59.8315 59.6638 59.8973 59.5662 59.9421 59.4587C59.987 59.3512 60.0102 59.2359 60.0102 59.1194C60.0102 59.0029 59.987 58.8875 59.9421 58.78C59.8973 58.6725 59.8315 58.575 59.7486 58.4931C59.6658 58.4111 59.5675 58.3465 59.4595 58.3028C59.3514 58.2592 59.2358 58.2374 59.1193 58.2388ZM15.9687 58.2388H8.3366V39.3347H15.9687V58.2388ZM33.8161 58.2388H26.184V34.638H33.8161V58.2388ZM51.6634 58.2388H44.0313V24.3054H51.6634V58.2388ZM57.1884 0.690783C56.8951 0.431745 56.5501 0.238088 56.1761 0.122677C55.8022 0.00726713 55.408 -0.0272538 55.0198 0.0214082L47.5051 0.960783C46.0133 1.14723 44.9228 2.5475 45.1095 4.04082C45.298 5.54985 46.6786 6.62528 48.1896 6.4366L48.8027 6.36008C39.5795 17.0541 28.6146 22.5809 20.8664 25.3585C11.2054 28.822 3.68578 29.1182 3.61254 29.1207C2.09344 29.1682 0.894844 30.4428 0.940781 31.9622C0.98625 33.4626 2.19715 34.6379 3.69773 34.6379C3.72563 34.6379 3.75363 34.6375 3.78234 34.6366C4.11668 34.6265 12.0879 34.345 22.5896 30.603C28.4933 28.4993 34.0485 25.7066 39.1005 22.3026C39.1965 22.238 39.2787 22.1551 39.3426 22.0587C39.4065 21.9623 39.4507 21.8543 39.4728 21.7408C39.495 21.6272 39.4945 21.5105 39.4715 21.3971C39.4484 21.2838 39.4033 21.1761 39.3387 21.0802C39.2741 20.9843 39.1912 20.9021 39.0948 20.8382C38.9984 20.7743 38.8904 20.73 38.7768 20.7079C38.6633 20.6858 38.5466 20.6862 38.4332 20.7092C38.3199 20.7322 38.2122 20.7773 38.1163 20.842C33.1864 24.1638 27.7636 26.8897 21.9984 28.944C11.7547 32.594 4.05176 32.8664 3.72961 32.8761L3.69773 32.8766C3.43806 32.8776 3.18831 32.7769 3.00202 32.596C2.81573 32.4151 2.70773 32.1684 2.70117 31.9088C2.68453 31.3592 3.11812 30.8982 3.66797 30.881C3.74484 30.8785 11.479 30.5947 21.4608 27.0164C29.8232 24.0186 41.8389 17.8975 51.5927 5.76113C52.0784 5.15692 51.565 4.23946 50.7973 4.33567L47.9716 4.68887C47.4818 4.74945 47.006 4.42848 46.8817 3.95012C46.7322 3.37449 47.1343 2.78199 47.7238 2.70817L55.2387 1.76879C55.8254 1.69461 56.3603 2.16887 56.3603 2.75914V10.2738C56.3603 10.8241 55.9126 11.2719 55.3622 11.2719C54.8118 11.2719 54.3641 10.8242 54.3641 10.2738V7.99567C54.3641 7.63578 54.1314 7.29922 53.7948 7.17207C53.4471 7.04071 53.0363 7.15098 52.8012 7.43879C49.5121 11.469 45.767 15.1159 41.6698 18.278C41.4886 18.4221 41.3715 18.6315 41.3436 18.8613C41.3157 19.091 41.3793 19.3224 41.5206 19.5056C41.662 19.6888 41.8698 19.809 42.0991 19.8402C42.3283 19.8714 42.5607 19.8112 42.7459 19.6725C46.3148 16.918 49.623 13.8054 52.6057 10.3981C52.6709 11.8622 53.8823 13.0333 55.3623 13.0333C56.8837 13.0333 58.1216 11.7955 58.1216 10.274V2.75938C58.1215 2.36815 58.0382 1.98141 57.8774 1.62478C57.7165 1.26816 57.4817 0.949794 57.1884 0.690783Z" fill="white"/>
</g>
<defs>
<clipPath id="clip0_547_614">
<rect width="60" height="60" fill="white"/>
</clipPath>
</defs>
</svg>
