<svg width="60" height="60" viewBox="0 0 60 60" fill="none" xmlns="http://www.w3.org/2000/svg">
<path d="M20.2602 42.7519C20.0112 42.4006 19.6816 42.1141 19.2991 41.9162C18.9167 41.7184 18.4924 41.615 18.0618 41.6147C17.1215 41.6147 16.2646 42.0928 15.7705 42.8925C15.2765 43.6922 15.2324 44.671 15.6796 45.5635L16.0733 46.2441L14.5415 45.7331L12.1368 40.9238L11.4955 38.3597C11.3903 37.9359 11.1701 37.5494 10.8591 37.2429C10.5482 36.9363 10.1585 36.7216 9.73329 36.6225C9.30802 36.5234 8.86365 36.5437 8.44919 36.6812C8.03474 36.8187 7.66632 37.068 7.38459 37.4016C7.16144 37.6641 6.9984 37.9722 6.9069 38.3044C6.8154 38.6365 6.79765 38.9847 6.8549 39.3244L6.91865 39.7078L6.64022 39.3825C6.18539 38.862 5.54882 38.535 4.8608 38.4685C4.17278 38.402 3.48535 38.6009 2.93922 39.0246C2.39308 39.4483 2.02954 40.0647 1.92301 40.7477C1.81647 41.4307 1.97501 42.1285 2.36615 42.6985L7.75959 50.4038C7.88897 50.5875 8.0399 50.7572 8.21147 50.9081L11.9258 54.1575C12.1977 54.3947 12.5118 54.6413 12.8418 54.8991C13.9846 55.7925 15.2802 56.8041 15.2015 57.901L17.0718 58.035C17.2218 55.9435 15.433 54.5447 13.9958 53.4216C13.6949 53.1872 13.408 52.9631 13.1605 52.7456L9.44803 49.4981C9.39086 49.4478 9.33987 49.3908 9.29615 49.3285L3.90272 41.6231C3.83834 41.5325 3.7929 41.4297 3.7691 41.3211C3.7453 41.2125 3.74364 41.1002 3.7642 40.9909C3.78476 40.8816 3.82713 40.7776 3.88878 40.685C3.95044 40.5925 4.0301 40.5133 4.12303 40.4522C4.29215 40.339 4.49692 40.2917 4.69855 40.3194C4.90019 40.347 5.08468 40.4477 5.21709 40.6022L9.50709 45.6075C9.81553 45.9675 10.2121 46.246 10.6883 46.4222L13.2112 47.2641L13.2262 47.2941L13.2562 47.2791L17.489 48.6919L17.6887 49.0369C17.7702 49.1794 17.8133 49.3425 17.8133 49.5066V50.625H19.6883V49.5066C19.6883 49.0144 19.558 48.5269 19.3105 48.0985L17.3287 44.6747C17.2652 44.5501 17.2352 44.4112 17.2414 44.2716C17.2477 44.1319 17.29 43.9963 17.3643 43.8778C17.4352 43.7627 17.5336 43.667 17.6507 43.5992C17.7677 43.5315 17.8998 43.4938 18.035 43.4896C18.1701 43.4854 18.3042 43.5149 18.4253 43.5753C18.5463 43.6356 18.6504 43.7251 18.7283 43.8356C21.2652 47.4188 21.9318 48.3628 22.1305 48.6338L22.1258 48.6366C23.7449 50.9147 23.6183 53.6766 23.4852 56.6006C23.4627 57.1022 23.4402 57.6019 23.4262 58.0997L25.3002 58.1513C25.3143 57.6656 25.3358 57.1772 25.3583 56.6869C25.4999 53.5753 25.6471 50.356 23.654 47.551C23.6024 47.475 20.2602 42.7519 20.2602 42.7519ZM11.3118 44.656C11.1642 44.6004 11.0329 44.5085 10.9302 44.3888L9.2774 42.4603L8.70365 39.016C8.69131 38.9447 8.69491 38.8716 8.7142 38.8019C8.73349 38.7322 8.76799 38.6676 8.81522 38.6128C8.87409 38.5429 8.95115 38.4906 9.03788 38.4617C9.1246 38.4329 9.21763 38.4285 9.30667 38.4492C9.39572 38.4698 9.47732 38.5147 9.54246 38.5788C9.60761 38.6429 9.65377 38.7238 9.67584 38.8125L10.3415 41.4769C10.358 41.5434 10.3819 41.6078 10.4127 41.6691L12.0243 44.8931L11.3118 44.656ZM56.9202 38.8922C56.3692 38.5262 55.7034 38.374 55.0481 38.4643C54.3928 38.5546 53.793 38.8811 53.3615 39.3825L53.083 39.7069L53.1468 39.3225C53.2036 38.9828 53.1857 38.6349 53.0943 38.3028C53.0029 37.9708 52.8402 37.6626 52.6175 37.3999C52.3949 37.1372 52.1176 36.9261 51.805 36.7815C51.4925 36.6369 51.1521 36.5622 50.8077 36.5625C50.2787 36.5619 49.7647 36.7385 49.3478 37.0641C48.9308 37.3896 48.6348 37.8454 48.5071 38.3588L47.8658 40.9228L45.4612 45.7322L43.9274 46.2441L44.3502 45.5128C44.557 45.1026 44.6547 44.6461 44.634 44.1872C44.6133 43.7283 44.4749 43.2825 44.2321 42.8925C43.9979 42.5144 43.6739 42.2001 43.2888 41.9777C42.9037 41.7552 42.4695 41.6315 42.025 41.6176C41.5805 41.6037 41.1394 41.7 40.7411 41.8979C40.3429 42.0958 39.9998 42.3892 39.7424 42.7519L36.3458 47.551C34.3537 50.355 34.5008 53.5744 34.6424 56.686C34.6649 57.1763 34.6865 57.6656 34.7005 58.1503L36.5746 58.0988C36.5605 57.6019 36.538 57.1022 36.5155 56.5997C36.3815 53.6756 36.2558 50.9138 37.8749 48.6356L37.8702 48.6328C38.069 48.3619 38.7365 47.4178 41.2724 43.8347C41.3506 43.7246 41.4549 43.6355 41.5758 43.5754C41.6968 43.5153 41.8307 43.486 41.9657 43.4902C42.1007 43.4944 42.2326 43.5319 42.3497 43.5993C42.4667 43.6668 42.5652 43.7621 42.6365 43.8769C42.7087 43.9941 42.8558 44.3053 42.6993 44.6231L40.6902 48.0985C40.4436 48.5268 40.3137 49.0123 40.3133 49.5066V50.625H42.1883V49.5066C42.1883 49.3425 42.2315 49.1794 42.314 49.0378L42.5137 48.6919L46.7465 47.2791L46.7765 47.2941L46.7915 47.2641L49.3452 46.4119C49.7899 46.2451 50.1852 45.9688 50.4946 45.6085L54.7846 40.6041C54.9199 40.4298 55.1188 40.3164 55.3377 40.2888C55.5566 40.2611 55.7775 40.3216 55.9518 40.4569C56.1261 40.5922 56.2395 40.7911 56.2671 41.01C56.2947 41.2289 56.2342 41.4498 56.099 41.6241L50.7055 49.3294C50.6618 49.3909 50.6112 49.4472 50.5546 49.4972L46.8412 52.7466C46.5937 52.9631 46.3058 53.1881 46.0049 53.4225C44.5677 54.5456 42.779 55.9435 42.929 58.036L44.7993 57.9019C44.7205 56.805 46.0162 55.7935 47.159 54.9C47.489 54.6422 47.803 54.3956 48.0749 54.1585L51.7902 50.9072C51.9599 50.7581 52.1118 50.5885 52.2402 50.4047L57.6337 42.6994C58.0555 42.0975 58.2121 41.3681 58.0762 40.6463C57.9402 39.9244 57.5315 39.3 56.9202 38.8922ZM49.0705 44.3888C48.9764 44.5011 48.8564 44.5889 48.7208 44.6447L47.9774 44.8931L49.589 41.67C49.6197 41.6088 49.6436 41.5443 49.6602 41.4778L50.3258 38.8135C50.348 38.7248 50.3943 38.644 50.4595 38.58C50.5247 38.516 50.6063 38.4713 50.6953 38.4507C50.7844 38.4301 50.8773 38.4346 50.964 38.4635C51.0507 38.4925 51.1277 38.5448 51.1865 38.6147C51.2338 38.6694 51.2684 38.734 51.2877 38.8037C51.307 38.8734 51.3105 38.9466 51.298 39.0178L50.7243 42.4622L49.0705 44.3888Z" fill="#F84923"/>
<path d="M16.875 40.3125H23.4375C23.4375 40.5611 23.5363 40.7996 23.7121 40.9754C23.8879 41.1512 24.1264 41.25 24.375 41.25H35.625C35.8736 41.25 36.1121 41.1512 36.2879 40.9754C36.4637 40.7996 36.5625 40.5611 36.5625 40.3125H43.125C43.3736 40.3125 43.6121 40.2137 43.7879 40.0379C43.9637 39.8621 44.0625 39.6236 44.0625 39.375V30C44.0625 29.7514 43.9637 29.5129 43.7879 29.3371C43.6121 29.1613 43.3736 29.0625 43.125 29.0625H36.5625V25.3125C36.5625 25.0639 36.4637 24.8254 36.2879 24.6496C36.1121 24.4738 35.8736 24.375 35.625 24.375H34.6875V23.4375C34.6875 21.8869 33.4256 20.625 31.875 20.625H30.9375V18.6947C35.1497 18.2269 38.4375 14.6484 38.4375 10.3125C38.4375 5.65969 34.6519 1.875 30 1.875C25.3481 1.875 21.5625 5.65969 21.5625 10.3125C21.5625 14.6484 24.8503 18.2269 29.0625 18.6947V20.625H28.125C26.5744 20.625 25.3125 21.8869 25.3125 23.4375V24.375H24.375C24.1264 24.375 23.8879 24.4738 23.7121 24.6496C23.5363 24.8254 23.4375 25.0639 23.4375 25.3125V29.0625H16.875C16.6264 29.0625 16.3879 29.1613 16.2121 29.3371C16.0363 29.5129 15.9375 29.7514 15.9375 30V39.375C15.9375 39.6236 16.0363 39.8621 16.2121 40.0379C16.3879 40.2137 16.6264 40.3125 16.875 40.3125ZM42.1875 30.9375V38.4375H36.5625V30.9375H42.1875ZM23.4375 10.3125C23.4375 6.69469 26.3813 3.75 30 3.75C33.6187 3.75 36.5625 6.69469 36.5625 10.3125C36.5625 13.9303 33.6187 16.875 30 16.875C26.3813 16.875 23.4375 13.9303 23.4375 10.3125ZM30.9375 39.375H29.0625V37.5H30.9375V39.375ZM27.1875 23.4375C27.1875 22.92 27.6084 22.5 28.125 22.5H31.875C32.3916 22.5 32.8125 22.92 32.8125 23.4375V24.375H27.1875V23.4375ZM25.3125 26.25H34.6875V39.375H32.8125V36.5625C32.8125 36.3139 32.7137 36.0754 32.5379 35.8996C32.3621 35.7238 32.1236 35.625 31.875 35.625H28.125C27.8764 35.625 27.6379 35.7238 27.4621 35.8996C27.2863 36.0754 27.1875 36.3139 27.1875 36.5625V39.375H25.3125V26.25ZM17.8125 30.9375H23.4375V38.4375H17.8125V30.9375Z" fill="#F84923"/>
<path d="M27.1879 28.1249H32.8129V29.9999H27.1879V28.1249ZM27.1879 31.8749H32.8129V33.7499H27.1879V31.8749ZM30.9379 15.9374V14.8274C31.4847 14.6347 31.9584 14.2775 32.2941 13.8048C32.6298 13.3322 32.8111 12.7672 32.8129 12.1874C32.8129 10.6368 31.551 9.37495 30.0004 9.37495C29.759 9.36415 29.5311 9.26066 29.3641 9.08603C29.1971 8.91139 29.1039 8.67907 29.1039 8.43745C29.1039 8.19582 29.1971 7.9635 29.3641 7.78887C29.5311 7.61423 29.759 7.51074 30.0004 7.49995C30.517 7.49995 30.9379 7.91995 30.9379 8.43745H32.8129C32.8111 7.8577 32.6298 7.29273 32.2941 6.82006C31.9584 6.34739 31.4847 5.99018 30.9379 5.79745V4.68745H29.0629V5.79745C28.5161 5.99018 28.0424 6.34739 27.7067 6.82006C27.371 7.29273 27.1898 7.8577 27.1879 8.43745C27.1879 9.98807 28.4498 11.2499 30.0004 11.2499C30.1861 11.2498 30.3677 11.3047 30.5221 11.4077C30.6766 11.5108 30.797 11.6573 30.8682 11.8288C30.9393 12.0003 30.958 12.1891 30.9218 12.3712C30.8856 12.5534 30.7962 12.7207 30.6649 12.852C30.5336 12.9833 30.3663 13.0727 30.1842 13.1088C30.0021 13.145 29.8133 13.1264 29.6418 13.0552C29.4703 12.9841 29.3237 12.8636 29.2207 12.7092C29.1176 12.5547 29.0627 12.3731 29.0629 12.1874H27.1879C27.1879 13.4081 27.9745 14.4393 29.0629 14.8274V15.9374H30.9379ZM19.6879 33.7499H21.5629V35.6249H19.6879V33.7499ZM38.4379 33.7499H40.3129V35.6249H38.4379V33.7499ZM47.8129 34.6874H53.4379C53.6866 34.6874 53.925 34.5887 54.1008 34.4129C54.2766 34.237 54.3754 33.9986 54.3754 33.7499V12.1874H57.1879C57.3636 12.1875 57.5357 12.1383 57.6847 12.0453C57.8337 11.9523 57.9536 11.8193 58.0307 11.6615C58.1078 11.5037 58.139 11.3273 58.1208 11.1526C58.1026 10.978 58.0356 10.8119 57.9276 10.6734L51.3651 2.23588C51.0098 1.78026 50.2401 1.78026 49.8848 2.23588L43.3223 10.6734C43.2153 10.8123 43.1493 10.9782 43.1317 11.1526C43.1141 11.327 43.1456 11.5029 43.2226 11.6603C43.2996 11.8178 43.4191 11.9506 43.5676 12.0437C43.7161 12.1369 43.8876 12.1866 44.0629 12.1874H46.8754V33.7499C46.8754 33.9986 46.9742 34.237 47.15 34.4129C47.3258 34.5887 47.5643 34.6874 47.8129 34.6874ZM45.9792 10.3124L50.6254 4.33963L55.2717 10.3124H53.4379C53.1893 10.3124 52.9508 10.4112 52.775 10.587C52.5992 10.7628 52.5004 11.0013 52.5004 11.2499V32.8124H48.7504V11.2499C48.7504 11.0013 48.6516 10.7628 48.4758 10.587C48.3 10.4112 48.0616 10.3124 47.8129 10.3124H45.9792ZM6.56292 34.6874H12.1879C12.4366 34.6874 12.675 34.5887 12.8508 34.4129C13.0266 34.237 13.1254 33.9986 13.1254 33.7499V12.1874H15.9379C16.1136 12.1875 16.2857 12.1383 16.4347 12.0453C16.5837 11.9523 16.7036 11.8193 16.7807 11.6615C16.8578 11.5037 16.889 11.3273 16.8708 11.1526C16.8526 10.978 16.7856 10.8119 16.6776 10.6734L10.1151 2.23588C9.75979 1.78026 8.9901 1.78026 8.63479 2.23588L2.07229 10.6734C1.96534 10.8123 1.89933 10.9782 1.88171 11.1526C1.8641 11.327 1.89558 11.5029 1.9726 11.6603C2.04962 11.8178 2.16911 11.9506 2.31759 12.0437C2.46608 12.1369 2.63764 12.1866 2.81292 12.1874H5.62542V33.7499C5.62542 33.9986 5.72419 34.237 5.9 34.4129C6.07582 34.5887 6.31428 34.6874 6.56292 34.6874ZM4.72917 10.3124L9.37542 4.33963L14.0217 10.3124H12.1879C11.9393 10.3124 11.7008 10.4112 11.525 10.587C11.3492 10.7628 11.2504 11.0013 11.2504 11.2499V32.8124H7.50042V11.2499C7.50042 11.0013 7.40164 10.7628 7.22583 10.587C7.05001 10.4112 6.81156 10.3124 6.56292 10.3124H4.72917Z" fill="#F84923"/>
</svg>
