<svg width="60" height="60" viewBox="0 0 60 60" fill="none" xmlns="http://www.w3.org/2000/svg">
<g clip-path="url(#clip0_253_529)">
<path d="M23.0705 22.8699H32.1297C32.3629 22.8699 32.5865 22.7772 32.7514 22.6124C32.9162 22.4475 33.0089 22.2239 33.0089 21.9907C33.0089 21.7576 32.9162 21.5339 32.7514 21.3691C32.5865 21.2042 32.3629 21.1116 32.1297 21.1116H23.0705C22.8374 21.1116 22.6138 21.2042 22.4489 21.3691C22.284 21.5339 22.1914 21.7576 22.1914 21.9907C22.1914 22.2239 22.284 22.4475 22.4489 22.6124C22.6138 22.7772 22.8374 22.8699 23.0705 22.8699ZM23.0705 30.2244H32.1297C32.3629 30.2244 32.5865 30.1318 32.7514 29.9669C32.9162 29.8021 33.0089 29.5784 33.0089 29.3453C33.0089 29.1121 32.9162 28.8885 32.7514 28.7236C32.5865 28.5588 32.3629 28.4661 32.1297 28.4661H23.0705C22.8374 28.4661 22.6138 28.5588 22.4489 28.7236C22.284 28.8885 22.1914 29.1121 22.1914 29.3453C22.1914 29.5784 22.284 29.8021 22.4489 29.9669C22.6138 30.1318 22.8374 30.2244 23.0705 30.2244ZM33.009 36.6999C33.009 36.4667 32.9164 36.2431 32.7515 36.0782C32.5866 35.9133 32.363 35.8207 32.1298 35.8207H23.0707C22.8375 35.8207 22.6139 35.9133 22.449 36.0782C22.2841 36.2431 22.1915 36.4667 22.1915 36.6999C22.1915 36.933 22.2841 37.1566 22.449 37.3215C22.6139 37.4864 22.8375 37.579 23.0707 37.579H32.1298C32.363 37.579 32.5866 37.4864 32.7515 37.3215C32.9164 37.1566 33.009 36.933 33.009 36.6999Z" fill="#F84923"/>
<path d="M52.9575 14.3705C52.3635 13.9216 51.5308 14.1749 50.872 14.4455C48.6437 15.3608 44.6586 18.2863 42.3211 22.1148H38.228V16.5525C38.228 15.7264 37.5559 15.0542 36.7298 15.0542H35.0788V11.7364C35.0788 10.9104 34.4067 10.2382 33.5807 10.2382H28.4798V8.10397C28.4798 7.87081 28.3872 7.6472 28.2223 7.48233C28.0575 7.31746 27.8339 7.22483 27.6007 7.22483C27.3675 7.22483 27.1439 7.31746 26.979 7.48233C26.8142 7.6472 26.7216 7.87081 26.7216 8.10397V10.2382H21.6205C20.7944 10.2382 20.1223 10.9103 20.1223 11.7364V15.0544H18.4717C17.6456 15.0544 16.9734 15.7264 16.9734 16.5526V22.1151H9.09421C8.19983 22.1151 7.47222 22.8428 7.47222 23.7371V25.8873C7.47222 26.1205 7.56484 26.3441 7.72971 26.5089C7.89458 26.6738 8.1182 26.7664 8.35136 26.7664C8.58452 26.7664 8.80813 26.6738 8.973 26.5089C9.13787 26.3441 9.2305 26.1205 9.2305 25.8873V23.8735H16.9735V41.8774H9.2305V29.9903C9.2305 29.7571 9.13787 29.5335 8.973 29.3686C8.80813 29.2037 8.58452 29.1111 8.35136 29.1111C8.1182 29.1111 7.89458 29.2037 7.72971 29.3686C7.56484 29.5335 7.47222 29.7571 7.47222 29.9903V41.8774H5.33202C4.50585 41.8774 3.75726 42.3001 3.32964 43.0082C2.90437 43.7122 2.87847 44.5662 3.26026 45.2924C8.0312 54.3644 17.3576 60.0001 27.6 60.0001C33.3245 60.0001 38.8111 58.2576 43.4666 54.9609C43.5608 54.8942 43.641 54.8096 43.7025 54.7119C43.764 54.6142 43.8057 54.5053 43.8252 54.3915C43.8446 54.2777 43.8415 54.1612 43.8159 54.0486C43.7903 53.936 43.7427 53.8296 43.676 53.7354C43.6093 53.6411 43.5247 53.5609 43.427 53.4994C43.3293 53.4379 43.2204 53.3962 43.1066 53.3767C42.9927 53.3573 42.8762 53.3605 42.7636 53.3861C42.651 53.4117 42.5446 53.4592 42.4503 53.526C40.0673 55.2135 37.451 56.4646 34.693 57.2529C36.7396 55.571 38.5594 53.1685 40.0259 50.1928H46.2907C46.0346 50.4637 45.7728 50.729 45.5053 50.9886C45.3407 51.1516 45.2471 51.3729 45.2447 51.6045C45.2423 51.8361 45.3314 52.0592 45.4926 52.2255C45.6539 52.3918 45.8742 52.4878 46.1057 52.4925C46.3373 52.4973 46.5614 52.4106 46.7293 52.2511C48.8299 50.2146 50.5833 47.8733 51.9407 45.2923C52.3226 44.566 52.2967 43.7122 51.8714 43.008C51.4438 42.3 50.6951 41.8773 49.8689 41.8773H47.729V36.2544C47.9536 36.2733 48.1789 36.2829 48.4043 36.2833C49.2671 36.2834 50.1248 36.1497 50.9467 35.887C54.6451 34.7021 57.0629 31.8094 57.7546 27.7418C58.6058 22.7362 56.5883 17.1129 52.9575 14.3705ZM41.4015 23.8733C41.0021 24.7901 40.711 25.744 40.5688 26.7231C40.2457 28.9433 40.6451 31.0264 41.6931 32.6927C40.6635 33.369 39.5133 33.9384 38.228 34.4089V23.8733H41.4015ZM43.4842 33.583C46.6833 31.0636 48.679 27.6872 49.9792 23.7746C50.1124 23.3735 50.5474 23.1557 50.9484 23.2888C51.1412 23.3531 51.3007 23.4913 51.3918 23.673C51.4828 23.8547 51.4981 24.0651 51.4343 24.258C50.1955 27.9858 48.5318 30.8807 46.3481 33.1082C44.2521 35.2464 41.6511 36.7912 38.3965 37.831C37.9868 37.9624 37.5593 37.7296 37.433 37.3341C37.3706 37.1391 37.388 36.9314 37.4818 36.7494C37.5757 36.5674 37.7347 36.4328 37.9298 36.3705C39.797 35.7741 41.9501 34.7912 43.4842 33.583ZM26.7208 58.1931C24.1898 57.9176 21.7448 56.4423 19.6104 53.8903C18.709 52.8126 17.8854 51.5714 17.1491 50.1929H26.7208V58.1931ZM16.2926 48.4345C15.6335 46.9543 15.0662 45.3475 14.6016 43.6357H26.7208V48.4345H16.2926ZM28.4792 43.6358H40.5996C40.135 45.3475 39.5676 46.9544 38.9086 48.4346H28.4792V43.6358ZM21.8808 11.9966H33.3204V15.0544H21.8808V11.9966ZM18.7321 16.8128H36.4696V35.2301C36.2446 35.4329 36.0581 35.6747 35.919 35.9437C35.7662 36.2382 35.6732 36.56 35.6456 36.8905C35.6179 37.2211 35.6562 37.5539 35.758 37.8696C35.8939 38.2929 36.1394 38.6727 36.4696 38.9705V41.8775H18.7321V16.8128ZM4.83479 43.9172C4.88589 43.8326 5.03671 43.6357 5.33214 43.6357H12.7813C13.223 45.3439 13.7594 46.9485 14.3781 48.4345H7.38409C6.40972 47.1951 5.55038 45.8694 4.81675 44.4739C4.68304 44.2198 4.78476 43.9999 4.83479 43.9172ZM8.89862 50.1929H15.1752C16.6409 53.167 18.4595 55.5685 20.5048 57.2503C16.0719 55.9842 12.0624 53.5461 8.89862 50.1929ZM28.4792 58.1932V50.1929H38.0521C36.0233 53.9914 32.7622 57.7275 28.4792 58.1932ZM50.3662 43.9172C50.4162 43.9999 50.518 44.2198 50.3843 44.4739C49.6498 45.8703 48.7884 47.196 47.811 48.4345H40.8231C41.4417 46.9486 41.9782 45.3439 42.4199 43.6357H49.869C50.1644 43.6358 50.3153 43.8326 50.3662 43.9172ZM45.9708 41.8774H38.228V39.6239C38.467 39.6183 38.704 39.5786 38.9318 39.5061C41.633 38.643 43.9256 37.451 45.8843 35.8894C45.9131 35.8986 45.9419 35.9075 45.9708 35.9164V41.8774ZM56.0211 27.4469C55.6875 29.4092 54.5149 32.8974 50.4107 34.2123C49.4657 34.514 48.4647 34.5983 47.4826 34.4589C47.5227 34.4187 47.5639 34.3798 47.6038 34.3392C49.979 31.9162 51.7779 28.8001 53.1029 24.8126C53.5419 23.4913 52.8241 22.0591 51.5027 21.62C50.1814 21.1815 48.7494 21.8992 48.3105 23.2201C47.2333 26.4615 45.8225 28.9423 43.9975 30.804C43.713 31.0934 43.4158 31.37 43.1068 31.633C42.339 30.3399 42.0551 28.7196 42.3088 26.9762C42.8153 23.4916 45.5218 20.5621 47.0901 19.1258C49.414 16.9977 51.4426 16.0176 52.0574 15.8975C55.0444 18.2787 56.7436 23.1982 56.0211 27.4469ZM4.10976 33.13C4.22081 33.0984 4.32455 33.0452 4.41506 32.9736C4.50557 32.9019 4.58108 32.8131 4.63728 32.7122C4.69347 32.6114 4.72925 32.5004 4.74257 32.3858C4.75589 32.2711 4.74649 32.1549 4.71491 32.0439C4.6532 31.8265 4.59456 31.6083 4.53901 31.3892C4.47959 31.1655 4.33436 30.9743 4.13482 30.857C3.93528 30.7397 3.69754 30.7058 3.47317 30.7627C3.2488 30.8195 3.05591 30.9626 2.93635 31.1608C2.81679 31.359 2.7802 31.5963 2.83452 31.8213C2.89429 32.0571 2.95792 32.2938 3.02355 32.5248C3.08734 32.7491 3.23762 32.9388 3.44133 33.0523C3.64503 33.1658 3.88547 33.1937 4.10976 33.13ZM31.2778 2.02101C32.3177 2.18226 32.6434 2.29546 32.8367 2.29546C33.0375 2.29519 33.2321 2.22625 33.3883 2.1001C33.5445 1.97394 33.6528 1.79816 33.6953 1.60194C33.7197 1.4891 33.7217 1.37255 33.701 1.25895C33.6804 1.14535 33.6376 1.03692 33.575 0.93987C33.5125 0.842819 33.4315 0.759041 33.3365 0.693323C33.2416 0.627606 33.1346 0.581236 33.0218 0.556864C32.5331 0.45132 32.0415 0.360148 31.5475 0.283466C31.4334 0.265761 31.3169 0.2707 31.2047 0.298002C31.0925 0.325304 30.9868 0.374434 30.8936 0.442588C30.7054 0.580229 30.5796 0.786999 30.5439 1.01741C30.5081 1.24782 30.5653 1.483 30.703 1.67121C30.8406 1.85942 31.0474 1.98525 31.2778 2.02101ZM25.1587 1.85788C25.294 1.85788 25.7101 1.7946 26.6378 1.7578C26.8687 1.74571 27.0856 1.64312 27.2414 1.47224C27.3973 1.30136 27.4795 1.07597 27.4704 0.84488C27.4612 0.613793 27.3613 0.395624 27.1925 0.237635C27.0236 0.079646 26.7992 -0.00543992 26.568 0.00080975C26.0706 0.0206144 25.5678 0.0551848 25.0738 0.1037C24.8494 0.126055 24.6423 0.233726 24.4951 0.404469C24.3478 0.575211 24.2718 0.795979 24.2827 1.02116C24.2936 1.24634 24.3906 1.45873 24.5537 1.61445C24.7167 1.77016 24.9333 1.85731 25.1587 1.85788ZM42.2531 6.7855C42.6195 7.07249 42.9775 7.37003 43.3267 7.67776C43.5021 7.82835 43.7297 7.9038 43.9604 7.88777C44.191 7.87174 44.406 7.76552 44.5589 7.59211C44.7118 7.41869 44.7903 7.19204 44.7773 6.96122C44.7643 6.7304 44.6609 6.51398 44.4895 6.35882C44.1147 6.02847 43.7304 5.70908 43.3371 5.40104C43.1532 5.26128 42.9217 5.1995 42.6926 5.22907C42.4635 5.25864 42.2552 5.37717 42.1128 5.55905C41.9704 5.74093 41.9053 5.97154 41.9315 6.20104C41.9578 6.43053 42.0733 6.64048 42.2531 6.7855ZM37.0709 3.69819C37.4976 3.88372 37.9188 4.08169 38.334 4.29186C38.4372 4.34639 38.5503 4.37981 38.6666 4.39018C38.7829 4.40055 38.9 4.38765 39.0113 4.35225C39.1225 4.31685 39.2256 4.25964 39.3145 4.18398C39.4034 4.10831 39.4764 4.0157 39.5291 3.91154C39.5819 3.80739 39.6133 3.69377 39.6217 3.57733C39.63 3.46088 39.6151 3.34394 39.5778 3.23332C39.5405 3.1227 39.4815 3.02062 39.4043 2.93303C39.3271 2.84545 39.2332 2.77412 39.1282 2.72319C38.6823 2.49743 38.2299 2.2848 37.7715 2.08558C37.6655 2.03884 37.5513 2.01352 37.4355 2.01107C37.3197 2.00861 37.2045 2.02907 37.0966 2.07127C36.9887 2.11347 36.8903 2.17657 36.8068 2.25696C36.7234 2.33734 36.6567 2.43342 36.6105 2.53967C36.5644 2.64592 36.5397 2.76025 36.5378 2.87608C36.536 2.99191 36.5571 3.10697 36.5998 3.21463C36.6426 3.32229 36.7063 3.42043 36.7871 3.50342C36.8679 3.5864 36.9644 3.6526 37.0709 3.69819ZM19.0651 3.25546C19.3612 3.25546 19.3851 3.15304 20.6916 2.75718C20.911 2.68644 21.0938 2.53237 21.2008 2.32815C21.3077 2.12392 21.3302 1.88587 21.2633 1.66524C21.1965 1.44462 21.0457 1.25906 20.8434 1.14853C20.6411 1.03799 20.4034 1.01132 20.1817 1.07425C19.7034 1.21916 19.2296 1.37817 18.7608 1.55108C18.567 1.62242 18.4045 1.75968 18.3018 1.9388C18.1991 2.11793 18.1627 2.32749 18.199 2.53076C18.2353 2.73403 18.3419 2.91804 18.5003 3.05054C18.6587 3.18305 18.8586 3.25559 19.0651 3.25546ZM3.24913 21.4665C3.36229 21.4895 3.47886 21.4899 3.59218 21.4678C3.7055 21.4456 3.81335 21.4014 3.90958 21.3376C4.00581 21.2738 4.08853 21.1917 4.15302 21.0959C4.21751 21.0001 4.2625 20.8926 4.28542 20.7794C4.37781 20.3236 4.48356 19.8706 4.60253 19.421C4.66041 19.1962 4.62703 18.9576 4.50966 18.7573C4.3923 18.557 4.20047 18.4112 3.97604 18.3518C3.75162 18.2924 3.5128 18.3242 3.3117 18.4402C3.1106 18.5562 2.96354 18.747 2.90261 18.971C2.77486 19.454 2.66126 19.9407 2.56194 20.4303C2.51569 20.6589 2.5621 20.8964 2.69097 21.0907C2.81984 21.285 3.02061 21.4202 3.24913 21.4665ZM3.84491 26.7956C3.80577 26.0511 3.8121 25.4733 3.81187 25.3994C3.81034 24.9138 3.42304 24.5182 2.93741 24.5156H2.93272C2.44933 24.5156 2.05206 24.9063 2.05347 25.3902C2.05347 25.4081 2.04456 26.0437 2.08886 26.8877C2.10068 27.1125 2.19823 27.3241 2.36143 27.4791C2.52464 27.6341 2.74106 27.7206 2.96612 27.7208C3.08552 27.7209 3.2037 27.6967 3.31343 27.6497C3.42317 27.6026 3.52218 27.5337 3.60441 27.4471C3.68664 27.3606 3.75037 27.2581 3.79172 27.1461C3.83307 27.0341 3.85117 26.9149 3.84491 26.7956ZM5.0503 15.4739C5.48355 15.6865 6.01183 15.5099 6.22675 15.0714C6.43172 14.6532 6.64892 14.2412 6.87808 13.8358C6.99282 13.6329 7.02224 13.3926 6.95987 13.1679C6.8975 12.9432 6.74845 12.7525 6.5455 12.6377C6.34251 12.523 6.10225 12.4936 5.87757 12.5559C5.65289 12.6183 5.46218 12.7673 5.34737 12.9703C5.10123 13.4057 4.86792 13.8483 4.64776 14.2975C4.59694 14.4011 4.56703 14.5138 4.55975 14.629C4.55248 14.7443 4.56797 14.8598 4.60535 14.9691C4.64273 15.0783 4.70127 15.1791 4.77761 15.2657C4.85396 15.3524 4.94662 15.4231 5.0503 15.4739ZM13.5226 6.14811C13.9351 6.14811 13.9483 5.98897 15.1914 5.22749C15.2898 5.16716 15.3754 5.08804 15.4433 4.99463C15.5111 4.90122 15.5599 4.79536 15.5869 4.68309C15.6138 4.57083 15.6184 4.45435 15.6004 4.34031C15.5823 4.22627 15.542 4.11691 15.4816 4.01847C15.4213 3.92002 15.3422 3.83442 15.2488 3.76656C15.1554 3.69869 15.0495 3.64989 14.9372 3.62293C14.825 3.59598 14.7085 3.5914 14.5945 3.60946C14.4804 3.62752 14.3711 3.66787 14.2726 3.72819C13.8471 3.98905 13.4292 4.26221 13.0195 4.54733C12.8659 4.65434 12.7504 4.80759 12.6899 4.98478C12.6294 5.16198 12.6271 5.35385 12.6832 5.53247C12.7393 5.71109 12.851 5.86713 13.002 5.97786C13.153 6.0886 13.3354 6.14824 13.5226 6.14811ZM8.30788 10.1286C8.48476 10.2806 8.71475 10.356 8.94727 10.3384C9.17978 10.3208 9.39577 10.2115 9.54772 10.0346C9.85104 9.68167 10.1645 9.33758 10.4878 9.0028C10.568 8.91976 10.6311 8.82174 10.6734 8.71432C10.7157 8.60691 10.7365 8.49221 10.7345 8.37677C10.7325 8.26134 10.7078 8.14743 10.6617 8.04155C10.6157 7.93567 10.5493 7.83989 10.4662 7.75968C10.3832 7.67947 10.2852 7.6164 10.1778 7.57408C10.0703 7.53175 9.95565 7.511 9.84021 7.513C9.72478 7.515 9.61087 7.53972 9.50499 7.58574C9.3991 7.63177 9.30332 7.6982 9.22311 7.78124C8.8761 8.14062 8.53959 8.50999 8.21401 8.8889C8.13875 8.97645 8.08147 9.07797 8.04545 9.18767C8.00944 9.29736 7.99538 9.41308 8.0041 9.52821C8.01282 9.64333 8.04413 9.75562 8.09626 9.85864C8.14838 9.96166 8.22029 10.0534 8.30788 10.1286ZM46.9111 11.6314C47.0474 11.8206 47.2534 11.9478 47.4835 11.9851C47.7137 12.0224 47.9493 11.9668 48.1384 11.8304C48.3275 11.6941 48.4547 11.4881 48.4921 11.258C48.5294 11.0278 48.4737 10.7923 48.3374 10.6031C48.1954 10.4062 48.0506 10.2113 47.9031 10.0185C47.8329 9.92676 47.7454 9.84978 47.6454 9.79192C47.5455 9.73406 47.4352 9.69646 47.3207 9.68127C47.2062 9.66608 47.0899 9.67359 46.9783 9.70338C46.8668 9.73316 46.7622 9.78464 46.6705 9.85487C46.5788 9.92506 46.5019 10.0126 46.444 10.1125C46.3862 10.2125 46.3486 10.3228 46.3334 10.4373C46.3182 10.5517 46.3257 10.6681 46.3555 10.7796C46.3853 10.8912 46.4367 10.9958 46.5069 11.0875C46.6442 11.2669 46.7789 11.4482 46.9111 11.6314Z" fill="#F84923"/>
</g>
<defs>
<clipPath id="clip0_253_529">
<rect width="60" height="60" fill="white"/>
</clipPath>
</defs>
</svg>
