<svg width="60" height="60" viewBox="0 0 60 60" fill="none" xmlns="http://www.w3.org/2000/svg">
<g clip-path="url(#clip0_253_540)">
<path d="M58.125 51.5625H57.1875V13.125C57.1875 12.8763 57.0887 12.6379 56.9129 12.4621C56.7371 12.2863 56.4986 12.1875 56.25 12.1875H55.3125V9.37498C55.3125 9.12634 55.2137 8.88788 55.0379 8.71207C54.8621 8.53625 54.6236 8.43748 54.375 8.43748H53.4375V3.74998C53.4374 3.52152 53.3539 3.30094 53.2027 3.12969C53.0515 2.95844 52.8429 2.84831 52.6162 2.81998L37.6162 0.94498C37.4844 0.928499 37.3505 0.940248 37.2235 0.979447C37.0965 1.01865 36.9793 1.0844 36.8796 1.17234C36.78 1.26029 36.7002 1.36842 36.6455 1.48956C36.5908 1.61069 36.5625 1.74207 36.5625 1.87498V8.43748H35.625C35.3764 8.43748 35.1379 8.53625 34.9621 8.71207C34.7863 8.88788 34.6875 9.12634 34.6875 9.37498V12.1875H33.75C33.5014 12.1875 33.2629 12.2863 33.0871 12.4621C32.9113 12.6379 32.8125 12.8763 32.8125 13.125V25.3125H18.75C18.5014 25.3125 18.2629 25.4113 18.0871 25.5871C17.9113 25.7629 17.8125 26.0013 17.8125 26.25V36.5625H1.875C1.62636 36.5625 1.3879 36.6613 1.21209 36.8371C1.03627 37.0129 0.9375 37.2513 0.9375 37.5V58.125C0.9375 58.3736 1.03627 58.6121 1.21209 58.7879C1.3879 58.9637 1.62636 59.0625 1.875 59.0625H58.125C58.3736 59.0625 58.6121 58.9637 58.7879 58.7879C58.9637 58.6121 59.0625 58.3736 59.0625 58.125V52.5C59.0625 52.2513 58.9637 52.0129 58.7879 51.8371C58.6121 51.6613 58.3736 51.5625 58.125 51.5625ZM38.4375 2.93717L51.5625 4.57779V8.43748H38.4375V2.93717ZM36.5625 10.3125H53.4375V12.1875H36.5625V10.3125ZM19.6875 27.1875H32.8125V36.5625H19.6875V27.1875ZM47.8125 57.1875H2.8125V38.4375H47.8125V57.1875ZM34.6875 36.5625V14.0625H55.3125V51.5625H49.6875V37.5C49.6875 37.2513 49.5887 37.0129 49.4129 36.8371C49.2371 36.6613 48.9986 36.5625 48.75 36.5625H34.6875ZM57.1875 57.1875H49.6875V53.4375H57.1875V57.1875Z" fill="#F84923"/>
<path d="M43.125 15.9375H39.375C39.1264 15.9375 38.8879 16.0363 38.7121 16.2121C38.5363 16.3879 38.4375 16.6264 38.4375 16.875V20.625C38.4375 20.8736 38.5363 21.1121 38.7121 21.2879C38.8879 21.4637 39.1264 21.5625 39.375 21.5625H43.125C43.3736 21.5625 43.6121 21.4637 43.7879 21.2879C43.9637 21.1121 44.0625 20.8736 44.0625 20.625V16.875C44.0625 16.6264 43.9637 16.3879 43.7879 16.2121C43.6121 16.0363 43.3736 15.9375 43.125 15.9375ZM42.1875 19.6875H40.3125V17.8125H42.1875V19.6875ZM46.875 21.5625H50.625C50.8736 21.5625 51.1121 21.4637 51.2879 21.2879C51.4637 21.1121 51.5625 20.8736 51.5625 20.625V16.875C51.5625 16.6264 51.4637 16.3879 51.2879 16.2121C51.1121 16.0363 50.8736 15.9375 50.625 15.9375H46.875C46.6264 15.9375 46.3879 16.0363 46.2121 16.2121C46.0363 16.3879 45.9375 16.6264 45.9375 16.875V20.625C45.9375 20.8736 46.0363 21.1121 46.2121 21.2879C46.3879 21.4637 46.6264 21.5625 46.875 21.5625ZM47.8125 17.8125H49.6875V19.6875H47.8125V17.8125ZM43.125 23.4375H39.375C39.1264 23.4375 38.8879 23.5363 38.7121 23.7121C38.5363 23.8879 38.4375 24.1264 38.4375 24.375V28.125C38.4375 28.3736 38.5363 28.6121 38.7121 28.7879C38.8879 28.9637 39.1264 29.0625 39.375 29.0625H43.125C43.3736 29.0625 43.6121 28.9637 43.7879 28.7879C43.9637 28.6121 44.0625 28.3736 44.0625 28.125V24.375C44.0625 24.1264 43.9637 23.8879 43.7879 23.7121C43.6121 23.5363 43.3736 23.4375 43.125 23.4375ZM42.1875 27.1875H40.3125V25.3125H42.1875V27.1875ZM51.5625 28.125V24.375C51.5625 24.1264 51.4637 23.8879 51.2879 23.7121C51.1121 23.5363 50.8736 23.4375 50.625 23.4375H46.875C46.6264 23.4375 46.3879 23.5363 46.2121 23.7121C46.0363 23.8879 45.9375 24.1264 45.9375 24.375V28.125C45.9375 28.3736 46.0363 28.6121 46.2121 28.7879C46.3879 28.9637 46.6264 29.0625 46.875 29.0625H50.625C50.8736 29.0625 51.1121 28.9637 51.2879 28.7879C51.4637 28.6121 51.5625 28.3736 51.5625 28.125ZM49.6875 27.1875H47.8125V25.3125H49.6875V27.1875ZM21.5625 29.0625H30.9375V30.9375H21.5625V29.0625ZM21.5625 32.8125H30.9375V34.6875H21.5625V32.8125ZM25.3125 55.3125C26.7959 55.3125 28.2459 54.8726 29.4793 54.0485C30.7126 53.2244 31.6739 52.0531 32.2416 50.6826C32.8093 49.3122 32.9578 47.8042 32.6684 46.3493C32.379 44.8945 31.6647 43.5581 30.6158 42.5092C29.5669 41.4603 28.2305 40.746 26.7757 40.4566C25.3208 40.1672 23.8128 40.3157 22.4424 40.8834C21.0719 41.4511 19.9006 42.4124 19.0765 43.6457C18.2524 44.8791 17.8125 46.3291 17.8125 47.8125C17.8147 49.8009 18.6056 51.7073 20.0117 53.1133C21.4177 54.5194 23.3241 55.3103 25.3125 55.3125ZM25.3125 42.1875C26.425 42.1875 27.5126 42.5174 28.4376 43.1355C29.3626 43.7536 30.0836 44.6321 30.5093 45.6599C30.9351 46.6877 31.0465 47.8187 30.8294 48.9099C30.6124 50.001 30.0766 51.0033 29.29 51.79C28.5033 52.5766 27.501 53.1124 26.4099 53.3294C25.3187 53.5465 24.1877 53.4351 23.1599 53.0093C22.1321 52.5836 21.2536 51.8626 20.6355 50.9376C20.0174 50.0126 19.6875 48.925 19.6875 47.8125C19.689 46.3211 20.2821 44.8912 21.3367 43.8367C22.3912 42.7821 23.8211 42.189 25.3125 42.1875ZM5.625 55.3125H15.9375V53.4375H6.5625V42.1875H15.9375V40.3125H5.625C5.37636 40.3125 5.1379 40.4113 4.96209 40.5871C4.78627 40.7629 4.6875 41.0014 4.6875 41.25V54.375C4.6875 54.6236 4.78627 54.8621 4.96209 55.0379C5.1379 55.2137 5.37636 55.3125 5.625 55.3125Z" fill="#F84923"/>
<path d="M10.3125 46.875H15.9375V48.75H10.3125V46.875ZM45.9375 54.375V41.25C45.9375 41.0014 45.8387 40.7629 45.6629 40.5871C45.4871 40.4113 45.2486 40.3125 45 40.3125H34.6875V42.1875H44.0625V53.4375H34.6875V55.3125H45C45.2486 55.3125 45.4871 55.2137 45.6629 55.0379C45.8387 54.8621 45.9375 54.6236 45.9375 54.375Z" fill="#F84923"/>
<path d="M34.6875 46.875H40.3125V48.75H34.6875V46.875ZM0.9375 17.8125C0.9375 19.6667 1.48733 21.4793 2.51747 23.021C3.54761 24.5627 5.01179 25.7643 6.72484 26.4739C8.4379 27.1834 10.3229 27.3691 12.1415 27.0074C13.96 26.6456 15.6305 25.7527 16.9416 24.4416C18.2527 23.1305 19.1456 21.46 19.5074 19.6415C19.8691 17.8229 19.6834 15.9379 18.9739 14.2248C18.2643 12.5118 17.0627 11.0476 15.521 10.0175C13.9793 8.98733 12.1667 8.4375 10.3125 8.4375C7.82693 8.44023 5.44395 9.42883 3.68639 11.1864C1.92883 12.944 0.94023 15.3269 0.9375 17.8125ZM10.3125 10.3125C11.7959 10.3125 13.2459 10.7524 14.4793 11.5765C15.7126 12.4006 16.6739 13.5719 17.2416 14.9424C17.8093 16.3128 17.9578 17.8208 17.6684 19.2757C17.379 20.7305 16.6647 22.0669 15.6158 23.1158C14.5669 24.1647 13.2305 24.879 11.7757 25.1684C10.3208 25.4578 8.81282 25.3093 7.44237 24.7416C6.07193 24.1739 4.90059 23.2126 4.07648 21.9793C3.25237 20.7459 2.8125 19.2959 2.8125 17.8125C2.81473 15.8241 3.60563 13.9177 5.01167 12.5117C6.4177 11.1056 8.32406 10.3147 10.3125 10.3125Z" fill="#F84923"/>
<path d="M10.3125 20.625C10.0639 20.625 9.8254 20.5262 9.64959 20.3504C9.47377 20.1746 9.375 19.9361 9.375 19.6875H7.5C7.5024 20.2671 7.68383 20.8318 8.01946 21.3044C8.35509 21.777 8.82852 22.1343 9.375 22.3275V23.4375H11.25V22.3275C11.875 22.1074 12.4019 21.6731 12.7375 21.1017C13.073 20.5303 13.1955 19.8585 13.0832 19.2055C12.9709 18.5524 12.6311 17.9601 12.124 17.5336C11.6169 17.107 10.9751 16.8737 10.3125 16.875C10.1271 16.875 9.94582 16.82 9.79165 16.717C9.63748 16.614 9.51732 16.4676 9.44636 16.2963C9.37541 16.125 9.35684 15.9365 9.39301 15.7546C9.42919 15.5727 9.51848 15.4057 9.64959 15.2746C9.7807 15.1435 9.94775 15.0542 10.1296 15.018C10.3115 14.9818 10.5 15.0004 10.6713 15.0714C10.8426 15.1423 10.989 15.2625 11.092 15.4167C11.195 15.5708 11.25 15.7521 11.25 15.9375H13.125C13.1226 15.3579 12.9412 14.7932 12.6055 14.3206C12.2699 13.848 11.7965 13.4907 11.25 13.2975V12.1875H9.375V13.2975C8.74999 13.5176 8.22305 13.9519 7.88753 14.5233C7.552 15.0947 7.42954 15.7665 7.54182 16.4195C7.65411 17.0726 7.99391 17.6649 8.50102 18.0914C9.00814 18.518 9.64985 18.7513 10.3125 18.75C10.5611 18.75 10.7996 18.8488 10.9754 19.0246C11.1512 19.2004 11.25 19.4389 11.25 19.6875C11.25 19.9361 11.1512 20.1746 10.9754 20.3504C10.7996 20.5262 10.5611 20.625 10.3125 20.625Z" fill="#F84923"/>
</g>
<defs>
<clipPath id="clip0_253_540">
<rect width="60" height="60" fill="white"/>
</clipPath>
</defs>
</svg>
