<svg width="60" height="60" viewBox="0 0 60 60" fill="none" xmlns="http://www.w3.org/2000/svg">
<path d="M53.4375 34.2328C50.8528 34.2328 48.75 32.129 48.75 29.5453C48.75 29.2966 48.6512 29.0582 48.4754 28.8824C48.2996 28.7066 48.0611 28.6078 47.8125 28.6078H12.1875C11.9389 28.6078 11.7004 28.7066 11.5246 28.8824C11.3488 29.0582 11.25 29.2966 11.25 29.5453C11.25 32.129 9.14719 34.2328 6.5625 34.2328C6.31386 34.2328 6.0754 34.3316 5.89959 34.5074C5.72377 34.6832 5.625 34.9216 5.625 35.1703V47.8125C5.625 48.0611 5.72377 48.2996 5.89959 48.4754C6.0754 48.6512 6.31386 48.75 6.5625 48.75C9.14719 48.75 11.25 50.8528 11.25 53.4375C11.25 53.6861 11.3488 53.9246 11.5246 54.1004C11.7004 54.2762 11.9389 54.375 12.1875 54.375H30C30.2486 54.375 30.4871 54.2762 30.6629 54.1004C30.8387 53.9246 30.9375 53.6861 30.9375 53.4375C30.9375 53.1888 30.8387 52.9504 30.6629 52.7746C30.4871 52.5987 30.2486 52.5 30 52.5H13.0584C12.8537 51.0986 12.2022 49.8007 11.2007 48.7992C10.1993 47.7978 8.90139 47.1463 7.5 46.9415V36.0403C8.90126 35.8356 10.1991 35.1842 11.2005 34.183C12.2019 33.1817 12.8535 31.884 13.0584 30.4828H46.9406C47.1456 31.8841 47.7973 33.1819 48.7989 34.1832C49.8006 35.1845 51.0986 35.8358 52.5 36.0403V46.9415C51.0986 47.1463 49.8007 47.7978 48.7993 48.7992C47.7978 49.8007 47.1463 51.0986 46.9416 52.5H33.9356C33.687 52.5 33.4485 52.5987 33.2727 52.7746C33.0969 52.9504 32.9981 53.1888 32.9981 53.4375C32.9981 53.6861 33.0969 53.9246 33.2727 54.1004C33.4485 54.2762 33.687 54.375 33.9356 54.375H47.8125C48.0611 54.375 48.2996 54.2762 48.4754 54.1004C48.6512 53.9246 48.75 53.6861 48.75 53.4375C48.75 50.8528 50.8528 48.75 53.4375 48.75C53.6861 48.75 53.9246 48.6512 54.1004 48.4754C54.2762 48.2996 54.375 48.0611 54.375 47.8125V35.1703C54.375 34.9216 54.2762 34.6832 54.1004 34.5074C53.9246 34.3316 53.6861 34.2328 53.4375 34.2328Z" fill="white"/>
<path d="M38.4375 41.491C38.4375 36.8391 34.6519 33.0535 30 33.0535C25.3481 33.0535 21.5625 36.8391 21.5625 41.491C21.5625 46.1428 25.3481 49.9285 30 49.9285C34.6519 49.9285 38.4375 46.1438 38.4375 41.491ZM30 48.0535C26.3812 48.0535 23.4375 45.1097 23.4375 41.491C23.4375 37.8722 26.3812 34.9285 30 34.9285C33.6187 34.9285 36.5625 37.8722 36.5625 41.491C36.5625 45.1097 33.6187 48.0535 30 48.0535Z" fill="white"/>
<path d="M55.3125 24.8578H52.3969L42.6094 3.51561C42.4564 3.17923 42.2382 2.87656 41.9674 2.62518C41.6965 2.37381 41.3784 2.17872 41.0316 2.05124C40.6856 1.92208 40.3174 1.86263 39.9483 1.87631C39.5792 1.88999 39.2165 1.97652 38.881 2.13092L25.3219 8.34842C25.0958 8.45211 24.9201 8.64138 24.8335 8.8746C24.7469 9.10781 24.7565 9.36588 24.8602 9.59202C24.9639 9.81816 25.1531 9.99384 25.3864 10.0804C25.6196 10.167 25.8776 10.1574 26.1038 10.0537L39.6628 3.83624C39.7744 3.7842 39.8952 3.75498 40.0182 3.75031C40.1412 3.74565 40.2639 3.76562 40.3791 3.80905C40.6135 3.89624 40.801 4.06967 40.9041 4.29749L50.3335 24.8569H48.7341L42.271 10.7644C42.1669 10.5387 41.9777 10.3634 41.7447 10.277C41.5117 10.1905 41.2539 10.1999 41.0278 10.3031C40.0496 10.7503 38.934 10.7912 37.9257 10.4169C36.9174 10.0425 36.0987 9.28344 35.6494 8.30624C35.5456 8.08061 35.3564 7.90542 35.1235 7.81911C34.8906 7.73281 34.633 7.74245 34.4072 7.84592L25.1213 12.104L17.8416 7.92936C17.5215 7.74489 17.1681 7.62557 16.8018 7.57826C16.4354 7.53096 16.0633 7.55661 15.7069 7.65374C15.35 7.7495 15.0156 7.91505 14.7231 8.14081C14.4305 8.36657 14.1856 8.64808 14.0025 8.96905L4.89002 24.8578C3.27096 24.7575 1.86846 26.039 1.87502 27.6703V55.3125C1.87502 56.8631 3.1369 58.125 4.68752 58.125H55.3125C56.8631 58.125 58.125 56.8631 58.125 55.3125V27.6703C58.125 26.1187 56.8631 24.8578 55.3125 24.8578ZM34.4035 9.90936C35.0989 10.9466 36.1033 11.7386 37.2741 12.1731C38.4449 12.6075 39.7228 12.6624 40.9266 12.33L46.426 24.3234L27.12 13.2497L34.4035 9.90936ZM15.6291 9.90092C15.6903 9.79412 15.772 9.70043 15.8695 9.62519C15.9669 9.54996 16.0783 9.49465 16.1971 9.46244C16.3159 9.43023 16.4399 9.42174 16.562 9.43746C16.6842 9.45318 16.802 9.4928 16.9088 9.55405L43.5872 24.8569H40.666L21.7781 14.024C21.5623 13.9008 21.3065 13.8682 21.0667 13.9332C20.8268 13.9982 20.6225 14.1556 20.4985 14.3709C19.9622 15.3033 19.078 15.9849 18.0399 16.2663C17.0017 16.5477 15.8944 16.4058 14.9606 15.8719C14.8539 15.8105 14.7361 15.7708 14.6139 15.755C14.4918 15.7392 14.3677 15.7477 14.2489 15.7799C14.13 15.8121 14.0187 15.8674 13.9212 15.9428C13.8238 16.0181 13.7421 16.1118 13.681 16.2187L8.72815 24.8578H7.05096L15.6291 9.90092ZM36.8963 24.8569H10.89L14.8791 17.9006C16.048 18.3408 17.3258 18.4018 18.5313 18.0751C19.7368 17.7483 20.8088 17.0503 21.5953 16.08L36.8963 24.8569ZM56.25 55.3125C56.25 55.829 55.8291 56.25 55.3125 56.25H4.68752C4.17096 56.25 3.75002 55.829 3.75002 55.3125V27.6703C3.75002 27.1528 4.17096 26.7328 4.68752 26.7328H55.3125C55.8291 26.7328 56.25 27.1528 56.25 27.6703V55.3125Z" fill="white"/>
</svg>
