<svg width="60" height="60" viewBox="0 0 60 60" fill="none" xmlns="http://www.w3.org/2000/svg">
<path d="M53.4098 6.85661H49.3988V2.25208C49.3988 2.03451 49.3123 1.82587 49.1585 1.67203C49.0046 1.51819 48.796 1.43176 48.5784 1.43176H42.519C42.3015 1.43176 42.0928 1.51819 41.939 1.67203C41.7851 1.82587 41.6987 2.03451 41.6987 2.25208V6.85661H33.85V2.25208C33.85 2.03451 33.7635 1.82587 33.6097 1.67203C33.4559 1.51819 33.2472 1.43176 33.0296 1.43176H26.9702C26.7527 1.43176 26.544 1.51819 26.3902 1.67203C26.2363 1.82587 26.1499 2.03451 26.1499 2.25208V6.85661H18.3012V2.25208C18.3012 2.03451 18.2147 1.82587 18.0609 1.67203C17.9071 1.51819 17.6984 1.43176 17.4809 1.43176H11.4216C11.204 1.43176 10.9954 1.51819 10.8415 1.67203C10.6877 1.82587 10.6012 2.03451 10.6012 2.25208V6.85661H6.59016C3.53789 6.85661 1.05469 9.33981 1.05469 12.3921V53.0328C1.05469 56.0851 3.53789 58.5682 6.59016 58.5682H53.4098C56.462 58.5682 58.9452 56.0851 58.9452 53.0328V12.3921C58.9453 9.33981 56.4621 6.85661 53.4098 6.85661ZM43.3393 3.07239H47.7581V12.1787H43.3393V3.07239ZM27.7905 3.07239H32.2093V12.1787H27.7905V3.07239ZM12.2419 3.07239H16.6607V12.1787H12.2419V3.07239ZM6.59016 8.49723H10.6012V12.999C10.6012 13.2165 10.6877 13.4252 10.8415 13.579C10.9954 13.7329 11.204 13.8193 11.4216 13.8193H17.481C17.6985 13.8193 17.9072 13.7329 18.061 13.579C18.2149 13.4252 18.3013 13.2165 18.3013 12.999V8.49723H26.15V12.999C26.15 13.2165 26.2365 13.4252 26.3903 13.579C26.5441 13.7329 26.7528 13.8193 26.9704 13.8193H33.0298C33.2473 13.8193 33.456 13.7329 33.6098 13.579C33.7637 13.4252 33.8501 13.2165 33.8501 12.999V8.49723H41.6988V12.999C41.6988 13.2165 41.7853 13.4252 41.9391 13.579C42.0929 13.7329 42.3016 13.8193 42.5191 13.8193H48.5786C48.7961 13.8193 49.0048 13.7329 49.1586 13.579C49.3124 13.4252 49.3989 13.2165 49.3989 12.999V8.49723H53.41C55.5575 8.49723 57.3047 10.2444 57.3047 12.392V17.3038H2.69531V12.392C2.69531 10.2444 4.44258 8.49723 6.59016 8.49723ZM25.2539 35.8085H18.5004V34.1362H25.2539V35.8085ZM29.1797 37.4491V56.9275H26.916V51.4422C26.916 51.3345 26.8948 51.2278 26.8535 51.1283C26.8123 51.0288 26.7519 50.9384 26.6757 50.8622C26.5995 50.786 26.5091 50.7256 26.4096 50.6844C26.3101 50.6431 26.2034 50.6219 26.0957 50.6219H17.6585C17.441 50.6219 17.2323 50.7083 17.0785 50.8622C16.9246 51.016 16.8382 51.2247 16.8382 51.4422V56.9275H14.5745V37.4491H29.1797ZM30.8203 45.0593H45.4256V46.6115H30.8203V45.0593ZM30.8203 48.2522H45.4256V56.9274H41.9971V50.3796C41.9971 50.162 41.9106 49.9534 41.7568 49.7995C41.603 49.6457 41.3943 49.5593 41.1768 49.5593C40.9592 49.5593 40.7505 49.6457 40.5967 49.7995C40.4429 49.9534 40.3564 50.162 40.3564 50.3796V56.9274H35.8895V50.3796C35.8895 50.162 35.8031 49.9534 35.6492 49.7995C35.4954 49.6457 35.2867 49.5593 35.0692 49.5593C34.8516 49.5593 34.643 49.6457 34.4891 49.7995C34.3353 49.9534 34.2489 50.162 34.2489 50.3796V56.9274H30.8203V48.2522ZM25.2754 56.9275H18.4788V52.2625H25.2754V56.9275ZM53.4098 56.9275H47.0662V44.239C47.0662 44.0214 46.9798 43.8127 46.826 43.6589C46.6721 43.5051 46.4635 43.4186 46.2459 43.4186H30.8203V36.6288C30.8203 36.4112 30.7339 36.2026 30.58 36.0487C30.4262 35.8949 30.2176 35.8085 30 35.8085H26.8945V33.3159C26.8945 33.0983 26.8081 32.8897 26.6543 32.7359C26.5004 32.582 26.2918 32.4956 26.0742 32.4956H17.6801C17.4625 32.4956 17.2539 32.582 17.1 32.7359C16.9462 32.8897 16.8598 33.0983 16.8598 33.3159V35.8085H13.7542C13.5366 35.8085 13.328 35.8949 13.1741 36.0487C13.0203 36.2026 12.9339 36.4112 12.9339 36.6288V56.9275H6.59016C4.44258 56.9275 2.69531 55.1804 2.69531 53.0327V18.9445H57.3047V53.0328C57.3047 55.1804 55.5575 56.9275 53.4098 56.9275ZM38.4748 30.3818C38.6923 30.3818 38.901 30.2953 39.0548 30.1415C39.2087 29.9877 39.2951 29.779 39.2951 29.5614V23.8449C39.2951 23.6274 39.2087 23.4187 39.0548 23.2649C38.901 23.111 38.6923 23.0246 38.4748 23.0246H32.7582C32.5407 23.0246 32.332 23.111 32.1782 23.2649C32.0244 23.4187 31.9379 23.6274 31.9379 23.8449V29.5614C31.9379 29.779 32.0244 29.9877 32.1782 30.1415C32.332 30.2953 32.5407 30.3818 32.7582 30.3818H38.4748ZM33.5786 24.6652H37.6545V28.7411H33.5786V24.6652ZM27.2419 23.0246H21.5254C21.3078 23.0246 21.0991 23.111 20.9453 23.2649C20.7915 23.4187 20.705 23.6274 20.705 23.8449V29.5614C20.705 29.779 20.7915 29.9877 20.9453 30.1415C21.0991 30.2953 21.3078 30.3818 21.5254 30.3818H27.2419C27.4594 30.3818 27.6681 30.2953 27.8219 30.1415C27.9758 29.9877 28.0622 29.779 28.0622 29.5614V23.8449C28.0622 23.6274 27.9758 23.4187 27.8219 23.2649C27.6681 23.111 27.4594 23.0246 27.2419 23.0246ZM26.4216 28.7411H22.3457V24.6652H26.4216V28.7411ZM16.009 23.0246H10.2925C10.0749 23.0246 9.86625 23.111 9.71241 23.2649C9.55857 23.4187 9.47215 23.6274 9.47215 23.8449V29.5614C9.47215 29.779 9.55857 29.9877 9.71241 30.1415C9.86625 30.2953 10.0749 30.3818 10.2925 30.3818H16.009C16.2265 30.3818 16.4352 30.2953 16.589 30.1415C16.7429 29.9877 16.8293 29.779 16.8293 29.5614V23.8449C16.8293 23.6274 16.7429 23.4187 16.589 23.2649C16.4352 23.111 16.2265 23.0246 16.009 23.0246ZM15.1887 28.7411H11.1128V24.6652H15.1887V28.7411ZM49.7077 23.0246H43.991C43.7735 23.0246 43.5648 23.111 43.411 23.2649C43.2571 23.4187 43.1707 23.6274 43.1707 23.8449V29.5614C43.1707 29.779 43.2571 29.9877 43.411 30.1415C43.5648 30.2953 43.7735 30.3818 43.991 30.3818H49.7075C49.9251 30.3818 50.1338 30.2953 50.2876 30.1415C50.4414 29.9877 50.5279 29.779 50.5279 29.5614V23.8449C50.5279 23.7372 50.5067 23.6305 50.4655 23.531C50.4243 23.4315 50.3639 23.341 50.2877 23.2649C50.2115 23.1887 50.1211 23.1282 50.0216 23.087C49.9221 23.0458 49.8154 23.0246 49.7077 23.0246ZM48.8873 28.7411H44.8113V24.6652H48.8872V28.7411H48.8873ZM42.9159 34.8206L39.9684 34.6407L38.8863 31.893C38.826 31.7398 38.7209 31.6083 38.5847 31.5156C38.4486 31.4229 38.2877 31.3734 38.123 31.3734C37.9584 31.3734 37.7975 31.423 37.6614 31.5157C37.5253 31.6084 37.4202 31.7399 37.3598 31.8931L36.2779 34.6407L33.3304 34.8206C33.166 34.8307 33.0085 34.89 32.8783 34.9908C32.7481 35.0916 32.6512 35.2293 32.6003 35.3859C32.5494 35.5425 32.5469 35.7108 32.5929 35.8689C32.639 36.027 32.7316 36.1676 32.8587 36.2723L35.1375 38.1505L34.3978 41.0095C34.3566 41.1689 34.3644 41.3371 34.4201 41.492C34.4757 41.647 34.5768 41.7816 34.71 41.8784C34.8432 41.9752 35.0025 42.0297 35.1671 42.0347C35.3317 42.0397 35.494 41.9951 35.6329 41.9067L38.1232 40.3197L40.6136 41.9067C40.7524 41.9953 40.9148 42.04 41.0794 42.035C41.2441 42.03 41.4034 41.9756 41.5367 41.8788C41.6699 41.7819 41.771 41.6472 41.8266 41.4922C41.8822 41.3372 41.8899 41.169 41.8486 41.0095L41.1089 38.1506L43.3877 36.2723C43.5149 36.1676 43.6075 36.027 43.6536 35.8689C43.6997 35.7108 43.6972 35.5424 43.6462 35.3858C43.5953 35.2291 43.4984 35.0914 43.3682 34.9906C43.2379 34.8898 43.0803 34.8306 42.9159 34.8206ZM39.6619 37.2171C39.5414 37.3164 39.4517 37.448 39.4035 37.5965C39.3552 37.7451 39.3503 37.9043 39.3894 38.0554L39.7383 39.4038L38.5638 38.6553C38.4321 38.5713 38.2792 38.5267 38.123 38.5267C37.9668 38.5267 37.8138 38.5713 37.6821 38.6553L36.5077 39.4038L36.8565 38.0554C36.8957 37.9043 36.8908 37.745 36.8425 37.5965C36.7943 37.448 36.7046 37.3164 36.5841 37.2171L35.5093 36.3311L36.8994 36.2463C37.0553 36.2368 37.2052 36.1829 37.3316 36.0911C37.4579 35.9993 37.5554 35.8733 37.6126 35.728L38.1229 34.4321L38.6332 35.7281C38.6905 35.8734 38.788 35.9993 38.9143 36.0911C39.0406 36.1829 39.1905 36.2367 39.3464 36.2463L40.7365 36.3311L39.6619 37.2171ZM17.6585 48.9901H26.0957C26.2034 48.9901 26.3101 48.9689 26.4096 48.9276C26.5091 48.8864 26.5995 48.826 26.6757 48.7498C26.7519 48.6736 26.8123 48.5832 26.8535 48.4837C26.8948 48.3842 26.916 48.2775 26.916 48.1698V40.0606C26.916 39.9529 26.8948 39.8462 26.8535 39.7467C26.8123 39.6472 26.7519 39.5568 26.6757 39.4806C26.5995 39.4044 26.5091 39.344 26.4096 39.3028C26.3101 39.2615 26.2034 39.2403 26.0957 39.2403H17.6585C17.441 39.2403 17.2323 39.3267 17.0785 39.4806C16.9246 39.6344 16.8382 39.8431 16.8382 40.0606V48.1698C16.8382 48.3873 16.9246 48.596 17.0785 48.7498C17.2323 48.9037 17.441 48.9901 17.6585 48.9901ZM18.4788 44.9356H21.0568V47.3496H18.4788V44.9356ZM22.6975 47.3495V44.9355H25.2754V47.3495H22.6975ZM25.2754 43.295H22.6975V40.8809H25.2754V43.295ZM21.0568 40.8809V43.295H18.4788V40.8809H21.0568Z" fill="#F84923"/>
</svg>
