<svg width="60" height="60" viewBox="0 0 60 60" fill="none" xmlns="http://www.w3.org/2000/svg">
<g clip-path="url(#clip0_618_858)">
<path d="M14.2271 13.3273C14.0129 13.3682 13.8196 13.4825 13.6805 13.6506C13.5415 13.8187 13.4654 14.03 13.4654 14.2481V18.8223C13.4654 19.0404 13.5415 19.2518 13.6805 19.4198C13.8196 19.5879 14.0129 19.7023 14.2271 19.7432L16.8528 20.2447C17.1437 21.2776 17.5562 22.2722 18.0817 23.2078L16.5787 25.4204C16.4562 25.6009 16.4004 25.8184 16.4209 26.0355C16.4415 26.2527 16.5371 26.4559 16.6913 26.6101L19.9257 29.8445C20.08 29.9987 20.2831 30.0944 20.5003 30.1149C20.7175 30.1355 20.935 30.0797 21.1154 29.9571L23.328 28.4543C24.4433 29.0805 25.6417 29.5457 26.8874 29.8359C26.8951 29.8378 26.9027 29.8386 26.9108 29.8402V33.0069C26.9108 33.2556 27.0096 33.494 27.1854 33.6698C27.3612 33.8456 27.5997 33.9444 27.8483 33.9444H32.5833C32.8319 33.9444 33.0704 33.8456 33.2462 33.6698C33.422 33.494 33.5208 33.2556 33.5208 33.0069V29.7341C34.6212 29.4417 35.6803 29.0116 36.6731 28.4542L38.8858 29.9571C39.0663 30.0797 39.2838 30.1355 39.501 30.1149C39.7181 30.0944 39.9213 29.9987 40.0755 29.8445L43.3099 26.6101C43.4641 26.4559 43.5598 26.2527 43.5803 26.0355C43.6009 25.8184 43.5451 25.6009 43.4225 25.4204L41.9195 23.2078C42.445 22.2723 42.8575 21.2776 43.1483 20.2447L45.7741 19.7432C45.9884 19.7023 46.1817 19.5879 46.3207 19.4198C46.4598 19.2518 46.5358 19.0404 46.5358 18.8223V14.2481C46.5358 14.03 46.4598 13.8187 46.3207 13.6506C46.1817 13.4825 45.9884 13.3682 45.7741 13.3273L43.1483 12.8257C42.8575 11.7928 42.445 10.7982 41.9195 9.86273L43.4225 7.65C43.5451 7.46956 43.6009 7.25204 43.5803 7.03489C43.5598 6.81773 43.4641 6.61455 43.3099 6.46031L40.0755 3.22594C39.9213 3.07172 39.7181 2.97611 39.5009 2.95557C39.2838 2.93504 39.0663 2.99086 38.8858 3.11344L36.673 4.61625C35.7375 4.0907 34.7429 3.6782 33.71 3.38742L33.2085 0.761719C33.1676 0.547469 33.0532 0.354185 32.8852 0.215149C32.7171 0.0761142 32.5058 3.04503e-05 32.2877 0L27.7134 0C27.4953 3.04503e-05 27.284 0.0761142 27.116 0.215149C26.9479 0.354185 26.8336 0.547469 26.7927 0.761719L26.2911 3.38742C25.2583 3.67828 24.2636 4.09082 23.3281 4.61637L21.1154 3.11332C20.935 2.99075 20.7175 2.93492 20.5003 2.95545C20.2832 2.97599 20.08 3.0716 19.9257 3.22582L16.6913 6.4602C16.5371 6.61442 16.4415 6.81759 16.421 7.03471C16.4004 7.25184 16.4562 7.46934 16.5787 7.64977L18.0817 9.8625C17.5561 10.798 17.1437 11.7927 16.853 12.8256L14.2271 13.3273ZM31.6455 23.3116V32.0705H28.7862V23.4544C28.7861 23.2528 28.7211 23.0566 28.6008 22.8949C28.4805 22.7332 28.3112 22.6146 28.1182 22.5566C26.8823 22.1842 25.7846 21.4538 24.9638 20.4576C24.143 19.4615 23.636 18.2444 23.5068 16.9601C23.3776 15.6759 23.6321 14.3821 24.238 13.2425C24.844 12.1028 25.7742 11.1684 26.9112 10.5573V15.4596C26.9112 16.3361 27.2594 17.1768 27.8792 17.7966C28.499 18.4164 29.3396 18.7646 30.2161 18.7646C31.0927 18.7646 31.9333 18.4164 32.5531 17.7966C33.1729 17.1768 33.5211 16.3361 33.5211 15.4596V10.809C34.544 11.4643 35.3637 12.3919 35.8882 13.4875C36.4127 14.5832 36.6211 15.8034 36.49 17.011C36.3589 18.2187 35.8935 19.3658 35.1461 20.3233C34.3987 21.2809 33.399 22.011 32.2594 22.4314C32.0793 22.4976 31.9239 22.6175 31.8142 22.7748C31.7044 22.9321 31.6455 23.1192 31.6454 23.3111L31.6455 23.3116ZM18.5253 13.8479C18.8162 12.6008 19.3101 11.4099 19.9871 10.3228C20.083 10.1688 20.132 9.99022 20.1284 9.80884C20.1247 9.62745 20.0685 9.45102 19.9666 9.30094L18.5653 7.23844L20.7033 5.1L22.7658 6.50121C22.9158 6.60313 23.0922 6.65933 23.2736 6.66299C23.4549 6.66665 23.6335 6.61762 23.7875 6.52184C24.8746 5.84473 26.0655 5.35085 27.3128 5.05992C27.4894 5.0187 27.6503 4.92712 27.7759 4.79629C27.9016 4.66545 27.9865 4.50098 28.0206 4.32281L28.4888 1.875H31.5123L31.98 4.32281C32.014 4.50097 32.099 4.66543 32.2246 4.79626C32.3502 4.92709 32.5111 5.01868 32.6877 5.05992C33.9349 5.35089 35.1258 5.84473 36.2129 6.52172C36.367 6.61754 36.5455 6.66661 36.7269 6.66297C36.9083 6.65933 37.0847 6.60314 37.2348 6.50121L39.2973 5.1L41.4353 7.23785L40.0338 9.30035C39.9319 9.45041 39.8757 9.62681 39.872 9.80817C39.8684 9.98953 39.9174 10.1681 40.0132 10.3221C40.6903 11.4092 41.1843 12.6001 41.4752 13.8473C41.5164 14.024 41.608 14.1849 41.7388 14.3106C41.8697 14.4362 42.0341 14.5212 42.2123 14.5553L44.6607 15.0234V18.0469L42.2129 18.5146C42.0347 18.5486 41.8703 18.6336 41.7394 18.7592C41.6086 18.8848 41.517 19.0457 41.4758 19.2224C41.1849 20.4696 40.691 21.6606 40.0139 22.7476C39.9181 22.9017 39.869 23.0802 39.8727 23.2616C39.8764 23.443 39.9326 23.6194 40.0345 23.7695L41.4358 25.832L39.2979 27.9698L37.2354 26.5686C37.0853 26.4667 36.9089 26.4105 36.7276 26.4069C36.5462 26.4032 36.3677 26.4522 36.2136 26.548C35.3719 27.0715 34.4672 27.486 33.521 27.7814V23.9364C35.0298 23.2398 36.2983 22.1116 37.1661 20.6943C38.0339 19.2771 38.462 17.6343 38.3964 15.9738C38.3308 14.3132 37.7743 12.7094 36.7974 11.365C35.8205 10.0206 34.467 8.99604 32.9079 8.42074C32.7662 8.36848 32.6139 8.35123 32.4641 8.37047C32.3143 8.38971 32.1713 8.44487 32.0474 8.53125C31.9235 8.61763 31.8223 8.73267 31.7524 8.86658C31.6825 9.00049 31.646 9.1493 31.646 9.30035V15.4597C31.646 15.8389 31.4954 16.2025 31.2273 16.4707C30.9591 16.7388 30.5955 16.8894 30.2163 16.8894C29.8371 16.8894 29.4735 16.7388 29.2054 16.4707C28.9373 16.2025 28.7866 15.8389 28.7866 15.4597V9.15691C28.7866 9.01077 28.7524 8.86664 28.6868 8.73606C28.6211 8.60548 28.5259 8.49205 28.4086 8.40482C28.2914 8.3176 28.1553 8.259 28.0114 8.23371C27.8674 8.20841 27.7196 8.21712 27.5796 8.25914C25.8715 8.77853 24.3713 9.82442 23.2932 11.2474C22.1945 12.7048 21.6002 14.4803 21.6002 16.3055C21.6002 18.1306 22.1945 19.9061 23.2932 21.3635C24.2262 22.5944 25.4775 23.5472 26.9121 24.1194V27.9076C25.8106 27.6093 24.7586 27.1513 23.7897 26.5482C23.6357 26.4524 23.4571 26.4034 23.2758 26.4071C23.0944 26.4107 22.9179 26.4669 22.7679 26.5689L20.7054 27.9701L18.5674 25.8322L19.9687 23.7697C20.0707 23.6197 20.1268 23.4433 20.1305 23.2619C20.1342 23.0805 20.0851 22.902 19.9894 22.748C19.3122 21.6609 18.8183 20.47 18.5274 19.2227C18.4862 19.0461 18.3947 18.8852 18.2638 18.7595C18.133 18.6338 17.9685 18.5488 17.7903 18.5148L15.3404 18.0469V15.0234L17.7882 14.5559C17.9664 14.5218 18.1309 14.4368 18.2617 14.3112C18.3926 14.1855 18.4841 14.0246 18.5253 13.8479ZM10.2076 28.1179C9.75023 28.0913 9.29215 28.1559 8.85994 28.3078L6.4576 16.9247C6.4415 16.8483 6.41591 16.7742 6.38143 16.7041C6.12237 16.1779 5.70385 15.7469 5.1855 15.4724C4.66715 15.198 4.07541 15.0941 3.49458 15.1756C2.91375 15.2571 2.37345 15.5199 1.95067 15.9264C1.52789 16.3329 1.24419 16.8625 1.13998 17.4397C1.12711 17.5108 1.12251 17.5831 1.12627 17.6552L2.19092 38.0039C2.21904 38.697 2.42984 39.3703 2.80195 39.9557C3.17407 40.5411 3.69428 41.0177 4.3099 41.3373L10.6732 44.7357C10.7208 44.7582 10.7626 44.7912 10.7954 44.8324C10.8282 44.8736 10.851 44.9217 10.8622 44.9732L12.103 49.5618L11.2415 50.0592C10.8676 50.2757 10.5947 50.6317 10.4829 51.0491C10.371 51.4666 10.4293 51.9113 10.6449 52.2858L14.628 59.1848C14.7347 59.3705 14.8771 59.5332 15.0471 59.6634C15.217 59.7937 15.4111 59.8889 15.6181 59.9436C15.757 59.9811 15.9001 60 16.0439 60.0001C16.3287 60 16.6085 59.9246 16.8548 59.7817L28.433 53.0968C28.8069 52.8803 29.0798 52.5243 29.1917 52.1069C29.3036 51.6895 29.2453 51.2448 29.0298 50.8703L25.0465 43.9712C24.83 43.5972 24.474 43.3244 24.0566 43.2125C23.6392 43.1006 23.1944 43.1588 22.8199 43.3744L22.773 43.4014L22.2166 38.4871C22.1603 37.9411 21.9901 37.413 21.7171 36.9369C21.444 36.4607 21.0742 36.0471 20.6314 35.7227L10.7136 28.3031C10.5667 28.1932 10.3908 28.1288 10.2076 28.1179ZM27.2836 51.5958L16.1292 58.0358L12.3909 51.5607L23.5453 45.1208L27.2836 51.5958ZM20.3535 38.6982L21.0017 44.4241L13.783 48.592L12.6718 44.4844C12.5943 44.1856 12.4549 43.9065 12.2627 43.665C12.0706 43.4235 11.8299 43.225 11.5562 43.0823L5.19291 39.6839C4.86289 39.5157 4.58401 39.262 4.3853 38.9494C4.18659 38.6368 4.07533 38.2766 4.06311 37.9064L3.00596 17.685C3.05414 17.5159 3.1502 17.3644 3.28257 17.2487C3.41493 17.133 3.57795 17.0581 3.75195 17.0329C3.92595 17.0078 4.1035 17.0335 4.2632 17.107C4.4229 17.1806 4.55792 17.2987 4.65197 17.4472L7.20186 29.5331C7.11079 29.6572 7.02814 29.7873 6.95447 29.9224C6.64089 30.5012 6.49758 31.1569 6.54113 31.8138C6.58468 32.4706 6.81331 33.1017 7.20057 33.634C7.25543 33.709 7.32115 33.7754 7.39557 33.8311L12.3737 37.5554C12.4723 37.6292 12.5844 37.6828 12.7037 37.7132C12.823 37.7436 12.9471 37.7502 13.069 37.7326C13.1909 37.7151 13.3081 37.6737 13.4139 37.6108C13.5198 37.548 13.6122 37.4649 13.686 37.3663C13.7597 37.2677 13.8133 37.1556 13.8437 37.0363C13.8741 36.917 13.8807 36.7928 13.8632 36.671C13.8456 36.5491 13.8042 36.4319 13.7414 36.3261C13.6785 36.2202 13.5954 36.1278 13.4968 36.054L8.64479 32.4238C8.50225 32.1933 8.42073 31.9303 8.40788 31.6596C8.39504 31.3889 8.4513 31.1194 8.57137 30.8765C8.69143 30.6335 8.87136 30.4251 9.0942 30.2709C9.31704 30.1167 9.57547 30.0217 9.84514 29.995L19.5082 37.2243C19.7467 37.3948 19.9457 37.6147 20.0915 37.8691C20.2374 38.1234 20.3267 38.4062 20.3535 38.6982ZM22.3608 48.6929C22.2366 48.4775 22.2031 48.2216 22.2676 47.9815C22.3321 47.7414 22.4894 47.5367 22.7048 47.4125L22.7716 47.3741C22.8783 47.312 22.9962 47.2716 23.1186 47.2551C23.2409 47.2387 23.3653 47.2466 23.4846 47.2784C23.6039 47.3102 23.7158 47.3652 23.8138 47.4403C23.9117 47.5154 23.9939 47.6092 24.0556 47.7161C24.1172 47.8231 24.1571 47.9412 24.173 48.0636C24.1889 48.186 24.1805 48.3104 24.1482 48.4296C24.1159 48.5487 24.0604 48.6603 23.9848 48.758C23.9093 48.8556 23.8152 48.9374 23.708 48.9986L23.6412 49.037C23.5345 49.0986 23.4168 49.1385 23.2947 49.1545C23.1726 49.1706 23.0485 49.1624 22.9296 49.1304C22.8107 49.0985 22.6993 49.0434 22.6016 48.9683C22.504 48.8932 22.4222 48.7997 22.3608 48.6929ZM49.3282 44.7361L55.6915 41.3377C56.3071 41.018 56.8273 40.5413 57.1994 39.9558C57.5714 39.3704 57.7822 38.697 57.8102 38.0039L58.8744 17.6549C58.8782 17.5828 58.8736 17.5104 58.8607 17.4394C58.7565 16.8622 58.4728 16.3326 58.05 15.9261C57.6272 15.5195 57.0869 15.2568 56.5061 15.1753C55.9253 15.0938 55.3335 15.1976 54.8152 15.4721C54.2968 15.7465 53.8783 16.1776 53.6192 16.7038C53.5848 16.7738 53.5592 16.8479 53.5431 16.9243L51.1412 28.3078C50.709 28.1557 50.2509 28.0912 49.7935 28.1179C49.6102 28.1287 49.4341 28.1931 49.2871 28.3031L39.3694 35.7229C38.9266 36.0472 38.5567 36.4609 38.2837 36.937C38.0107 37.4132 37.8405 37.9413 37.7842 38.4873L37.2278 43.4016L37.1809 43.3745C36.8063 43.1589 36.3616 43.1007 35.9442 43.2126C35.5268 43.3245 35.1708 43.5973 34.9543 43.9713L30.9712 50.8711C30.7556 51.2456 30.6974 51.6904 30.8093 52.1078C30.9212 52.5252 31.1941 52.8812 31.5681 53.0977L43.1462 59.7825C43.3926 59.9256 43.6724 60.001 43.9572 60.0011C44.101 60.001 44.2442 59.982 44.383 59.9446C44.59 59.8899 44.7841 59.7946 44.954 59.6644C45.1239 59.5342 45.2663 59.3715 45.373 59.1859L49.3562 52.2868C49.5718 51.9123 49.6301 51.4676 49.5182 51.0502C49.4064 50.6328 49.1336 50.2768 48.7596 50.0603L47.8981 49.5628L49.1389 44.9741C49.15 44.9225 49.1729 44.8742 49.2057 44.8329C49.2385 44.7917 49.2804 44.7585 49.3282 44.7361ZM43.8719 58.0358L32.7177 51.5958L36.456 45.1208L47.6103 51.5607L43.8719 58.0358ZM47.329 44.484L46.218 48.592L38.9993 44.4241L39.6476 38.6982C39.6743 38.4062 39.7636 38.1234 39.9095 37.8691C40.0553 37.6147 40.2543 37.3948 40.4928 37.2243L50.1559 29.995C50.4256 30.0217 50.684 30.1167 50.9068 30.2709C51.1297 30.4251 51.3096 30.6335 51.4297 30.8765C51.5497 31.1194 51.606 31.3889 51.5931 31.6596C51.5803 31.9303 51.4988 32.1933 51.3562 32.4238L46.5038 36.054C46.3048 36.203 46.173 36.4249 46.1375 36.671C46.102 36.9171 46.1658 37.1672 46.3147 37.3663C46.4636 37.5654 46.6856 37.6972 46.9317 37.7326C47.1778 37.7681 47.4279 37.7044 47.627 37.5554L52.6051 33.8311C52.6795 33.7754 52.7452 33.709 52.8001 33.634C53.2359 33.0391 53.4707 32.3208 53.4705 31.5834C53.4704 30.846 53.2352 30.1278 52.7992 29.5331L55.349 17.4472C55.4431 17.2987 55.5781 17.1806 55.7378 17.107C55.8975 17.0335 56.0751 17.0078 56.2491 17.0329C56.4231 17.0581 56.5861 17.133 56.7184 17.2487C56.8508 17.3644 56.9469 17.5159 56.9951 17.685L55.9377 37.9063C55.9254 38.2765 55.8142 38.6367 55.6155 38.9493C55.4168 39.2619 55.1379 39.5156 54.8079 39.6838L48.4446 43.0822C48.171 43.2249 47.9303 43.4235 47.7382 43.665C47.5461 43.9065 47.4068 44.1857 47.3293 44.4844L47.329 44.484ZM37.2293 47.3741L37.296 47.4125C37.4032 47.4737 37.4973 47.5555 37.5728 47.6531C37.6484 47.7508 37.7039 47.8624 37.7362 47.9815C37.7685 48.1007 37.7769 48.2251 37.761 48.3475C37.7451 48.4699 37.7052 48.588 37.6436 48.695C37.5819 48.8019 37.4997 48.8957 37.4018 48.9708C37.3038 49.0459 37.1919 49.1009 37.0727 49.1327C36.9534 49.1645 36.829 49.1724 36.7066 49.156C36.5842 49.1395 36.4663 49.0991 36.3596 49.037L36.2928 48.9986C36.1862 48.9371 36.0927 48.8552 36.0177 48.7575C35.9426 48.6599 35.8876 48.5485 35.8556 48.4296C35.8237 48.3107 35.8155 48.1866 35.8315 48.0646C35.8475 47.9425 35.8873 47.8248 35.9488 47.7181C36.0103 47.6114 36.0922 47.5179 36.1898 47.4429C36.2875 47.3679 36.3989 47.3129 36.5178 47.2809C36.6367 47.249 36.7607 47.2408 36.8828 47.2567C37.0049 47.2727 37.1226 47.3126 37.2293 47.3741Z" fill="#F84923"/>
</g>
<defs>
<clipPath id="clip0_618_858">
<rect width="60" height="60" fill="white"/>
</clipPath>
</defs>
</svg>
