<svg width="60" height="60" viewBox="0 0 60 60" fill="none" xmlns="http://www.w3.org/2000/svg">
<g clip-path="url(#clip0_547_626)">
<path d="M9.39506 26.5253H18.461C18.767 26.5253 19.0605 26.4038 19.2769 26.1874C19.4933 25.971 19.6148 25.6775 19.6148 25.3715C19.6148 25.0655 19.4933 24.772 19.2769 24.5556C19.0605 24.3392 18.767 24.2177 18.461 24.2177H9.39506C9.08904 24.2177 8.79555 24.3392 8.57916 24.5556C8.36278 24.772 8.24121 25.0655 8.24121 25.3715C8.24121 25.6775 8.36278 25.971 8.57916 26.1874C8.79555 26.4038 9.08904 26.5253 9.39506 26.5253ZM9.39506 31.2858H14.7687C15.0747 31.2858 15.3682 31.1642 15.5846 30.9478C15.801 30.7314 15.9225 30.438 15.9225 30.1319C15.9225 29.8259 15.801 29.5324 15.5846 29.316C15.3682 29.0997 15.0747 28.9781 14.7687 28.9781H9.39506C9.08904 28.9781 8.79555 29.0997 8.57916 29.316C8.36278 29.5324 8.24121 29.8259 8.24121 30.1319C8.24121 30.438 8.36278 30.7314 8.57916 30.9478C8.79555 31.1642 9.08904 31.2858 9.39506 31.2858Z" fill="white"/>
<path d="M1.3184 55.7869H35.2876C35.5936 55.7869 35.8871 55.6653 36.1035 55.4489C36.3199 55.2325 36.4415 54.939 36.4415 54.633C36.4415 54.327 36.3199 54.0335 36.1035 53.8171C35.8871 53.6007 35.5936 53.4792 35.2876 53.4792H2.45906V2.40005H26.2678V11.2814C26.2696 12.9263 26.9238 14.5034 28.087 15.6666C29.2502 16.8298 30.8273 17.484 32.4722 17.4858H41.9997V24.2506C41.9997 24.5566 42.1213 24.8501 42.3377 25.0665C42.5541 25.2829 42.8475 25.4044 43.1536 25.4044C43.4596 25.4044 43.7531 25.2829 43.9695 25.0665C44.1858 24.8501 44.3074 24.5566 44.3074 24.2506V16.3385C44.3147 16.1821 44.2865 16.0261 44.2248 15.8822C44.1632 15.7383 44.0697 15.6103 43.9514 15.5077L28.2393 0.428624C28.0173 0.219862 27.7263 0.100155 27.4217 0.0923605H1.3184C1.16577 0.090616 1.01431 0.119173 0.872792 0.176378C0.731275 0.233583 0.602515 0.318298 0.49397 0.425616C0.385425 0.532935 0.299252 0.660724 0.240443 0.801582C0.181634 0.942439 0.151357 1.09357 0.151367 1.24621V54.6528C0.156574 54.9577 0.282247 55.2481 0.500924 55.4606C0.719601 55.6731 1.0135 55.7904 1.3184 55.7869ZM28.5755 3.9561L40.2788 15.1649H32.4722C31.4393 15.1631 30.4492 14.752 29.7188 14.0216C28.9884 13.2912 28.5773 12.3011 28.5755 11.2682V3.9561Z" fill="white"/>
<path d="M46.3186 30.521C46.2984 30.475 46.2741 30.4308 46.2461 30.3891C44.4302 27.5765 41.6436 25.5299 38.4165 24.6387C35.1895 23.7476 31.7475 24.0742 28.7456 25.5564C25.7438 27.0385 23.3918 29.5728 22.1374 32.6767C20.883 35.7806 20.8137 39.2374 21.9428 42.3891L18.7713 47.6638L11.7032 38.6243C11.5781 38.4651 11.4132 38.3416 11.2253 38.2663C11.0373 38.191 10.8328 38.1665 10.6324 38.1952C10.4319 38.2239 10.2426 38.3049 10.0833 38.43C9.9241 38.5551 9.80058 38.7199 9.72519 38.9078L6.42849 47.1298C6.31395 47.4139 6.31699 47.732 6.43693 48.0139C6.55687 48.2958 6.78389 48.5185 7.06805 48.6331C7.35221 48.7476 7.67023 48.7446 7.95216 48.6246C8.23408 48.5047 8.45681 48.2777 8.57135 47.9935L11.1428 41.6243L17.9867 50.3803C18.0942 50.5174 18.2313 50.6283 18.3877 50.7048C18.5442 50.7813 18.7159 50.8214 18.89 50.8221H18.9626C19.1487 50.8107 19.3293 50.7544 19.4889 50.6579C19.6486 50.5615 19.7824 50.4277 19.879 50.2682L23.1362 44.888C23.6924 45.8157 24.3564 46.6744 25.1142 47.4463C27.5264 49.856 30.7538 51.2745 34.1602 51.4222C37.5666 51.5699 40.9047 50.436 43.5164 48.2441L44.7164 49.5627C44.459 50.1434 44.3842 50.7885 44.502 51.4127C44.6197 52.0368 44.9245 52.6103 45.3757 53.0573L50.7691 58.3979C51.0588 58.6876 51.4026 58.9174 51.781 59.0741C52.1594 59.2309 52.565 59.3116 52.9746 59.3116C53.3843 59.3116 53.7899 59.2309 54.1683 59.0741C54.5467 58.9174 54.8905 58.6876 55.1801 58.3979C55.7635 57.8122 56.0911 57.0191 56.0911 56.1924C56.0911 55.3657 55.7635 54.5727 55.1801 53.9869L49.8131 48.6199C49.5242 48.3281 49.1801 48.0968 48.8009 47.9395C48.4217 47.7821 48.0149 47.7019 47.6043 47.7034C47.2018 47.7029 46.803 47.7813 46.4307 47.9342L45.2109 46.6155C47.0927 44.405 48.2178 41.6504 48.4219 38.7545C48.6259 35.8587 47.8981 32.9736 46.345 30.521H46.3186ZM46.9779 50.2551C47.0533 50.1797 47.1427 50.1199 47.2411 50.0791C47.3395 50.0383 47.445 50.0173 47.5516 50.0173C47.6581 50.0173 47.7636 50.0383 47.862 50.0791C47.9604 50.1199 48.0499 50.1797 48.1252 50.2551L53.4922 55.6221C53.6448 55.7753 53.7305 55.9828 53.7305 56.199C53.7305 56.4153 53.6448 56.6227 53.4922 56.7759C53.3358 56.9224 53.1296 57.0039 52.9153 57.0039C52.701 57.0039 52.4948 56.9224 52.3384 56.7759L47.0043 51.4287C46.9261 51.3524 46.8639 51.2614 46.8212 51.1609C46.7785 51.0604 46.7562 50.9524 46.7556 50.8432C46.7549 50.7341 46.776 50.6258 46.8176 50.5248C46.8592 50.4239 46.9204 50.3322 46.9977 50.2551H46.9779ZM42.7845 45.8045C41.1477 47.4723 39.0397 48.5991 36.7437 49.0336C34.4477 49.4681 32.0737 49.1894 29.9407 48.2351C27.8077 47.2807 26.0179 45.6964 24.8118 43.6949C23.6057 41.6935 23.041 39.3708 23.1937 37.0391C23.3464 34.7073 24.2091 32.4781 25.666 30.6511C27.1228 28.824 29.1039 27.4866 31.3432 26.8186C33.5824 26.1505 35.9725 26.1839 38.1922 26.9141C40.412 27.6443 42.355 29.0364 43.7604 30.9034L34.6087 39.6463L29.0109 33.5671C28.8872 33.4374 28.7358 33.3374 28.5679 33.2746C28.4 33.2118 28.2201 33.1878 28.0417 33.2045C27.8637 33.2235 27.6926 33.2833 27.5416 33.3794C27.3906 33.4755 27.2639 33.6052 27.1713 33.7583L25.0944 37.1935C24.9362 37.4558 24.8886 37.7702 24.9622 38.0676C25.0357 38.365 25.2244 38.621 25.4867 38.7792C25.749 38.9375 26.0635 38.9851 26.3608 38.9115C26.6582 38.8379 26.9142 38.6492 27.0724 38.3869L28.3516 36.2638L33.712 42.0792C33.9237 42.3036 34.2148 42.4361 34.523 42.4485H34.5626C34.8592 42.4488 35.1446 42.3356 35.3604 42.132L45.0197 32.9012C46.0302 35.0143 46.3605 37.3888 45.9649 39.6975C45.5693 42.0061 44.4673 44.1352 42.8109 45.7913L42.7845 45.8045ZM58.0219 17.4924H52.8131C52.5071 17.4924 52.2136 17.614 51.9972 17.8304C51.7808 18.0468 51.6593 18.3402 51.6593 18.6463C51.6593 18.9523 51.7808 19.2458 51.9972 19.4622C52.2136 19.6785 52.5071 19.8001 52.8131 19.8001H55.4505L47.4263 27.4287C47.2631 27.5885 47.1511 27.7932 47.1044 28.0167C47.0576 28.2403 47.0783 28.4727 47.1637 28.6845C47.2491 28.8963 47.3955 29.078 47.5843 29.2066C47.773 29.3351 47.9957 29.4048 48.2241 29.4067C48.5201 29.4077 48.8046 29.2916 49.0153 29.0836L56.8746 21.6133V23.8616C56.8746 24.1677 56.9962 24.4611 57.2126 24.6775C57.429 24.8939 57.7225 25.0155 58.0285 25.0155C58.3345 25.0155 58.628 24.8939 58.8444 24.6775C59.0608 24.4611 59.1823 24.1677 59.1823 23.8616V18.6463C59.1806 18.3396 59.0576 18.0462 58.8401 17.83C58.6227 17.6138 58.3285 17.4924 58.0219 17.4924ZM12.7845 16.7342C11.723 16.7342 10.8065 16.0748 10.8065 15.2704C10.8065 14.9644 10.6849 14.6709 10.4686 14.4545C10.2522 14.2382 9.95869 14.1166 9.65267 14.1166C9.34665 14.1166 9.05316 14.2382 8.83677 14.4545C8.62039 14.6709 8.49882 14.9644 8.49882 15.2704C8.49882 17.354 10.4175 19.0419 12.7713 19.0419H13.0681V19.5166C13.0681 19.8226 13.1896 20.1161 13.406 20.3325C13.6224 20.5489 13.9159 20.6704 14.2219 20.6704C14.5279 20.6704 14.8214 20.5489 15.0378 20.3325C15.2542 20.1161 15.3757 19.8226 15.3757 19.5166V19.0353C17.69 18.9957 19.5626 17.3276 19.5626 15.2704V15.1649C19.5417 14.3981 19.2577 13.6618 18.7583 13.0796C18.2589 12.4973 17.5744 12.1045 16.8197 11.9671L15.3757 11.6638V8.39351C16.4043 8.39351 17.2549 9.05285 17.2549 9.83747C17.2549 10.1435 17.3764 10.437 17.5928 10.6534C17.8092 10.8698 18.1027 10.9913 18.4087 10.9913C18.7147 10.9913 19.0082 10.8698 19.2246 10.6534C19.441 10.437 19.5626 10.1435 19.5626 9.83747C19.5626 7.78692 17.6966 6.12538 15.3757 6.07923V5.71659C15.3757 5.41057 15.2542 5.11709 15.0378 4.9007C14.8214 4.68431 14.5279 4.56274 14.2219 4.56274C13.9159 4.56274 13.6224 4.68431 13.406 4.9007C13.1896 5.11709 13.0681 5.41057 13.0681 5.71659V6.07263H12.7713C10.4175 6.07263 8.50541 7.76055 8.50541 9.83747V9.96934C8.54097 10.722 8.82589 11.4415 9.31531 12.0145C9.80472 12.5875 10.4708 12.9814 11.2087 13.1342L13.0878 13.5232V16.7342H12.7845ZM15.3889 13.9979L16.3252 14.1891C16.8988 14.3276 17.2681 14.6968 17.2681 15.1386V15.2704C17.2681 16.0419 16.4175 16.688 15.3889 16.7276V13.9979ZM11.6768 10.8726C11.4624 10.8238 11.2672 10.7126 11.1159 10.553C10.9645 10.3934 10.8637 10.1927 10.8263 9.97593V9.83747C10.8263 9.04626 11.723 8.38033 12.8043 8.38033H13.101V11.1627L11.6768 10.8726Z" fill="white"/>
</g>
<defs>
<clipPath id="clip0_547_626">
<rect width="60" height="60" fill="white"/>
</clipPath>
</defs>
</svg>
