<svg width="60" height="60" viewBox="0 0 60 60" fill="none" xmlns="http://www.w3.org/2000/svg">
<path d="M54.375 22.5C54.375 22.2514 54.2762 22.0129 54.1004 21.8371C53.9246 21.6613 53.6861 21.5625 53.4375 21.5625H37.5V6.5625C37.5 6.31386 37.4012 6.0754 37.2254 5.89959C37.0496 5.72377 36.8111 5.625 36.5625 5.625C35.6199 5.63006 34.6794 5.71158 33.75 5.86875V2.8125C33.75 2.56386 33.6512 2.3254 33.4754 2.14959C33.2996 1.97377 33.0611 1.875 32.8125 1.875H10.3125C10.064 1.87685 9.82564 1.97419 9.64687 2.14687L2.14687 9.64687C1.97419 9.82564 1.87685 10.064 1.875 10.3125V57.1875C1.875 57.4361 1.97377 57.6746 2.14959 57.8504C2.3254 58.0262 2.56386 58.125 2.8125 58.125H32.8125C33.0611 58.125 33.2996 58.0262 33.4754 57.8504C33.6512 57.6746 33.75 57.4361 33.75 57.1875V41.0063C34.6794 41.1634 35.6199 41.2449 36.5625 41.25C41.2854 41.2458 45.8136 39.3678 49.1532 36.0282C52.4928 32.6886 54.3708 28.1604 54.375 23.4375C54.375 23.1844 54.3656 22.9312 54.3563 22.6781C54.3676 22.6194 54.3739 22.5598 54.375 22.5ZM35.625 7.52812V22.1156L24.225 33.5156C22.3659 31.2429 21.1712 28.5006 20.7728 25.5915C20.3743 22.6825 20.7877 19.7199 21.9672 17.031C23.1468 14.3421 25.0466 12.0316 27.4568 10.3546C29.867 8.67764 32.6938 7.69946 35.625 7.52812ZM9.375 5.07187V9.375H5.07187L9.375 5.07187ZM31.875 56.25H3.75V11.25H10.3125C10.5611 11.25 10.7996 11.1512 10.9754 10.9754C11.1512 10.7996 11.25 10.5611 11.25 10.3125V3.75H31.875V6.27187C28.1061 7.29526 24.7787 9.53061 22.4065 12.6329C20.0342 15.7353 18.7489 19.5321 18.7489 23.4375C18.7489 27.3429 20.0342 31.1397 22.4065 34.2421C24.7787 37.3444 28.1061 39.5797 31.875 40.6031V56.25ZM36.5625 39.375C32.431 39.3751 28.4624 37.7641 25.5 34.8844L36.9469 23.4375H52.5C52.494 27.6626 50.813 31.7129 47.8254 34.7004C44.8379 37.688 40.7876 39.369 36.5625 39.375Z" fill="white"/>
<path d="M40.3125 19.6875H57.1875V19.6819C57.3123 19.6791 57.4353 19.6512 57.5491 19.5998C57.6629 19.5485 57.7652 19.4748 57.85 19.3832C57.9347 19.2915 58.0002 19.1837 58.0424 19.0663C58.0847 18.9488 58.1029 18.824 58.0959 18.6994C57.8472 14.1522 55.8647 9.87342 52.5566 6.74372C49.2485 3.61402 44.8665 1.87156 40.3125 1.87501C40.0639 1.87501 39.8254 1.97378 39.6496 2.14959C39.4738 2.32541 39.375 2.56386 39.375 2.81251V18.75C39.375 18.9986 39.4738 19.2371 39.6496 19.4129C39.8254 19.5887 40.0639 19.6875 40.3125 19.6875ZM56.1394 17.8125H41.25V3.77719C44.9854 3.99434 48.5249 5.52003 51.2476 8.08655C53.9703 10.6531 55.7022 14.0965 56.1394 17.8125ZM17.8125 37.5C16.1437 37.5 14.5124 37.9949 13.1249 38.922C11.7373 39.8491 10.6559 41.1669 10.0173 42.7086C9.37866 44.2504 9.21157 45.9469 9.53713 47.5836C9.86269 49.2203 10.6663 50.7237 11.8463 51.9037C13.0263 53.0837 14.5297 53.8873 16.1664 54.2129C17.8031 54.5384 19.4996 54.3713 21.0414 53.7327C22.5831 53.0941 23.9009 52.0127 24.828 50.6251C25.7552 49.2376 26.25 47.6063 26.25 45.9375C26.2465 43.7008 25.3565 41.5567 23.7749 39.9751C22.1933 38.3935 20.0492 37.5035 17.8125 37.5ZM17.8125 52.5C16.5146 52.5 15.2458 52.1151 14.1666 51.394C13.0874 50.6729 12.2462 49.648 11.7495 48.4489C11.2528 47.2497 11.1229 45.9302 11.3761 44.6572C11.6293 43.3842 12.2543 42.2149 13.1721 41.2971C14.0899 40.3793 15.2592 39.7543 16.5322 39.5011C17.8052 39.2479 19.1247 39.3778 20.3239 39.8745C21.523 40.3712 22.5479 41.2124 23.269 42.2916C23.9901 43.3708 24.375 44.6396 24.375 45.9375C24.373 47.6774 23.681 49.3454 22.4507 50.5757C21.2204 51.806 19.5524 52.498 17.8125 52.5Z" fill="white"/>
<path d="M20.625 47.8125C20.622 48.3924 20.4404 48.9574 20.1049 49.4304C19.7694 49.9035 19.2963 50.2617 18.75 50.4562V51.5625H16.875V50.4562C16.3287 50.2617 15.8556 49.9035 15.5201 49.4304C15.1846 48.9574 15.003 48.3924 15 47.8125H16.875C16.875 47.9979 16.93 48.1792 17.033 48.3333C17.136 48.4875 17.2824 48.6077 17.4537 48.6786C17.625 48.7496 17.8135 48.7682 17.9954 48.732C18.1773 48.6958 18.3443 48.6065 18.4754 48.4754C18.6065 48.3443 18.6958 48.1773 18.732 47.9954C18.7682 47.8135 18.7496 47.625 18.6786 47.4537C18.6077 47.2824 18.4875 47.136 18.3333 47.033C18.1792 46.93 17.9979 46.875 17.8125 46.875C17.1529 46.8699 16.5161 46.6331 16.0134 46.2061C15.5107 45.779 15.1741 45.1889 15.0624 44.5389C14.9507 43.8888 15.0711 43.2201 15.4024 42.6498C15.7337 42.0795 16.255 41.6437 16.875 41.4188V40.3125H18.75V41.4188C19.2963 41.6133 19.7694 41.9715 20.1049 42.4446C20.4404 42.9176 20.622 43.4826 20.625 44.0625H18.75C18.75 43.8771 18.695 43.6958 18.592 43.5417C18.489 43.3875 18.3426 43.2673 18.1713 43.1964C18 43.1254 17.8115 43.1068 17.6296 43.143C17.4477 43.1792 17.2807 43.2685 17.1496 43.3996C17.0185 43.5307 16.9292 43.6977 16.893 43.8796C16.8568 44.0615 16.8754 44.25 16.9464 44.4213C17.0173 44.5926 17.1375 44.739 17.2917 44.842C17.4458 44.945 17.6271 45 17.8125 45C18.5577 45.0022 19.2718 45.2993 19.7988 45.8262C20.3257 46.3532 20.6228 47.0673 20.625 47.8125ZM7.5 15H16.875V16.875H7.5V15ZM7.5 20.625H16.875V22.5H7.5V20.625ZM7.5 26.25H16.875V28.125H7.5V26.25ZM7.5 31.875H16.875V33.75H7.5V31.875ZM37.5 45H41.25V46.875H37.5V45ZM43.125 45H58.125V46.875H43.125V45ZM37.5 50.625H41.25V52.5H37.5V50.625ZM43.125 50.625H58.125V52.5H43.125V50.625ZM37.5 56.25H41.25V58.125H37.5V56.25ZM43.125 56.25H58.125V58.125H43.125V56.25Z" fill="white"/>
</svg>
