<svg width="60" height="60" viewBox="0 0 60 60" fill="none" xmlns="http://www.w3.org/2000/svg">
<g clip-path="url(#clip0_547_633)">
<path d="M17.2877 25.6298H55.8991C56.4373 25.6296 56.9702 25.7358 57.4672 25.9423C57.9642 26.1488 58.4155 26.4515 58.795 26.833V26.8401C59.176 27.2187 59.4784 27.6687 59.685 28.1645C59.8916 28.6602 59.9982 29.1919 59.9988 29.729V55.8998C59.9988 57.0248 59.5366 58.0532 58.795 58.7948C58.4156 59.1765 57.9644 59.4794 57.4674 59.686C56.9703 59.8926 56.4373 59.9988 55.8991 59.9985H17.2877C16.7496 59.9982 16.2169 59.8917 15.72 59.6852C15.2232 59.4786 14.7719 59.176 14.3922 58.7948C14.0106 58.4154 13.7078 57.9644 13.5012 57.4675C13.2946 56.9707 13.1883 56.4378 13.1885 55.8998V29.729C13.1885 28.6035 13.6502 27.5751 14.3922 26.833C14.7721 26.4521 15.2234 26.1497 15.7202 25.9432C16.217 25.7368 16.7497 25.6302 17.2877 25.6298ZM55.8991 27.5038H17.2877C16.996 27.5046 16.7072 27.563 16.4382 27.6757C16.1691 27.7884 15.9249 27.9531 15.7197 28.1605C15.5122 28.3658 15.3473 28.61 15.2345 28.8791C15.1217 29.1483 15.0633 29.4371 15.0625 29.729V55.8998C15.0625 56.5115 15.3161 57.0707 15.7197 57.4743C15.9253 57.6807 16.1697 57.8444 16.4388 57.956C16.7079 58.0676 16.9964 58.1248 17.2877 58.1245H55.8991C56.1914 58.1249 56.4809 58.0676 56.7511 57.9561C57.0212 57.8445 57.2668 57.6808 57.4736 57.4743C57.6802 57.2675 57.8441 57.022 57.9558 56.7518C58.0675 56.4816 58.1249 56.1921 58.1247 55.8998V29.729C58.1251 29.4366 58.0678 29.147 57.956 28.8769C57.8443 28.6067 57.6804 28.3612 57.4736 28.1544V28.161C57.0566 27.7419 56.4903 27.5055 55.8991 27.5038Z" fill="white"/>
<path d="M28.7663 17.8153H44.4282C45.3197 17.8153 46.1391 18.1795 46.725 18.7716C47.3105 19.3636 47.6818 20.1773 47.6818 21.0684V27.5034H41.8519V23.5219H31.343V27.5039H25.5127V21.0684C25.5127 20.6412 25.5969 20.2181 25.7604 19.8234C25.9239 19.4287 26.1636 19.07 26.4657 18.768C26.7678 18.4659 27.1265 18.2263 27.5212 18.0628C27.916 17.8993 28.339 17.8152 28.7663 17.8153ZM44.4277 19.6894H28.7663C28.3885 19.6894 28.0439 19.845 27.7899 20.0991C27.5326 20.3561 27.3878 20.7047 27.3872 21.0684V25.6294H29.4689V21.6478H43.726V25.6298H45.8077V21.0689C45.8077 20.6911 45.6516 20.3466 45.4046 20.0995H45.3975C45.2716 19.9697 45.1208 19.8665 44.9542 19.7961C44.7876 19.7256 44.6086 19.6893 44.4277 19.6894Z" fill="white"/>
<path d="M10.3519 50.857C10.8661 50.857 11.2889 51.2728 11.2889 51.7936C11.2877 52.0417 11.1885 52.2793 11.0131 52.4546C10.8376 52.63 10.6 52.729 10.3519 52.7302H2.81109C2.04328 52.7302 1.34063 52.4114 0.826406 51.9042V51.8977C0.564831 51.6375 0.357184 51.3283 0.215371 50.9877C0.0735574 50.6471 0.000368236 50.2819 0 49.913L0 2.81062C0 2.04281 0.31875 1.34016 0.826406 0.826406C1.08653 0.56479 1.39576 0.357115 1.73634 0.215299C2.07693 0.0734828 2.44216 0.000316992 2.81109 0L29.1694 0C29.573 0 29.9503 0.0782812 30.3023 0.234375C30.6554 0.397262 30.9736 0.626956 31.2394 0.910781L38.3123 8.47828C38.3316 8.49797 38.3447 8.51719 38.3644 8.53687C38.5807 8.78043 38.7523 9.06017 38.8716 9.36328C38.992 9.68824 39.0538 10.032 39.0539 10.3786V14.9723C39.0538 15.2208 38.955 15.4591 38.7793 15.6348C38.6036 15.8105 38.3654 15.9093 38.1169 15.9094C37.9933 15.91 37.8709 15.8862 37.7566 15.8394C37.6422 15.7926 37.5383 15.7237 37.4506 15.6367C37.3629 15.5497 37.2933 15.4462 37.2457 15.3322C37.1982 15.2182 37.1735 15.0959 37.1733 14.9723V10.3786C37.1733 10.2483 37.1606 10.1316 37.1213 10.027C37.0824 9.94184 37.0344 9.86106 36.9783 9.78609C36.9652 9.77344 36.9516 9.76688 36.9389 9.75375L29.8725 2.18625C29.7792 2.08729 29.6691 2.0057 29.5472 1.94531C29.4274 1.89676 29.2991 1.87254 29.1698 1.87406H2.81109C2.68833 1.87393 2.56682 1.89866 2.45387 1.94676C2.34093 1.99485 2.23889 2.06532 2.15391 2.15391L2.14734 2.14734C1.97813 2.31609 1.87406 2.55703 1.87406 2.81062V49.913C1.87406 50.1731 1.97813 50.4075 2.14734 50.5767L2.15391 50.5833C2.32313 50.7464 2.55703 50.857 2.81109 50.857H10.3519Z" fill="white"/>
<path d="M33.1973 42.7106L17.1191 39.6581C16.0326 39.4565 15.0299 38.9817 14.3085 38.2593C13.618 37.5698 13.1887 36.6656 13.1887 35.5786H15.0627C15.0627 36.1317 15.2845 36.5873 15.6355 36.9389C16.0846 37.3809 16.7418 37.687 17.4641 37.8234L33.5423 40.875L33.1973 42.7106ZM59.9985 35.5786C59.9985 36.6651 59.5691 37.5632 58.8791 38.2528V38.2593C58.1568 38.9817 57.1551 39.457 56.0751 39.6581L39.9965 42.7359L39.6454 40.9012L55.7235 37.8234C56.4524 37.6804 57.1096 37.3814 57.5582 36.9389C57.7396 36.7621 57.8832 36.5505 57.9805 36.3167C58.0779 36.0829 58.1268 35.8318 58.1245 35.5786H59.9985ZM23.8795 8.37371C24.3998 8.37371 24.8165 8.79043 24.8165 9.31074C24.8164 9.55922 24.7176 9.79749 24.5419 9.97319C24.3662 10.1489 24.1279 10.2476 23.8795 10.2478H10.8013C10.6758 10.2517 10.5507 10.2304 10.4336 10.1851C10.3164 10.1398 10.2096 10.0715 10.1193 9.98405C10.0291 9.89665 9.9574 9.79201 9.90841 9.67634C9.85943 9.56068 9.83419 9.43635 9.83419 9.31074C9.83419 9.18513 9.85943 9.0608 9.90841 8.94514C9.9574 8.82948 10.0291 8.72484 10.1193 8.63743C10.2096 8.55003 10.3164 8.48164 10.4336 8.43634C10.5507 8.39104 10.6758 8.36974 10.8013 8.37371H23.8795ZM6.33695 8.37371C6.85773 8.37371 7.28102 8.79043 7.28102 9.31074C7.27953 9.56002 7.17936 9.79856 7.00244 9.97416C6.82551 10.1498 6.58623 10.2481 6.33695 10.2478H5.63477C5.12008 10.2478 4.69727 9.82496 4.69727 9.31074C4.69739 9.06218 4.79622 8.82385 4.97202 8.64813C5.14782 8.47242 5.38621 8.37371 5.63477 8.37371H6.33695ZM17.7173 16.8782C18.2315 16.8782 18.6543 17.3006 18.6543 17.8153C18.6543 18.3356 18.2315 18.7518 17.7173 18.7518H10.8009C10.5587 18.7425 10.3296 18.6396 10.1615 18.465C9.99352 18.2903 9.89966 18.0574 9.89966 17.815C9.89966 17.5727 9.99352 17.3397 10.1615 17.1651C10.3296 16.9904 10.5587 16.8876 10.8009 16.8782H17.7173ZM6.33742 16.8782C6.85773 16.8782 7.28102 17.3006 7.28102 17.8153C7.28102 18.3356 6.8582 18.7518 6.33742 18.7518H5.63477C5.38629 18.7518 5.14797 18.6532 4.97218 18.4776C4.7964 18.302 4.69751 18.0638 4.69727 17.8153C4.69727 17.3011 5.12008 16.8782 5.63477 16.8782H6.33742ZM23.8795 12.629C24.3998 12.629 24.8165 13.0457 24.8165 13.5661C24.8164 13.8145 24.7176 14.0528 24.5419 14.2285C24.3662 14.4042 24.1279 14.503 23.8795 14.5031H10.8013C10.6758 14.5071 10.5507 14.4858 10.4336 14.4405C10.3164 14.3952 10.2096 14.3268 10.1193 14.2394C10.0291 14.152 9.9574 14.0473 9.90841 13.9317C9.85943 13.816 9.83419 13.6917 9.83419 13.5661C9.83419 13.4404 9.85943 13.3161 9.90841 13.2005C9.9574 13.0848 10.0291 12.9801 10.1193 12.8927C10.2096 12.8053 10.3164 12.737 10.4336 12.6917C10.5507 12.6463 10.6758 12.6251 10.8013 12.629H23.8795ZM6.33695 12.629C6.85773 12.629 7.28102 13.0457 7.28102 13.5661C7.27941 13.8153 7.1792 14.0538 7.0023 14.2293C6.8254 14.4049 6.5862 14.5033 6.33695 14.5031H5.63477C5.12008 14.5031 4.69727 14.0803 4.69727 13.5661C4.69739 13.3175 4.79622 13.0792 4.97202 12.9034C5.14782 12.7277 5.38621 12.629 5.63477 12.629H6.33695ZM30.1326 0.344492L38.6624 9.60371C38.8297 9.78659 38.9176 10.0284 38.9066 10.2761C38.8956 10.5237 38.7867 10.7568 38.6038 10.9242C38.4322 11.0831 38.2069 11.1715 37.9729 11.1717H32.0976C31.6211 11.1715 31.1493 11.0771 30.7093 10.8941C30.2694 10.711 29.8699 10.4427 29.534 10.1048L29.4754 10.0462C28.8276 9.37302 28.4661 8.47496 28.4666 7.54074V0.936992C28.4668 0.688433 28.5656 0.450097 28.7414 0.274383C28.9172 0.0986686 29.1556 -3.90935e-05 29.4041 -3.90625e-05C29.6962 -3.90625e-05 29.9568 0.136367 30.1326 0.344492ZM35.8391 9.29809L30.3407 3.33746V7.54121C30.3399 7.98823 30.51 8.41867 30.816 8.74449L30.8554 8.78387C31.0185 8.94693 31.2122 9.07623 31.4253 9.16439C31.6385 9.25254 31.8669 9.29781 32.0976 9.29762L35.8391 9.29809ZM42.606 5.04887C42.5817 5.16936 42.5337 5.28382 42.4648 5.38558C42.3958 5.48735 42.3073 5.57437 42.2044 5.6416C42.1015 5.70882 41.9862 5.7549 41.8653 5.77715C41.7444 5.79941 41.6203 5.79739 41.5002 5.77121C41.3801 5.74688 41.266 5.69911 41.1643 5.63065C41.0627 5.56218 40.9755 5.47435 40.9078 5.37218C40.8401 5.27001 40.7932 5.1555 40.7698 5.0352C40.7464 4.91489 40.7469 4.79116 40.7713 4.67105L41.1295 2.96621L41.5977 0.747617C41.6414 0.536438 41.7564 0.346724 41.9234 0.210388C42.0905 0.0740519 42.2994 -0.000587998 42.5151 -0.000976562H45.7945C46.2693 -0.000976562 46.6602 0.350586 46.7249 0.812305L47.4145 4.09168C47.8959 4.22855 48.3646 4.39121 48.8198 4.57965C49.282 4.76855 49.7305 4.9898 50.1599 5.23074L53.0296 3.35668C53.2086 3.24125 53.4218 3.19059 53.6336 3.2131C53.8455 3.23561 54.0432 3.32995 54.194 3.48043H54.201L55.3593 4.63871C55.372 4.6584 55.3916 4.67152 55.4052 4.69074L56.5176 5.80355C56.8424 6.1223 56.8757 6.62996 56.6221 6.99418L54.7673 9.83715C55.0135 10.2702 55.233 10.7179 55.4245 11.1778C55.6068 11.6329 55.7695 12.1017 55.9059 12.5831L59.2504 13.2923C59.4704 13.3353 59.6674 13.4565 59.805 13.6335C59.9426 13.8105 60.0115 14.0313 59.999 14.2551V17.4834C59.999 17.9582 59.6479 18.3553 59.1857 18.4139L55.9063 19.1034C55.7724 19.5805 55.6116 20.0497 55.4249 20.5087C55.1566 21.1562 54.8323 21.7791 54.4555 22.3701C54.3904 22.4751 54.3051 22.5661 54.2045 22.6378C54.1039 22.7095 53.99 22.7604 53.8695 22.7876C53.749 22.8148 53.6243 22.8178 53.5026 22.7964C53.3809 22.7749 53.2648 22.7294 53.1609 22.6626C52.9512 22.5288 52.8033 22.3172 52.7496 22.0743C52.6959 21.8315 52.7408 21.5772 52.8745 21.3675C53.5026 20.3804 53.9582 19.2937 54.2216 18.1537C54.2526 17.9683 54.3387 17.7965 54.4687 17.6607C54.5987 17.5249 54.7666 17.4314 54.9505 17.3925L58.1249 16.7287V15.8437H58.1315V14.9653L54.9496 14.295C54.774 14.2583 54.6125 14.1719 54.4845 14.0462C54.3564 13.9205 54.2672 13.7607 54.2273 13.5857C54.1009 13.007 53.9224 12.441 53.6938 11.8945C53.4663 11.347 53.1918 10.8202 52.8735 10.32C52.779 10.1684 52.7294 9.99321 52.7306 9.81464C52.7318 9.63606 52.7836 9.46148 52.8801 9.31121L54.6571 6.59152L54.0838 6.01262C54.0646 5.99996 54.0519 5.98637 54.0318 5.96668L53.4074 5.3423L50.7459 7.07949C50.5943 7.19577 50.4107 7.26252 50.2198 7.27065C50.029 7.27879 49.8403 7.22792 49.6795 7.12496C49.1791 6.8071 48.6523 6.53281 48.1049 6.30512C47.5716 6.08459 47.021 5.90837 46.4587 5.77824C46.2736 5.74812 46.1021 5.66216 45.9673 5.53189C45.8324 5.40162 45.7405 5.23326 45.704 5.04934L45.0327 1.87355H43.2693L42.9637 3.34402L42.606 5.04887ZM44.1548 10.0396C43.634 10.0396 43.2173 9.62293 43.2173 9.10262C43.2173 8.5823 43.634 8.16559 44.1548 8.16559C46.2754 8.16559 48.1949 9.02481 49.5876 10.417C50.3007 11.1291 50.8661 11.9751 51.2514 12.9064C51.6366 13.8377 51.8341 14.8359 51.8324 15.8437C51.8337 16.395 51.7747 16.9449 51.6566 17.4834C51.539 18.0208 51.3648 18.5442 51.1368 19.0448C51.033 19.2707 50.8438 19.4463 50.6108 19.5329C50.3778 19.6196 50.1199 19.6103 49.8937 19.507C49.7825 19.4558 49.6826 19.3831 49.5995 19.2932C49.5165 19.2033 49.452 19.0979 49.4097 18.9831C49.3674 18.8682 49.3482 18.7462 49.3531 18.6239C49.3581 18.5016 49.3871 18.3815 49.4385 18.2704C49.6073 17.9062 49.7376 17.5092 49.8285 17.0925C49.9134 16.6893 49.9588 16.2726 49.9588 15.8432C49.9588 14.2425 49.3082 12.7912 48.2605 11.7375C47.1707 10.6503 45.6941 10.0398 44.1548 10.0396Z" fill="white"/>
<path d="M33.5033 35.6052H39.6908C40.1793 35.6052 40.6213 35.8068 40.9405 36.1251L40.9471 36.1316C41.2797 36.4652 41.4668 36.9168 41.4674 37.3879V44.2462C41.4674 45.5863 40.9213 46.8032 40.0358 47.6877C39.1579 48.5732 37.9344 49.1198 36.5938 49.1198C35.2532 49.1198 34.0363 48.5732 33.1518 47.6877C32.2729 46.8032 31.7197 45.5868 31.7197 44.2462V37.3879C31.7197 36.8999 31.9218 36.4504 32.2471 36.1316V36.1251C32.5815 35.7938 33.0326 35.6071 33.5033 35.6052ZM39.5938 37.4793H33.6008V44.2462C33.6001 44.6393 33.6773 45.0286 33.8281 45.3917C33.9789 45.7547 34.2002 46.0842 34.4793 46.3612C34.7561 46.6406 35.0854 46.8625 35.4483 47.0143C35.8112 47.1661 36.2005 47.2447 36.5938 47.2457C36.9882 47.2455 37.3787 47.1672 37.7427 47.0154C38.1068 46.8636 38.4372 46.6412 38.7149 46.3612C39.2761 45.8002 39.5922 45.0397 39.5938 44.2462V37.4793Z" fill="white"/>
<path d="M36.5933 45.059C37.1108 45.059 37.5303 44.6395 37.5303 44.122C37.5303 43.6045 37.1108 43.1849 36.5933 43.1849C36.0758 43.1849 35.6562 43.6045 35.6562 44.122C35.6562 44.6395 36.0758 45.059 36.5933 45.059Z" fill="white"/>
</g>
<defs>
<clipPath id="clip0_547_633">
<rect width="60" height="60" fill="white"/>
</clipPath>
</defs>
</svg>
