<svg width="60" height="60" viewBox="0 0 60 60" fill="none" xmlns="http://www.w3.org/2000/svg">
<g clip-path="url(#clip0_618_849)">
<path fill-rule="evenodd" clip-rule="evenodd" d="M30.0007 58.8388C29.8298 58.9864 29.6115 59.0676 29.3857 59.0676H1.76536C1.63329 59.0676 1.5027 59.0397 1.38208 58.986C1.26146 58.9322 1.15351 58.8536 1.06525 58.7554C0.97699 58.6571 0.910395 58.5414 0.869795 58.4157C0.829194 58.29 0.815498 58.1572 0.829597 58.0259C1.47313 52.0331 5.68324 47.1076 11.2944 45.4177C9.08395 43.9997 7.61442 41.5196 7.61442 38.7077C7.61442 34.3219 11.1897 30.743 15.5755 30.743C19.9654 30.743 23.5403 34.322 23.5403 38.7077C23.5403 41.5196 22.0708 43.9999 19.859 45.4179C24.8782 46.9292 28.775 51.0279 30.0011 56.1632C31.2295 51.0276 35.1269 46.9288 40.1448 45.4177C37.9342 43.9997 36.4647 41.5196 36.4647 38.7077C36.4647 34.3219 40.04 30.743 44.4258 30.743C48.8157 30.743 52.3905 34.322 52.3905 38.7077C52.3905 41.5196 50.921 43.9999 48.7094 45.4179C54.3222 47.108 58.5315 52.0337 59.1718 58.0264C59.1858 58.1577 59.172 58.2904 59.1314 58.416C59.0907 58.5416 59.0241 58.6573 58.9359 58.7555C58.8476 58.8537 58.7397 58.9322 58.6191 58.986C58.4985 59.0397 58.368 59.0675 58.236 59.0676H30.6156C30.3898 59.0676 30.1716 58.9864 30.0007 58.8388ZM15.5755 46.6725C9.2583 46.6725 3.99748 51.1984 2.85607 57.1852H28.2955C27.1572 51.1983 21.896 46.6725 15.5755 46.6725ZM15.5755 44.7901C18.9279 44.7901 21.6579 42.0569 21.6579 38.7077C21.6579 35.3585 18.9279 32.6253 15.5755 32.6253C12.2264 32.6253 9.49677 35.3586 9.49677 38.7077C9.49677 42.0567 12.2264 44.7901 15.5755 44.7901ZM44.4258 46.6725C38.1087 46.6725 32.8477 51.1984 31.7063 57.1852H57.1458C56.0076 51.1983 50.7463 46.6725 44.4258 46.6725ZM44.4258 44.7901C47.7782 44.7901 50.5082 42.0569 50.5082 38.7077C50.5082 35.3585 47.7782 32.6253 44.4258 32.6253C41.0768 32.6253 38.347 35.3586 38.347 38.7077C38.347 42.0567 41.0768 44.7901 44.4258 44.7901ZM20.7124 20.2811H19.5669L14.9691 25.0673C14.8391 25.2028 14.6715 25.2962 14.4879 25.3356C14.3043 25.375 14.1131 25.3586 13.9389 25.2885C13.7647 25.2184 13.6155 25.0978 13.5104 24.9422C13.4053 24.7866 13.3491 24.6031 13.3491 24.4153V20.2811H12.1825C10.2912 20.2811 8.74877 18.7424 8.74877 16.8512V4.36614C8.74877 2.47532 10.2916 0.932495 12.1825 0.932495H30.4255C32.2936 0.932495 33.8221 2.4385 33.8584 4.29826H46.3512C48.2421 4.29826 49.7849 5.84097 49.7849 7.73191V20.2168C49.7849 22.1081 48.2425 23.6467 46.3512 23.6467H45.1845V27.781C45.1845 27.9687 45.1283 28.1521 45.0232 28.3077C44.9181 28.4632 44.7689 28.5838 44.5948 28.6539C44.4206 28.724 44.2295 28.7405 44.0459 28.7011C43.8624 28.6618 43.6948 28.5684 43.5647 28.4331L38.9669 23.6467H32.9305L24.6917 34.7744C24.5598 34.9526 24.3692 35.0784 24.1535 35.1298C23.9379 35.1812 23.711 35.1549 23.5129 35.0554C23.3147 34.9558 23.1581 34.7896 23.0706 34.5859C22.9831 34.3822 22.9703 34.1541 23.0344 33.9419L26.0445 23.9884H20.1114C19.9438 23.9884 19.7793 23.9437 19.6348 23.8588C19.4903 23.774 19.3711 23.6521 19.2894 23.5058C19.2078 23.3594 19.1667 23.194 19.1704 23.0265C19.1741 22.8589 19.2224 22.6954 19.3104 22.5528L20.7124 20.2811ZM33.8591 6.18061V16.8512C33.8591 17.0017 33.8494 17.15 33.8304 17.2954L35.7616 17.309C35.9353 17.3102 36.1053 17.3594 36.2528 17.4513C36.4002 17.5432 36.5194 17.6741 36.597 17.8295C36.6747 17.985 36.7078 18.1588 36.6927 18.3319C36.6776 18.505 36.6149 18.6705 36.5115 18.8101L34.3242 21.7644H39.3678C39.4946 21.7644 39.6201 21.79 39.7367 21.8397C39.8533 21.8894 39.9587 21.9621 40.0465 22.0536L43.3022 25.4427V22.7056C43.3022 22.4559 43.4013 22.2165 43.5779 22.04C43.7544 21.8635 43.9937 21.7644 44.2434 21.7644H46.3512C47.2051 21.7644 47.9025 21.0707 47.9025 20.2168V7.73191C47.9025 6.87755 47.2056 6.18061 46.3512 6.18061H33.8591ZM31.9155 17.282C31.9554 17.1452 31.9768 17.0006 31.9768 16.8512V4.36614C31.9768 3.51191 31.2797 2.81485 30.4255 2.81485H12.1825C11.3282 2.81485 10.6311 3.51191 10.6311 4.36614V16.8512C10.6311 17.7051 11.3287 18.3987 12.1825 18.3987H14.2903C14.5399 18.3987 14.7793 18.4979 14.9558 18.6744C15.1323 18.8509 15.2315 19.0903 15.2315 19.3399V22.077L18.4872 18.6879C18.575 18.5965 18.6804 18.5237 18.7971 18.474C18.9137 18.4243 19.0392 18.3987 19.1659 18.3987H21.8741L28.7372 7.27779C28.8492 7.09642 29.0193 6.9584 29.2199 6.88632C29.4204 6.81423 29.6395 6.81234 29.8413 6.88096C30.043 6.94959 30.2155 7.08465 30.3306 7.26407C30.4456 7.44348 30.4963 7.65662 30.4744 7.86861L29.5061 17.2651L31.9155 17.282ZM14.7832 12.0959C14.2637 12.0959 13.8421 11.6743 13.8421 11.1547C13.8421 10.6353 14.2637 10.2136 14.7832 10.2136H21.3039C21.8234 10.2136 22.2451 10.6353 22.2451 11.1547C22.2451 11.6743 21.8234 12.0959 21.3039 12.0959H14.7832ZM14.7832 7.9125C14.2637 7.9125 13.8421 7.49085 13.8421 6.97132C13.8421 6.45191 14.2637 6.03014 14.7832 6.03014H23.4436C23.963 6.03014 24.3848 6.45191 24.3848 6.97132C24.3848 7.49085 23.963 7.9125 23.4436 7.9125H14.7832ZM36.3608 16.1774C35.8414 16.1774 35.4196 15.7557 35.4196 15.2363C35.4196 14.7167 35.8414 14.2951 36.3608 14.2951H45.0212C45.5407 14.2951 45.9624 14.7167 45.9624 15.2363C45.9624 15.7557 45.5407 16.1774 45.0212 16.1774H36.3608ZM36.3608 11.9939C35.8414 11.9939 35.4196 11.5723 35.4196 11.0527C35.4196 10.5333 35.8414 10.1116 36.3608 10.1116H45.0212C45.5407 10.1116 45.9624 10.5333 45.9624 11.0527C45.9624 11.5723 45.5407 11.9939 45.0212 11.9939H36.3608ZM28.1807 11.7639L21.7982 22.106H27.3124C27.4593 22.106 27.6042 22.1403 27.7354 22.2064C27.8667 22.2724 27.9806 22.3682 28.0682 22.4861C28.1557 22.6041 28.2145 22.7409 28.2397 22.8856C28.2648 23.0303 28.2558 23.179 28.2132 23.3196L26.4061 29.2956L33.8968 19.1784L28.457 19.1401C28.3258 19.1392 28.1963 19.1109 28.0767 19.057C27.9571 19.0031 27.8501 18.9247 27.7626 18.827C27.6751 18.7293 27.609 18.6144 27.5685 18.4896C27.528 18.3648 27.514 18.233 27.5275 18.1025L28.1807 11.7639Z" fill="#F84923"/>
</g>
<defs>
<clipPath id="clip0_618_849">
<rect width="60" height="60" fill="white"/>
</clipPath>
</defs>
</svg>
