<svg width="60" height="60" viewBox="0 0 60 60" fill="none" xmlns="http://www.w3.org/2000/svg">
<path d="M56.1469 36.1407C55.7906 35.4282 55.7062 35.625 44.0625 35.625C44.0625 11.8594 44.1656 12.1875 43.9688 11.8032C43.8563 11.5594 44.4375 12.1782 36.2906 4.0219C35.8594 3.60003 36.9281 3.75003 9.375 3.75003C9.12636 3.75003 8.8879 3.8488 8.71209 4.02462C8.53627 4.20043 8.4375 4.43889 8.4375 4.68753V16.875H4.6875C4.43886 16.875 4.2004 16.9738 4.02459 17.1496C3.84877 17.3254 3.75 17.5639 3.75 17.8125V30.9375C3.75 31.1862 3.84877 31.4246 4.02459 31.6004C4.2004 31.7763 4.43886 31.875 4.6875 31.875H8.4375V51.5625C8.4375 51.8112 8.53627 52.0496 8.71209 52.2254C8.8879 52.4013 9.12636 52.5 9.375 52.5H24.375V55.3125C24.375 55.5612 24.4738 55.7996 24.6496 55.9754C24.8254 56.1513 25.0639 56.25 25.3125 56.25H55.3125C55.5611 56.25 55.7996 56.1513 55.9754 55.9754C56.1512 55.7996 56.25 55.5612 56.25 55.3125C56.25 35.7188 56.2969 36.4313 56.1469 36.1407ZM51.3375 37.5L40.3125 43.0125L29.2875 37.5H51.3375ZM40.8656 11.25H36.5625V6.9469L40.8656 11.25ZM5.625 18.75H22.5V30H5.625V18.75ZM10.3125 50.625V31.875H23.4375C23.6861 31.875 23.9246 31.7763 24.1004 31.6004C24.2762 31.4246 24.375 31.1862 24.375 30.9375V17.8125C24.375 17.5639 24.2762 17.3254 24.1004 17.1496C23.9246 16.9738 23.6861 16.875 23.4375 16.875H10.3125V5.62503H34.6875V12.1875C34.6875 12.4362 34.7863 12.6746 34.9621 12.8504C35.1379 13.0263 35.3764 13.125 35.625 13.125H42.1875V35.625C25.0031 35.625 24.8438 35.4094 24.4781 36.1407C24.3188 36.45 24.375 35.8313 24.375 50.625H10.3125ZM26.25 54.375V38.0813C41.1188 45.5157 39.9844 45 40.3125 45C40.6406 45 39.5906 45.4688 54.375 38.0813V54.375H26.25Z" fill="#F84923"/>
<path d="M50.7281 34.3031C50.8154 34.4226 50.9297 34.5196 51.0617 34.5865C51.1937 34.6533 51.3396 34.6879 51.4875 34.6875C52.0969 34.6875 51.975 34.6875 55.1156 30.5719C55.3969 30.2063 55.3125 31.7344 55.3125 10.3125C55.3105 9.98529 55.2229 9.66429 55.0585 9.3814C54.894 9.09852 54.6584 8.8636 54.375 8.7V6.5625C54.375 5.81658 54.0787 5.10121 53.5512 4.57376C53.0238 4.04632 52.3084 3.75 51.5625 3.75C50.8166 3.75 50.1012 4.04632 49.5738 4.57376C49.0463 5.10121 48.75 5.81658 48.75 6.5625V8.7C48.4666 8.8636 48.231 9.09852 48.0665 9.3814C47.9021 9.66429 47.8145 9.98529 47.8125 10.3125C47.8125 31.875 47.7375 30.1969 47.9906 30.5531L50.7281 34.3031ZM53.4375 29.6812L51.5062 32.1844L49.6875 29.6906V10.3125H53.4375V29.6812ZM50.625 6.5625C50.625 6.31386 50.7238 6.0754 50.8996 5.89959C51.0754 5.72377 51.3139 5.625 51.5625 5.625C51.8111 5.625 52.0496 5.72377 52.2254 5.89959C52.4012 6.0754 52.5 6.31386 52.5 6.5625V8.4375H50.625V6.5625ZM13.125 23.4375C13.125 22.8812 12.9601 22.3375 12.651 21.875C12.342 21.4124 11.9027 21.052 11.3888 20.8391C10.8749 20.6262 10.3094 20.5705 9.76381 20.679C9.21824 20.7876 8.7171 21.0554 8.32376 21.4488C7.93043 21.8421 7.66256 22.3432 7.55404 22.8888C7.44552 23.4344 7.50122 23.9999 7.71409 24.5138C7.92696 25.0277 8.28745 25.467 8.74996 25.776C9.21247 26.0851 9.75624 26.25 10.3125 26.25C11.0584 26.25 11.7738 25.9537 12.3012 25.4262C12.8287 24.8988 13.125 24.1834 13.125 23.4375ZM9.375 23.4375C9.375 23.1889 9.47377 22.9504 9.64959 22.7746C9.8254 22.5988 10.0639 22.5 10.3125 22.5C10.5611 22.5 10.7996 22.5988 10.9754 22.7746C11.1512 22.9504 11.25 23.1889 11.25 23.4375C11.25 23.6861 11.1512 23.9246 10.9754 24.1004C10.7996 24.2762 10.5611 24.375 10.3125 24.375C10.0639 24.375 9.8254 24.2762 9.64959 24.1004C9.47377 23.9246 9.375 23.6861 9.375 23.4375ZM15.9375 25.3125H19.6875C19.9361 25.3125 20.1746 25.2137 20.3504 25.0379C20.5262 24.8621 20.625 24.6236 20.625 24.375C20.625 24.1264 20.5262 23.8879 20.3504 23.7121C20.1746 23.5363 19.9361 23.4375 19.6875 23.4375H15.9375C15.6889 23.4375 15.4504 23.5363 15.2746 23.7121C15.0988 23.8879 15 24.1264 15 24.375C15 24.6236 15.0988 24.8621 15.2746 25.0379C15.4504 25.2137 15.6889 25.3125 15.9375 25.3125ZM15.9375 28.125H19.6875C19.9361 28.125 20.1746 28.0262 20.3504 27.8504C20.5262 27.6746 20.625 27.4361 20.625 27.1875C20.625 26.9389 20.5262 26.7004 20.3504 26.5246C20.1746 26.3488 19.9361 26.25 19.6875 26.25H15.9375C15.6889 26.25 15.4504 26.3488 15.2746 26.5246C15.0988 26.7004 15 26.9389 15 27.1875C15 27.4361 15.0988 27.6746 15.2746 27.8504C15.4504 28.0262 15.6889 28.125 15.9375 28.125ZM16.875 7.5C16.1333 7.5 15.4083 7.71993 14.7916 8.13199C14.1749 8.54404 13.6943 9.12971 13.4105 9.81494C13.1266 10.5002 13.0524 11.2542 13.1971 11.9816C13.3418 12.709 13.6989 13.3772 14.2234 13.9017C14.7478 14.4261 15.416 14.7833 16.1434 14.9279C16.8708 15.0726 17.6248 14.9984 18.3101 14.7145C18.9953 14.4307 19.581 13.9501 19.993 13.3334C20.4051 12.7167 20.625 11.9917 20.625 11.25C20.625 10.2554 20.2299 9.30161 19.5267 8.59835C18.8234 7.89509 17.8696 7.5 16.875 7.5ZM16.875 13.125C16.5042 13.125 16.1416 13.015 15.8333 12.809C15.525 12.603 15.2846 12.3101 15.1427 11.9675C15.0008 11.6249 14.9637 11.2479 15.036 10.8842C15.1084 10.5205 15.287 10.1864 15.5492 9.92418C15.8114 9.66195 16.1455 9.48337 16.5092 9.41103C16.8729 9.33868 17.2499 9.37581 17.5925 9.51773C17.9351 9.65964 18.228 9.89996 18.434 10.2083C18.64 10.5166 18.75 10.8792 18.75 11.25C18.75 11.7473 18.5525 12.2242 18.2008 12.5758C17.8492 12.9275 17.3723 13.125 16.875 13.125ZM23.4375 10.3125H31.875C32.1236 10.3125 32.3621 10.2137 32.5379 10.0379C32.7137 9.8621 32.8125 9.62364 32.8125 9.375C32.8125 9.12636 32.7137 8.8879 32.5379 8.71209C32.3621 8.53627 32.1236 8.4375 31.875 8.4375H23.4375C23.1889 8.4375 22.9504 8.53627 22.7746 8.71209C22.5988 8.8879 22.5 9.12636 22.5 9.375C22.5 9.62364 22.5988 9.8621 22.7746 10.0379C22.9504 10.2137 23.1889 10.3125 23.4375 10.3125ZM28.125 12.1875H23.4375C23.1889 12.1875 22.9504 12.2863 22.7746 12.4621C22.5988 12.6379 22.5 12.8764 22.5 13.125C22.5 13.3736 22.5988 13.6121 22.7746 13.7879C22.9504 13.9637 23.1889 14.0625 23.4375 14.0625H28.125C28.3736 14.0625 28.6121 13.9637 28.7879 13.7879C28.9637 13.6121 29.0625 13.3736 29.0625 13.125C29.0625 12.8764 28.9637 12.6379 28.7879 12.4621C28.6121 12.2863 28.3736 12.1875 28.125 12.1875ZM31.4063 45.9375C30.7573 45.9375 30.1229 46.1299 29.5833 46.4905C29.0437 46.851 28.6231 47.3635 28.3748 47.9631C28.1264 48.5626 28.0614 49.2224 28.188 49.8589C28.3147 50.4954 28.6272 51.0801 29.0861 51.5389C29.5449 51.9978 30.1296 52.3103 30.7661 52.437C31.4026 52.5636 32.0624 52.4986 32.6619 52.2502C33.2615 52.0019 33.774 51.5813 34.1345 51.0417C34.4951 50.5021 34.6875 49.8677 34.6875 49.2188C34.6875 48.3485 34.3418 47.5139 33.7264 46.8986C33.1111 46.2832 32.2765 45.9375 31.4063 45.9375ZM31.4063 50.625C31.0333 50.625 30.6756 50.4768 30.4119 50.2131C30.1482 49.9494 30 49.5917 30 49.2188C30 48.8458 30.1482 48.4881 30.4119 48.2244C30.6756 47.9607 31.0333 47.8125 31.4063 47.8125C31.7792 47.8125 32.1369 47.9607 32.4006 48.2244C32.6643 48.4881 32.8125 48.8458 32.8125 49.2188C32.8125 49.5917 32.6643 49.9494 32.4006 50.2131C32.1369 50.4768 31.7792 50.625 31.4063 50.625ZM45.9375 46.875H37.5C37.2514 46.875 37.0129 46.9738 36.8371 47.1496C36.6613 47.3254 36.5625 47.5639 36.5625 47.8125C36.5625 48.0611 36.6613 48.2996 36.8371 48.4754C37.0129 48.6512 37.2514 48.75 37.5 48.75H45.9375C46.1861 48.75 46.4246 48.6512 46.6004 48.4754C46.7762 48.2996 46.875 48.0611 46.875 47.8125C46.875 47.5639 46.7762 47.3254 46.6004 47.1496C46.4246 46.9738 46.1861 46.875 45.9375 46.875ZM42.1875 50.625H37.5C37.2514 50.625 37.0129 50.7238 36.8371 50.8996C36.6613 51.0754 36.5625 51.3139 36.5625 51.5625C36.5625 51.8111 36.6613 52.0496 36.8371 52.2254C37.0129 52.4012 37.2514 52.5 37.5 52.5H42.1875C42.4361 52.5 42.6746 52.4012 42.8504 52.2254C43.0262 52.0496 43.125 51.8111 43.125 51.5625C43.125 51.3139 43.0262 51.0754 42.8504 50.8996C42.6746 50.7238 42.4361 50.625 42.1875 50.625Z" fill="#F84923"/>
</svg>
