<svg width="60" height="60" viewBox="0 0 60 60" fill="none" xmlns="http://www.w3.org/2000/svg">
<path d="M31.8749 30.9375C32.1235 30.9375 32.362 30.8388 32.5378 30.6629C32.7136 30.4871 32.8124 30.2487 32.8124 30V27.1547C33.2357 27.0917 33.6315 26.9065 33.9511 26.6217C34.2708 26.337 34.5003 25.9652 34.6116 25.5518C34.7229 25.1385 34.7111 24.7017 34.5777 24.2949C34.4443 23.8882 34.195 23.5293 33.8605 23.2622L26.4252 17.3147C25.3112 16.423 23.9268 15.9371 22.4999 15.9371C21.0729 15.9371 19.6885 16.423 18.5745 17.3147L11.1392 23.2622C10.8047 23.5293 10.5555 23.8882 10.422 24.2949C10.2886 24.7017 10.2768 25.1385 10.3881 25.5518C10.4994 25.9652 10.7289 26.337 11.0486 26.6217C11.3682 26.9065 11.764 27.0917 12.1874 27.1547V30C12.1874 30.2487 12.2861 30.4871 12.4619 30.6629C12.6378 30.8388 12.8762 30.9375 13.1249 30.9375H14.0624V36.5625H13.1249C12.8762 36.5625 12.6378 36.6613 12.4619 36.8371C12.2861 37.0129 12.1874 37.2514 12.1874 37.5V41.25C12.1874 41.4987 12.2861 41.7371 12.4619 41.9129C12.6378 42.0888 12.8762 42.1875 13.1249 42.1875H31.8749C32.1235 42.1875 32.362 42.0888 32.5378 41.9129C32.7136 41.7371 32.8124 41.4987 32.8124 41.25V37.5C32.8124 37.2514 32.7136 37.0129 32.5378 36.8371C32.362 36.6613 32.1235 36.5625 31.8749 36.5625H30.9374V30.9375H31.8749ZM14.0624 29.0625V27.1875H30.9374V29.0625H14.0624ZM19.6874 36.5625V30.9375H25.3124V36.5625H19.6874ZM12.3111 24.7266L19.7464 18.7781C20.5364 18.1721 21.5042 17.8436 22.4999 17.8436C23.4955 17.8436 24.4633 18.1721 25.2533 18.7781L32.6886 24.7266C32.7418 24.7692 32.7805 24.8272 32.7993 24.8927C32.818 24.9582 32.816 25.028 32.7935 25.0923C32.771 25.1566 32.729 25.2123 32.6734 25.2518C32.6179 25.2912 32.5514 25.3124 32.4833 25.3125H12.5145C12.4464 25.3124 12.38 25.2912 12.3244 25.2518C12.2688 25.2123 12.2269 25.1566 12.2043 25.0923C12.1818 25.028 12.1798 24.9582 12.1986 24.8927C12.2174 24.8272 12.256 24.7692 12.3092 24.7266H12.3111ZM15.9374 30.9375H17.8124V36.5625H15.9374V30.9375ZM30.9374 40.3125H14.0624V38.4375H30.9374V40.3125ZM29.0624 36.5625H27.1874V30.9375H29.0624V36.5625Z" fill="#F84923"/>
<path d="M22.5 23.4375C23.5355 23.4375 24.375 22.598 24.375 21.5625C24.375 20.527 23.5355 19.6875 22.5 19.6875C21.4645 19.6875 20.625 20.527 20.625 21.5625C20.625 22.598 21.4645 23.4375 22.5 23.4375Z" fill="#F84923"/>
<path d="M38.4375 44.0625H6.5625C6.31386 44.0625 6.0754 44.1613 5.89959 44.3371C5.72377 44.5129 5.625 44.7514 5.625 45V48.75C5.625 48.9986 5.72377 49.2371 5.89959 49.4129C6.0754 49.5887 6.31386 49.6875 6.5625 49.6875H38.4375C38.6861 49.6875 38.9246 49.5887 39.1004 49.4129C39.2762 49.2371 39.375 48.9986 39.375 48.75V45C39.375 44.7514 39.2762 44.5129 39.1004 44.3371C38.9246 44.1613 38.6861 44.0625 38.4375 44.0625ZM37.5 47.8125H7.5V45.9375H37.5V47.8125Z" fill="#F84923"/>
<path d="M58.125 21.5625C58.1204 18.9065 57.1769 16.3376 55.4614 14.31C53.7458 12.2823 51.3686 10.9265 48.75 10.4822V3.75C48.75 3.00408 48.4537 2.28871 47.9262 1.76126C47.3988 1.23382 46.6834 0.9375 45.9375 0.9375H10.3125C9.56658 0.9375 8.85121 1.23382 8.32376 1.76126C7.79632 2.28871 7.5 3.00408 7.5 3.75V4.6875H4.6875C3.94158 4.6875 3.22621 4.98382 2.69876 5.51126C2.17132 6.03871 1.875 6.75408 1.875 7.5V56.25C1.875 56.9959 2.17132 57.7113 2.69876 58.2387C3.22621 58.7662 3.94158 59.0625 4.6875 59.0625H40.3125C41.0584 59.0625 41.7738 58.7662 42.3012 58.2387C42.8287 57.7113 43.125 56.9959 43.125 56.25V55.3125H45.9375C46.6834 55.3125 47.3988 55.0162 47.9262 54.4887C48.4537 53.9613 48.75 53.2459 48.75 52.5V32.6428C51.3686 32.1985 53.7458 30.8427 55.4614 28.815C57.1769 26.7874 58.1204 24.2185 58.125 21.5625ZM9.375 3.75C9.375 3.50136 9.47377 3.2629 9.64959 3.08709C9.8254 2.91127 10.0639 2.8125 10.3125 2.8125H45.9375C46.1861 2.8125 46.4246 2.91127 46.6004 3.08709C46.7762 3.2629 46.875 3.50136 46.875 3.75V10.3125C45.5967 10.3152 44.3283 10.5372 43.125 10.9688V7.5C43.125 6.75408 42.8287 6.03871 42.3012 5.51126C41.7738 4.98382 41.0584 4.6875 40.3125 4.6875H9.375V3.75ZM40.3125 57.1875H4.6875C4.43886 57.1875 4.2004 57.0887 4.02459 56.9129C3.84877 56.7371 3.75 56.4986 3.75 56.25V7.5C3.75 7.25136 3.84877 7.0129 4.02459 6.83709C4.2004 6.66127 4.43886 6.5625 4.6875 6.5625H40.3125C40.5611 6.5625 40.7996 6.66127 40.9754 6.83709C41.1512 7.0129 41.25 7.25136 41.25 7.5V11.835C39.5403 12.8191 38.1201 14.2364 37.1326 15.9442C36.1451 17.6519 35.6252 19.5898 35.6252 21.5625C35.6252 23.5352 36.1451 25.4731 37.1326 27.1808C38.1201 28.8886 39.5403 30.3059 41.25 31.29V56.25C41.25 56.4986 41.1512 56.7371 40.9754 56.9129C40.7996 57.0887 40.5611 57.1875 40.3125 57.1875ZM46.875 52.5C46.875 52.7486 46.7762 52.9871 46.6004 53.1629C46.4246 53.3387 46.1861 53.4375 45.9375 53.4375H43.125V32.1562C44.3283 32.5878 45.5967 32.8098 46.875 32.8125V52.5ZM46.875 30.9375C45.0208 30.9375 43.2082 30.3877 41.6665 29.3575C40.1248 28.3274 38.9232 26.8632 38.2136 25.1502C37.5041 23.4371 37.3184 21.5521 37.6801 19.7335C38.0419 17.915 38.9348 16.2445 40.2459 14.9334C41.557 13.6223 43.2275 12.7294 45.046 12.3676C46.8646 12.0059 48.7496 12.1916 50.4627 12.9011C52.1757 13.6107 53.6399 14.8123 54.67 16.354C55.7002 17.8957 56.25 19.7083 56.25 21.5625C56.2473 24.0481 55.2587 26.431 53.5011 28.1886C51.7435 29.9462 49.3606 30.9348 46.875 30.9375Z" fill="#F84923"/>
<path d="M54.1003 17.1497L52.2253 15.2747C52.0495 15.0989 51.8111 15.0002 51.5625 15.0002C51.3139 15.0002 51.0755 15.0989 50.8997 15.2747L44.0625 22.1119L42.8503 20.8997C42.6745 20.7239 42.4361 20.6252 42.1875 20.6252C41.9389 20.6252 41.7005 20.7239 41.5247 20.8997L39.6497 22.7747C39.4739 22.9505 39.3752 23.1889 39.3752 23.4375C39.3752 23.6861 39.4739 23.9245 39.6497 24.1003L43.3997 27.8503C43.5755 28.0261 43.8139 28.1248 44.0625 28.1248C44.3111 28.1248 44.5495 28.0261 44.7253 27.8503L54.1003 18.4753C54.2761 18.2995 54.3748 18.0611 54.3748 17.8125C54.3748 17.5639 54.2761 17.3255 54.1003 17.1497ZM44.0625 25.8619L41.6381 23.4375L42.1875 22.8881L43.3997 24.1003C43.5755 24.2761 43.8139 24.3748 44.0625 24.3748C44.3111 24.3748 44.5495 24.2761 44.7253 24.1003L51.5625 17.2631L52.1119 17.8125L44.0625 25.8619ZM7.5 12.1875H37.5V14.0625H7.5V12.1875ZM11.25 8.4375H33.75V10.3125H11.25V8.4375Z" fill="#F84923"/>
</svg>
