<svg width="50" height="50" viewBox="0 0 50 50" fill="none" xmlns="http://www.w3.org/2000/svg">
<path fill-rule="evenodd" clip-rule="evenodd" d="M15.3765 25.5043L22.5705 19.9027C22.6711 19.8243 22.7895 19.7718 22.9152 19.7497C23.0408 19.7276 23.17 19.7366 23.2914 19.776L30.028 21.9593L35.3815 16.5601L35.1646 16.5791C34.7333 16.6161 34.3557 16.2988 34.318 15.869C34.2803 15.4393 34.5982 15.0602 35.0281 15.0225L37.3698 14.8171C37.485 14.807 37.6011 14.8226 37.7096 14.8628C37.818 14.903 37.9162 14.9668 37.9971 15.0496C38.0779 15.1324 38.1393 15.232 38.1769 15.3415C38.2145 15.4509 38.2274 15.5672 38.2145 15.6822L37.9533 18.0185C37.9429 18.1212 37.9122 18.2209 37.8631 18.3117C37.8139 18.4026 37.7472 18.4828 37.6668 18.5477C37.5865 18.6126 37.4941 18.6609 37.3949 18.6898C37.2957 18.7188 37.1918 18.7277 37.0892 18.7163C36.9865 18.7048 36.8872 18.6731 36.7969 18.6229C36.7066 18.5728 36.6271 18.5053 36.563 18.4242C36.499 18.3432 36.4517 18.2503 36.4238 18.1508C36.3959 18.0513 36.388 17.9473 36.4006 17.8448L36.4124 17.7395L30.7992 23.4006C30.6974 23.5032 30.5692 23.5756 30.4287 23.6097C30.2883 23.6438 30.1411 23.6383 30.0036 23.5937L23.2037 21.3899L16.3366 26.7371C16.1997 26.844 16.0309 26.9021 15.8572 26.9019C15.6944 26.9021 15.5356 26.8514 15.403 26.7568C15.2704 26.6623 15.1707 26.5287 15.1177 26.3748C15.0648 26.2208 15.0613 26.0541 15.1077 25.8981C15.1541 25.742 15.2481 25.6043 15.3765 25.5043ZM20.3182 14.5497C20.5254 14.5497 20.7241 14.4674 20.8707 14.3209C21.0172 14.1744 21.0995 13.9757 21.0995 13.7685C21.0995 13.5613 21.0172 13.3625 20.8707 13.216C20.7241 13.0695 20.5254 12.9872 20.3182 12.9872H19.1929C18.9857 12.9872 18.787 13.0695 18.6405 13.216C18.494 13.3625 18.4117 13.5613 18.4117 13.7685C18.4117 13.9757 18.494 14.1744 18.6405 14.3209C18.787 14.4674 18.9857 14.5497 19.1929 14.5497H20.3182ZM23.3587 14.5497H33.8846C34.0918 14.5497 34.2906 14.4674 34.4371 14.3209C34.5836 14.1744 34.6659 13.9757 34.6659 13.7685C34.6659 13.5613 34.5836 13.3625 34.4371 13.216C34.2906 13.0695 34.0918 12.9872 33.8846 12.9872H23.3587C23.1515 12.9872 22.9528 13.0695 22.8062 13.216C22.6597 13.3625 22.5774 13.5613 22.5774 13.7685C22.5774 13.9757 22.6597 14.1744 22.8062 14.3209C22.9528 14.4674 23.1515 14.5497 23.3587 14.5497ZM19.1928 11.0279H20.3181C20.5253 11.0279 20.7241 10.9456 20.8706 10.7991C21.0171 10.6526 21.0994 10.4539 21.0994 10.2467C21.0994 10.0395 21.0171 9.84076 20.8706 9.69425C20.7241 9.54773 20.5253 9.46542 20.3181 9.46542H19.1928C18.9856 9.46542 18.7869 9.54773 18.6404 9.69425C18.4939 9.84076 18.4116 10.0395 18.4116 10.2467C18.4116 10.4539 18.4939 10.6526 18.6404 10.7991C18.7869 10.9456 18.9856 11.0279 19.1928 11.0279ZM23.3587 11.0279H33.8846C34.0918 11.0279 34.2906 10.9456 34.4371 10.7991C34.5836 10.6526 34.6659 10.4539 34.6659 10.2467C34.6659 10.0395 34.5836 9.84076 34.4371 9.69425C34.2906 9.54773 34.0918 9.46542 33.8846 9.46542H23.3587C23.1515 9.46542 22.9528 9.54773 22.8062 9.69425C22.6597 9.84076 22.5774 10.0395 22.5774 10.2467C22.5774 10.4539 22.6597 10.6526 22.8062 10.7991C22.9528 10.9456 23.1515 11.0279 23.3587 11.0279ZM19.1928 7.50634H20.3181C20.5253 7.50634 20.7241 7.42403 20.8706 7.27752C21.0171 7.13101 21.0994 6.93229 21.0994 6.72509C21.0994 6.51789 21.0171 6.31918 20.8706 6.17266C20.7241 6.02615 20.5253 5.94384 20.3181 5.94384H19.1928C18.9856 5.94384 18.7869 6.02615 18.6404 6.17266C18.4939 6.31918 18.4116 6.51789 18.4116 6.72509C18.4116 6.93229 18.4939 7.13101 18.6404 7.27752C18.7869 7.42403 18.9856 7.50634 19.1928 7.50634ZM23.3587 7.50634H33.8846C34.0918 7.50634 34.2906 7.42403 34.4371 7.27752C34.5836 7.13101 34.6659 6.93229 34.6659 6.72509C34.6659 6.51789 34.5836 6.31918 34.4371 6.17266C34.2906 6.02615 34.0918 5.94384 33.8846 5.94384H23.3587C23.1515 5.94384 22.9528 6.02615 22.8062 6.17266C22.6597 6.31918 22.5774 6.51789 22.5774 6.72509C22.5774 6.93229 22.6597 7.13101 22.8062 7.27752C22.9528 7.42403 23.1515 7.50634 23.3587 7.50634ZM43.3322 37.3397V42.374C43.3322 43.2631 42.6089 43.9864 41.7198 43.9864H32.5423L30.4991 45.2445C29.6051 45.7949 28.627 46.0735 27.6149 46.0736C27.1146 46.0736 26.6061 46.0056 26.095 45.8685L19.0709 43.9864H16.2503L16.1418 44.049L16.6636 44.9713C17.1572 45.8435 16.8492 46.9546 15.9772 47.448L14.0026 48.5655C13.7313 48.7199 13.4246 48.8011 13.1125 48.8012C12.949 48.8012 12.7845 48.7789 12.6223 48.734C12.1538 48.6041 11.7644 48.3005 11.5259 47.879L5.72077 37.6219C5.22712 36.7498 5.53523 35.6387 6.4073 35.1451L8.38181 34.0277C8.8032 33.7892 9.29353 33.7292 9.76208 33.8591C9.83093 33.8781 9.89743 33.902 9.96257 33.9284V7.47773C9.96257 7.04091 10.1259 6.64677 10.4346 6.33779L15.1013 1.67109C15.4103 1.3622 15.8046 1.19882 16.2415 1.19882H41.7198C42.6089 1.19882 43.3322 1.92206 43.3322 2.81122V32.5595C43.7342 32.8416 43.9755 33.1725 44.0975 33.3763C44.8843 34.6897 44.5161 36.5553 43.3322 37.3397ZM41.7198 2.76132H16.6784V6.71796C16.6784 7.37792 16.1416 7.91474 15.4816 7.91474H11.525V35.3033L13.1382 34.3693V30.1347C13.1382 29.9275 13.2205 29.7287 13.367 29.5822C13.5135 29.4357 13.7122 29.3534 13.9194 29.3534H17.7937C18.0009 29.3534 18.1996 29.4357 18.3462 29.5822C18.4927 29.7287 18.575 29.9275 18.575 30.1347V31.5211C19.1341 31.3707 19.7208 31.3002 20.332 31.3599V25.3379C20.332 25.1307 20.4143 24.932 20.5608 24.7855C20.7073 24.6389 20.9061 24.5566 21.1133 24.5566H24.9876C25.1948 24.5566 25.3935 24.6389 25.54 24.7855C25.6865 24.932 25.7688 25.1307 25.7688 25.3379V33.1013C26.3413 33.275 26.9302 33.4362 27.526 33.5728V26.9527C27.526 26.7455 27.6083 26.5468 27.7548 26.4003C27.9013 26.2538 28.1 26.1715 28.3072 26.1715H32.1815C32.3887 26.1715 32.5874 26.2538 32.7339 26.4003C32.8805 26.5468 32.9628 26.7455 32.9628 26.9527V36.1462L34.7198 35.1227V20.2558C34.7198 20.0486 34.8021 19.8498 34.9486 19.7033C35.0951 19.5568 35.2938 19.4745 35.501 19.4745H39.3754C39.5826 19.4745 39.7813 19.5568 39.9278 19.7033C40.0743 19.8498 40.1566 20.0486 40.1566 20.2558V32.2498C40.7781 32.0706 41.3126 32.0146 41.7697 32.0405V2.81122C41.7694 2.7981 41.764 2.78561 41.7547 2.77632C41.7454 2.76704 41.7329 2.76167 41.7198 2.76132ZM38.5941 21.037H36.2823V34.2125L38.0126 33.2047C38.2036 33.0933 38.3975 32.9869 38.5941 32.8857V21.037ZM30.4416 37.1641C30.3997 37.3214 30.3456 37.4752 30.2797 37.624C30.5162 37.5433 30.747 37.4366 30.9753 37.3038L31.4004 37.0562V27.734H29.0885V34.0346C30.1887 34.6652 30.7703 35.9373 30.4416 37.1641ZM24.2063 26.1191H21.8945V31.7657C22.1875 31.8684 22.4989 31.9809 22.8214 32.0975C23.2563 32.2547 23.721 32.4225 24.2063 32.5906V26.1191ZM17.0125 30.9159H14.7007V33.4647L16.3728 32.4966C16.5831 32.3743 16.7964 32.2573 17.0125 32.1457V30.9159ZM12.63 6.35224H15.1159V3.8664L12.63 6.35224ZM15.3038 45.7407L9.4989 35.4838C9.48228 35.4548 9.46012 35.4294 9.43368 35.409C9.40724 35.3886 9.37704 35.3736 9.3448 35.3648C9.32177 35.3584 9.29799 35.3552 9.27409 35.3552C9.23796 35.3552 9.19509 35.3627 9.15144 35.3874L7.17693 36.5049C7.05671 36.5729 7.01247 36.732 7.08054 36.8523L12.8856 47.1094C12.9022 47.1383 12.9244 47.1637 12.9508 47.1841C12.9773 47.2045 13.0075 47.2195 13.0397 47.2282C13.0781 47.239 13.1543 47.2502 13.233 47.2058L15.2076 46.0883C15.3278 46.0201 15.3718 45.861 15.3038 45.7407ZM42.4511 36.0498C42.9576 35.7381 43.1148 34.7765 42.7571 34.1791C42.2286 33.2967 40.7119 33.4407 38.799 34.555L31.7616 38.654C30.649 39.3018 29.4536 39.512 28.1078 39.2968L27.2323 39.1544C27.2219 39.1526 27.2116 39.1507 27.2012 39.1486C26.1028 38.924 25.0854 38.6335 24.0083 38.3259C23.5195 38.1862 23.014 38.0419 22.5 37.9042C22.4009 37.8776 22.308 37.8318 22.2266 37.7694C22.1452 37.7069 22.0769 37.629 22.0256 37.5402C21.9743 37.4513 21.941 37.3533 21.9276 37.2515C21.9142 37.1498 21.921 37.0465 21.9475 36.9474C21.9741 36.8483 22.0199 36.7554 22.0824 36.674C22.1448 36.5926 22.2227 36.5243 22.3115 36.473C22.491 36.3694 22.7042 36.3413 22.9044 36.3949C23.4309 36.5359 23.9426 36.6821 24.4374 36.8235C25.4732 37.1193 26.4524 37.3986 27.4796 37.6104C28.2678 37.7 28.757 37.4146 28.9324 36.7598C29.0974 36.1436 28.7343 35.5172 28.0843 35.2846C25.9654 34.8958 23.9292 34.1595 22.2903 33.567C21.7209 33.3612 21.2292 33.1833 20.804 33.0454C19.5312 32.6328 18.2983 33.1875 17.1559 33.8489L12.044 36.8086L15.3721 42.6893L16.6434 41.9553C16.8229 41.8517 17.0361 41.8236 17.2362 41.8772L26.4995 44.3594C27.6356 44.6639 28.7055 44.514 29.68 43.914L42.4511 36.0498ZM41.7697 42.3739V38.3045L35.0799 42.4238H41.7198C41.7329 42.4235 41.7454 42.4181 41.7547 42.4089C41.764 42.3996 41.7694 42.3871 41.7697 42.3739ZM8.84763 36.6364C8.75579 36.6496 8.66745 36.6807 8.58767 36.728C8.50789 36.7753 8.43823 36.838 8.3827 36.9123C8.32716 36.9866 8.28684 37.0711 8.26404 37.1611C8.24125 37.251 8.23642 37.3445 8.24984 37.4363C8.26326 37.5281 8.29467 37.6163 8.34226 37.696C8.38986 37.7756 8.4527 37.8451 8.52718 37.9004C8.60167 37.9557 8.68634 37.9957 8.77633 38.0182C8.86633 38.0407 8.95988 38.0452 9.05163 38.0315C9.14347 38.0184 9.23181 37.9873 9.31159 37.9399C9.39137 37.8926 9.46103 37.83 9.51656 37.7557C9.5721 37.6814 9.61242 37.5968 9.63522 37.5069C9.65802 37.417 9.66284 37.3234 9.64942 37.2317C9.636 37.1399 9.60459 37.0516 9.557 36.972C9.50941 36.8924 9.44657 36.8229 9.37208 36.7676C9.29759 36.7123 9.21293 36.6723 9.12293 36.6497C9.03293 36.6272 8.93938 36.6227 8.84763 36.6364Z" fill="white"/>
</svg>
