<svg width="50" height="50" viewBox="0 0 50 50" fill="none" xmlns="http://www.w3.org/2000/svg">
<g clip-path="url(#clip0_552_700)">
<path d="M21.7742 11.2903C22.2196 11.2903 22.5807 10.9293 22.5807 10.4839C22.5807 10.0385 22.2196 9.67743 21.7742 9.67743C21.3288 9.67743 20.9678 10.0385 20.9678 10.4839C20.9678 10.9293 21.3288 11.2903 21.7742 11.2903Z" fill="white"/>
<path d="M9.2293 16.4871C9.36164 16.4868 9.49186 16.4539 9.60847 16.3913C9.72508 16.3288 9.82447 16.2384 9.89788 16.1283C9.97128 16.0182 10.0164 15.8917 10.0293 15.76C10.0422 15.6283 10.0225 15.4954 9.97185 15.3732C9.92121 15.2509 9.84123 15.143 9.73898 15.059C9.63674 14.975 9.51537 14.9174 9.3856 14.8915C9.25584 14.8655 9.12168 14.8719 8.99497 14.9101C8.86827 14.9483 8.75293 15.0171 8.65914 15.1105C8.54599 15.2231 8.46886 15.3668 8.43754 15.5234C8.40621 15.6799 8.4221 15.8422 8.48319 15.9897C8.54428 16.1372 8.64782 16.2632 8.78066 16.3518C8.9135 16.4403 9.06965 16.4874 9.2293 16.4871Z" fill="white"/>
<path d="M4.03204 29.0322C4.47743 29.0322 4.83849 28.6712 4.83849 28.2258C4.83849 27.7804 4.47743 27.4193 4.03204 27.4193C3.58665 27.4193 3.22559 27.7804 3.22559 28.2258C3.22559 28.6712 3.58665 29.0322 4.03204 29.0322Z" fill="white"/>
<path d="M9.22867 39.9645C9.09633 39.9648 8.96611 39.9977 8.8495 40.0603C8.73289 40.1228 8.6335 40.2132 8.56009 40.3233C8.48669 40.4334 8.44154 40.5599 8.42864 40.6916C8.41574 40.8233 8.43548 40.9562 8.48612 41.0784C8.53676 41.2007 8.61674 41.3086 8.71899 41.3926C8.82123 41.4766 8.9426 41.5342 9.07237 41.5601C9.20213 41.5861 9.33629 41.5797 9.463 41.5415C9.5897 41.5033 9.70504 41.4345 9.79883 41.3411C9.91198 41.2285 9.98911 41.0848 10.0204 40.9282C10.0518 40.7717 10.0359 40.6094 9.97478 40.4619C9.91369 40.3144 9.81015 40.1883 9.67731 40.0998C9.54447 40.0112 9.38832 39.9642 9.22867 39.9645Z" fill="white"/>
<path d="M21.7742 46.7742C22.2196 46.7742 22.5807 46.4131 22.5807 45.9677C22.5807 45.5223 22.2196 45.1613 21.7742 45.1613C21.3288 45.1613 20.9678 45.5223 20.9678 45.9677C20.9678 46.4131 21.3288 46.7742 21.7742 46.7742Z" fill="white"/>
<path d="M25.8067 24.1935V20.9677H22.5809V19.3548H20.968V20.9677H17.7422V29.0322H24.1938V33.871H19.3551V32.2581H17.7422V35.4839H20.968V37.0968H22.5809V35.4839H25.8067V27.4193H19.3551V22.5806H24.1938V24.1935H25.8067Z" fill="white"/>
<path d="M48.3871 27.3855C48.8379 27.3072 49.2468 27.0725 49.5417 26.7226C49.8367 26.3728 49.999 25.9302 50 25.4726C49.9986 24.9565 49.7937 24.4619 49.4298 24.096L37.9032 12.5694L26.3766 24.096C26.0127 24.4619 25.8078 24.9565 25.8065 25.4726C25.8065 26.4315 26.5048 27.2258 27.4194 27.3855V40.7016C25.6427 41.5081 23.7492 41.9355 21.7742 41.9355C14.2145 41.9355 8.06452 35.7855 8.06452 28.2258C8.06452 20.6661 14.2145 14.5161 21.7742 14.5161C24.5806 14.5161 27.2371 15.3492 29.5194 16.921L26.0427 20.3976L27.1831 21.5379L37.9032 10.8177L48.6234 21.5379L49.7637 20.3976L38.7097 9.34355V6.45161H45.1613V0H37.0968V9.34355L35.3911 11.0492L33.1798 8.8379L31.4411 10.5758C31.1115 10.9065 30.691 11.1318 30.2331 11.2229C29.7752 11.3141 29.3005 11.2671 28.8694 11.0879C28.4396 10.9114 28.0722 10.6108 27.8139 10.2246C27.5557 9.83835 27.4183 9.38396 27.4194 8.91936V6.45161H16.129V8.9121C16.13 9.37875 15.9921 9.83513 15.7329 10.2232C15.4736 10.6112 15.1048 10.9133 14.6734 11.0911C14.2441 11.2693 13.7716 11.3159 13.3157 11.2252C12.8599 11.1345 12.4412 10.9104 12.1129 10.5815L10.3685 8.8379L2.38629 16.8202L4.12742 18.5621C4.45733 18.8907 4.68203 19.31 4.77293 19.7667C4.86383 20.2233 4.81683 20.6967 4.6379 21.1266C4.4608 21.5574 4.15945 21.9258 3.77225 22.1847C3.38505 22.4437 2.92952 22.5815 2.46371 22.5806H0V33.871H2.46371C3.41935 33.871 4.27258 34.4411 4.6379 35.325C4.81694 35.7549 4.864 36.2283 4.77309 36.685C4.68218 37.1417 4.45742 37.561 4.12742 37.8895L2.38629 39.6315L10.3685 47.6137L12.1073 45.8758C12.4367 45.5448 12.8572 45.3194 13.3152 45.2282C13.7732 45.137 14.2479 45.1842 14.679 45.3637C15.1088 45.5403 15.4762 45.8408 15.7345 46.227C15.9927 46.6133 16.1301 47.0676 16.129 47.5323V50H50V45.1613H48.3871V27.3855ZM38.7097 1.6129H43.5484V4.83871H38.7097V1.6129ZM45.1613 45.1613V27.4194H46.7742V45.1613H45.1613ZM29.0323 27.4194H30.6452V45.1613H29.0323V27.4194ZM32.2581 27.4194H35.4839V45.1613H32.2581V27.4194ZM37.0968 27.4194H38.7097V45.1613H37.0968V27.4194ZM40.3226 27.4194H43.5484V45.1613H40.3226V27.4194ZM27.5169 25.2363L37.9032 14.85L48.2895 25.2363C48.3359 25.2831 48.3674 25.3426 48.3801 25.4073C48.3928 25.472 48.3861 25.539 48.3609 25.5999C48.3356 25.6608 48.293 25.7129 48.2382 25.7496C48.1835 25.7864 48.1191 25.8062 48.0532 25.8065H27.7532C27.6873 25.8062 27.6229 25.7864 27.5682 25.7496C27.5135 25.7129 27.4708 25.6608 27.4456 25.5999C27.4203 25.539 27.4136 25.472 27.4263 25.4073C27.439 25.3426 27.4705 25.2831 27.5169 25.2363ZM25.8065 48.3871H17.7419V47.5323C17.7436 46.7486 17.5119 45.9821 17.0765 45.3305C16.641 44.6789 16.0215 44.1717 15.2968 43.8734C14.5712 43.5711 13.7721 43.4915 13.0011 43.6449C12.2302 43.7983 11.5223 44.1776 10.9677 44.7347L10.3694 45.3323L4.66774 39.6306L5.26855 39.029C5.82478 38.4754 6.20359 37.7688 6.3567 36.9991C6.5098 36.2294 6.43027 35.4316 6.12823 34.7073C5.8294 33.9815 5.32137 33.361 4.66879 32.9248C4.01622 32.4887 3.24862 32.2566 2.46371 32.2581H1.6129V24.1935H2.46371C3.24862 24.195 4.01622 23.9629 4.66879 23.5268C5.32137 23.0906 5.8294 22.4702 6.12823 21.7444C6.43005 21.02 6.50947 20.2222 6.35637 19.4526C6.20328 18.6829 5.8246 17.9763 5.26855 17.4226L4.66774 16.821L10.3694 11.1194L10.9734 11.7226C11.5267 12.2779 12.2327 12.656 13.0016 12.809C13.7704 12.9619 14.5674 12.8827 15.2911 12.5815C16.0178 12.2822 16.6389 11.7734 17.0755 11.12C17.5121 10.4665 17.7443 9.69796 17.7427 8.9121V8.06452H25.8073V8.91936C25.8056 9.70306 26.0372 10.4695 26.4727 11.1211C26.9081 11.7727 27.5277 12.28 28.2524 12.5782C28.9779 12.8811 29.7772 12.9609 30.5482 12.8075C31.3193 12.6541 32.0271 12.2744 32.5815 11.7169L33.1798 11.1194L34.2508 12.1903L30.6734 15.7677C28.0835 13.8979 24.9685 12.8953 21.7742 12.9032C13.325 12.9032 6.45161 19.7766 6.45161 28.2258C6.45161 36.675 13.325 43.5484 21.7742 43.5484C23.7355 43.5484 25.6274 43.1814 27.4194 42.4685V45.1613H25.8065V48.3871ZM48.3871 48.3871H27.4194V46.7742H48.3871V48.3871Z" fill="white"/>
<path d="M37.9028 24.1935C39.2366 24.1935 40.3221 23.1081 40.3221 21.7742C40.3221 20.4403 39.2366 19.3548 37.9028 19.3548C36.5689 19.3548 35.4834 20.4403 35.4834 21.7742C35.4834 23.1081 36.5689 24.1935 37.9028 24.1935ZM37.9028 20.9677C38.1166 20.9677 38.3218 21.0527 38.473 21.2039C38.6242 21.3552 38.7092 21.5603 38.7092 21.7742C38.7092 21.9881 38.6242 22.1932 38.473 22.3444C38.3218 22.4957 38.1166 22.5806 37.9028 22.5806C37.6889 22.5806 37.4837 22.4957 37.3325 22.3444C37.1813 22.1932 37.0963 21.9881 37.0963 21.7742C37.0963 21.5603 37.1813 21.3552 37.3325 21.2039C37.4837 21.0527 37.6889 20.9677 37.9028 20.9677Z" fill="white"/>
</g>
<defs>
<clipPath id="clip0_552_700">
<rect width="50" height="50" fill="white"/>
</clipPath>
</defs>
</svg>
