<svg width="116" height="77" viewBox="0 0 116 77" fill="none" xmlns="http://www.w3.org/2000/svg">
<path d="M3.18164 60.2031V73H1.48535V60.2031H3.18164ZM8.54297 65.96V67.3486H2.8125V65.96H8.54297ZM9.41309 60.2031V61.5918H2.8125V60.2031H9.41309ZM12.9551 63.4902V73H11.3203V63.4902H12.9551ZM11.1973 60.9678C11.1973 60.7041 11.2764 60.4814 11.4346 60.2998C11.5986 60.1182 11.8389 60.0273 12.1553 60.0273C12.4658 60.0273 12.7031 60.1182 12.8672 60.2998C13.0371 60.4814 13.1221 60.7041 13.1221 60.9678C13.1221 61.2197 13.0371 61.4365 12.8672 61.6182C12.7031 61.7939 12.4658 61.8818 12.1553 61.8818C11.8389 61.8818 11.5986 61.7939 11.4346 61.6182C11.2764 61.4365 11.1973 61.2197 11.1973 60.9678ZM17.1914 65.5205V73H15.5654V63.4902H17.1035L17.1914 65.5205ZM16.8047 67.8848L16.1279 67.8584C16.1338 67.208 16.2305 66.6074 16.418 66.0566C16.6055 65.5 16.8691 65.0166 17.209 64.6064C17.5488 64.1963 17.9531 63.8799 18.4219 63.6572C18.8965 63.4287 19.4209 63.3145 19.9951 63.3145C20.4639 63.3145 20.8857 63.3789 21.2607 63.5078C21.6357 63.6309 21.9551 63.8301 22.2188 64.1055C22.4883 64.3809 22.6934 64.7383 22.834 65.1777C22.9746 65.6113 23.0449 66.1416 23.0449 66.7686V73H21.4102V66.751C21.4102 66.2529 21.3369 65.8545 21.1904 65.5557C21.0439 65.251 20.8301 65.0312 20.5488 64.8965C20.2676 64.7559 19.9219 64.6855 19.5117 64.6855C19.1074 64.6855 18.7383 64.7705 18.4043 64.9404C18.0762 65.1104 17.792 65.3447 17.5518 65.6436C17.3174 65.9424 17.1328 66.2852 16.998 66.6719C16.8691 67.0527 16.8047 67.457 16.8047 67.8848ZM31.1221 71.374V66.4785C31.1221 66.1035 31.0459 65.7783 30.8936 65.5029C30.7471 65.2217 30.5244 65.0049 30.2256 64.8525C29.9268 64.7002 29.5576 64.624 29.1182 64.624C28.708 64.624 28.3477 64.6943 28.0371 64.835C27.7324 64.9756 27.4922 65.1602 27.3164 65.3887C27.1465 65.6172 27.0615 65.8633 27.0615 66.127H25.4355C25.4355 65.7871 25.5234 65.4502 25.6992 65.1162C25.875 64.7822 26.127 64.4805 26.4551 64.2109C26.7891 63.9355 27.1875 63.7188 27.6504 63.5605C28.1191 63.3965 28.6406 63.3145 29.2148 63.3145C29.9062 63.3145 30.5156 63.4316 31.043 63.666C31.5762 63.9004 31.9922 64.2549 32.291 64.7295C32.5957 65.1982 32.748 65.7871 32.748 66.4961V70.9258C32.748 71.2422 32.7744 71.5791 32.8271 71.9365C32.8857 72.2939 32.9707 72.6016 33.082 72.8594V73H31.3857C31.3037 72.8125 31.2393 72.5635 31.1924 72.2529C31.1455 71.9365 31.1221 71.6436 31.1221 71.374ZM31.4033 67.2344L31.4209 68.377H29.7773C29.3145 68.377 28.9014 68.415 28.5381 68.4912C28.1748 68.5615 27.8701 68.6699 27.624 68.8164C27.3779 68.9629 27.1904 69.1475 27.0615 69.3701C26.9326 69.5869 26.8682 69.8418 26.8682 70.1348C26.8682 70.4336 26.9355 70.7061 27.0703 70.9521C27.2051 71.1982 27.4072 71.3945 27.6768 71.541C27.9521 71.6816 28.2891 71.752 28.6875 71.752C29.1855 71.752 29.625 71.6465 30.0059 71.4355C30.3867 71.2246 30.6885 70.9668 30.9111 70.6621C31.1396 70.3574 31.2627 70.0615 31.2803 69.7744L31.9746 70.5566C31.9336 70.8027 31.8223 71.0752 31.6406 71.374C31.459 71.6729 31.2158 71.96 30.9111 72.2354C30.6123 72.5049 30.2549 72.7305 29.8389 72.9121C29.4287 73.0879 28.9658 73.1758 28.4502 73.1758C27.8057 73.1758 27.2402 73.0498 26.7539 72.7979C26.2734 72.5459 25.8984 72.209 25.6289 71.7871C25.3652 71.3594 25.2334 70.8818 25.2334 70.3545C25.2334 69.8447 25.333 69.3965 25.5322 69.0098C25.7314 68.6172 26.0186 68.292 26.3936 68.0342C26.7686 67.7705 27.2197 67.5713 27.7471 67.4365C28.2744 67.3018 28.8633 67.2344 29.5137 67.2344H31.4033ZM36.9316 65.5205V73H35.3057V63.4902H36.8438L36.9316 65.5205ZM36.5449 67.8848L35.8682 67.8584C35.874 67.208 35.9707 66.6074 36.1582 66.0566C36.3457 65.5 36.6094 65.0166 36.9492 64.6064C37.2891 64.1963 37.6934 63.8799 38.1621 63.6572C38.6367 63.4287 39.1611 63.3145 39.7354 63.3145C40.2041 63.3145 40.626 63.3789 41.001 63.5078C41.376 63.6309 41.6953 63.8301 41.959 64.1055C42.2285 64.3809 42.4336 64.7383 42.5742 65.1777C42.7148 65.6113 42.7852 66.1416 42.7852 66.7686V73H41.1504V66.751C41.1504 66.2529 41.0771 65.8545 40.9307 65.5557C40.7842 65.251 40.5703 65.0312 40.2891 64.8965C40.0078 64.7559 39.6621 64.6855 39.252 64.6855C38.8477 64.6855 38.4785 64.7705 38.1445 64.9404C37.8164 65.1104 37.5322 65.3447 37.292 65.6436C37.0576 65.9424 36.873 66.2852 36.7383 66.6719C36.6094 67.0527 36.5449 67.457 36.5449 67.8848ZM49.0605 71.8398C49.4473 71.8398 49.8047 71.7607 50.1328 71.6025C50.4609 71.4443 50.7305 71.2275 50.9414 70.9521C51.1523 70.6709 51.2725 70.3516 51.3018 69.9941H52.8486C52.8193 70.5566 52.6289 71.0811 52.2773 71.5674C51.9316 72.0479 51.4775 72.4375 50.915 72.7363C50.3525 73.0293 49.7344 73.1758 49.0605 73.1758C48.3457 73.1758 47.7217 73.0498 47.1885 72.7979C46.6611 72.5459 46.2217 72.2002 45.8701 71.7607C45.5244 71.3213 45.2637 70.8174 45.0879 70.249C44.918 69.6748 44.833 69.0684 44.833 68.4297V68.0605C44.833 67.4219 44.918 66.8184 45.0879 66.25C45.2637 65.6758 45.5244 65.1689 45.8701 64.7295C46.2217 64.29 46.6611 63.9443 47.1885 63.6924C47.7217 63.4404 48.3457 63.3145 49.0605 63.3145C49.8047 63.3145 50.4551 63.4668 51.0117 63.7715C51.5684 64.0703 52.0049 64.4805 52.3213 65.002C52.6436 65.5176 52.8193 66.1035 52.8486 66.7598H51.3018C51.2725 66.3672 51.1611 66.0127 50.9678 65.6963C50.7803 65.3799 50.5225 65.1279 50.1943 64.9404C49.8721 64.7471 49.4941 64.6504 49.0605 64.6504C48.5625 64.6504 48.1436 64.75 47.8037 64.9492C47.4697 65.1426 47.2031 65.4062 47.0039 65.7402C46.8105 66.0684 46.6699 66.4346 46.582 66.8389C46.5 67.2373 46.459 67.6445 46.459 68.0605V68.4297C46.459 68.8457 46.5 69.2559 46.582 69.6602C46.6641 70.0645 46.8018 70.4307 46.9951 70.7588C47.1943 71.0869 47.4609 71.3506 47.7949 71.5498C48.1348 71.7432 48.5566 71.8398 49.0605 71.8398ZM58.623 73.1758C57.9609 73.1758 57.3604 73.0645 56.8213 72.8418C56.2881 72.6133 55.8281 72.2939 55.4414 71.8838C55.0605 71.4736 54.7676 70.9873 54.5625 70.4248C54.3574 69.8623 54.2549 69.2471 54.2549 68.5791V68.21C54.2549 67.4365 54.3691 66.748 54.5977 66.1445C54.8262 65.5352 55.1367 65.0195 55.5293 64.5977C55.9219 64.1758 56.3672 63.8564 56.8652 63.6396C57.3633 63.4229 57.8789 63.3145 58.4121 63.3145C59.0918 63.3145 59.6777 63.4316 60.1699 63.666C60.668 63.9004 61.0752 64.2285 61.3916 64.6504C61.708 65.0664 61.9424 65.5586 62.0947 66.127C62.2471 66.6895 62.3232 67.3047 62.3232 67.9727V68.7021H55.2217V67.375H60.6973V67.252C60.6738 66.8301 60.5859 66.4199 60.4336 66.0215C60.2871 65.623 60.0527 65.2949 59.7305 65.0371C59.4082 64.7793 58.9688 64.6504 58.4121 64.6504C58.043 64.6504 57.7031 64.7295 57.3926 64.8877C57.082 65.04 56.8154 65.2686 56.5928 65.5732C56.3701 65.8779 56.1973 66.25 56.0742 66.6895C55.9512 67.1289 55.8896 67.6357 55.8896 68.21V68.5791C55.8896 69.0303 55.9512 69.4551 56.0742 69.8535C56.2031 70.2461 56.3877 70.5918 56.6279 70.8906C56.874 71.1895 57.1699 71.4238 57.5156 71.5938C57.8672 71.7637 58.2656 71.8486 58.7109 71.8486C59.2852 71.8486 59.7715 71.7314 60.1699 71.4971C60.5684 71.2627 60.917 70.9492 61.2158 70.5566L62.2002 71.3389C61.9951 71.6494 61.7344 71.9453 61.418 72.2266C61.1016 72.5078 60.7119 72.7363 60.249 72.9121C59.792 73.0879 59.25 73.1758 58.623 73.1758ZM78.3896 66.6279V71.3125C78.2314 71.5469 77.9795 71.8105 77.6338 72.1035C77.2881 72.3906 76.8105 72.6426 76.2012 72.8594C75.5977 73.0703 74.8184 73.1758 73.8633 73.1758C73.084 73.1758 72.3662 73.041 71.71 72.7715C71.0596 72.4961 70.4941 72.0977 70.0137 71.5762C69.5391 71.0488 69.1699 70.4102 68.9062 69.6602C68.6484 68.9043 68.5195 68.0488 68.5195 67.0938V66.1006C68.5195 65.1455 68.6309 64.293 68.8535 63.543C69.082 62.793 69.416 62.1572 69.8555 61.6357C70.2949 61.1084 70.834 60.71 71.4727 60.4404C72.1113 60.165 72.8438 60.0273 73.6699 60.0273C74.6484 60.0273 75.4658 60.1973 76.1221 60.5371C76.7842 60.8711 77.2998 61.334 77.6689 61.9258C78.0439 62.5176 78.2842 63.1914 78.3896 63.9473H76.6934C76.6172 63.4844 76.4648 63.0625 76.2363 62.6816C76.0137 62.3008 75.6943 61.9961 75.2783 61.7676C74.8623 61.5332 74.3262 61.416 73.6699 61.416C73.0781 61.416 72.5654 61.5244 72.1318 61.7412C71.6982 61.958 71.3408 62.2686 71.0596 62.6729C70.7783 63.0771 70.5674 63.5664 70.4268 64.1406C70.292 64.7148 70.2246 65.3623 70.2246 66.083V67.0938C70.2246 67.832 70.3096 68.4912 70.4795 69.0713C70.6553 69.6514 70.9043 70.1465 71.2266 70.5566C71.5488 70.9609 71.9326 71.2686 72.3779 71.4795C72.8291 71.6904 73.3271 71.7959 73.8721 71.7959C74.4756 71.7959 74.9648 71.7461 75.3398 71.6465C75.7148 71.541 76.0078 71.418 76.2188 71.2773C76.4297 71.1309 76.5908 70.9932 76.7021 70.8643V67.999H73.7402V66.6279H78.3896ZM82.582 64.9844V73H80.9561V63.4902H82.5381L82.582 64.9844ZM85.5527 63.4375L85.5439 64.9492C85.4092 64.9199 85.2803 64.9023 85.1572 64.8965C85.04 64.8848 84.9053 64.8789 84.7529 64.8789C84.3779 64.8789 84.0469 64.9375 83.7598 65.0547C83.4727 65.1719 83.2295 65.3359 83.0303 65.5469C82.8311 65.7578 82.6729 66.0098 82.5557 66.3027C82.4443 66.5898 82.3711 66.9062 82.3359 67.252L81.8789 67.5156C81.8789 66.9414 81.9346 66.4023 82.0459 65.8984C82.1631 65.3945 82.3418 64.9492 82.582 64.5625C82.8223 64.1699 83.127 63.8652 83.4961 63.6484C83.8711 63.4258 84.3164 63.3145 84.832 63.3145C84.9492 63.3145 85.084 63.3291 85.2363 63.3584C85.3887 63.3818 85.4941 63.4082 85.5527 63.4375ZM86.4492 68.3506V68.1484C86.4492 67.4629 86.5488 66.8271 86.748 66.2412C86.9473 65.6494 87.2344 65.1367 87.6094 64.7031C87.9844 64.2637 88.4385 63.9238 88.9717 63.6836C89.5049 63.4375 90.1025 63.3145 90.7646 63.3145C91.4326 63.3145 92.0332 63.4375 92.5664 63.6836C93.1055 63.9238 93.5625 64.2637 93.9375 64.7031C94.3184 65.1367 94.6084 65.6494 94.8076 66.2412C95.0068 66.8271 95.1064 67.4629 95.1064 68.1484V68.3506C95.1064 69.0361 95.0068 69.6719 94.8076 70.2578C94.6084 70.8438 94.3184 71.3564 93.9375 71.7959C93.5625 72.2295 93.1084 72.5693 92.5752 72.8154C92.0479 73.0557 91.4502 73.1758 90.7822 73.1758C90.1143 73.1758 89.5137 73.0557 88.9805 72.8154C88.4473 72.5693 87.9902 72.2295 87.6094 71.7959C87.2344 71.3564 86.9473 70.8438 86.748 70.2578C86.5488 69.6719 86.4492 69.0361 86.4492 68.3506ZM88.0752 68.1484V68.3506C88.0752 68.8252 88.1309 69.2734 88.2422 69.6953C88.3535 70.1113 88.5205 70.4805 88.7432 70.8027C88.9717 71.125 89.2559 71.3799 89.5957 71.5674C89.9355 71.749 90.3311 71.8398 90.7822 71.8398C91.2275 71.8398 91.6172 71.749 91.9512 71.5674C92.291 71.3799 92.5723 71.125 92.7949 70.8027C93.0176 70.4805 93.1846 70.1113 93.2959 69.6953C93.4131 69.2734 93.4717 68.8252 93.4717 68.3506V68.1484C93.4717 67.6797 93.4131 67.2373 93.2959 66.8213C93.1846 66.3994 93.0146 66.0273 92.7861 65.7051C92.5635 65.377 92.2822 65.1191 91.9424 64.9316C91.6084 64.7441 91.2158 64.6504 90.7646 64.6504C90.3193 64.6504 89.9268 64.7441 89.5869 64.9316C89.2529 65.1191 88.9717 65.377 88.7432 65.7051C88.5205 66.0273 88.3535 66.3994 88.2422 66.8213C88.1309 67.2373 88.0752 67.6797 88.0752 68.1484ZM102.964 70.8027V63.4902H104.599V73H103.043L102.964 70.8027ZM103.271 68.7988L103.948 68.7812C103.948 69.4141 103.881 70 103.746 70.5391C103.617 71.0723 103.406 71.5352 103.113 71.9277C102.82 72.3203 102.437 72.6279 101.962 72.8506C101.487 73.0674 100.91 73.1758 100.23 73.1758C99.7676 73.1758 99.3428 73.1084 98.9561 72.9736C98.5752 72.8389 98.2471 72.6309 97.9717 72.3496C97.6963 72.0684 97.4824 71.7021 97.3301 71.251C97.1836 70.7998 97.1104 70.2578 97.1104 69.625V63.4902H98.7363V69.6426C98.7363 70.0703 98.7832 70.4248 98.877 70.7061C98.9766 70.9814 99.1084 71.2012 99.2725 71.3652C99.4424 71.5234 99.6299 71.6348 99.835 71.6992C100.046 71.7637 100.263 71.7959 100.485 71.7959C101.177 71.7959 101.725 71.6641 102.129 71.4004C102.533 71.1309 102.823 70.7705 102.999 70.3193C103.181 69.8623 103.271 69.3555 103.271 68.7988ZM108.703 65.3184V76.6562H107.068V63.4902H108.562L108.703 65.3184ZM115.11 68.166V68.3506C115.11 69.042 115.028 69.6836 114.864 70.2754C114.7 70.8613 114.46 71.3711 114.144 71.8047C113.833 72.2383 113.449 72.5752 112.992 72.8154C112.535 73.0557 112.011 73.1758 111.419 73.1758C110.815 73.1758 110.282 73.0762 109.819 72.877C109.356 72.6777 108.964 72.3877 108.642 72.0068C108.319 71.626 108.062 71.1689 107.868 70.6357C107.681 70.1025 107.552 69.502 107.481 68.834V67.8496C107.552 67.1465 107.684 66.5166 107.877 65.96C108.07 65.4033 108.325 64.9287 108.642 64.5361C108.964 64.1377 109.354 63.8359 109.811 63.6309C110.268 63.4199 110.795 63.3145 111.393 63.3145C111.99 63.3145 112.521 63.4316 112.983 63.666C113.446 63.8945 113.836 64.2227 114.152 64.6504C114.469 65.0781 114.706 65.5908 114.864 66.1885C115.028 66.7803 115.11 67.4395 115.11 68.166ZM113.476 68.3506V68.166C113.476 67.6914 113.426 67.2461 113.326 66.8301C113.227 66.4082 113.071 66.0391 112.86 65.7227C112.655 65.4004 112.392 65.1484 112.069 64.9668C111.747 64.7793 111.363 64.6855 110.918 64.6855C110.508 64.6855 110.15 64.7559 109.846 64.8965C109.547 65.0371 109.292 65.2275 109.081 65.4678C108.87 65.7021 108.697 65.9717 108.562 66.2764C108.434 66.5752 108.337 66.8857 108.272 67.208V69.4844C108.39 69.8945 108.554 70.2812 108.765 70.6445C108.976 71.002 109.257 71.292 109.608 71.5146C109.96 71.7314 110.402 71.8398 110.936 71.8398C111.375 71.8398 111.753 71.749 112.069 71.5674C112.392 71.3799 112.655 71.125 112.86 70.8027C113.071 70.4805 113.227 70.1113 113.326 69.6953C113.426 69.2734 113.476 68.8252 113.476 68.3506Z" fill="white"/>
<g clip-path="url(#clip0_577_687)">
<path d="M60.7623 1.17227V7.40886C59.0916 6.86562 57.2596 6.50107 55.3136 6.34024C54.9909 6.31165 54.6681 6.29021 54.3391 6.27591C54.2884 6.27234 54.2378 6.26876 54.1872 6.26876C53.9341 6.25089 53.6746 6.24375 53.4151 6.2366C53.2316 6.23302 53.0481 6.22945 52.8614 6.22945C52.371 6.22945 51.8774 6.24375 51.3806 6.27234C51.3616 6.27234 51.3395 6.27234 51.3205 6.27591C49.1878 6.39743 47.0046 6.77627 44.8086 7.40172C42.6 8.03074 40.4674 8.89564 38.5183 9.94639V38.8921C39.6859 38.4417 40.8851 38.045 42.1128 37.6948C45.7199 36.6691 49.3365 36.1472 52.8614 36.1472C53.0449 36.1472 53.2316 36.1473 53.4151 36.1508V42.3838C53.2316 42.3767 53.0481 42.3767 52.8614 42.3767C52.3014 42.3767 51.7381 42.391 51.1654 42.4232C51.1369 42.4232 51.1085 42.4267 51.08 42.4267C48.6278 42.5697 46.0616 42.9986 43.4607 43.7384C39.5371 44.8535 35.9838 46.5547 33 48.6204V6.24375C35.9838 4.17798 39.5371 2.47677 43.4607 1.36169C46.7008 0.436026 49.8839 0 52.8614 0C53.0481 0 53.2316 0 53.4151 0.00357398C54.0575 0.0178699 54.6903 0.0500357 55.3136 0.103645C57.2596 0.264475 59.0916 0.629021 60.7623 1.17227Z" fill="white"/>
<path d="M83.0004 43.7598V2.09436C80.0166 4.16012 76.4664 5.86134 72.5428 6.97999C69.3027 7.90208 66.1196 8.33811 63.1421 8.33811C62.3321 8.33811 61.5379 8.30594 60.7627 8.24161C59.8134 8.16298 58.8926 8.03789 58.0035 7.86991C57.0701 7.69122 56.1683 7.46248 55.314 7.18728C55.2918 7.18014 55.2665 7.17299 55.2444 7.16584H55.2412V48.8277C55.2665 48.8349 55.2887 48.842 55.314 48.8492C57.6491 49.6033 60.3007 50 63.1421 50C66.1164 50 69.3027 49.564 72.5428 48.6419C76.4664 47.5232 80.0166 45.822 83.0004 43.7598ZM63.1421 43.7706C62.3226 43.7706 61.5252 43.7312 60.7563 43.6562V43.549C60.7563 43.549 60.7595 43.5525 60.7627 43.5525V13.7706C61.5442 13.8277 62.3352 13.8528 63.1421 13.8528C66.6638 13.8528 70.2804 13.3345 73.8907 12.3052C75.1153 11.955 76.3145 11.5547 77.4852 11.1079V40.0572C75.5329 41.1079 73.4003 41.9693 71.1917 42.5983C68.4642 43.3774 65.7557 43.7706 63.1421 43.7706Z" fill="white"/>
</g>
<defs>
<clipPath id="clip0_577_687">
<rect width="50" height="50" fill="white" transform="translate(33)"/>
</clipPath>
</defs>
</svg>
