<svg width="130" height="77" viewBox="0 0 130 77" fill="none" xmlns="http://www.w3.org/2000/svg">
<path d="M9.21094 68.9307H10.8984C10.8105 69.7393 10.5791 70.4629 10.2041 71.1016C9.8291 71.7402 9.29883 72.2471 8.61328 72.6221C7.92773 72.9912 7.07227 73.1758 6.04688 73.1758C5.29688 73.1758 4.61426 73.0352 3.99902 72.7539C3.38965 72.4727 2.86523 72.0742 2.42578 71.5586C1.98633 71.0371 1.64648 70.4131 1.40625 69.6865C1.17188 68.9541 1.05469 68.1396 1.05469 67.2432V65.9688C1.05469 65.0723 1.17188 64.2607 1.40625 63.5342C1.64648 62.8018 1.98926 62.1748 2.43457 61.6533C2.88574 61.1318 3.42773 60.7305 4.06055 60.4492C4.69336 60.168 5.40527 60.0273 6.19629 60.0273C7.16309 60.0273 7.98047 60.209 8.64844 60.5723C9.31641 60.9355 9.83496 61.4395 10.2041 62.084C10.5791 62.7227 10.8105 63.4639 10.8984 64.3076H9.21094C9.12891 63.71 8.97656 63.1973 8.75391 62.7695C8.53125 62.3359 8.21484 62.002 7.80469 61.7676C7.39453 61.5332 6.8584 61.416 6.19629 61.416C5.62793 61.416 5.12695 61.5244 4.69336 61.7412C4.26562 61.958 3.90527 62.2656 3.6123 62.6641C3.3252 63.0625 3.1084 63.54 2.96191 64.0967C2.81543 64.6533 2.74219 65.2715 2.74219 65.9512V67.2432C2.74219 67.8701 2.80664 68.459 2.93555 69.0098C3.07031 69.5605 3.27246 70.0439 3.54199 70.46C3.81152 70.876 4.1543 71.2041 4.57031 71.4443C4.98633 71.6787 5.47852 71.7959 6.04688 71.7959C6.76758 71.7959 7.3418 71.6816 7.76953 71.4531C8.19727 71.2246 8.51953 70.8965 8.73633 70.4688C8.95898 70.041 9.11719 69.5283 9.21094 68.9307ZM14.5898 64.9844V73H12.9639V63.4902H14.5459L14.5898 64.9844ZM17.5605 63.4375L17.5518 64.9492C17.417 64.9199 17.2881 64.9023 17.165 64.8965C17.0479 64.8848 16.9131 64.8789 16.7607 64.8789C16.3857 64.8789 16.0547 64.9375 15.7676 65.0547C15.4805 65.1719 15.2373 65.3359 15.0381 65.5469C14.8389 65.7578 14.6807 66.0098 14.5635 66.3027C14.4521 66.5898 14.3789 66.9062 14.3438 67.252L13.8867 67.5156C13.8867 66.9414 13.9424 66.4023 14.0537 65.8984C14.1709 65.3945 14.3496 64.9492 14.5898 64.5625C14.8301 64.1699 15.1348 63.8652 15.5039 63.6484C15.8789 63.4258 16.3242 63.3145 16.8398 63.3145C16.957 63.3145 17.0918 63.3291 17.2441 63.3584C17.3965 63.3818 17.502 63.4082 17.5605 63.4375ZM22.834 73.1758C22.1719 73.1758 21.5713 73.0645 21.0322 72.8418C20.499 72.6133 20.0391 72.2939 19.6523 71.8838C19.2715 71.4736 18.9785 70.9873 18.7734 70.4248C18.5684 69.8623 18.4658 69.2471 18.4658 68.5791V68.21C18.4658 67.4365 18.5801 66.748 18.8086 66.1445C19.0371 65.5352 19.3477 65.0195 19.7402 64.5977C20.1328 64.1758 20.5781 63.8564 21.0762 63.6396C21.5742 63.4229 22.0898 63.3145 22.623 63.3145C23.3027 63.3145 23.8887 63.4316 24.3809 63.666C24.8789 63.9004 25.2861 64.2285 25.6025 64.6504C25.9189 65.0664 26.1533 65.5586 26.3057 66.127C26.458 66.6895 26.5342 67.3047 26.5342 67.9727V68.7021H19.4326V67.375H24.9082V67.252C24.8848 66.8301 24.7969 66.4199 24.6445 66.0215C24.498 65.623 24.2637 65.2949 23.9414 65.0371C23.6191 64.7793 23.1797 64.6504 22.623 64.6504C22.2539 64.6504 21.9141 64.7295 21.6035 64.8877C21.293 65.04 21.0264 65.2686 20.8037 65.5732C20.5811 65.8779 20.4082 66.25 20.2852 66.6895C20.1621 67.1289 20.1006 67.6357 20.1006 68.21V68.5791C20.1006 69.0303 20.1621 69.4551 20.2852 69.8535C20.4141 70.2461 20.5986 70.5918 20.8389 70.8906C21.085 71.1895 21.3809 71.4238 21.7266 71.5938C22.0781 71.7637 22.4766 71.8486 22.9219 71.8486C23.4961 71.8486 23.9824 71.7314 24.3809 71.4971C24.7793 71.2627 25.1279 70.9492 25.4268 70.5566L26.4111 71.3389C26.2061 71.6494 25.9453 71.9453 25.6289 72.2266C25.3125 72.5078 24.9229 72.7363 24.46 72.9121C24.0029 73.0879 23.4609 73.1758 22.834 73.1758ZM34.04 71.374V66.4785C34.04 66.1035 33.9639 65.7783 33.8115 65.5029C33.665 65.2217 33.4424 65.0049 33.1436 64.8525C32.8447 64.7002 32.4756 64.624 32.0361 64.624C31.626 64.624 31.2656 64.6943 30.9551 64.835C30.6504 64.9756 30.4102 65.1602 30.2344 65.3887C30.0645 65.6172 29.9795 65.8633 29.9795 66.127H28.3535C28.3535 65.7871 28.4414 65.4502 28.6172 65.1162C28.793 64.7822 29.0449 64.4805 29.373 64.2109C29.707 63.9355 30.1055 63.7188 30.5684 63.5605C31.0371 63.3965 31.5586 63.3145 32.1328 63.3145C32.8242 63.3145 33.4336 63.4316 33.9609 63.666C34.4941 63.9004 34.9102 64.2549 35.209 64.7295C35.5137 65.1982 35.666 65.7871 35.666 66.4961V70.9258C35.666 71.2422 35.6924 71.5791 35.7451 71.9365C35.8037 72.2939 35.8887 72.6016 36 72.8594V73H34.3037C34.2217 72.8125 34.1572 72.5635 34.1104 72.2529C34.0635 71.9365 34.04 71.6436 34.04 71.374ZM34.3213 67.2344L34.3389 68.377H32.6953C32.2324 68.377 31.8193 68.415 31.4561 68.4912C31.0928 68.5615 30.7881 68.6699 30.542 68.8164C30.2959 68.9629 30.1084 69.1475 29.9795 69.3701C29.8506 69.5869 29.7861 69.8418 29.7861 70.1348C29.7861 70.4336 29.8535 70.7061 29.9883 70.9521C30.123 71.1982 30.3252 71.3945 30.5947 71.541C30.8701 71.6816 31.207 71.752 31.6055 71.752C32.1035 71.752 32.543 71.6465 32.9238 71.4355C33.3047 71.2246 33.6064 70.9668 33.8291 70.6621C34.0576 70.3574 34.1807 70.0615 34.1982 69.7744L34.8926 70.5566C34.8516 70.8027 34.7402 71.0752 34.5586 71.374C34.377 71.6729 34.1338 71.96 33.8291 72.2354C33.5303 72.5049 33.1729 72.7305 32.7568 72.9121C32.3467 73.0879 31.8838 73.1758 31.3682 73.1758C30.7236 73.1758 30.1582 73.0498 29.6719 72.7979C29.1914 72.5459 28.8164 72.209 28.5469 71.7871C28.2832 71.3594 28.1514 70.8818 28.1514 70.3545C28.1514 69.8447 28.251 69.3965 28.4502 69.0098C28.6494 68.6172 28.9365 68.292 29.3115 68.0342C29.6865 67.7705 30.1377 67.5713 30.665 67.4365C31.1924 67.3018 31.7812 67.2344 32.4316 67.2344H34.3213ZM42.2051 63.4902V64.7383H37.0635V63.4902H42.2051ZM38.8037 61.1787H40.4297V70.6445C40.4297 70.9668 40.4795 71.21 40.5791 71.374C40.6787 71.5381 40.8076 71.6465 40.9658 71.6992C41.124 71.752 41.2939 71.7783 41.4756 71.7783C41.6104 71.7783 41.751 71.7666 41.8975 71.7432C42.0498 71.7139 42.1641 71.6904 42.2402 71.6729L42.249 73C42.1201 73.041 41.9502 73.0791 41.7393 73.1143C41.5342 73.1553 41.2852 73.1758 40.9922 73.1758C40.5938 73.1758 40.2275 73.0967 39.8936 72.9385C39.5596 72.7803 39.293 72.5166 39.0938 72.1475C38.9004 71.7725 38.8037 71.2686 38.8037 70.6357V61.1787ZM45.8789 63.4902V73H44.2441V63.4902H45.8789ZM44.1211 60.9678C44.1211 60.7041 44.2002 60.4814 44.3584 60.2998C44.5225 60.1182 44.7627 60.0273 45.0791 60.0273C45.3896 60.0273 45.627 60.1182 45.791 60.2998C45.9609 60.4814 46.0459 60.7041 46.0459 60.9678C46.0459 61.2197 45.9609 61.4365 45.791 61.6182C45.627 61.7939 45.3896 61.8818 45.0791 61.8818C44.7627 61.8818 44.5225 61.7939 44.3584 61.6182C44.2002 61.4365 44.1211 61.2197 44.1211 60.9678ZM51.3809 71.5322L53.9824 63.4902H55.6436L52.2246 73H51.1348L51.3809 71.5322ZM49.21 63.4902L51.8906 71.5762L52.0752 73H50.9854L47.54 63.4902H49.21ZM61.0312 73.1758C60.3691 73.1758 59.7686 73.0645 59.2295 72.8418C58.6963 72.6133 58.2363 72.2939 57.8496 71.8838C57.4688 71.4736 57.1758 70.9873 56.9707 70.4248C56.7656 69.8623 56.6631 69.2471 56.6631 68.5791V68.21C56.6631 67.4365 56.7773 66.748 57.0059 66.1445C57.2344 65.5352 57.5449 65.0195 57.9375 64.5977C58.3301 64.1758 58.7754 63.8564 59.2734 63.6396C59.7715 63.4229 60.2871 63.3145 60.8203 63.3145C61.5 63.3145 62.0859 63.4316 62.5781 63.666C63.0762 63.9004 63.4834 64.2285 63.7998 64.6504C64.1162 65.0664 64.3506 65.5586 64.5029 66.127C64.6553 66.6895 64.7314 67.3047 64.7314 67.9727V68.7021H57.6299V67.375H63.1055V67.252C63.082 66.8301 62.9941 66.4199 62.8418 66.0215C62.6953 65.623 62.4609 65.2949 62.1387 65.0371C61.8164 64.7793 61.377 64.6504 60.8203 64.6504C60.4512 64.6504 60.1113 64.7295 59.8008 64.8877C59.4902 65.04 59.2236 65.2686 59.001 65.5732C58.7783 65.8779 58.6055 66.25 58.4824 66.6895C58.3594 67.1289 58.2979 67.6357 58.2979 68.21V68.5791C58.2979 69.0303 58.3594 69.4551 58.4824 69.8535C58.6113 70.2461 58.7959 70.5918 59.0361 70.8906C59.2822 71.1895 59.5781 71.4238 59.9238 71.5938C60.2754 71.7637 60.6738 71.8486 61.1191 71.8486C61.6934 71.8486 62.1797 71.7314 62.5781 71.4971C62.9766 71.2627 63.3252 70.9492 63.624 70.5566L64.6084 71.3389C64.4033 71.6494 64.1426 71.9453 63.8262 72.2266C63.5098 72.5078 63.1201 72.7363 62.6572 72.9121C62.2002 73.0879 61.6582 73.1758 61.0312 73.1758ZM76.0781 61.3369L71.8418 73H70.1104L74.9883 60.2031H76.1045L76.0781 61.3369ZM79.6289 73L75.3838 61.3369L75.3574 60.2031H76.4736L81.3691 73H79.6289ZM79.4092 68.2627V69.6514H72.2197V68.2627H79.4092ZM88.998 63.4902H90.4746V72.7979C90.4746 73.6357 90.3047 74.3506 89.9648 74.9424C89.625 75.5342 89.1504 75.9824 88.541 76.2871C87.9375 76.5977 87.2402 76.7529 86.4492 76.7529C86.1211 76.7529 85.7344 76.7002 85.2891 76.5947C84.8496 76.4951 84.416 76.3223 83.9883 76.0762C83.5664 75.8359 83.2119 75.5107 82.9248 75.1006L83.7773 74.1338C84.1758 74.6143 84.5918 74.9482 85.0254 75.1357C85.4648 75.3232 85.8984 75.417 86.3262 75.417C86.8418 75.417 87.2871 75.3203 87.6621 75.127C88.0371 74.9336 88.3271 74.6465 88.5322 74.2656C88.7432 73.8906 88.8486 73.4277 88.8486 72.877V65.582L88.998 63.4902ZM82.4502 68.3506V68.166C82.4502 67.4395 82.5352 66.7803 82.7051 66.1885C82.8809 65.5908 83.1299 65.0781 83.4521 64.6504C83.7803 64.2227 84.1758 63.8945 84.6387 63.666C85.1016 63.4316 85.623 63.3145 86.2031 63.3145C86.8008 63.3145 87.3223 63.4199 87.7676 63.6309C88.2188 63.8359 88.5996 64.1377 88.9102 64.5361C89.2266 64.9287 89.4756 65.4033 89.6572 65.96C89.8389 66.5166 89.9648 67.1465 90.0352 67.8496V68.6582C89.9707 69.3555 89.8447 69.9824 89.6572 70.5391C89.4756 71.0957 89.2266 71.5703 88.9102 71.9629C88.5996 72.3555 88.2188 72.6572 87.7676 72.8682C87.3164 73.0732 86.7891 73.1758 86.1855 73.1758C85.6172 73.1758 85.1016 73.0557 84.6387 72.8154C84.1816 72.5752 83.7891 72.2383 83.4609 71.8047C83.1328 71.3711 82.8809 70.8613 82.7051 70.2754C82.5352 69.6836 82.4502 69.042 82.4502 68.3506ZM84.0762 68.166V68.3506C84.0762 68.8252 84.123 69.2705 84.2168 69.6865C84.3164 70.1025 84.4658 70.4688 84.665 70.7852C84.8701 71.1016 85.1309 71.3506 85.4473 71.5322C85.7637 71.708 86.1416 71.7959 86.5811 71.7959C87.1201 71.7959 87.5654 71.6816 87.917 71.4531C88.2686 71.2246 88.5469 70.9229 88.752 70.5479C88.9629 70.1729 89.127 69.7656 89.2441 69.3262V67.208C89.1797 66.8857 89.0801 66.5752 88.9453 66.2764C88.8164 65.9717 88.6465 65.7021 88.4355 65.4678C88.2305 65.2275 87.9756 65.0371 87.6709 64.8965C87.3662 64.7559 87.0088 64.6855 86.5986 64.6855C86.1533 64.6855 85.7695 64.7793 85.4473 64.9668C85.1309 65.1484 84.8701 65.4004 84.665 65.7227C84.4658 66.0391 84.3164 66.4082 84.2168 66.8301C84.123 67.2461 84.0762 67.6914 84.0762 68.166ZM96.8906 73.1758C96.2285 73.1758 95.6279 73.0645 95.0889 72.8418C94.5557 72.6133 94.0957 72.2939 93.709 71.8838C93.3281 71.4736 93.0352 70.9873 92.8301 70.4248C92.625 69.8623 92.5225 69.2471 92.5225 68.5791V68.21C92.5225 67.4365 92.6367 66.748 92.8652 66.1445C93.0938 65.5352 93.4043 65.0195 93.7969 64.5977C94.1895 64.1758 94.6348 63.8564 95.1328 63.6396C95.6309 63.4229 96.1465 63.3145 96.6797 63.3145C97.3594 63.3145 97.9453 63.4316 98.4375 63.666C98.9355 63.9004 99.3428 64.2285 99.6592 64.6504C99.9756 65.0664 100.21 65.5586 100.362 66.127C100.515 66.6895 100.591 67.3047 100.591 67.9727V68.7021H93.4893V67.375H98.9648V67.252C98.9414 66.8301 98.8535 66.4199 98.7012 66.0215C98.5547 65.623 98.3203 65.2949 97.998 65.0371C97.6758 64.7793 97.2363 64.6504 96.6797 64.6504C96.3105 64.6504 95.9707 64.7295 95.6602 64.8877C95.3496 65.04 95.083 65.2686 94.8604 65.5732C94.6377 65.8779 94.4648 66.25 94.3418 66.6895C94.2188 67.1289 94.1572 67.6357 94.1572 68.21V68.5791C94.1572 69.0303 94.2188 69.4551 94.3418 69.8535C94.4707 70.2461 94.6553 70.5918 94.8955 70.8906C95.1416 71.1895 95.4375 71.4238 95.7832 71.5938C96.1348 71.7637 96.5332 71.8486 96.9785 71.8486C97.5527 71.8486 98.0391 71.7314 98.4375 71.4971C98.8359 71.2627 99.1846 70.9492 99.4834 70.5566L100.468 71.3389C100.263 71.6494 100.002 71.9453 99.6855 72.2266C99.3691 72.5078 98.9795 72.7363 98.5166 72.9121C98.0596 73.0879 97.5176 73.1758 96.8906 73.1758ZM104.115 65.5205V73H102.489V63.4902H104.027L104.115 65.5205ZM103.729 67.8848L103.052 67.8584C103.058 67.208 103.154 66.6074 103.342 66.0566C103.529 65.5 103.793 65.0166 104.133 64.6064C104.473 64.1963 104.877 63.8799 105.346 63.6572C105.82 63.4287 106.345 63.3145 106.919 63.3145C107.388 63.3145 107.81 63.3789 108.185 63.5078C108.56 63.6309 108.879 63.8301 109.143 64.1055C109.412 64.3809 109.617 64.7383 109.758 65.1777C109.898 65.6113 109.969 66.1416 109.969 66.7686V73H108.334V66.751C108.334 66.2529 108.261 65.8545 108.114 65.5557C107.968 65.251 107.754 65.0312 107.473 64.8965C107.191 64.7559 106.846 64.6855 106.436 64.6855C106.031 64.6855 105.662 64.7705 105.328 64.9404C105 65.1104 104.716 65.3447 104.476 65.6436C104.241 65.9424 104.057 66.2852 103.922 66.6719C103.793 67.0527 103.729 67.457 103.729 67.8848ZM113.537 63.4902L115.62 66.9531L117.729 63.4902H119.637L116.525 68.1836L119.733 73H117.853L115.655 69.4316L113.458 73H111.568L114.768 68.1836L111.665 63.4902H113.537ZM125.139 73.1758C124.477 73.1758 123.876 73.0645 123.337 72.8418C122.804 72.6133 122.344 72.2939 121.957 71.8838C121.576 71.4736 121.283 70.9873 121.078 70.4248C120.873 69.8623 120.771 69.2471 120.771 68.5791V68.21C120.771 67.4365 120.885 66.748 121.113 66.1445C121.342 65.5352 121.652 65.0195 122.045 64.5977C122.438 64.1758 122.883 63.8564 123.381 63.6396C123.879 63.4229 124.395 63.3145 124.928 63.3145C125.607 63.3145 126.193 63.4316 126.686 63.666C127.184 63.9004 127.591 64.2285 127.907 64.6504C128.224 65.0664 128.458 65.5586 128.61 66.127C128.763 66.6895 128.839 67.3047 128.839 67.9727V68.7021H121.737V67.375H127.213V67.252C127.189 66.8301 127.102 66.4199 126.949 66.0215C126.803 65.623 126.568 65.2949 126.246 65.0371C125.924 64.7793 125.484 64.6504 124.928 64.6504C124.559 64.6504 124.219 64.7295 123.908 64.8877C123.598 65.04 123.331 65.2686 123.108 65.5732C122.886 65.8779 122.713 66.25 122.59 66.6895C122.467 67.1289 122.405 67.6357 122.405 68.21V68.5791C122.405 69.0303 122.467 69.4551 122.59 69.8535C122.719 70.2461 122.903 70.5918 123.144 70.8906C123.39 71.1895 123.686 71.4238 124.031 71.5938C124.383 71.7637 124.781 71.8486 125.227 71.8486C125.801 71.8486 126.287 71.7314 126.686 71.4971C127.084 71.2627 127.433 70.9492 127.731 70.5566L128.716 71.3389C128.511 71.6494 128.25 71.9453 127.934 72.2266C127.617 72.5078 127.228 72.7363 126.765 72.9121C126.308 73.0879 125.766 73.1758 125.139 73.1758Z" fill="white"/>
<path d="M50.7623 19.5709H51.807V20.6155V36.6976L56.5318 31.9728V14.8496H40.003L40 48.5046L44.7248 43.7798V20.6155V19.5709H45.7695H50.7623Z" fill="white"/>
<path d="M69.384 38.193H70.4282V39.2376V44.2305V45.2752H69.384H48.6223L43.8975 50L75.1499 49.9969V33.4677H60.4293L55.7039 38.193H69.384Z" fill="white"/>
<path d="M85.2792 18.8023V19.8464H84.2345H74.0509L69.3291 24.5677H90.0005V3.89685L85.2792 8.61812V18.8023Z" fill="white"/>
<path d="M83.7837 4.72127L88.5055 0H65.4316V23.0734L70.1529 18.3521V5.76592V4.72127H71.1976H83.7837Z" fill="white"/>
</svg>
