<svg width="111" height="77" viewBox="0 0 111 77" fill="none" xmlns="http://www.w3.org/2000/svg">
<path d="M6.04688 67.0146H2.80371L2.78613 65.6523H5.73047C6.2168 65.6523 6.6416 65.5703 7.00488 65.4062C7.36816 65.2422 7.64941 65.0078 7.84863 64.7031C8.05371 64.3926 8.15625 64.0234 8.15625 63.5957C8.15625 63.127 8.06543 62.7461 7.88379 62.4531C7.70801 62.1543 7.43555 61.9375 7.06641 61.8027C6.70312 61.6621 6.24023 61.5918 5.67773 61.5918H3.18164V73H1.48535V60.2031H5.67773C6.33398 60.2031 6.91992 60.2705 7.43555 60.4053C7.95117 60.5342 8.3877 60.7393 8.74512 61.0205C9.1084 61.2959 9.38379 61.6475 9.57129 62.0752C9.75879 62.5029 9.85254 63.0156 9.85254 63.6133C9.85254 64.1406 9.71777 64.6182 9.44824 65.0459C9.17871 65.4678 8.80371 65.8135 8.32324 66.083C7.84863 66.3525 7.29199 66.5254 6.65332 66.6016L6.04688 67.0146ZM5.96777 73H2.13574L3.09375 71.6201H5.96777C6.50684 71.6201 6.96387 71.5264 7.33887 71.3389C7.71973 71.1514 8.00977 70.8877 8.20898 70.5479C8.4082 70.2021 8.50781 69.7949 8.50781 69.3262C8.50781 68.8516 8.42285 68.4414 8.25293 68.0957C8.08301 67.75 7.81641 67.4834 7.45312 67.2959C7.08984 67.1084 6.62109 67.0146 6.04688 67.0146H3.62988L3.64746 65.6523H6.95215L7.3125 66.1445C7.92773 66.1973 8.44922 66.373 8.87695 66.6719C9.30469 66.9648 9.62988 67.3398 9.85254 67.7969C10.0811 68.2539 10.1953 68.7578 10.1953 69.3086C10.1953 70.1055 10.0195 70.7793 9.66797 71.3301C9.32227 71.875 8.83301 72.291 8.2002 72.5781C7.56738 72.8594 6.82324 73 5.96777 73ZM14.0801 64.9844V73H12.4541V63.4902H14.0361L14.0801 64.9844ZM17.0508 63.4375L17.042 64.9492C16.9072 64.9199 16.7783 64.9023 16.6553 64.8965C16.5381 64.8848 16.4033 64.8789 16.251 64.8789C15.876 64.8789 15.5449 64.9375 15.2578 65.0547C14.9707 65.1719 14.7275 65.3359 14.5283 65.5469C14.3291 65.7578 14.1709 66.0098 14.0537 66.3027C13.9424 66.5898 13.8691 66.9062 13.834 67.252L13.377 67.5156C13.377 66.9414 13.4326 66.4023 13.5439 65.8984C13.6611 65.3945 13.8398 64.9492 14.0801 64.5625C14.3203 64.1699 14.625 63.8652 14.9941 63.6484C15.3691 63.4258 15.8145 63.3145 16.3301 63.3145C16.4473 63.3145 16.582 63.3291 16.7344 63.3584C16.8867 63.3818 16.9922 63.4082 17.0508 63.4375ZM23.8096 71.374V66.4785C23.8096 66.1035 23.7334 65.7783 23.5811 65.5029C23.4346 65.2217 23.2119 65.0049 22.9131 64.8525C22.6143 64.7002 22.2451 64.624 21.8057 64.624C21.3955 64.624 21.0352 64.6943 20.7246 64.835C20.4199 64.9756 20.1797 65.1602 20.0039 65.3887C19.834 65.6172 19.749 65.8633 19.749 66.127H18.123C18.123 65.7871 18.2109 65.4502 18.3867 65.1162C18.5625 64.7822 18.8145 64.4805 19.1426 64.2109C19.4766 63.9355 19.875 63.7188 20.3379 63.5605C20.8066 63.3965 21.3281 63.3145 21.9023 63.3145C22.5938 63.3145 23.2031 63.4316 23.7305 63.666C24.2637 63.9004 24.6797 64.2549 24.9785 64.7295C25.2832 65.1982 25.4355 65.7871 25.4355 66.4961V70.9258C25.4355 71.2422 25.4619 71.5791 25.5146 71.9365C25.5732 72.2939 25.6582 72.6016 25.7695 72.8594V73H24.0732C23.9912 72.8125 23.9268 72.5635 23.8799 72.2529C23.833 71.9365 23.8096 71.6436 23.8096 71.374ZM24.0908 67.2344L24.1084 68.377H22.4648C22.002 68.377 21.5889 68.415 21.2256 68.4912C20.8623 68.5615 20.5576 68.6699 20.3115 68.8164C20.0654 68.9629 19.8779 69.1475 19.749 69.3701C19.6201 69.5869 19.5557 69.8418 19.5557 70.1348C19.5557 70.4336 19.623 70.7061 19.7578 70.9521C19.8926 71.1982 20.0947 71.3945 20.3643 71.541C20.6396 71.6816 20.9766 71.752 21.375 71.752C21.873 71.752 22.3125 71.6465 22.6934 71.4355C23.0742 71.2246 23.376 70.9668 23.5986 70.6621C23.8271 70.3574 23.9502 70.0615 23.9678 69.7744L24.6621 70.5566C24.6211 70.8027 24.5098 71.0752 24.3281 71.374C24.1465 71.6729 23.9033 71.96 23.5986 72.2354C23.2998 72.5049 22.9424 72.7305 22.5264 72.9121C22.1162 73.0879 21.6533 73.1758 21.1377 73.1758C20.4932 73.1758 19.9277 73.0498 19.4414 72.7979C18.9609 72.5459 18.5859 72.209 18.3164 71.7871C18.0527 71.3594 17.9209 70.8818 17.9209 70.3545C17.9209 69.8447 18.0205 69.3965 18.2197 69.0098C18.4189 68.6172 18.7061 68.292 19.0811 68.0342C19.4561 67.7705 19.9072 67.5713 20.4346 67.4365C20.9619 67.3018 21.5508 67.2344 22.2012 67.2344H24.0908ZM29.6191 65.5205V73H27.9932V63.4902H29.5312L29.6191 65.5205ZM29.2324 67.8848L28.5557 67.8584C28.5615 67.208 28.6582 66.6074 28.8457 66.0566C29.0332 65.5 29.2969 65.0166 29.6367 64.6064C29.9766 64.1963 30.3809 63.8799 30.8496 63.6572C31.3242 63.4287 31.8486 63.3145 32.4229 63.3145C32.8916 63.3145 33.3135 63.3789 33.6885 63.5078C34.0635 63.6309 34.3828 63.8301 34.6465 64.1055C34.916 64.3809 35.1211 64.7383 35.2617 65.1777C35.4023 65.6113 35.4727 66.1416 35.4727 66.7686V73H33.8379V66.751C33.8379 66.2529 33.7646 65.8545 33.6182 65.5557C33.4717 65.251 33.2578 65.0312 32.9766 64.8965C32.6953 64.7559 32.3496 64.6855 31.9395 64.6855C31.5352 64.6855 31.166 64.7705 30.832 64.9404C30.5039 65.1104 30.2197 65.3447 29.9795 65.6436C29.7451 65.9424 29.5605 66.2852 29.4258 66.6719C29.2969 67.0527 29.2324 67.457 29.2324 67.8848ZM43.9365 71.1543V59.5H45.5713V73H44.0771L43.9365 71.1543ZM37.5381 68.3506V68.166C37.5381 67.4395 37.626 66.7803 37.8018 66.1885C37.9834 65.5908 38.2383 65.0781 38.5664 64.6504C38.9004 64.2227 39.2959 63.8945 39.7529 63.666C40.2158 63.4316 40.7314 63.3145 41.2998 63.3145C41.8975 63.3145 42.4189 63.4199 42.8643 63.6309C43.3154 63.8359 43.6963 64.1377 44.0068 64.5361C44.3232 64.9287 44.5723 65.4033 44.7539 65.96C44.9355 66.5166 45.0615 67.1465 45.1318 67.8496V68.6582C45.0674 69.3555 44.9414 69.9824 44.7539 70.5391C44.5723 71.0957 44.3232 71.5703 44.0068 71.9629C43.6963 72.3555 43.3154 72.6572 42.8643 72.8682C42.4131 73.0732 41.8857 73.1758 41.2822 73.1758C40.7256 73.1758 40.2158 73.0557 39.7529 72.8154C39.2959 72.5752 38.9004 72.2383 38.5664 71.8047C38.2383 71.3711 37.9834 70.8613 37.8018 70.2754C37.626 69.6836 37.5381 69.042 37.5381 68.3506ZM39.1729 68.166V68.3506C39.1729 68.8252 39.2197 69.2705 39.3135 69.6865C39.4131 70.1025 39.5654 70.4688 39.7705 70.7852C39.9756 71.1016 40.2363 71.3506 40.5527 71.5322C40.8691 71.708 41.2471 71.7959 41.6865 71.7959C42.2256 71.7959 42.668 71.6816 43.0137 71.4531C43.3652 71.2246 43.6465 70.9229 43.8574 70.5479C44.0684 70.1729 44.2324 69.7656 44.3496 69.3262V67.208C44.2793 66.8857 44.1768 66.5752 44.042 66.2764C43.9131 65.9717 43.7432 65.7021 43.5322 65.4678C43.3271 65.2275 43.0723 65.0371 42.7676 64.8965C42.4688 64.7559 42.1143 64.6855 41.7041 64.6855C41.2588 64.6855 40.875 64.7793 40.5527 64.9668C40.2363 65.1484 39.9756 65.4004 39.7705 65.7227C39.5654 66.0391 39.4131 66.4082 39.3135 66.8301C39.2197 67.2461 39.1729 67.6914 39.1729 68.166ZM57.5508 61.3369L53.3145 73H51.583L56.4609 60.2031H57.5771L57.5508 61.3369ZM61.1016 73L56.8564 61.3369L56.8301 60.2031H57.9463L62.8418 73H61.1016ZM60.8818 68.2627V69.6514H53.6924V68.2627H60.8818ZM70.4707 63.4902H71.9473V72.7979C71.9473 73.6357 71.7773 74.3506 71.4375 74.9424C71.0977 75.5342 70.623 75.9824 70.0137 76.2871C69.4102 76.5977 68.7129 76.7529 67.9219 76.7529C67.5938 76.7529 67.207 76.7002 66.7617 76.5947C66.3223 76.4951 65.8887 76.3223 65.4609 76.0762C65.0391 75.8359 64.6846 75.5107 64.3975 75.1006L65.25 74.1338C65.6484 74.6143 66.0645 74.9482 66.498 75.1357C66.9375 75.3232 67.3711 75.417 67.7988 75.417C68.3145 75.417 68.7598 75.3203 69.1348 75.127C69.5098 74.9336 69.7998 74.6465 70.0049 74.2656C70.2158 73.8906 70.3213 73.4277 70.3213 72.877V65.582L70.4707 63.4902ZM63.9229 68.3506V68.166C63.9229 67.4395 64.0078 66.7803 64.1777 66.1885C64.3535 65.5908 64.6025 65.0781 64.9248 64.6504C65.2529 64.2227 65.6484 63.8945 66.1113 63.666C66.5742 63.4316 67.0957 63.3145 67.6758 63.3145C68.2734 63.3145 68.7949 63.4199 69.2402 63.6309C69.6914 63.8359 70.0723 64.1377 70.3828 64.5361C70.6992 64.9287 70.9482 65.4033 71.1299 65.96C71.3115 66.5166 71.4375 67.1465 71.5078 67.8496V68.6582C71.4434 69.3555 71.3174 69.9824 71.1299 70.5391C70.9482 71.0957 70.6992 71.5703 70.3828 71.9629C70.0723 72.3555 69.6914 72.6572 69.2402 72.8682C68.7891 73.0732 68.2617 73.1758 67.6582 73.1758C67.0898 73.1758 66.5742 73.0557 66.1113 72.8154C65.6543 72.5752 65.2617 72.2383 64.9336 71.8047C64.6055 71.3711 64.3535 70.8613 64.1777 70.2754C64.0078 69.6836 63.9229 69.042 63.9229 68.3506ZM65.5488 68.166V68.3506C65.5488 68.8252 65.5957 69.2705 65.6895 69.6865C65.7891 70.1025 65.9385 70.4688 66.1377 70.7852C66.3428 71.1016 66.6035 71.3506 66.9199 71.5322C67.2363 71.708 67.6143 71.7959 68.0537 71.7959C68.5928 71.7959 69.0381 71.6816 69.3896 71.4531C69.7412 71.2246 70.0195 70.9229 70.2246 70.5479C70.4355 70.1729 70.5996 69.7656 70.7168 69.3262V67.208C70.6523 66.8857 70.5527 66.5752 70.418 66.2764C70.2891 65.9717 70.1191 65.7021 69.9082 65.4678C69.7031 65.2275 69.4482 65.0371 69.1436 64.8965C68.8389 64.7559 68.4814 64.6855 68.0713 64.6855C67.626 64.6855 67.2422 64.7793 66.9199 64.9668C66.6035 65.1484 66.3428 65.4004 66.1377 65.7227C65.9385 66.0391 65.7891 66.4082 65.6895 66.8301C65.5957 67.2461 65.5488 67.6914 65.5488 68.166ZM78.3633 73.1758C77.7012 73.1758 77.1006 73.0645 76.5615 72.8418C76.0283 72.6133 75.5684 72.2939 75.1816 71.8838C74.8008 71.4736 74.5078 70.9873 74.3027 70.4248C74.0977 69.8623 73.9951 69.2471 73.9951 68.5791V68.21C73.9951 67.4365 74.1094 66.748 74.3379 66.1445C74.5664 65.5352 74.877 65.0195 75.2695 64.5977C75.6621 64.1758 76.1074 63.8564 76.6055 63.6396C77.1035 63.4229 77.6191 63.3145 78.1523 63.3145C78.832 63.3145 79.418 63.4316 79.9102 63.666C80.4082 63.9004 80.8154 64.2285 81.1318 64.6504C81.4482 65.0664 81.6826 65.5586 81.835 66.127C81.9873 66.6895 82.0635 67.3047 82.0635 67.9727V68.7021H74.9619V67.375H80.4375V67.252C80.4141 66.8301 80.3262 66.4199 80.1738 66.0215C80.0273 65.623 79.793 65.2949 79.4707 65.0371C79.1484 64.7793 78.709 64.6504 78.1523 64.6504C77.7832 64.6504 77.4434 64.7295 77.1328 64.8877C76.8223 65.04 76.5557 65.2686 76.333 65.5732C76.1104 65.8779 75.9375 66.25 75.8145 66.6895C75.6914 67.1289 75.6299 67.6357 75.6299 68.21V68.5791C75.6299 69.0303 75.6914 69.4551 75.8145 69.8535C75.9434 70.2461 76.1279 70.5918 76.3682 70.8906C76.6143 71.1895 76.9102 71.4238 77.2559 71.5938C77.6074 71.7637 78.0059 71.8486 78.4512 71.8486C79.0254 71.8486 79.5117 71.7314 79.9102 71.4971C80.3086 71.2627 80.6572 70.9492 80.9561 70.5566L81.9404 71.3389C81.7354 71.6494 81.4746 71.9453 81.1582 72.2266C80.8418 72.5078 80.4521 72.7363 79.9893 72.9121C79.5322 73.0879 78.9902 73.1758 78.3633 73.1758ZM85.5879 65.5205V73H83.9619V63.4902H85.5L85.5879 65.5205ZM85.2012 67.8848L84.5244 67.8584C84.5303 67.208 84.627 66.6074 84.8145 66.0566C85.002 65.5 85.2656 65.0166 85.6055 64.6064C85.9453 64.1963 86.3496 63.8799 86.8184 63.6572C87.293 63.4287 87.8174 63.3145 88.3916 63.3145C88.8604 63.3145 89.2822 63.3789 89.6572 63.5078C90.0322 63.6309 90.3516 63.8301 90.6152 64.1055C90.8848 64.3809 91.0898 64.7383 91.2305 65.1777C91.3711 65.6113 91.4414 66.1416 91.4414 66.7686V73H89.8066V66.751C89.8066 66.2529 89.7334 65.8545 89.5869 65.5557C89.4404 65.251 89.2266 65.0312 88.9453 64.8965C88.6641 64.7559 88.3184 64.6855 87.9082 64.6855C87.5039 64.6855 87.1348 64.7705 86.8008 64.9404C86.4727 65.1104 86.1885 65.3447 85.9482 65.6436C85.7139 65.9424 85.5293 66.2852 85.3945 66.6719C85.2656 67.0527 85.2012 67.457 85.2012 67.8848ZM97.7168 71.8398C98.1035 71.8398 98.4609 71.7607 98.7891 71.6025C99.1172 71.4443 99.3867 71.2275 99.5977 70.9521C99.8086 70.6709 99.9287 70.3516 99.958 69.9941H101.505C101.476 70.5566 101.285 71.0811 100.934 71.5674C100.588 72.0479 100.134 72.4375 99.5713 72.7363C99.0088 73.0293 98.3906 73.1758 97.7168 73.1758C97.002 73.1758 96.3779 73.0498 95.8447 72.7979C95.3174 72.5459 94.8779 72.2002 94.5264 71.7607C94.1807 71.3213 93.9199 70.8174 93.7441 70.249C93.5742 69.6748 93.4893 69.0684 93.4893 68.4297V68.0605C93.4893 67.4219 93.5742 66.8184 93.7441 66.25C93.9199 65.6758 94.1807 65.1689 94.5264 64.7295C94.8779 64.29 95.3174 63.9443 95.8447 63.6924C96.3779 63.4404 97.002 63.3145 97.7168 63.3145C98.4609 63.3145 99.1113 63.4668 99.668 63.7715C100.225 64.0703 100.661 64.4805 100.978 65.002C101.3 65.5176 101.476 66.1035 101.505 66.7598H99.958C99.9287 66.3672 99.8174 66.0127 99.624 65.6963C99.4365 65.3799 99.1787 65.1279 98.8506 64.9404C98.5283 64.7471 98.1504 64.6504 97.7168 64.6504C97.2188 64.6504 96.7998 64.75 96.46 64.9492C96.126 65.1426 95.8594 65.4062 95.6602 65.7402C95.4668 66.0684 95.3262 66.4346 95.2383 66.8389C95.1562 67.2373 95.1152 67.6445 95.1152 68.0605V68.4297C95.1152 68.8457 95.1562 69.2559 95.2383 69.6602C95.3203 70.0645 95.458 70.4307 95.6514 70.7588C95.8506 71.0869 96.1172 71.3506 96.4512 71.5498C96.791 71.7432 97.2129 71.8398 97.7168 71.8398ZM106.005 72.0156L108.65 63.4902H110.391L106.576 74.4678C106.488 74.7021 106.371 74.9541 106.225 75.2236C106.084 75.499 105.902 75.7598 105.68 76.0059C105.457 76.252 105.188 76.4512 104.871 76.6035C104.561 76.7617 104.188 76.8408 103.755 76.8408C103.626 76.8408 103.462 76.8232 103.263 76.7881C103.063 76.7529 102.923 76.7236 102.841 76.7002L102.832 75.3818C102.879 75.3877 102.952 75.3936 103.052 75.3994C103.157 75.4111 103.23 75.417 103.271 75.417C103.641 75.417 103.954 75.3672 104.212 75.2676C104.47 75.1738 104.687 75.0127 104.862 74.7842C105.044 74.5615 105.199 74.2539 105.328 73.8613L106.005 72.0156ZM104.062 63.4902L106.532 70.873L106.954 72.5869L105.785 73.1846L102.287 63.4902H104.062Z" fill="white"/>
<path d="M47.5232 39.1666L51.0712 41.4617L55.408 38.6571L51.86 36.362V2.67079L47.7364 0L47.3745 0.233631L31 10.83V16.4431L47.5232 5.74634V39.1666Z" fill="white"/>
<path d="M60.1396 2.67079V38.0246L47.7369 46.0535L35.3337 38.0246V16.0684L31 18.8729V39.1671L47.7369 50L64.4737 39.1671V5.74634L81 16.4431V10.83L64.2631 0L60.1396 2.67079Z" fill="white"/>
<path d="M62.2132 43.0608L57.876 45.8687L64.2631 50L80.9999 39.167V18.8734L76.6627 16.0684V36.362L64.2626 44.3908L62.2132 43.0608Z" fill="white"/>
</svg>
