<svg width="81" height="77" viewBox="0 0 81 77" fill="none" xmlns="http://www.w3.org/2000/svg">
<path d="M9.21094 68.9302H10.8984C10.8105 69.7388 10.5791 70.4624 10.2041 71.1011C9.8291 71.7397 9.29883 72.2466 8.61328 72.6216C7.92773 72.9907 7.07227 73.1753 6.04688 73.1753C5.29688 73.1753 4.61426 73.0347 3.99902 72.7534C3.38965 72.4722 2.86523 72.0737 2.42578 71.5581C1.98633 71.0366 1.64648 70.4126 1.40625 69.686C1.17188 68.9536 1.05469 68.1392 1.05469 67.2427V65.9683C1.05469 65.0718 1.17188 64.2603 1.40625 63.5337C1.64648 62.8013 1.98926 62.1743 2.43457 61.6528C2.88574 61.1313 3.42773 60.73 4.06055 60.4487C4.69336 60.1675 5.40527 60.0269 6.19629 60.0269C7.16309 60.0269 7.98047 60.2085 8.64844 60.5718C9.31641 60.9351 9.83496 61.439 10.2041 62.0835C10.5791 62.7222 10.8105 63.4634 10.8984 64.3071H9.21094C9.12891 63.7095 8.97656 63.1968 8.75391 62.769C8.53125 62.3354 8.21484 62.0015 7.80469 61.7671C7.39453 61.5327 6.8584 61.4155 6.19629 61.4155C5.62793 61.4155 5.12695 61.5239 4.69336 61.7407C4.26562 61.9575 3.90527 62.2651 3.6123 62.6636C3.3252 63.062 3.1084 63.5396 2.96191 64.0962C2.81543 64.6528 2.74219 65.271 2.74219 65.9507V67.2427C2.74219 67.8696 2.80664 68.4585 2.93555 69.0093C3.07031 69.5601 3.27246 70.0435 3.54199 70.4595C3.81152 70.8755 4.1543 71.2036 4.57031 71.4438C4.98633 71.6782 5.47852 71.7954 6.04688 71.7954C6.76758 71.7954 7.3418 71.6812 7.76953 71.4526C8.19727 71.2241 8.51953 70.896 8.73633 70.4683C8.95898 70.0405 9.11719 69.5278 9.21094 68.9302ZM14.5898 64.9839V72.9995H12.9639V63.4897H14.5459L14.5898 64.9839ZM17.5605 63.437L17.5518 64.9487C17.417 64.9194 17.2881 64.9019 17.165 64.896C17.0479 64.8843 16.9131 64.8784 16.7607 64.8784C16.3857 64.8784 16.0547 64.937 15.7676 65.0542C15.4805 65.1714 15.2373 65.3354 15.0381 65.5464C14.8389 65.7573 14.6807 66.0093 14.5635 66.3022C14.4521 66.5894 14.3789 66.9058 14.3438 67.2515L13.8867 67.5151C13.8867 66.9409 13.9424 66.4019 14.0537 65.8979C14.1709 65.394 14.3496 64.9487 14.5898 64.562C14.8301 64.1694 15.1348 63.8647 15.5039 63.6479C15.8789 63.4253 16.3242 63.314 16.8398 63.314C16.957 63.314 17.0918 63.3286 17.2441 63.3579C17.3965 63.3813 17.502 63.4077 17.5605 63.437ZM22.834 73.1753C22.1719 73.1753 21.5713 73.064 21.0322 72.8413C20.499 72.6128 20.0391 72.2935 19.6523 71.8833C19.2715 71.4731 18.9785 70.9868 18.7734 70.4243C18.5684 69.8618 18.4658 69.2466 18.4658 68.5786V68.2095C18.4658 67.436 18.5801 66.7476 18.8086 66.144C19.0371 65.5347 19.3477 65.019 19.7402 64.5972C20.1328 64.1753 20.5781 63.856 21.0762 63.6392C21.5742 63.4224 22.0898 63.314 22.623 63.314C23.3027 63.314 23.8887 63.4312 24.3809 63.6655C24.8789 63.8999 25.2861 64.228 25.6025 64.6499C25.9189 65.0659 26.1533 65.5581 26.3057 66.1265C26.458 66.689 26.5342 67.3042 26.5342 67.9722V68.7017H19.4326V67.3745H24.9082V67.2515C24.8848 66.8296 24.7969 66.4194 24.6445 66.021C24.498 65.6226 24.2637 65.2944 23.9414 65.0366C23.6191 64.7788 23.1797 64.6499 22.623 64.6499C22.2539 64.6499 21.9141 64.729 21.6035 64.8872C21.293 65.0396 21.0264 65.2681 20.8037 65.5728C20.5811 65.8774 20.4082 66.2495 20.2852 66.689C20.1621 67.1284 20.1006 67.6353 20.1006 68.2095V68.5786C20.1006 69.0298 20.1621 69.4546 20.2852 69.853C20.4141 70.2456 20.5986 70.5913 20.8389 70.8901C21.085 71.189 21.3809 71.4233 21.7266 71.5933C22.0781 71.7632 22.4766 71.8481 22.9219 71.8481C23.4961 71.8481 23.9824 71.731 24.3809 71.4966C24.7793 71.2622 25.1279 70.9487 25.4268 70.5562L26.4111 71.3384C26.2061 71.6489 25.9453 71.9448 25.6289 72.2261C25.3125 72.5073 24.9229 72.7358 24.46 72.9116C24.0029 73.0874 23.4609 73.1753 22.834 73.1753ZM34.04 71.3735V66.478C34.04 66.103 33.9639 65.7778 33.8115 65.5024C33.665 65.2212 33.4424 65.0044 33.1436 64.8521C32.8447 64.6997 32.4756 64.6235 32.0361 64.6235C31.626 64.6235 31.2656 64.6938 30.9551 64.8345C30.6504 64.9751 30.4102 65.1597 30.2344 65.3882C30.0645 65.6167 29.9795 65.8628 29.9795 66.1265H28.3535C28.3535 65.7866 28.4414 65.4497 28.6172 65.1157C28.793 64.7817 29.0449 64.48 29.373 64.2104C29.707 63.9351 30.1055 63.7183 30.5684 63.5601C31.0371 63.396 31.5586 63.314 32.1328 63.314C32.8242 63.314 33.4336 63.4312 33.9609 63.6655C34.4941 63.8999 34.9102 64.2544 35.209 64.729C35.5137 65.1978 35.666 65.7866 35.666 66.4956V70.9253C35.666 71.2417 35.6924 71.5786 35.7451 71.936C35.8037 72.2935 35.8887 72.6011 36 72.8589V72.9995H34.3037C34.2217 72.812 34.1572 72.563 34.1104 72.2524C34.0635 71.936 34.04 71.6431 34.04 71.3735ZM34.3213 67.2339L34.3389 68.3765H32.6953C32.2324 68.3765 31.8193 68.4146 31.4561 68.4907C31.0928 68.561 30.7881 68.6694 30.542 68.8159C30.2959 68.9624 30.1084 69.147 29.9795 69.3696C29.8506 69.5864 29.7861 69.8413 29.7861 70.1343C29.7861 70.4331 29.8535 70.7056 29.9883 70.9517C30.123 71.1978 30.3252 71.394 30.5947 71.5405C30.8701 71.6812 31.207 71.7515 31.6055 71.7515C32.1035 71.7515 32.543 71.646 32.9238 71.4351C33.3047 71.2241 33.6064 70.9663 33.8291 70.6616C34.0576 70.3569 34.1807 70.061 34.1982 69.7739L34.8926 70.5562C34.8516 70.8022 34.7402 71.0747 34.5586 71.3735C34.377 71.6724 34.1338 71.9595 33.8291 72.2349C33.5303 72.5044 33.1729 72.73 32.7568 72.9116C32.3467 73.0874 31.8838 73.1753 31.3682 73.1753C30.7236 73.1753 30.1582 73.0493 29.6719 72.7974C29.1914 72.5454 28.8164 72.2085 28.5469 71.7866C28.2832 71.3589 28.1514 70.8813 28.1514 70.354C28.1514 69.8442 28.251 69.396 28.4502 69.0093C28.6494 68.6167 28.9365 68.2915 29.3115 68.0337C29.6865 67.77 30.1377 67.5708 30.665 67.436C31.1924 67.3013 31.7812 67.2339 32.4316 67.2339H34.3213ZM42.2051 63.4897V64.7378H37.0635V63.4897H42.2051ZM38.8037 61.1782H40.4297V70.644C40.4297 70.9663 40.4795 71.2095 40.5791 71.3735C40.6787 71.5376 40.8076 71.646 40.9658 71.6987C41.124 71.7515 41.2939 71.7778 41.4756 71.7778C41.6104 71.7778 41.751 71.7661 41.8975 71.7427C42.0498 71.7134 42.1641 71.6899 42.2402 71.6724L42.249 72.9995C42.1201 73.0405 41.9502 73.0786 41.7393 73.1138C41.5342 73.1548 41.2852 73.1753 40.9922 73.1753C40.5938 73.1753 40.2275 73.0962 39.8936 72.938C39.5596 72.7798 39.293 72.5161 39.0938 72.147C38.9004 71.772 38.8037 71.2681 38.8037 70.6353V61.1782ZM45.8789 63.4897V72.9995H44.2441V63.4897H45.8789ZM44.1211 60.9673C44.1211 60.7036 44.2002 60.481 44.3584 60.2993C44.5225 60.1177 44.7627 60.0269 45.0791 60.0269C45.3896 60.0269 45.627 60.1177 45.791 60.2993C45.9609 60.481 46.0459 60.7036 46.0459 60.9673C46.0459 61.2192 45.9609 61.436 45.791 61.6177C45.627 61.7935 45.3896 61.8813 45.0791 61.8813C44.7627 61.8813 44.5225 61.7935 44.3584 61.6177C44.2002 61.436 44.1211 61.2192 44.1211 60.9673ZM51.3809 71.5317L53.9824 63.4897H55.6436L52.2246 72.9995H51.1348L51.3809 71.5317ZM49.21 63.4897L51.8906 71.5757L52.0752 72.9995H50.9854L47.54 63.4897H49.21ZM61.0312 73.1753C60.3691 73.1753 59.7686 73.064 59.2295 72.8413C58.6963 72.6128 58.2363 72.2935 57.8496 71.8833C57.4688 71.4731 57.1758 70.9868 56.9707 70.4243C56.7656 69.8618 56.6631 69.2466 56.6631 68.5786V68.2095C56.6631 67.436 56.7773 66.7476 57.0059 66.144C57.2344 65.5347 57.5449 65.019 57.9375 64.5972C58.3301 64.1753 58.7754 63.856 59.2734 63.6392C59.7715 63.4224 60.2871 63.314 60.8203 63.314C61.5 63.314 62.0859 63.4312 62.5781 63.6655C63.0762 63.8999 63.4834 64.228 63.7998 64.6499C64.1162 65.0659 64.3506 65.5581 64.5029 66.1265C64.6553 66.689 64.7314 67.3042 64.7314 67.9722V68.7017H57.6299V67.3745H63.1055V67.2515C63.082 66.8296 62.9941 66.4194 62.8418 66.021C62.6953 65.6226 62.4609 65.2944 62.1387 65.0366C61.8164 64.7788 61.377 64.6499 60.8203 64.6499C60.4512 64.6499 60.1113 64.729 59.8008 64.8872C59.4902 65.0396 59.2236 65.2681 59.001 65.5728C58.7783 65.8774 58.6055 66.2495 58.4824 66.689C58.3594 67.1284 58.2979 67.6353 58.2979 68.2095V68.5786C58.2979 69.0298 58.3594 69.4546 58.4824 69.853C58.6113 70.2456 58.7959 70.5913 59.0361 70.8901C59.2822 71.189 59.5781 71.4233 59.9238 71.5933C60.2754 71.7632 60.6738 71.8481 61.1191 71.8481C61.6934 71.8481 62.1797 71.731 62.5781 71.4966C62.9766 71.2622 63.3252 70.9487 63.624 70.5562L64.6084 71.3384C64.4033 71.6489 64.1426 71.9448 63.8262 72.2261C63.5098 72.5073 63.1201 72.7358 62.6572 72.9116C62.2002 73.0874 61.6582 73.1753 61.0312 73.1753Z" fill="white"/>
<path d="M23 30.8475L47.4181 8.81222V0L23 22.0378V30.8475Z" fill="white"/>
<path d="M23 49.9995L47.4181 27.9618V20.8413L23 42.8766V49.9995Z" fill="white"/>
<path d="M33.5791 30.8474L57.9999 8.81211V1.40723L33.5791 23.4454V30.8474Z" fill="white"/>
<path d="M57.9999 20.5596L33.5791 42.5949V49.9998L57.9999 27.9616V20.5596Z" fill="white"/>
</svg>
