<svg width="106" height="74" viewBox="0 0 106 74" fill="none" xmlns="http://www.w3.org/2000/svg">
<path d="M10.0723 71.6206V73.0005H1.40625V71.6206H10.0723ZM9.79102 61.4341L1.81055 73.0005H0.764648V71.7349L8.73633 60.2036H9.79102V61.4341ZM9.07031 60.2036V61.5923H0.878906V60.2036H9.07031ZM13.7988 63.4907V73.0005H12.1641V63.4907H13.7988ZM12.041 60.9683C12.041 60.7046 12.1201 60.4819 12.2783 60.3003C12.4424 60.1187 12.6826 60.0278 12.999 60.0278C13.3096 60.0278 13.5469 60.1187 13.7109 60.3003C13.8809 60.4819 13.9658 60.7046 13.9658 60.9683C13.9658 61.2202 13.8809 61.437 13.7109 61.6187C13.5469 61.7944 13.3096 61.8823 12.999 61.8823C12.6826 61.8823 12.4424 61.7944 12.2783 61.6187C12.1201 61.437 12.041 61.2202 12.041 60.9683ZM18.0352 65.521V73.0005H16.4092V63.4907H17.9473L18.0352 65.521ZM17.6484 67.8853L16.9717 67.8589C16.9775 67.2085 17.0742 66.6079 17.2617 66.0571C17.4492 65.5005 17.7129 65.0171 18.0527 64.6069C18.3926 64.1968 18.7969 63.8804 19.2656 63.6577C19.7402 63.4292 20.2646 63.3149 20.8389 63.3149C21.3076 63.3149 21.7295 63.3794 22.1045 63.5083C22.4795 63.6313 22.7988 63.8306 23.0625 64.106C23.332 64.3813 23.5371 64.7388 23.6777 65.1782C23.8184 65.6118 23.8887 66.1421 23.8887 66.769V73.0005H22.2539V66.7515C22.2539 66.2534 22.1807 65.855 22.0342 65.5562C21.8877 65.2515 21.6738 65.0317 21.3926 64.897C21.1113 64.7563 20.7656 64.686 20.3555 64.686C19.9512 64.686 19.582 64.771 19.248 64.9409C18.9199 65.1108 18.6357 65.3452 18.3955 65.644C18.1611 65.9429 17.9766 66.2856 17.8418 66.6724C17.7129 67.0532 17.6484 67.4575 17.6484 67.8853ZM31.9658 71.3745V66.479C31.9658 66.104 31.8896 65.7788 31.7373 65.5034C31.5908 65.2222 31.3682 65.0054 31.0693 64.853C30.7705 64.7007 30.4014 64.6245 29.9619 64.6245C29.5518 64.6245 29.1914 64.6948 28.8809 64.8354C28.5762 64.9761 28.3359 65.1606 28.1602 65.3892C27.9902 65.6177 27.9053 65.8638 27.9053 66.1274H26.2793C26.2793 65.7876 26.3672 65.4507 26.543 65.1167C26.7188 64.7827 26.9707 64.481 27.2988 64.2114C27.6328 63.936 28.0312 63.7192 28.4941 63.561C28.9629 63.397 29.4844 63.3149 30.0586 63.3149C30.75 63.3149 31.3594 63.4321 31.8867 63.6665C32.4199 63.9009 32.8359 64.2554 33.1348 64.73C33.4395 65.1987 33.5918 65.7876 33.5918 66.4966V70.9263C33.5918 71.2427 33.6182 71.5796 33.6709 71.937C33.7295 72.2944 33.8145 72.6021 33.9258 72.8599V73.0005H32.2295C32.1475 72.813 32.083 72.564 32.0361 72.2534C31.9893 71.937 31.9658 71.644 31.9658 71.3745ZM32.2471 67.2349L32.2646 68.3774H30.6211C30.1582 68.3774 29.7451 68.4155 29.3818 68.4917C29.0186 68.562 28.7139 68.6704 28.4678 68.8169C28.2217 68.9634 28.0342 69.1479 27.9053 69.3706C27.7764 69.5874 27.7119 69.8423 27.7119 70.1353C27.7119 70.4341 27.7793 70.7065 27.9141 70.9526C28.0488 71.1987 28.251 71.395 28.5205 71.5415C28.7959 71.6821 29.1328 71.7524 29.5312 71.7524C30.0293 71.7524 30.4688 71.647 30.8496 71.436C31.2305 71.2251 31.5322 70.9673 31.7549 70.6626C31.9834 70.3579 32.1064 70.062 32.124 69.7749L32.8184 70.5571C32.7773 70.8032 32.666 71.0757 32.4844 71.3745C32.3027 71.6733 32.0596 71.9604 31.7549 72.2358C31.4561 72.5054 31.0986 72.731 30.6826 72.9126C30.2725 73.0884 29.8096 73.1763 29.2939 73.1763C28.6494 73.1763 28.084 73.0503 27.5977 72.7983C27.1172 72.5464 26.7422 72.2095 26.4727 71.7876C26.209 71.3599 26.0771 70.8823 26.0771 70.355C26.0771 69.8452 26.1768 69.397 26.376 69.0103C26.5752 68.6177 26.8623 68.2925 27.2373 68.0347C27.6123 67.771 28.0635 67.5718 28.5908 67.437C29.1182 67.3022 29.707 67.2349 30.3574 67.2349H32.2471ZM39.9551 71.8403C40.3418 71.8403 40.6992 71.7612 41.0273 71.603C41.3555 71.4448 41.625 71.228 41.8359 70.9526C42.0469 70.6714 42.167 70.3521 42.1963 69.9946H43.7432C43.7139 70.5571 43.5234 71.0815 43.1719 71.5679C42.8262 72.0483 42.3721 72.438 41.8096 72.7368C41.2471 73.0298 40.6289 73.1763 39.9551 73.1763C39.2402 73.1763 38.6162 73.0503 38.083 72.7983C37.5557 72.5464 37.1162 72.2007 36.7646 71.7612C36.4189 71.3218 36.1582 70.8179 35.9824 70.2495C35.8125 69.6753 35.7275 69.0688 35.7275 68.4302V68.061C35.7275 67.4224 35.8125 66.8188 35.9824 66.2505C36.1582 65.6763 36.4189 65.1694 36.7646 64.73C37.1162 64.2905 37.5557 63.9448 38.083 63.6929C38.6162 63.4409 39.2402 63.3149 39.9551 63.3149C40.6992 63.3149 41.3496 63.4673 41.9062 63.772C42.4629 64.0708 42.8994 64.481 43.2158 65.0024C43.5381 65.5181 43.7139 66.104 43.7432 66.7603H42.1963C42.167 66.3677 42.0557 66.0132 41.8623 65.6968C41.6748 65.3804 41.417 65.1284 41.0889 64.9409C40.7666 64.7476 40.3887 64.6509 39.9551 64.6509C39.457 64.6509 39.0381 64.7505 38.6982 64.9497C38.3643 65.1431 38.0977 65.4067 37.8984 65.7407C37.7051 66.0688 37.5645 66.4351 37.4766 66.8394C37.3945 67.2378 37.3535 67.645 37.3535 68.061V68.4302C37.3535 68.8462 37.3945 69.2563 37.4766 69.6606C37.5586 70.0649 37.6963 70.4312 37.8896 70.7593C38.0889 71.0874 38.3555 71.3511 38.6895 71.5503C39.0293 71.7437 39.4512 71.8403 39.9551 71.8403ZM45.1406 68.3511V68.1489C45.1406 67.4634 45.2402 66.8276 45.4395 66.2417C45.6387 65.6499 45.9258 65.1372 46.3008 64.7036C46.6758 64.2642 47.1299 63.9243 47.6631 63.6841C48.1963 63.438 48.7939 63.3149 49.4561 63.3149C50.124 63.3149 50.7246 63.438 51.2578 63.6841C51.7969 63.9243 52.2539 64.2642 52.6289 64.7036C53.0098 65.1372 53.2998 65.6499 53.499 66.2417C53.6982 66.8276 53.7979 67.4634 53.7979 68.1489V68.3511C53.7979 69.0366 53.6982 69.6724 53.499 70.2583C53.2998 70.8442 53.0098 71.3569 52.6289 71.7964C52.2539 72.23 51.7998 72.5698 51.2666 72.8159C50.7393 73.0562 50.1416 73.1763 49.4736 73.1763C48.8057 73.1763 48.2051 73.0562 47.6719 72.8159C47.1387 72.5698 46.6816 72.23 46.3008 71.7964C45.9258 71.3569 45.6387 70.8442 45.4395 70.2583C45.2402 69.6724 45.1406 69.0366 45.1406 68.3511ZM46.7666 68.1489V68.3511C46.7666 68.8257 46.8223 69.2739 46.9336 69.6958C47.0449 70.1118 47.2119 70.481 47.4346 70.8032C47.6631 71.1255 47.9473 71.3804 48.2871 71.5679C48.627 71.7495 49.0225 71.8403 49.4736 71.8403C49.9189 71.8403 50.3086 71.7495 50.6426 71.5679C50.9824 71.3804 51.2637 71.1255 51.4863 70.8032C51.709 70.481 51.876 70.1118 51.9873 69.6958C52.1045 69.2739 52.1631 68.8257 52.1631 68.3511V68.1489C52.1631 67.6802 52.1045 67.2378 51.9873 66.8218C51.876 66.3999 51.7061 66.0278 51.4775 65.7056C51.2549 65.3774 50.9736 65.1196 50.6338 64.9321C50.2998 64.7446 49.9072 64.6509 49.4561 64.6509C49.0107 64.6509 48.6182 64.7446 48.2783 64.9321C47.9443 65.1196 47.6631 65.3774 47.4346 65.7056C47.2119 66.0278 47.0449 66.3999 46.9336 66.8218C46.8223 67.2378 46.7666 67.6802 46.7666 68.1489ZM65.1094 67.0151H61.8662L61.8486 65.6528H64.793C65.2793 65.6528 65.7041 65.5708 66.0674 65.4067C66.4307 65.2427 66.7119 65.0083 66.9111 64.7036C67.1162 64.3931 67.2188 64.0239 67.2188 63.5962C67.2188 63.1274 67.1279 62.7466 66.9463 62.4536C66.7705 62.1548 66.498 61.938 66.1289 61.8032C65.7656 61.6626 65.3027 61.5923 64.7402 61.5923H62.2441V73.0005H60.5479V60.2036H64.7402C65.3965 60.2036 65.9824 60.271 66.498 60.4058C67.0137 60.5347 67.4502 60.7397 67.8076 61.021C68.1709 61.2964 68.4463 61.6479 68.6338 62.0757C68.8213 62.5034 68.915 63.0161 68.915 63.6138C68.915 64.1411 68.7803 64.6187 68.5107 65.0464C68.2412 65.4683 67.8662 65.814 67.3857 66.0835C66.9111 66.353 66.3545 66.5259 65.7158 66.6021L65.1094 67.0151ZM65.0303 73.0005H61.1982L62.1562 71.6206H65.0303C65.5693 71.6206 66.0264 71.5269 66.4014 71.3394C66.7822 71.1519 67.0723 70.8882 67.2715 70.5483C67.4707 70.2026 67.5703 69.7954 67.5703 69.3267C67.5703 68.8521 67.4854 68.4419 67.3154 68.0962C67.1455 67.7505 66.8789 67.4839 66.5156 67.2964C66.1523 67.1089 65.6836 67.0151 65.1094 67.0151H62.6924L62.71 65.6528H66.0146L66.375 66.145C66.9902 66.1978 67.5117 66.3735 67.9395 66.6724C68.3672 66.9653 68.6924 67.3403 68.915 67.7974C69.1436 68.2544 69.2578 68.7583 69.2578 69.3091C69.2578 70.106 69.082 70.7798 68.7305 71.3306C68.3848 71.8755 67.8955 72.2915 67.2627 72.5786C66.6299 72.8599 65.8857 73.0005 65.0303 73.0005ZM73.1426 64.9849V73.0005H71.5166V63.4907H73.0986L73.1426 64.9849ZM76.1133 63.438L76.1045 64.9497C75.9697 64.9204 75.8408 64.9028 75.7178 64.897C75.6006 64.8853 75.4658 64.8794 75.3135 64.8794C74.9385 64.8794 74.6074 64.938 74.3203 65.0552C74.0332 65.1724 73.79 65.3364 73.5908 65.5474C73.3916 65.7583 73.2334 66.0103 73.1162 66.3032C73.0049 66.5903 72.9316 66.9067 72.8965 67.2524L72.4395 67.5161C72.4395 66.9419 72.4951 66.4028 72.6064 65.8989C72.7236 65.395 72.9023 64.9497 73.1426 64.563C73.3828 64.1704 73.6875 63.8657 74.0566 63.6489C74.4316 63.4263 74.877 63.3149 75.3926 63.3149C75.5098 63.3149 75.6445 63.3296 75.7969 63.3589C75.9492 63.3823 76.0547 63.4087 76.1133 63.438ZM82.8721 71.3745V66.479C82.8721 66.104 82.7959 65.7788 82.6436 65.5034C82.4971 65.2222 82.2744 65.0054 81.9756 64.853C81.6768 64.7007 81.3076 64.6245 80.8682 64.6245C80.458 64.6245 80.0977 64.6948 79.7871 64.8354C79.4824 64.9761 79.2422 65.1606 79.0664 65.3892C78.8965 65.6177 78.8115 65.8638 78.8115 66.1274H77.1855C77.1855 65.7876 77.2734 65.4507 77.4492 65.1167C77.625 64.7827 77.877 64.481 78.2051 64.2114C78.5391 63.936 78.9375 63.7192 79.4004 63.561C79.8691 63.397 80.3906 63.3149 80.9648 63.3149C81.6562 63.3149 82.2656 63.4321 82.793 63.6665C83.3262 63.9009 83.7422 64.2554 84.041 64.73C84.3457 65.1987 84.498 65.7876 84.498 66.4966V70.9263C84.498 71.2427 84.5244 71.5796 84.5771 71.937C84.6357 72.2944 84.7207 72.6021 84.832 72.8599V73.0005H83.1357C83.0537 72.813 82.9893 72.564 82.9424 72.2534C82.8955 71.937 82.8721 71.644 82.8721 71.3745ZM83.1533 67.2349L83.1709 68.3774H81.5273C81.0645 68.3774 80.6514 68.4155 80.2881 68.4917C79.9248 68.562 79.6201 68.6704 79.374 68.8169C79.1279 68.9634 78.9404 69.1479 78.8115 69.3706C78.6826 69.5874 78.6182 69.8423 78.6182 70.1353C78.6182 70.4341 78.6855 70.7065 78.8203 70.9526C78.9551 71.1987 79.1572 71.395 79.4268 71.5415C79.7021 71.6821 80.0391 71.7524 80.4375 71.7524C80.9355 71.7524 81.375 71.647 81.7559 71.436C82.1367 71.2251 82.4385 70.9673 82.6611 70.6626C82.8896 70.3579 83.0127 70.062 83.0303 69.7749L83.7246 70.5571C83.6836 70.8032 83.5723 71.0757 83.3906 71.3745C83.209 71.6733 82.9658 71.9604 82.6611 72.2358C82.3623 72.5054 82.0049 72.731 81.5889 72.9126C81.1787 73.0884 80.7158 73.1763 80.2002 73.1763C79.5557 73.1763 78.9902 73.0503 78.5039 72.7983C78.0234 72.5464 77.6484 72.2095 77.3789 71.7876C77.1152 71.3599 76.9834 70.8823 76.9834 70.355C76.9834 69.8452 77.083 69.397 77.2822 69.0103C77.4814 68.6177 77.7686 68.2925 78.1436 68.0347C78.5186 67.771 78.9697 67.5718 79.4971 67.437C80.0244 67.3022 80.6133 67.2349 81.2637 67.2349H83.1533ZM88.6816 65.521V73.0005H87.0557V63.4907H88.5938L88.6816 65.521ZM88.2949 67.8853L87.6182 67.8589C87.624 67.2085 87.7207 66.6079 87.9082 66.0571C88.0957 65.5005 88.3594 65.0171 88.6992 64.6069C89.0391 64.1968 89.4434 63.8804 89.9121 63.6577C90.3867 63.4292 90.9111 63.3149 91.4854 63.3149C91.9541 63.3149 92.376 63.3794 92.751 63.5083C93.126 63.6313 93.4453 63.8306 93.709 64.106C93.9785 64.3813 94.1836 64.7388 94.3242 65.1782C94.4648 65.6118 94.5352 66.1421 94.5352 66.769V73.0005H92.9004V66.7515C92.9004 66.2534 92.8271 65.855 92.6807 65.5562C92.5342 65.2515 92.3203 65.0317 92.0391 64.897C91.7578 64.7563 91.4121 64.686 91.002 64.686C90.5977 64.686 90.2285 64.771 89.8945 64.9409C89.5664 65.1108 89.2822 65.3452 89.042 65.644C88.8076 65.9429 88.623 66.2856 88.4883 66.6724C88.3594 67.0532 88.2949 67.4575 88.2949 67.8853ZM102.999 71.1548V59.5005H104.634V73.0005H103.14L102.999 71.1548ZM96.6006 68.3511V68.1665C96.6006 67.4399 96.6885 66.7808 96.8643 66.189C97.0459 65.5913 97.3008 65.0786 97.6289 64.6509C97.9629 64.2231 98.3584 63.895 98.8154 63.6665C99.2783 63.4321 99.7939 63.3149 100.362 63.3149C100.96 63.3149 101.481 63.4204 101.927 63.6313C102.378 63.8364 102.759 64.1382 103.069 64.5366C103.386 64.9292 103.635 65.4038 103.816 65.9604C103.998 66.5171 104.124 67.147 104.194 67.8501V68.6587C104.13 69.356 104.004 69.9829 103.816 70.5396C103.635 71.0962 103.386 71.5708 103.069 71.9634C102.759 72.356 102.378 72.6577 101.927 72.8687C101.476 73.0737 100.948 73.1763 100.345 73.1763C99.7881 73.1763 99.2783 73.0562 98.8154 72.8159C98.3584 72.5757 97.9629 72.2388 97.6289 71.8052C97.3008 71.3716 97.0459 70.8618 96.8643 70.2759C96.6885 69.6841 96.6006 69.0425 96.6006 68.3511ZM98.2354 68.1665V68.3511C98.2354 68.8257 98.2822 69.271 98.376 69.687C98.4756 70.103 98.6279 70.4692 98.833 70.7856C99.0381 71.1021 99.2988 71.3511 99.6152 71.5327C99.9316 71.7085 100.31 71.7964 100.749 71.7964C101.288 71.7964 101.73 71.6821 102.076 71.4536C102.428 71.2251 102.709 70.9233 102.92 70.5483C103.131 70.1733 103.295 69.7661 103.412 69.3267V67.2085C103.342 66.8862 103.239 66.5757 103.104 66.2769C102.976 65.9722 102.806 65.7026 102.595 65.4683C102.39 65.228 102.135 65.0376 101.83 64.897C101.531 64.7563 101.177 64.686 100.767 64.686C100.321 64.686 99.9375 64.7798 99.6152 64.9673C99.2988 65.1489 99.0381 65.4009 98.833 65.7231C98.6279 66.0396 98.4756 66.4087 98.376 66.8306C98.2822 67.2466 98.2354 67.6919 98.2354 68.1665Z" fill="white"/>
<path d="M56.6618 6.65674C57.5063 7.84383 58.1902 9.15512 58.6816 10.5564C59.295 10.6379 59.8988 10.7486 60.4901 10.8899C60.5895 10.9142 60.6884 10.9385 60.7855 10.9628C60.8098 10.9695 60.8341 10.9758 60.8584 10.9826C60.9843 11.0154 61.1097 11.0487 61.2356 11.0861C61.2379 11.0861 61.2401 11.0861 61.2424 11.0883C61.3638 11.1216 61.4848 11.1567 61.6039 11.1941C61.7078 11.2251 61.8112 11.258 61.915 11.2935C62.0207 11.3291 62.1269 11.3642 62.2325 11.4015C62.3319 11.4348 62.429 11.4699 62.5279 11.5072C62.6251 11.5423 62.7222 11.5801 62.8188 11.6175C63.3899 11.838 63.9457 12.09 64.4861 12.3676C64.6161 12.4338 64.7443 12.4999 64.8697 12.5706C65.086 12.6876 65.2978 12.8091 65.5069 12.9346C65.5972 12.9877 65.6854 13.0431 65.7735 13.098C65.8153 13.1223 65.8571 13.1488 65.8994 13.1754C65.9943 13.2348 66.0869 13.2969 66.1795 13.3585C66.2699 13.4157 66.358 13.4778 66.4466 13.5372C67.4808 14.2455 68.4359 15.0622 69.2978 15.9667C69.3994 16.0684 69.4961 16.1742 69.591 16.2799C69.6706 16.3659 69.7475 16.4541 69.8248 16.5427C69.9507 16.6863 70.0739 16.8321 70.1931 16.9797C70.2682 17.0656 70.3388 17.1538 70.4071 17.2447C70.502 17.3662 70.5969 17.4877 70.6873 17.6088C70.7731 17.7235 70.8595 17.8405 70.9408 17.9575C71.0267 18.0745 71.1086 18.1937 71.1877 18.313C71.3487 18.5515 71.5029 18.7918 71.6531 19.0388C71.7304 19.1626 71.8028 19.2859 71.8734 19.4119C71.9463 19.5379 72.0169 19.6634 72.0852 19.7894C72.2332 20.063 72.3761 20.3411 72.5088 20.6215C72.5641 20.7317 72.6144 20.8442 72.6653 20.9567C72.7161 21.067 72.7646 21.1795 72.8132 21.292C72.8572 21.3914 72.8991 21.4909 72.9391 21.5921C72.9764 21.6848 73.0142 21.7775 73.0493 21.8702C73.1396 22.1042 73.2278 22.3427 73.3073 22.583C73.3559 22.7221 73.4022 22.8611 73.444 23.0024C73.4463 23.0069 73.4485 23.0137 73.4508 23.02C73.4926 23.1545 73.5322 23.2891 73.57 23.4236C73.6801 23.8097 73.7772 24.2025 73.8609 24.5976C73.8829 24.6971 73.9027 24.7983 73.9225 24.9C73.9337 24.9576 73.9445 25.0148 73.9557 25.0719C73.9688 25.1493 73.9845 25.2263 73.9953 25.3037C74.0151 25.4139 74.0326 25.5242 74.0484 25.6349C74.0659 25.7451 74.0835 25.8576 74.0969 25.9701C74.1037 26.021 74.11 26.0696 74.1167 26.12C74.1257 26.2019 74.1365 26.2856 74.1455 26.3693C74.1545 26.4485 74.163 26.5281 74.1675 26.6073C74.1806 26.7288 74.1918 26.8503 74.2004 26.9714C74.2116 27.1149 74.2201 27.258 74.2269 27.4038C74.2359 27.5559 74.2422 27.7107 74.2444 27.8628C74.2489 28.0172 74.2512 28.1697 74.2512 28.3241C74.2512 38.2069 66.2155 46.2488 56.3403 46.2488C56.1861 46.2488 56.0314 46.2465 55.8794 46.242C55.7252 46.2398 55.5728 46.233 55.4208 46.2245C55.2706 46.2177 55.1209 46.2092 54.9707 46.1957H54.9509C54.8097 46.1849 54.6708 46.1714 54.5318 46.1583C54.4104 46.1453 54.2913 46.1318 54.1726 46.1187C54.0975 46.1097 54.0251 46.0989 53.95 46.0899C53.8443 46.0769 53.7382 46.0611 53.6348 46.0436C53.6258 46.0436 53.615 46.0413 53.606 46.0391C53.5003 46.0238 53.3942 46.0058 53.2908 45.9882C53.2004 45.9725 53.1123 45.9572 53.0242 45.9396C52.8942 45.9153 52.7638 45.891 52.6361 45.8622C51.9369 45.7142 51.2512 45.527 50.583 45.2975C50.4508 45.2534 50.3204 45.207 50.1905 45.1584C50.0628 45.1121 49.9369 45.0657 49.8092 45.0149C49.637 44.9465 49.4674 44.8758 49.2975 44.8029C49.1918 44.7588 49.0834 44.7125 48.9778 44.6616C48.8631 44.6108 48.7462 44.5554 48.6315 44.5005C48.4859 44.4299 48.3406 44.3592 48.1949 44.2841C48.0758 44.2224 47.9566 44.1603 47.8375 44.0964C47.703 44.0213 47.5663 43.9466 47.4341 43.8692C47.3082 43.7985 47.185 43.7256 47.0614 43.6482C47.0591 43.646 47.0546 43.646 47.0524 43.6437C46.8253 43.5069 46.6027 43.3634 46.3842 43.2158C46.3667 43.205 46.3491 43.1915 46.3334 43.1807C46.2142 43.101 46.0973 43.0196 45.9804 42.9359C45.8635 42.854 45.7466 42.7703 45.632 42.6821C45.5173 42.5984 45.4026 42.5102 45.2902 42.4193C45.1976 42.3487 45.1072 42.2758 45.0168 42.1988C44.8711 42.0818 44.7281 41.9603 44.587 41.837C44.4921 41.7551 44.3995 41.6714 44.3068 41.5877L44.3046 41.5855C44.1989 41.4905 44.0928 41.3933 43.9916 41.2921C43.8878 41.1949 43.7843 41.0959 43.6827 40.9919C43.4844 40.7953 43.2902 40.5923 43.1027 40.3849C43.0033 40.2746 42.9021 40.1621 42.805 40.0474C42.6175 39.8332 42.4367 39.6149 42.2623 39.3917C42.1566 39.2549 42.0505 39.1181 41.9471 38.9768C41.8855 38.8954 41.8257 38.8135 41.7686 38.7298C41.7488 38.7032 41.729 38.6767 41.7092 38.6483C41.6364 38.5466 41.5635 38.4431 41.4952 38.3369C41.4246 38.2352 41.3585 38.134 41.2924 38.03C41.1975 37.8842 41.1049 37.7389 41.0145 37.5886C40.8688 37.3501 40.7299 37.1075 40.5977 36.8605C40.3373 36.3862 40.1017 35.8962 39.8854 35.3949C39.8369 35.2801 39.7861 35.1631 39.7398 35.0461C39.7375 35.0416 39.7353 35.0353 39.733 35.0286C39.6979 34.9404 39.6624 34.8544 39.6296 34.7658C39.5986 34.6866 39.568 34.6047 39.537 34.5228C39.5059 34.4391 39.4753 34.3527 39.4466 34.2667C39.4025 34.1452 39.3607 34.0237 39.3207 33.9004C39.2811 33.7767 39.2411 33.6534 39.2038 33.5274C39.197 33.5161 39.1948 33.5031 39.1925 33.49C39.1552 33.3708 39.1197 33.2475 39.0869 33.126C39.0495 32.9959 39.014 32.8659 38.9812 32.7331C38.8818 32.338 38.7937 31.9384 38.7209 31.5348C38.6966 31.4002 38.6745 31.2657 38.6525 31.1289C38.6305 30.9943 38.6107 30.8575 38.5927 30.7207C37.1902 30.233 35.8782 29.5512 34.6875 28.7079C34.8903 40.5041 44.5074 50.0004 56.3408 50.0004C68.3019 50.0004 78.0003 40.2967 78.0003 28.3241C77.9994 16.4644 68.475 6.82639 56.6618 6.65674ZM38.5127 26.6294C38.5262 26.4971 38.5392 26.3643 38.5545 26.232C38.5698 26.0997 38.5878 25.9674 38.6053 25.8369C38.6228 25.7046 38.6426 25.5746 38.6647 25.4441C38.6844 25.314 38.7087 25.1835 38.7307 25.0557C38.8279 24.5369 38.9448 24.0275 39.086 23.5262C39.1192 23.4025 39.1566 23.2769 39.1939 23.1532V23.1509C39.2227 23.056 39.2532 22.9592 39.2843 22.862C39.2955 22.8202 39.3085 22.7783 39.3238 22.7383C39.3589 22.6298 39.3967 22.5218 39.434 22.4138C39.465 22.3189 39.4978 22.2239 39.5356 22.1312C39.5576 22.0718 39.5797 22.0142 39.6017 21.9548C39.6813 21.7451 39.7649 21.5399 39.8508 21.3347C39.9524 21.094 40.0581 20.8559 40.1727 20.6219C40.2258 20.5094 40.2807 20.3992 40.336 20.2889C40.3693 20.2183 40.4066 20.1476 40.4439 20.0792C40.4857 19.9955 40.5298 19.9114 40.5738 19.8299C40.5891 19.8011 40.6049 19.7728 40.6224 19.744C40.6822 19.6315 40.7438 19.5235 40.8077 19.4128C40.8652 19.3133 40.9223 19.2143 40.9799 19.1171C41.0329 19.0312 41.0837 18.947 41.1363 18.8633C41.1849 18.7859 41.2335 18.709 41.2843 18.6316C41.4893 18.3116 41.7056 17.9984 41.9327 17.6938C42.0078 17.5903 42.0847 17.4909 42.162 17.3892C42.2214 17.3118 42.2812 17.2348 42.3428 17.1597C42.5213 16.9347 42.7065 16.7119 42.9008 16.4955C42.9781 16.405 43.0595 16.3168 43.1391 16.2286C43.3091 16.041 43.4831 15.8578 43.6638 15.6792C43.7367 15.6063 43.8095 15.5334 43.8846 15.4627C43.9993 15.3502 44.1139 15.24 44.2308 15.1338C44.3167 15.0546 44.403 14.9772 44.4912 14.8998C44.6477 14.7585 44.8086 14.6239 44.9696 14.4894C45.051 14.4232 45.1351 14.3548 45.2187 14.2887C45.5802 14.0016 45.9507 13.728 46.3347 13.4701C46.4427 13.395 46.5533 13.3221 46.6657 13.2514C46.7538 13.1943 46.842 13.1389 46.9305 13.0836C46.9966 13.0417 47.065 12.9994 47.1333 12.9598C47.2327 12.8982 47.3316 12.8383 47.4332 12.783C47.5587 12.7078 47.6846 12.6394 47.8105 12.571C47.9382 12.5004 48.0663 12.432 48.194 12.3681C48.3217 12.3019 48.4521 12.2358 48.5821 12.1741C48.5906 12.1696 48.5974 12.1674 48.6041 12.1629C48.8334 12.0526 49.0673 11.9469 49.3033 11.8452C49.4796 11.77 49.6563 11.6976 49.8348 11.6287C49.9517 11.5802 50.0709 11.536 50.19 11.4942C50.2939 11.4546 50.3996 11.4168 50.5052 11.3817C50.5583 11.3619 50.6132 11.3444 50.6685 11.3246C50.7854 11.2872 50.9023 11.2472 51.0214 11.2121C51.1604 11.168 51.3016 11.1261 51.4427 11.0861C51.5839 11.0442 51.7251 11.0064 51.8681 10.9691C51.994 10.938 52.1195 10.9052 52.2476 10.8764C52.3425 10.8543 52.4396 10.8323 52.5345 10.8125C52.5763 10.8012 52.6204 10.7927 52.6622 10.7837C52.735 10.7706 52.8079 10.7549 52.8803 10.7396C53.0084 10.7153 53.1361 10.691 53.2638 10.6689C53.3564 10.6532 53.4468 10.6379 53.5395 10.6248C53.6366 10.6073 53.7337 10.5938 53.8304 10.5807C54.0817 10.5456 54.3353 10.5146 54.5889 10.4903C53.9581 9.20597 53.1029 8.04948 52.075 7.07164C43.5141 8.78432 36.7752 15.5464 35.0904 24.1224C36.0693 25.1462 37.2271 26.0003 38.5127 26.6294Z" fill="white"/>
<path d="M59.3054 12.8928C58.3441 12.7074 57.3539 12.6103 56.3395 12.6103C56.0243 12.6103 55.7109 12.6193 55.4025 12.6391C55.6781 13.6479 55.8238 14.7068 55.8238 15.7994C55.8238 22.4422 50.4231 27.8471 43.7854 27.8471C42.7049 27.8471 41.6594 27.7036 40.6626 27.4345H40.6603C40.645 27.7301 40.636 28.0258 40.636 28.3259C40.636 29.3564 40.7354 30.3653 40.927 31.3404C41.8532 31.5105 42.8083 31.5987 43.7849 31.5987C52.5045 31.5987 59.5721 24.5257 59.5721 15.7994C59.5721 14.8067 59.4794 13.8351 59.3054 12.8928ZM43.7849 0C35.0676 0 28 7.07349 28 15.7994C28 20.1094 29.7244 24.0159 32.5208 26.8648C32.6219 25.1435 32.9088 23.4552 33.3652 21.8262C32.3378 20.0518 31.7487 17.9927 31.7487 15.7989C31.7487 9.15608 37.1472 3.75117 43.7849 3.75117C45.9657 3.75117 48.0143 4.33392 49.781 5.35361C51.4082 4.89011 53.0908 4.60076 54.8112 4.49276C51.9685 1.71269 48.0764 0 43.7849 0Z" fill="white"/>
</svg>
