<svg width="100" height="74" viewBox="0 0 100 74" fill="none" xmlns="http://www.w3.org/2000/svg">
<path d="M6.04688 67.0146H2.80371L2.78613 65.6523H5.73047C6.2168 65.6523 6.6416 65.5703 7.00488 65.4062C7.36816 65.2422 7.64941 65.0078 7.84863 64.7031C8.05371 64.3926 8.15625 64.0234 8.15625 63.5957C8.15625 63.127 8.06543 62.7461 7.88379 62.4531C7.70801 62.1543 7.43555 61.9375 7.06641 61.8027C6.70312 61.6621 6.24023 61.5918 5.67773 61.5918H3.18164V73H1.48535V60.2031H5.67773C6.33398 60.2031 6.91992 60.2705 7.43555 60.4053C7.95117 60.5342 8.3877 60.7393 8.74512 61.0205C9.1084 61.2959 9.38379 61.6475 9.57129 62.0752C9.75879 62.5029 9.85254 63.0156 9.85254 63.6133C9.85254 64.1406 9.71777 64.6182 9.44824 65.0459C9.17871 65.4678 8.80371 65.8135 8.32324 66.083C7.84863 66.3525 7.29199 66.5254 6.65332 66.6016L6.04688 67.0146ZM5.96777 73H2.13574L3.09375 71.6201H5.96777C6.50684 71.6201 6.96387 71.5264 7.33887 71.3389C7.71973 71.1514 8.00977 70.8877 8.20898 70.5479C8.4082 70.2021 8.50781 69.7949 8.50781 69.3262C8.50781 68.8516 8.42285 68.4414 8.25293 68.0957C8.08301 67.75 7.81641 67.4834 7.45312 67.2959C7.08984 67.1084 6.62109 67.0146 6.04688 67.0146H3.62988L3.64746 65.6523H6.95215L7.3125 66.1445C7.92773 66.1973 8.44922 66.373 8.87695 66.6719C9.30469 66.9648 9.62988 67.3398 9.85254 67.7969C10.0811 68.2539 10.1953 68.7578 10.1953 69.3086C10.1953 70.1055 10.0195 70.7793 9.66797 71.3301C9.32227 71.875 8.83301 72.291 8.2002 72.5781C7.56738 72.8594 6.82324 73 5.96777 73ZM14.0801 64.9844V73H12.4541V63.4902H14.0361L14.0801 64.9844ZM17.0508 63.4375L17.042 64.9492C16.9072 64.9199 16.7783 64.9023 16.6553 64.8965C16.5381 64.8848 16.4033 64.8789 16.251 64.8789C15.876 64.8789 15.5449 64.9375 15.2578 65.0547C14.9707 65.1719 14.7275 65.3359 14.5283 65.5469C14.3291 65.7578 14.1709 66.0098 14.0537 66.3027C13.9424 66.5898 13.8691 66.9062 13.834 67.252L13.377 67.5156C13.377 66.9414 13.4326 66.4023 13.5439 65.8984C13.6611 65.3945 13.8398 64.9492 14.0801 64.5625C14.3203 64.1699 14.625 63.8652 14.9941 63.6484C15.3691 63.4258 15.8145 63.3145 16.3301 63.3145C16.4473 63.3145 16.582 63.3291 16.7344 63.3584C16.8867 63.3818 16.9922 63.4082 17.0508 63.4375ZM23.8096 71.374V66.4785C23.8096 66.1035 23.7334 65.7783 23.5811 65.5029C23.4346 65.2217 23.2119 65.0049 22.9131 64.8525C22.6143 64.7002 22.2451 64.624 21.8057 64.624C21.3955 64.624 21.0352 64.6943 20.7246 64.835C20.4199 64.9756 20.1797 65.1602 20.0039 65.3887C19.834 65.6172 19.749 65.8633 19.749 66.127H18.123C18.123 65.7871 18.2109 65.4502 18.3867 65.1162C18.5625 64.7822 18.8145 64.4805 19.1426 64.2109C19.4766 63.9355 19.875 63.7188 20.3379 63.5605C20.8066 63.3965 21.3281 63.3145 21.9023 63.3145C22.5938 63.3145 23.2031 63.4316 23.7305 63.666C24.2637 63.9004 24.6797 64.2549 24.9785 64.7295C25.2832 65.1982 25.4355 65.7871 25.4355 66.4961V70.9258C25.4355 71.2422 25.4619 71.5791 25.5146 71.9365C25.5732 72.2939 25.6582 72.6016 25.7695 72.8594V73H24.0732C23.9912 72.8125 23.9268 72.5635 23.8799 72.2529C23.833 71.9365 23.8096 71.6436 23.8096 71.374ZM24.0908 67.2344L24.1084 68.377H22.4648C22.002 68.377 21.5889 68.415 21.2256 68.4912C20.8623 68.5615 20.5576 68.6699 20.3115 68.8164C20.0654 68.9629 19.8779 69.1475 19.749 69.3701C19.6201 69.5869 19.5557 69.8418 19.5557 70.1348C19.5557 70.4336 19.623 70.7061 19.7578 70.9521C19.8926 71.1982 20.0947 71.3945 20.3643 71.541C20.6396 71.6816 20.9766 71.752 21.375 71.752C21.873 71.752 22.3125 71.6465 22.6934 71.4355C23.0742 71.2246 23.376 70.9668 23.5986 70.6621C23.8271 70.3574 23.9502 70.0615 23.9678 69.7744L24.6621 70.5566C24.6211 70.8027 24.5098 71.0752 24.3281 71.374C24.1465 71.6729 23.9033 71.96 23.5986 72.2354C23.2998 72.5049 22.9424 72.7305 22.5264 72.9121C22.1162 73.0879 21.6533 73.1758 21.1377 73.1758C20.4932 73.1758 19.9277 73.0498 19.4414 72.7979C18.9609 72.5459 18.5859 72.209 18.3164 71.7871C18.0527 71.3594 17.9209 70.8818 17.9209 70.3545C17.9209 69.8447 18.0205 69.3965 18.2197 69.0098C18.4189 68.6172 18.7061 68.292 19.0811 68.0342C19.4561 67.7705 19.9072 67.5713 20.4346 67.4365C20.9619 67.3018 21.5508 67.2344 22.2012 67.2344H24.0908ZM29.6191 65.5205V73H27.9932V63.4902H29.5312L29.6191 65.5205ZM29.2324 67.8848L28.5557 67.8584C28.5615 67.208 28.6582 66.6074 28.8457 66.0566C29.0332 65.5 29.2969 65.0166 29.6367 64.6064C29.9766 64.1963 30.3809 63.8799 30.8496 63.6572C31.3242 63.4287 31.8486 63.3145 32.4229 63.3145C32.8916 63.3145 33.3135 63.3789 33.6885 63.5078C34.0635 63.6309 34.3828 63.8301 34.6465 64.1055C34.916 64.3809 35.1211 64.7383 35.2617 65.1777C35.4023 65.6113 35.4727 66.1416 35.4727 66.7686V73H33.8379V66.751C33.8379 66.2529 33.7646 65.8545 33.6182 65.5557C33.4717 65.251 33.2578 65.0312 32.9766 64.8965C32.6953 64.7559 32.3496 64.6855 31.9395 64.6855C31.5352 64.6855 31.166 64.7705 30.832 64.9404C30.5039 65.1104 30.2197 65.3447 29.9795 65.6436C29.7451 65.9424 29.5605 66.2852 29.4258 66.6719C29.2969 67.0527 29.2324 67.457 29.2324 67.8848ZM43.9365 71.1543V59.5H45.5713V73H44.0771L43.9365 71.1543ZM37.5381 68.3506V68.166C37.5381 67.4395 37.626 66.7803 37.8018 66.1885C37.9834 65.5908 38.2383 65.0781 38.5664 64.6504C38.9004 64.2227 39.2959 63.8945 39.7529 63.666C40.2158 63.4316 40.7314 63.3145 41.2998 63.3145C41.8975 63.3145 42.4189 63.4199 42.8643 63.6309C43.3154 63.8359 43.6963 64.1377 44.0068 64.5361C44.3232 64.9287 44.5723 65.4033 44.7539 65.96C44.9355 66.5166 45.0615 67.1465 45.1318 67.8496V68.6582C45.0674 69.3555 44.9414 69.9824 44.7539 70.5391C44.5723 71.0957 44.3232 71.5703 44.0068 71.9629C43.6963 72.3555 43.3154 72.6572 42.8643 72.8682C42.4131 73.0732 41.8857 73.1758 41.2822 73.1758C40.7256 73.1758 40.2158 73.0557 39.7529 72.8154C39.2959 72.5752 38.9004 72.2383 38.5664 71.8047C38.2383 71.3711 37.9834 70.8613 37.8018 70.2754C37.626 69.6836 37.5381 69.042 37.5381 68.3506ZM39.1729 68.166V68.3506C39.1729 68.8252 39.2197 69.2705 39.3135 69.6865C39.4131 70.1025 39.5654 70.4688 39.7705 70.7852C39.9756 71.1016 40.2363 71.3506 40.5527 71.5322C40.8691 71.708 41.2471 71.7959 41.6865 71.7959C42.2256 71.7959 42.668 71.6816 43.0137 71.4531C43.3652 71.2246 43.6465 70.9229 43.8574 70.5479C44.0684 70.1729 44.2324 69.7656 44.3496 69.3262V67.208C44.2793 66.8857 44.1768 66.5752 44.042 66.2764C43.9131 65.9717 43.7432 65.7021 43.5322 65.4678C43.3271 65.2275 43.0723 65.0371 42.7676 64.8965C42.4688 64.7559 42.1143 64.6855 41.7041 64.6855C41.2588 64.6855 40.875 64.7793 40.5527 64.9668C40.2363 65.1484 39.9756 65.4004 39.7705 65.7227C39.5654 66.0391 39.4131 66.4082 39.3135 66.8301C39.2197 67.2461 39.1729 67.6914 39.1729 68.166ZM62.6572 60.2031V73H60.9521L54.5098 63.1299V73H52.8135V60.2031H54.5098L60.9785 70.0996V60.2031H62.6572ZM71.0244 71.374V66.4785C71.0244 66.1035 70.9482 65.7783 70.7959 65.5029C70.6494 65.2217 70.4268 65.0049 70.1279 64.8525C69.8291 64.7002 69.46 64.624 69.0205 64.624C68.6104 64.624 68.25 64.6943 67.9395 64.835C67.6348 64.9756 67.3945 65.1602 67.2188 65.3887C67.0488 65.6172 66.9639 65.8633 66.9639 66.127H65.3379C65.3379 65.7871 65.4258 65.4502 65.6016 65.1162C65.7773 64.7822 66.0293 64.4805 66.3574 64.2109C66.6914 63.9355 67.0898 63.7188 67.5527 63.5605C68.0215 63.3965 68.543 63.3145 69.1172 63.3145C69.8086 63.3145 70.418 63.4316 70.9453 63.666C71.4785 63.9004 71.8945 64.2549 72.1934 64.7295C72.498 65.1982 72.6504 65.7871 72.6504 66.4961V70.9258C72.6504 71.2422 72.6768 71.5791 72.7295 71.9365C72.7881 72.2939 72.873 72.6016 72.9844 72.8594V73H71.2881C71.2061 72.8125 71.1416 72.5635 71.0947 72.2529C71.0479 71.9365 71.0244 71.6436 71.0244 71.374ZM71.3057 67.2344L71.3232 68.377H69.6797C69.2168 68.377 68.8037 68.415 68.4404 68.4912C68.0771 68.5615 67.7725 68.6699 67.5264 68.8164C67.2803 68.9629 67.0928 69.1475 66.9639 69.3701C66.835 69.5869 66.7705 69.8418 66.7705 70.1348C66.7705 70.4336 66.8379 70.7061 66.9727 70.9521C67.1074 71.1982 67.3096 71.3945 67.5791 71.541C67.8545 71.6816 68.1914 71.752 68.5898 71.752C69.0879 71.752 69.5273 71.6465 69.9082 71.4355C70.2891 71.2246 70.5908 70.9668 70.8135 70.6621C71.042 70.3574 71.165 70.0615 71.1826 69.7744L71.877 70.5566C71.8359 70.8027 71.7246 71.0752 71.543 71.374C71.3613 71.6729 71.1182 71.96 70.8135 72.2354C70.5146 72.5049 70.1572 72.7305 69.7412 72.9121C69.3311 73.0879 68.8682 73.1758 68.3525 73.1758C67.708 73.1758 67.1426 73.0498 66.6562 72.7979C66.1758 72.5459 65.8008 72.209 65.5312 71.7871C65.2676 71.3594 65.1357 70.8818 65.1357 70.3545C65.1357 69.8447 65.2354 69.3965 65.4346 69.0098C65.6338 68.6172 65.9209 68.292 66.2959 68.0342C66.6709 67.7705 67.1221 67.5713 67.6494 67.4365C68.1768 67.3018 68.7656 67.2344 69.416 67.2344H71.3057ZM76.8252 65.3799V73H75.1904V63.4902H76.7373L76.8252 65.3799ZM76.4912 67.8848L75.7354 67.8584C75.7412 67.208 75.8262 66.6074 75.9902 66.0566C76.1543 65.5 76.3975 65.0166 76.7197 64.6064C77.042 64.1963 77.4434 63.8799 77.9238 63.6572C78.4043 63.4287 78.9609 63.3145 79.5938 63.3145C80.0391 63.3145 80.4492 63.3789 80.8242 63.5078C81.1992 63.6309 81.5244 63.8271 81.7998 64.0967C82.0752 64.3662 82.2891 64.7119 82.4414 65.1338C82.5938 65.5557 82.6699 66.0654 82.6699 66.6631V73H81.0439V66.7422C81.0439 66.2441 80.959 65.8457 80.7891 65.5469C80.625 65.248 80.3906 65.0312 80.0859 64.8965C79.7812 64.7559 79.4238 64.6855 79.0137 64.6855C78.5332 64.6855 78.1318 64.7705 77.8096 64.9404C77.4873 65.1104 77.2295 65.3447 77.0361 65.6436C76.8428 65.9424 76.7021 66.2852 76.6143 66.6719C76.5322 67.0527 76.4912 67.457 76.4912 67.8848ZM82.6523 66.9883L81.5625 67.3223C81.5684 66.8008 81.6533 66.2998 81.8174 65.8193C81.9873 65.3389 82.2305 64.9111 82.5469 64.5361C82.8691 64.1611 83.2646 63.8652 83.7334 63.6484C84.2021 63.4258 84.7383 63.3145 85.3418 63.3145C85.8516 63.3145 86.3027 63.3818 86.6953 63.5166C87.0938 63.6514 87.4277 63.8594 87.6973 64.1406C87.9727 64.416 88.1807 64.7705 88.3213 65.2041C88.4619 65.6377 88.5322 66.1533 88.5322 66.751V73H86.8975V66.7334C86.8975 66.2002 86.8125 65.7871 86.6426 65.4941C86.4785 65.1953 86.2441 64.9873 85.9395 64.8701C85.6406 64.7471 85.2832 64.6855 84.8672 64.6855C84.5098 64.6855 84.1934 64.7471 83.918 64.8701C83.6426 64.9932 83.4111 65.1631 83.2236 65.3799C83.0361 65.5908 82.8926 65.834 82.793 66.1094C82.6992 66.3848 82.6523 66.6777 82.6523 66.9883ZM94.9395 73.1758C94.2773 73.1758 93.6768 73.0645 93.1377 72.8418C92.6045 72.6133 92.1445 72.2939 91.7578 71.8838C91.377 71.4736 91.084 70.9873 90.8789 70.4248C90.6738 69.8623 90.5713 69.2471 90.5713 68.5791V68.21C90.5713 67.4365 90.6855 66.748 90.9141 66.1445C91.1426 65.5352 91.4531 65.0195 91.8457 64.5977C92.2383 64.1758 92.6836 63.8564 93.1816 63.6396C93.6797 63.4229 94.1953 63.3145 94.7285 63.3145C95.4082 63.3145 95.9941 63.4316 96.4863 63.666C96.9844 63.9004 97.3916 64.2285 97.708 64.6504C98.0244 65.0664 98.2588 65.5586 98.4111 66.127C98.5635 66.6895 98.6396 67.3047 98.6396 67.9727V68.7021H91.5381V67.375H97.0137V67.252C96.9902 66.8301 96.9023 66.4199 96.75 66.0215C96.6035 65.623 96.3691 65.2949 96.0469 65.0371C95.7246 64.7793 95.2852 64.6504 94.7285 64.6504C94.3594 64.6504 94.0195 64.7295 93.709 64.8877C93.3984 65.04 93.1318 65.2686 92.9092 65.5732C92.6865 65.8779 92.5137 66.25 92.3906 66.6895C92.2676 67.1289 92.2061 67.6357 92.2061 68.21V68.5791C92.2061 69.0303 92.2676 69.4551 92.3906 69.8535C92.5195 70.2461 92.7041 70.5918 92.9443 70.8906C93.1904 71.1895 93.4863 71.4238 93.832 71.5938C94.1836 71.7637 94.582 71.8486 95.0273 71.8486C95.6016 71.8486 96.0879 71.7314 96.4863 71.4971C96.8848 71.2627 97.2334 70.9492 97.5322 70.5566L98.5166 71.3389C98.3115 71.6494 98.0508 71.9453 97.7344 72.2266C97.418 72.5078 97.0283 72.7363 96.5654 72.9121C96.1084 73.0879 95.5664 73.1758 94.9395 73.1758Z" fill="white"/>
<path d="M39.1869 17.1366L56.3303 0L49.5171 1.86398C42.4272 3.80267 36.4526 7.16324 31.761 11.8525L26.4756 17.1362C28.2308 18.8894 30.5302 19.767 32.8313 19.767C35.1323 19.7678 37.4317 18.8902 39.1869 17.1366ZM33.4694 13.5601C37.4046 9.62571 42.3233 6.68668 48.1114 4.80259L37.4793 15.4295C36.2378 16.6703 34.5881 17.3538 32.8317 17.3538C31.9163 17.3538 31.0292 17.167 30.2136 16.814L33.4694 13.5601Z" fill="white"/>
<path d="M36.8584 43.1939L42.1438 48.4768C43.899 46.7224 44.7758 44.4241 44.7758 42.1246C44.7758 39.8247 43.899 37.5265 42.1438 35.7721L25 18.6367L26.8641 25.4465C28.8033 32.533 32.1668 38.5051 36.8584 43.1939ZM40.4354 37.4793C42.3959 39.4385 42.8571 42.3373 41.8185 44.739L38.5651 41.4872C34.63 37.554 31.6883 32.6377 29.8045 26.8524L40.4354 37.4793Z" fill="white"/>
<path d="M67.1674 30.2328C64.8676 30.2328 62.567 31.1104 60.8118 32.8648L43.668 50.0002L50.4811 48.137C57.5711 46.1983 63.5456 42.8369 68.2372 38.1476L73.5227 32.8648C72.6455 31.9884 71.6315 31.33 70.549 30.8912C69.468 30.4524 68.3177 30.2328 67.1674 30.2328ZM66.5292 36.4405C62.5941 40.3749 57.6754 43.3151 51.8873 45.198L62.5194 34.5711C63.7608 33.3303 65.4118 32.6468 67.167 32.6468C68.0824 32.6468 68.9695 32.8336 69.7851 33.1866L66.5292 36.4405Z" fill="white"/>
<path d="M57.8564 14.2295L75.0002 31.3649L73.1366 24.5547C71.1969 17.4682 67.8335 11.4965 63.1423 6.80726L57.8569 1.52441C54.346 5.03359 54.346 10.7208 57.8564 14.2295ZM58.1813 5.26263L61.4347 8.51443C65.3698 12.4489 68.3115 17.3639 70.1953 23.1492L59.564 12.5231C57.6039 10.5639 57.1427 7.66433 58.1813 5.26263Z" fill="white"/>
</svg>
